<?xml version="1.0" encoding="UTF-8" standalone="no"?>
<!-- Created with Inkscape (http://www.inkscape.org/) -->

<svg
   xmlns:dc="http://purl.org/dc/elements/1.1/"
   xmlns:cc="http://creativecommons.org/ns#"
   xmlns:rdf="http://www.w3.org/1999/02/22-rdf-syntax-ns#"
   xmlns:svg="http://www.w3.org/2000/svg"
   xmlns="http://www.w3.org/2000/svg"
   xmlns:sodipodi="http://sodipodi.sourceforge.net/DTD/sodipodi-0.dtd"
   xmlns:inkscape="http://www.inkscape.org/namespaces/inkscape"
   width="900"
   height="900"
   id="svg4328"
   version="1.1"
   inkscape:version="0.48.4 r9939"
   sodipodi:docname="because.svg">
  <defs
     id="defs4330" />
  <sodipodi:namedview
     id="base"
     pagecolor="#ffffff"
     bordercolor="#666666"
     borderopacity="1.0"
     inkscape:pageopacity="0.0"
     inkscape:pageshadow="2"
     inkscape:zoom="0.35"
     inkscape:cx="350"
     inkscape:cy="520"
     inkscape:document-units="px"
     inkscape:current-layer="layer1"
     showgrid="false"
     inkscape:window-width="1438"
     inkscape:window-height="875"
     inkscape:window-x="0"
     inkscape:window-y="0"
     inkscape:window-maximized="1" />
  <metadata
     id="metadata4333">
    <rdf:RDF>
      <cc:Work
         rdf:about="">
        <dc:format>image/svg+xml</dc:format>
        <dc:type
           rdf:resource="http://purl.org/dc/dcmitype/StillImage" />
        <dc:title />
      </cc:Work>
    </rdf:RDF>
  </metadata>
  <g
     inkscape:label="Capa 1"
     inkscape:groupmode="layer"
     id="layer1"
     transform="translate(0,-152.36218)">
    <g
       transform="matrix(4.3777439,0,0,4.3777439,-3347.9542,-3161.055)"
       id="g7684">
      <path
         inkscape:connector-curvature="0"
         style="fill:#000000"
         d="m 778.20814,780.29832 c 0.9919,-0.28948 2.03489,-0.83013 3.07788,-0.44274 2.03488,0.79182 4.10808,1.51978 6.01951,2.59256 0.83013,0.68965 1.61769,1.4389 2.30734,2.26903 0.33631,2.47762 -1.43464,4.45291 -2.0136,6.73045 -0.32354,1.46869 -1.76669,2.49465 -1.8348,4.04848 0.12771,0.96636 -0.80034,1.82629 -0.32354,2.77136 0.66836,1.18347 -0.0255,2.63088 0.5747,3.84415 0.19157,0.8429 0.30226,1.75392 0.89399,2.43505 0.43848,0.58748 1.22604,0.74925 1.70283,1.2899 0.99616,1.93697 1.07279,4.29539 2.51168,6.00248 0.61728,0.91527 0.67688,2.06469 1.30267,2.97996 0.85567,1.91569 1.97103,3.68238 3.02679,5.47886 0.71944,0.91102 1.17495,1.99658 1.51552,3.09916 0.42996,1.43889 1.06853,2.82245 1.25584,4.3252 0.56193,1.17921 1.29415,2.29031 1.64749,3.56317 0.44273,1.40484 0.93656,2.83948 1.90291,3.98038 0.22137,0.74499 0.54065,1.45592 0.86419,2.1626 0.22988,1.22178 0.57045,2.43079 1.1111,3.55466 1.06853,0.0511 2.05617,0.47254 3.11618,0.59599 1.17496,1.48572 3.13747,1.64749 4.68705,2.56702 1.26861,0.49382 2.06469,1.64749 3.03956,2.53722 1.88163,1.69006 2.80116,4.09532 3.93354,6.28771 0.51511,1.06427 1.16644,2.08597 1.38781,3.26519 1.2601,0.47253 2.57554,1.27286 2.81393,2.71601 0.0213,0.97062 0.2682,1.90292 0.60877,2.80968 0.58747,0.69816 1.30266,1.29841 1.76243,2.103 1.05576,1.25158 0.92804,3.14598 1.94123,4.38054 1.57938,0.78756 1.66452,3.05232 3.36309,3.63554 0.0596,0.59174 0.0256,1.19199 0.10217,1.78372 1.43038,1.76669 3.43121,2.87779 5.15107,4.32094 0.71094,0.88547 1.92846,1.16644 2.54574,2.14557 1.35375,2.11577 4.06126,2.67345 5.7726,4.43162 1.12387,1.5283 2.14983,3.17579 2.5798,5.0489 0.0851,1.45167 0.62579,2.81394 0.91527,4.22729 0.55768,2.6479 2.02637,5.01058 2.53722,7.66275 -0.0426,0.88973 0.53213,1.656 0.44699,2.55424 0.0128,2.31586 1.86035,4.12086 2.12003,6.38137 0.0298,0.98764 0.0426,1.97955 -0.0128,2.96719 -0.34482,0.78756 -0.74073,1.55383 -0.98764,2.37971 -0.95785,1.37929 -1.71135,2.8863 -2.72454,4.22728 -0.42145,0.63431 0.42997,1.24307 0.31503,1.91569 -0.12346,1.17921 0.52362,2.21368 0.51085,3.38438 0.73222,1.42612 0.034,3.07787 0.5449,4.54656 0.57897,1.43038 -0.17028,3.07787 0.62154,4.45291 0.10642,2.96293 -0.004,5.93863 0.0426,8.91007 -0.0383,0.92379 0.15751,1.91569 -0.298,2.77562 -0.25542,0.66836 -0.0128,1.43464 -0.26394,2.11152 -0.60025,1.14515 0.0128,2.5287 -0.65559,3.66534 -0.57896,1.06427 -0.35759,2.31586 -0.85567,3.40567 -0.71093,1.7156 -0.52362,3.6994 -1.47295,5.33838 -0.39165,0.57471 -0.24691,1.29415 -0.34908,1.94549 l -0.44274,-0.1788 c -0.0639,-1.80075 1.03447,-3.32478 1.24307,-5.0787 0.2086,-1.63472 0.98764,-3.13747 1.04298,-4.79773 0.25117,-0.65559 0.51937,-1.31118 0.73222,-1.97954 0.0809,-1.00468 -0.0937,-2.05618 0.41294,-2.97996 0.0681,-0.86845 0,-1.76669 0.43422,-2.55851 0.11069,-2.88204 -0.004,-5.7726 0.0553,-8.65465 -0.27245,-2.34991 -0.48956,-4.71259 -0.83864,-7.05398 -0.10217,-1.1409 0.17454,-2.37546 -0.45551,-3.40141 0.0894,-0.62154 0.20434,-1.39633 -0.38739,-1.81352 -0.0213,-0.52788 -0.0383,-1.0515 -0.0511,-1.57512 -0.0128,-0.19583 -0.0383,-0.58322 -0.0511,-0.77905 l -0.27246,-0.20008 c -0.12771,-0.59599 -0.28948,-1.18347 -0.46828,-1.76243 -0.27671,-1.2303 -0.61727,-2.43931 -0.85141,-3.67386 -0.45977,-2.73731 -1.44741,-5.34264 -2.39248,-7.93946 -0.48105,-1.33673 -0.72796,-2.73305 -0.67262,-4.15492 0.0468,-1.03872 -0.009,-2.07745 0.0937,-3.10767 0.34057,-0.40868 0.77479,-0.62579 1.31119,-0.65984 -0.298,0.45976 -0.63431,0.89824 -0.92379,1.36652 -0.0681,2.06469 -0.21286,4.21451 0.66836,6.14723 1.4091,3.54615 2.00934,7.32644 3.13747,10.95773 -0.37037,1.0515 0.88973,0.82587 0.83013,-0.0511 l 0.0681,-0.20859 c 1.19198,-1.39207 1.96677,-3.09065 2.66919,-4.76794 0.41719,-0.83438 0.29799,-1.80074 0.27245,-2.69899 -0.27245,-2.12002 -1.86035,-3.81009 -2.08597,-5.94288 -0.25117,-2.23497 -0.71945,-4.45291 -1.61769,-6.52185 -1.06002,-2.401 -1.66878,-4.97228 -2.20517,-7.53504 -0.21711,-1.77095 -1.02596,-3.38864 -1.88589,-4.92545 -1.0515,-1.57086 -2.82244,-2.37119 -4.32094,-3.42269 -1.56235,-0.94507 -2.54573,-2.56276 -4.04423,-3.58021 -1.97528,-1.51552 -4.12085,-2.83947 -5.79389,-4.70833 -0.15325,0.24691 -0.46402,0.73648 -0.61727,0.97913 -0.0937,-0.95784 0.31502,-1.84757 0.42145,-2.77988 -1.38355,-0.74073 -1.85183,-2.32436 -2.85225,-3.43972 l -0.26819,-0.31928 c -1.04725,0.57896 -0.76628,1.90292 -0.3576,2.80967 0.0128,0.25543 0.0383,0.77479 0.0511,1.03022 -0.54917,1.2601 -1.06002,2.53722 -1.4091,3.86969 -0.94507,1.40058 -1.26435,3.09915 -2.07745,4.56785 -0.51511,1.11961 -1.51127,1.89014 -2.23923,2.86076 -0.54065,0.73647 -1.15367,1.4176 -1.79649,2.06894 -1.59215,1.58363 -2.32011,3.8484 -4.04848,5.30858 -1.3197,1.07704 -2.85225,1.99231 -4.5636,2.23923 -1.39206,0.24265 -2.5883,-0.6258 -3.70792,-1.30267 -0.89398,-0.91953 -1.78797,-1.83906 -2.53296,-2.8863 -0.10643,-0.0341 -0.31928,-0.10217 -0.42571,-0.13623 -0.15325,1.43889 -0.85567,2.71602 -1.18772,4.10808 -0.40868,1.42187 -1.30267,2.61811 -2.1328,3.81435 -0.73648,1.78798 -1.11536,3.69515 -1.77946,5.50867 -1.15367,3.54189 -2.57128,7.07952 -2.80542,10.83427 -0.22137,1.11961 -0.56193,2.21368 -0.9025,3.3035 -0.74925,2.57127 -1.22178,5.21918 -2.0434,7.77343 -0.48531,1.21752 -0.22988,2.60533 -0.90676,3.77177 -0.9621,1.99658 -0.57896,4.2358 -0.97913,6.34731 -0.54065,2.00509 -1.06001,4.03146 -1.09407,6.12169 -0.50659,1.94549 -0.39165,3.97186 -0.35759,5.96843 -0.004,1.00467 0.5747,1.94549 0.40442,2.96719 -0.28948,1.69857 -0.91953,3.35883 -0.85142,5.10424 0.0213,2.45208 0,4.90416 0.0298,7.35624 l -0.0596,0.22562 -0.36185,0.16603 c -0.0553,-3.00976 0,-6.01952 -0.0298,-9.02502 -0.10643,-0.9025 0.51085,-1.66026 0.45551,-2.5585 -0.009,-0.72796 0.61302,-1.34098 0.38314,-2.08597 -0.67688,-1.18347 -0.33206,-2.5798 -0.40443,-3.86969 0.0979,-1.43038 -0.29799,-2.96293 0.3874,-4.28688 0.16602,-1.0515 -0.21711,-2.20517 0.34908,-3.16727 0.28097,-0.60025 -0.0639,-1.26436 -0.12346,-1.87738 -1.77946,1.12813 -3.85691,1.77095 -5.41075,3.26093 -2.83522,1.97103 -6.02377,3.37161 -9.1059,4.92119 -1.55383,0.4853 -2.95867,1.31118 -4.42311,2.00508 -1.30266,0.0426 -2.51168,-0.62579 -3.59723,-1.28564 -0.73222,-0.51085 -1.78798,-0.23414 -2.37971,-0.9919 -0.19157,-0.71093 -0.0341,-1.51552 0.31928,-2.14982 0.68539,-1.31119 1.3197,-2.6394 1.98806,-3.95483 0.80884,-1.29416 2.54573,-1.3495 3.5802,-2.37546 1.14942,-1.07278 2.55,-1.79223 3.93355,-2.51167 1.38355,-0.94933 2.86927,-1.78798 4.50825,-2.21369 0.68965,-0.53639 1.44741,-0.95784 2.23071,-1.33672 0.26394,-0.65985 -0.0511,-1.32821 -0.27671,-1.94123 -0.18731,-1.68581 -0.66836,-3.32053 -1.00467,-4.98505 -0.9621,0.2682 -1.91995,0.55768 -2.89056,0.76628 -0.9621,0.20008 -1.7454,-0.45125 -2.47762,-0.95784 -0.81311,-0.59174 -1.77946,-0.90251 -2.67771,-1.32396 -0.32779,-1.18772 0.37888,-2.25625 0.88973,-3.25666 0.52362,-0.94082 0.55342,-2.16686 1.39633,-2.91185 1.23881,-0.0724 2.36268,-0.68965 3.62703,-0.54916 -0.29374,-0.83439 -0.41294,-1.71561 -0.71093,-2.54574 -0.12346,-1.25158 -0.0255,-2.51168 -0.0894,-3.76326 -1.44741,0.60876 -2.83096,1.94123 -4.48271,1.61769 -1.26861,-1.07278 -2.33288,-2.35842 -3.51209,-3.52061 -0.30651,-0.79181 0.43422,-1.43889 0.63856,-2.15408 0.32354,-1.04724 0.89824,-2.00083 1.11961,-3.08213 1.34524,-1.0515 3.18856,-0.0724 4.55082,-1.11961 0.0596,-1.26861 0.0341,-2.53722 0.009,-3.80583 -0.60451,0.43422 -1.02596,1.12813 -1.71135,1.43889 -0.67688,-0.25117 -1.03873,-0.97487 -1.69006,-1.27287 -0.65985,-0.33205 -1.35375,-0.63856 -1.83055,-1.21752 -0.63004,-0.37888 -0.0979,-0.97062 0.1192,-1.40484 0.50659,-0.87696 1.3793,-1.46443 2.03489,-2.2222 0.56193,-0.59173 0.79181,-1.47295 1.53255,-1.8944 0.83439,-0.20859 1.66877,-0.49382 2.37119,-1.00893 -0.74924,-0.43422 0.009,-1.82628 0.70242,-1.19624 0.149,0.11495 0.44274,0.35334 0.59174,0.46828 -0.68965,1.09833 -1.74967,1.86886 -3.02253,2.13706 -0.60451,0.1192 -0.86419,0.74499 -1.22179,1.17495 -0.56619,0.84291 -1.31543,1.5283 -2.02211,2.24349 -0.46828,0.33205 -0.65133,0.88547 -0.50234,1.43889 0.92805,0.73222 1.93272,1.38355 2.99699,1.89866 0.74925,-0.55342 1.37504,-1.25158 2.07746,-1.85609 0.0128,1.82629 0.0809,3.65258 -0.0298,5.47461 -1.32821,1.00041 -3.15876,0.15325 -4.45717,1.15367 -0.5747,1.48998 -1.18347,2.96293 -1.82203,4.42311 1.24307,1.17921 2.35417,2.51168 3.72069,3.55466 1.43464,-0.54065 2.67345,-1.70283 4.26134,-1.76669 0.0979,1.26436 -0.0468,2.54574 0.12771,3.81009 0.22988,1.12387 0.65559,2.20517 0.80033,3.35032 -1.26435,0.1788 -2.53296,0.3278 -3.76326,0.68114 -0.73647,0.63856 -0.8429,1.70283 -1.27286,2.54148 -0.30226,0.88121 -1.03873,1.66877 -0.94508,2.6479 1.48147,0.66836 2.81819,1.60918 4.2656,2.33714 1.23881,-0.21285 2.40951,-0.74073 3.66535,-0.87696 0.68965,2.36694 1.03447,4.81902 1.507,7.23704 2.20517,-0.94081 4.07403,-2.52445 6.35157,-3.31201 1.01744,-0.35334 1.98806,-0.83439 2.86928,-1.45166 0.0979,0.61302 -0.33206,0.9621 -0.79182,1.26435 -1.55384,0.53639 -3.10767,1.1111 -4.49974,2.00083 -1.35801,0.91101 -2.90333,1.49423 -4.22728,2.45634 -3.16727,1.26435 -6.14723,2.94164 -9.0761,4.68279 -0.94507,0.6045 -1.75392,1.4176 -2.77562,1.89865 -0.78756,0.45126 -1.78372,0.72371 -2.252,1.57513 -0.62153,1.10258 -1.13664,2.26476 -1.75391,3.37586 -0.298,0.59174 -0.74499,1.20476 -0.50234,1.90292 0.58748,0.51936 1.39632,0.62579 2.103,0.91527 0.93656,0.28523 1.6858,0.94933 2.57979,1.33247 0.97062,-0.10217 1.77521,-0.77905 2.66494,-1.1409 3.70791,-1.54106 7.37326,-3.25241 10.74061,-5.45758 1.33673,-0.98764 2.71177,-1.91569 4.07829,-2.86502 0.85567,-0.38313 1.75817,-0.65985 2.58831,-1.09832 0.83438,-1.11536 0.6939,-2.61811 0.78756,-3.93781 0.0468,-2.05191 1.25584,-3.84414 1.39206,-5.88754 1.03022,-3.89949 2.00935,-7.82026 3.08213,-11.71124 0.28948,-3.35883 1.33247,-6.58145 2.39248,-9.76574 0.94082,-2.25626 1.37078,-4.68279 2.17963,-6.98588 0.9919,-0.94932 1.65174,-2.16259 2.04765,-3.46526 0.46828,-1.53681 1.29841,-2.98847 1.44741,-4.61042 -0.99616,-1.7454 -2.48613,-3.18856 -4.03997,-4.43588 -0.60025,0.42145 -1.11961,0.9621 -1.75817,1.33672 -1.05576,-0.0766 -2.26903,-0.79607 -3.17153,0.11494 -0.29374,0.70668 -0.21711,1.66027 -0.91527,2.1328 -1.03448,0.63856 -2.252,0.88122 -3.35884,1.35375 -0.83013,0.28949 -1.66026,0.81736 -2.57128,0.60877 -0.77053,-1.68155 -1.53681,-3.41844 -1.55384,-5.30007 0.51085,-1.03873 1.06002,-2.05617 1.53255,-3.11193 0.86845,-1.90291 2.89056,-2.73304 4.23154,-4.21877 0.38314,-0.58322 1.08556,-0.52787 1.69858,-0.57896 -1.56661,1.42612 -3.31627,2.63939 -4.83179,4.11234 -0.71093,1.08982 -1.22178,2.29457 -1.81352,3.4525 -0.43847,0.73221 -0.38313,1.66452 0.004,2.4095 0.42571,0.94508 0.74925,1.93698 1.1707,2.88631 1.59215,-0.68114 3.20984,-1.30267 4.85307,-1.86035 0.51085,-0.14048 0.73222,-0.72796 0.85568,-1.19198 0.23414,-1.08556 0.54916,-2.15834 0.94081,-3.20133 0.38314,-0.59173 0.77053,-1.20049 1.35375,-1.62195 -0.16602,0.64282 -0.42145,1.2601 -0.68539,1.86886 -0.17028,0.41294 -0.6641,0.77054 -0.56619,1.24307 0.49382,0.0724 0.99616,0.0894 1.50275,0.0511 0.25117,0.10642 0.74925,0.31502 1.00042,0.41719 0.5151,-0.29374 0.93656,-0.71945 1.36652,-1.11961 -0.26394,-0.76628 -1.00467,-1.19624 -1.52404,-1.77095 -1.507,-1.39206 -1.84331,-3.51635 -2.9161,-5.19364 -0.7237,-1.12387 -1.31118,-2.32437 -2.00083,-3.46526 -0.25116,-0.40443 -0.49382,-0.81311 -0.72796,-1.22604 -2.0434,0.60876 -3.79306,1.96251 -5.44055,3.29498 -2.48188,2.48613 -4.95524,4.97653 -7.45415,7.44563 -0.75776,0.6854 -1.14941,1.66452 -1.90292,2.35417 -0.67261,0.57045 -0.83438,1.64324 -1.74966,1.93272 0.22989,-0.88548 0.62154,-1.75392 1.32396,-2.36268 0.6939,-0.60451 1.0515,-1.48573 1.69431,-2.1328 2.48614,-2.48188 4.98079,-4.95525 7.4499,-7.45415 1.7156,-1.54107 3.65258,-2.83096 5.83646,-3.61852 -0.78756,-1.59215 -1.7752,-3.11193 -2.24348,-4.83605 -0.17029,-0.19583 -0.51085,-0.59173 -0.68114,-0.78756 0.13197,-0.37462 0.26394,-0.74925 0.40017,-1.12813 -0.30225,0.17454 -0.60876,0.34483 -0.91527,0.5066 -0.57045,-1.57087 -1.03447,-3.17579 -1.60918,-4.74239 -0.0894,-1.69007 -0.0341,-3.38864 -0.0341,-5.0787 -0.009,-0.74499 0.61728,-1.35376 0.43423,-2.12429 -0.70242,-3.45249 -2.18389,-6.6751 -3.28647,-10.0084 -0.24691,-2.19665 -0.98765,-4.2954 -1.69006,-6.38562 -0.44274,-2.32863 -1.53681,-4.46994 -2.00935,-6.79431 -0.60876,-1.35375 0.0851,-2.91184 -0.52788,-4.25708 -0.61727,-1.63898 -0.9919,-3.37587 -1.85608,-4.91267 -1.03873,-2.06469 -2.52871,-4.21451 -2.08597,-6.64531 0.57045,-0.67262 1.22604,-1.28564 2.05191,-1.63046 0.40868,-1.42612 -0.59173,-2.65216 -0.40017,-4.04849 0.2384,-0.80459 0.85142,-1.40909 1.27713,-2.10725 -0.60876,-1.5283 -1.00893,-3.13747 -1.83055,-4.57211 -0.57896,-1.68155 -1.48998,-3.38864 -1.09832,-5.22344 0.62579,-1.71135 0.65133,-3.61426 1.68154,-5.16384 -0.97913,-1.14516 -1.52829,-2.69473 -1.27286,-4.206 0.35759,-0.7237 0.59599,-1.59215 0.26819,-2.37119 -0.46828,-0.80459 -0.32354,-1.76669 -0.27245,-2.65217 0.48105,-0.45125 1.11535,-0.66836 1.6858,-0.97913 0.50234,-0.19156 0.5066,-0.87695 0.9621,-1.14089 m 1.72838,-0.12346 c -0.21711,0.51511 -0.54491,1.00042 -0.60876,1.56661 0.89824,0.43422 1.97954,0.49382 2.69047,1.25584 0.39165,1.54958 1.2303,2.95867 2.2818,4.15065 0.28522,1.06002 0.82162,2.0136 1.51126,2.86502 -1.38781,0.16603 -1.51977,-1.50701 -1.93697,-2.43931 -0.46828,-0.62579 -0.97913,-1.21752 -1.42186,-1.86034 -0.43423,-0.98339 -0.89825,-1.95826 -1.47295,-2.86502 -0.89399,-0.14048 -1.68155,-0.59174 -2.4904,-0.96636 -0.94507,-0.12345 -2.33288,0.39591 -2.54573,1.36652 -0.004,0.28949 -0.009,0.86419 -0.0128,1.14942 0.17879,-0.0639 0.52787,-0.19157 0.70667,-0.25543 0.79182,0.82162 2.12854,0.70242 2.85225,1.57512 -0.69391,0.18731 -1.14942,-0.5747 -1.83055,-0.44699 -0.30225,0.009 -0.91101,0.0255 -1.21752,0.0341 -0.0809,0.77478 -0.0341,1.57937 -0.34483,2.31159 -0.39591,0.9323 0.23414,1.86886 0.42571,2.77136 0.24691,-0.004 0.74073,-0.009 0.98764,-0.0128 0.16603,-0.46828 0.68539,-0.94507 0.43848,-1.47295 -0.43422,-1.00893 -0.31928,-2.12854 -0.26394,-3.19281 l 0.36186,0 c 0.0724,0.92379 -0.0639,1.89014 0.32353,2.76285 0.19583,0.53213 0.25969,1.20049 -0.13197,1.66877 -1.60917,2.18814 -2.05191,4.92119 -2.72027,7.48821 0.12345,1.47721 0.56193,2.95442 1.28989,4.25708 0.76628,1.36227 1.11962,2.90333 1.87312,4.27411 1.45167,-0.53639 2.93739,-1.24732 4.206,-2.11577 0.91953,-0.38313 1.87311,-0.52787 2.87779,-0.49808 0.0681,-0.6045 -0.17454,-1.14941 -0.40443,-1.69006 -0.0851,-0.83013 0.004,-1.66452 -0.0766,-2.49465 -0.42997,-0.85141 -0.5662,-1.88163 -0.26394,-2.79264 0.30225,-0.53214 0.38313,-1.10259 0.24691,-1.71135 0.0128,-0.13197 0.0298,-0.39165 0.0383,-0.52362 0.74925,-0.63005 0.88122,-1.77946 1.66026,-2.43931 0.017,-0.21711 0.0468,-0.65559 0.0639,-0.8727 l 0.004,-0.22988 0.30651,0.0553 c 0.28948,-2.02212 1.89014,-3.64832 1.89866,-5.75558 -1.3793,-1.64749 -3.18856,-2.88204 -5.2277,-3.5802 -1.36653,-0.39591 -2.61385,-1.33673 -4.07403,-1.33673 m -1.29841,0.47254 c -0.12771,0.12771 -0.37888,0.38313 -0.50659,0.50659 0.10217,1.0515 1.55809,-0.40868 0.50659,-0.50659 m 5.56401,23.50335 c -1.44315,0.66836 -2.83096,1.44741 -4.27411,2.12003 -1.24307,0.53639 -2.30734,1.5666 -2.69048,2.8863 0.0639,0.87696 0.31077,1.72412 0.55768,2.56276 1.20901,-0.36611 2.27328,-1.07278 3.41418,-1.60917 2.0136,-1.00468 4.18897,-1.91995 5.71726,-3.63981 -0.3278,-0.80033 -0.65133,-1.59641 -0.92379,-2.41802 -0.59173,-0.0681 -1.23881,-0.149 -1.80074,0.0979 m 2.92461,2.95016 c -1.12387,1.31969 -2.78839,1.94123 -4.16342,2.91184 -2.45634,0.67262 -4.41886,2.46485 -6.47503,3.89949 -0.45976,0.42997 -1.13664,0.85993 -0.97913,1.59215 0.45125,2.7969 2.62237,4.96802 3.10342,7.73938 1.64323,-1.53255 3.22687,-3.50784 5.5342,-3.95058 -0.74924,1.16219 -2.26476,1.48573 -3.19281,2.48614 -0.83013,0.84716 -1.95826,1.72412 -2.01785,2.99699 0.16602,0.13622 0.50233,0.40868 0.67261,0.5449 0.66411,-1.46869 2.02212,-2.86501 3.6909,-3.04807 -1.06002,1.25158 -2.85651,1.93272 -3.42696,3.63129 -0.54065,2.80968 0.63857,5.49164 1.46018,8.114 0.52788,2.69048 1.84758,5.15959 2.24774,7.88412 0.31077,2.62662 1.89015,4.87436 2.32863,7.47118 0.45976,0.88122 0.77904,1.80926 0.7535,2.82244 0.80033,-0.71944 0.71519,-2.03914 1.36652,-2.90758 0.73222,-1.50701 2.48614,-2.06469 3.24816,-3.55467 0.80459,-1.67729 2.86927,-1.74966 4.26985,-2.63087 0.85142,-0.28097 1.73689,-0.42997 2.58405,-0.72371 1.04724,-0.16177 2.16686,0.149 3.16301,-0.32779 0.65134,-0.22137 1.46444,-0.0341 1.88589,-0.71519 -0.0937,-0.97487 -0.73647,-1.84332 -0.82587,-2.83948 -0.10217,-0.9025 -0.69391,-1.64323 -0.90676,-2.51593 -0.2682,-1.06002 -1.13664,-1.78798 -1.54107,-2.77562 -0.11494,-0.77053 -0.22136,-1.54106 -0.65559,-2.20517 -1.95825,-3.40141 -2.26051,-7.50949 -4.41459,-10.8215 -0.77905,-1.14942 -1.69432,-2.24349 -2.00934,-3.63129 -1.14942,-1.31119 -1.22604,-3.16727 -2.30734,-4.52103 -1.20901,-1.4772 -1.25159,-3.52486 -2.10726,-5.15532 -0.31077,-0.68965 -1.00893,-0.16177 -1.28564,0.22988 m 16.82399,34.3504 c 0.37037,0.38314 0.77053,0.74073 1.1409,1.13238 -0.78756,0.10217 -1.61343,0.2086 -2.00934,0.99616 0.6939,0.0383 1.39632,0 2.09448,0.0724 0.3278,0.28522 0.63431,0.60025 0.91528,0.94082 -0.42997,0.38313 -0.10217,0.75776 0.0979,1.13238 -0.21711,0.004 -0.65559,0.017 -0.8727,0.0213 0.11068,0.2086 0.33631,0.63431 0.44699,0.84291 0.0298,0.73647 -1.08556,0.6641 -1.35801,1.23881 0.34057,0.0255 1.0217,0.0681 1.36227,0.0936 0.13197,0.98339 -0.74925,1.78372 -0.40868,2.78839 0.19157,0.16603 0.58322,0.49808 0.77479,0.66411 0.017,-0.54065 0.0596,-1.07704 0.13622,-1.60492 0.45551,-0.57897 0.8727,-1.18347 1.21753,-1.8348 -0.22137,-0.0468 -0.65985,-0.13197 -0.87696,-0.1788 0,-0.28097 0,-0.8429 0,-1.12813 0.62579,-0.0809 1.29415,0.0383 1.90292,-0.17454 1.03447,-0.57045 2.29882,-0.0128 3.32478,-0.62153 0.47253,0.0255 1.03021,1.9242 0.59173,0.17028 l 0.73648,0.0298 c -1.32396,-1.47721 -3.3035,-2.01786 -5.1383,-2.54999 -0.55768,-0.45551 -1.0217,-1.00893 -1.56661,-1.48147 -0.91101,0.0681 -1.64323,-0.51936 -2.51168,-0.54916 m -15.57241,8.18637 -0.004,0.27671 0.27671,0 0,-0.27671 -0.27246,0 m -0.42996,0.85567 0.004,0.27245 0.27245,0 0,-0.27245 -0.27671,0 m -0.40868,1.2899 0,0.25117 0.25117,0 0,-0.25117 -0.25117,0 m 0.43848,1.19198 c -0.0383,0.21711 -0.12346,0.64708 -0.16177,0.86419 -0.19583,-0.1192 -0.58322,-0.3576 -0.77905,-0.47679 0.004,0.75776 -0.0426,1.507 -0.39591,2.19239 -0.0809,1.53681 -0.0894,3.08639 0.004,4.62319 0.40442,0.96211 0.40442,2.03489 0.87696,2.98422 0.52788,-0.31928 1.13664,-0.40017 1.73263,-0.49808 -0.39165,-0.65985 -1.07278,-0.81736 -1.78797,-0.83864 0.017,-1.40484 -0.25117,-2.89056 0.32354,-4.21877 0.30651,-1.17496 1.21752,-2.03489 1.91568,-2.97996 -0.86418,0.12771 -1.17069,1.16644 -1.97528,1.46018 0.48531,-0.98339 0.70242,-2.03914 0.56619,-3.12896 l -0.31928,0.017 m 12.8053,2.67345 c -0.92378,0.37888 -0.31076,1.52403 -0.8429,2.17537 -0.54065,0.87696 -1.14515,1.71986 -1.57086,2.66919 -1.20901,0.52362 -2.45634,1.24732 -2.97996,2.52445 -0.45125,0.47253 0.25542,0.95359 0.20008,1.46869 -1.30266,0.42997 -1.19198,-1.63472 -2.15834,-1.70283 -1.45166,0.7833 -3.1545,0.22562 -4.7211,0.42996 0.35333,2.3712 1.0813,4.93396 2.53722,6.81985 0.27245,1.00467 0.67687,2.06894 1.42612,2.80968 1.2601,0.52362 2.64791,0.7535 4.00166,0.48956 0.8429,-0.28522 0.44699,-0.83439 0.017,-1.3197 1.1409,0.0128 1.5666,1.17496 2.17111,1.94123 0.25542,1.1409 -0.11494,2.36268 0.2086,3.49081 0.58322,1.0515 0.0894,2.29883 0.41293,3.41418 0.24691,0.64282 0.30226,1.40058 0.85993,1.88589 0.68965,-0.004 1.54107,0.2682 2.09449,-0.28523 0.6343,-0.54916 1.54106,-0.65984 1.9838,-1.44315 0.34482,-0.0213 1.04298,-0.0681 1.38781,-0.0894 -0.149,-0.149 -0.447,-0.447 -0.59599,-0.596 -0.78756,0.30651 -1.43038,0.85993 -2.14557,1.2899 0.0383,-1.45167 1.75817,-2.04766 2.9757,-1.82203 0.0681,0.21285 0.20859,0.6343 0.27671,0.8429 1.63897,0.0851 2.92036,-1.32395 4.54656,-1.29841 0.51085,0.11494 0.99616,-0.55768 1.45592,-0.13197 1.06002,0.3874 1.17922,1.74966 1.1111,2.72879 -0.8131,-0.8727 -1.77094,-0.0809 -2.45633,0.51511 -2.03489,1.954 -5.05742,1.80926 -7.56484,2.75859 -0.71945,0.38313 -1.31118,-0.43423 -2.03063,-0.3576 0.45551,0.66411 1.03447,1.24307 1.66026,1.74966 l 0.27246,0.31928 c -0.30226,0.5662 0.63856,1.4985 1.20049,1.29841 0.57471,2.10726 2.67771,3.15876 4.206,4.49974 0.43422,0.43848 1.13239,0.2682 1.68155,0.23414 1.93272,-0.48531 3.70792,-1.57512 5.03613,-3.05658 1.33672,-1.83481 2.63088,-3.73772 3.48229,-5.84924 l 0.38314,-0.004 c 0.004,-1.17922 0.85567,-2.03915 1.50701,-2.93313 0.19157,-0.0213 0.57896,-0.0639 0.77053,-0.0894 -0.43848,0.6045 -0.99616,1.15792 -1.09833,1.94123 1.66878,-0.95359 2.40525,-2.80116 3.08639,-4.49122 0.37888,-1.25159 1.17069,-2.33289 1.49423,-3.60575 0.22988,-0.88122 0.60025,-1.71561 1.01745,-2.52445 0.0213,-0.67688 -0.33631,-1.3197 -0.43423,-1.9838 -1.10258,0.6641 -1.44741,2.09874 -2.52445,2.71601 0.33206,-2.08171 2.31586,-3.35032 3.09064,-5.23621 l -0.51936,-0.10642 c 0.14474,-0.57897 0.149,-1.22179 -0.20434,-1.72838 -0.54491,-1.1409 -1.25158,-2.1924 -1.97954,-3.21835 -0.17029,-0.0128 -0.51085,-0.0383 -0.68114,-0.0511 -0.0937,0.79182 0.0766,1.64749 -0.35759,2.36694 -0.33205,0.52362 0.13197,1.03873 0.298,1.52403 0.20433,0.93656 -0.39591,1.80926 -0.97062,2.48614 -0.63431,0.28097 -1.37504,0.19157 -2.03489,0.0851 0,-0.22137 0.004,-0.6641 0.004,-0.88547 0.23414,0.0979 0.69816,0.29374 0.9323,0.39165 0.77905,0.25543 1.44741,-0.59599 1.24307,-1.32821 l 0.33631,0 0.17028,-0.36611 -0.19156,-0.35759 -0.34057,0.0128 c -0.0937,-1.05576 0.17454,-2.05192 0.44699,-3.04807 l -0.18731,-0.31503 c 0.18306,-0.65559 0.85993,-1.31969 0.48957,-2.02637 -0.51085,-0.86419 -0.0979,-1.96677 -0.71519,-2.78839 -0.57471,-1.24732 -1.99658,-1.61343 -3.19707,-1.96251 -0.85993,0.20434 -2.26051,0.43422 -1.94549,1.65175 -0.0298,1.10258 0.0639,2.20942 0,3.31626 -0.0937,0.72371 -0.43848,1.39207 -0.47679,2.1328 0.24265,-0.11494 0.73221,-0.33631 0.97487,-0.45125 -0.004,0.61302 -0.22988,1.1707 -0.51085,1.70709 -0.22988,0.14474 -0.68539,0.42997 -0.91527,0.57471 -2.05618,-0.31503 -2.86502,-2.61385 -4.58488,-3.55041 -1.2899,-0.6641 -2.66068,-1.19624 -3.79732,-2.12428 -1.18773,-1.2005 -1.35375,-3.12896 -2.74156,-4.12937 -0.65985,-0.19157 -1.29415,-0.5066 -1.9838,-0.57471 -0.69391,0.0724 -1.32821,0.38314 -1.99232,0.57045 m -12.85639,8.05014 -0.15751,0.34057 0.15751,0.33631 0.32354,0 0.16177,-0.33631 -0.15751,-0.33631 -0.3278,-0.004 m 5.14682,9.79129 0,0.23414 0.22988,-0.0128 0,-0.22563 -0.22988,0.004 m 0.22988,0.22137 c 0.38739,1.77095 1.91143,3.02679 2.37119,4.79348 0.25969,0.68113 0.54917,1.34523 0.85568,2.00508 0.69816,0.85142 1.54106,1.57086 2.31159,2.35842 0.40868,0.37889 0.81311,0.92379 1.46018,0.79182 -0.68113,-0.74499 -1.0813,-1.65175 -1.31969,-2.62662 -0.10643,-1.25584 0.16177,-2.58405 -0.53214,-3.72069 -0.009,-1.1409 0.48957,-2.60533 -0.45976,-3.48229 -0.76628,0.91953 -2.01786,1.09407 -3.11193,0.74073 -0.48105,-0.37037 -0.93656,-0.80884 -1.57512,-0.85993 m 26.93456,9.25064 -0.009,0.25543 0.25542,-0.017 0,-0.23414 -0.24691,-0.004 m -0.33205,0.28097 -0.1788,0.34908 0.13623,0.33205 0.31928,-0.009 0.17454,-0.34908 -0.12771,-0.34908 -0.32354,0.0255 z"
         id="path7255" />
      <path
         inkscape:connector-curvature="0"
         style="fill:#ffffff"
         d="m 779.93652,780.17486 c 1.46018,0 2.7075,0.94082 4.07403,1.33673 2.03914,0.69816 3.8484,1.93271 5.2277,3.5802 -0.009,2.10726 -1.60918,3.73346 -1.89866,5.75558 l -0.30651,-0.0553 c -0.27246,-1.30693 -0.32354,-2.6692 -0.71945,-3.95058 -0.93656,-1.73263 -2.32437,-3.32478 -4.2954,-3.84414 -0.71093,-0.76202 -1.79223,-0.82162 -2.69047,-1.25584 0.0639,-0.56619 0.39165,-1.0515 0.60876,-1.56661 z"
         id="path7257" />
      <path
         inkscape:connector-curvature="0"
         style="fill:#ffffff"
         d="m 778.63811,780.6474 c 1.0515,0.0979 -0.40442,1.55809 -0.50659,0.50659 0.12771,-0.12346 0.37888,-0.37888 0.50659,-0.50659 z"
         id="path7259" />
      <path
         inkscape:connector-curvature="0"
         style="fill:#ffffff"
         d="m 775.94338,783.24847 c 0.21285,-0.97061 1.60066,-1.48997 2.54573,-1.36652 0.80885,0.37462 1.59641,0.82588 2.4904,0.96636 0.5747,0.90676 1.03872,1.88163 1.47295,2.86502 -0.149,0.95358 0.29373,2.60107 -0.88548,2.97144 -1.18772,-1.2303 -0.82161,-3.00124 -1.03447,-4.53805 -0.58748,-0.60025 -1.30692,-1.07704 -2.08171,-1.38781 -0.86845,-0.22988 -1.69858,0.25117 -2.50742,0.48956 z"
         id="path7261" />
      <path
         inkscape:connector-curvature="0"
         style="fill:#b3b3b3"
         d="m 775.94338,783.24847 c 0.80884,-0.23839 1.63897,-0.71944 2.50742,-0.48956 0.77479,0.31077 1.49423,0.78756 2.08171,1.38781 0.21286,1.53681 -0.15325,3.30775 1.03447,4.53805 1.17921,-0.37037 0.73648,-2.01786 0.88548,-2.97144 0.44273,0.64282 0.95358,1.23455 1.42186,1.86034 0.4172,0.9323 0.54916,2.60534 1.93697,2.43931 -0.68964,-0.85142 -1.22604,-1.805 -1.51126,-2.86502 -1.0515,-1.19198 -1.89015,-2.60107 -2.2818,-4.15065 1.97103,0.51936 3.35884,2.11151 4.2954,3.84414 0.39591,1.28138 0.44699,2.64365 0.71945,3.95058 l -0.004,0.22988 c -0.7833,0.97061 -1.8944,1.92846 -1.72412,3.31201 -0.009,0.13197 -0.0255,0.39165 -0.0383,0.52362 -0.72796,1.40909 -1.72412,2.64365 -2.83522,3.76326 -0.68965,0.59599 -0.54065,1.59641 -0.57045,2.41377 -0.0766,1.11109 0.51085,2.07745 1.02596,3.00975 -1.26861,0.86845 -2.75433,1.57938 -4.206,2.11577 -0.7535,-1.37078 -1.10684,-2.91184 -1.87312,-4.27411 -0.72796,-1.30266 -1.16644,-2.77987 -1.28989,-4.25708 0.66836,-2.56702 1.1111,-5.30007 2.72027,-7.48821 0.39166,-0.46828 0.3278,-1.13664 0.13197,-1.66877 -0.38739,-0.87271 -0.25116,-1.83906 -0.32353,-2.76285 l -0.36186,0 c -0.0553,1.06427 -0.17028,2.18388 0.26394,3.19281 0.24691,0.52788 -0.27245,1.00467 -0.43848,1.47295 -0.24691,0.004 -0.74073,0.009 -0.98764,0.0128 -0.19157,-0.9025 -0.82162,-1.83906 -0.42571,-2.77136 0.31077,-0.73222 0.26394,-1.53681 0.34483,-2.31159 0.30651,-0.009 0.91527,-0.0256 1.21752,-0.0341 0.68113,-0.12771 1.13664,0.6343 1.83055,0.44699 -0.72371,-0.8727 -2.06043,-0.7535 -2.85225,-1.57512 -0.1788,0.0639 -0.52788,0.19157 -0.70667,0.25543 0.004,-0.28523 0.009,-0.85993 0.0128,-1.14942 z"
         id="path7263" />
      <path
         inkscape:connector-curvature="0"
         style="fill:#f0f0f0"
         d="m 785.3047,794.33392 c -0.17028,-1.38355 0.94082,-2.3414 1.72412,-3.31201 -0.017,0.21711 -0.0468,0.65559 -0.0639,0.8727 -0.77904,0.65985 -0.91101,1.80926 -1.66026,2.43931 z"
         id="path7265" />
      <path
         inkscape:connector-curvature="0"
         style="fill:#ffffff"
         d="m 782.43117,798.6208 c 1.1111,-1.11961 2.10726,-2.35417 2.83522,-3.76326 0.13622,0.60876 0.0553,1.17921 -0.24691,1.71135 -0.30226,0.91101 -0.16603,1.94123 0.26394,2.79264 0.0809,0.83013 -0.009,1.66452 0.0766,2.49465 0.22989,0.54065 0.47254,1.08556 0.40443,1.69006 -1.00468,-0.0298 -1.95826,0.11495 -2.87779,0.49808 -0.51511,-0.9323 -1.10259,-1.89866 -1.02596,-3.00975 0.0298,-0.81736 -0.1192,-1.81778 0.57045,-2.41377 z"
         id="path7267" />
      <path
         inkscape:connector-curvature="0"
         style="fill:#575757"
         d="m 784.20212,804.15075 c 0.56193,-0.24691 1.20901,-0.16603 1.80074,-0.0979 0.27246,0.82161 0.59599,1.61769 0.92379,2.41802 -1.52829,1.71986 -3.70366,2.63513 -5.71726,3.63981 -1.1409,0.53639 -2.20517,1.24306 -3.41418,1.60917 -0.24691,-0.83864 -0.49382,-1.6858 -0.55768,-2.56276 0.38314,-1.3197 1.44741,-2.34991 2.69048,-2.8863 1.44315,-0.67262 2.83096,-1.45167 4.27411,-2.12003 z"
         id="path7269" />
      <path
         inkscape:connector-curvature="0"
         style="fill:#ffffff"
         d="m 787.12673,807.10091 c 0.27671,-0.39165 0.97487,-0.91953 1.28564,-0.22988 0.85567,1.63046 0.89825,3.67812 2.10726,5.15532 1.0813,1.35376 1.15792,3.20984 2.30734,4.52103 0.31502,1.3878 1.23029,2.48187 2.00934,3.63129 2.15408,3.31201 2.45634,7.42009 4.41459,10.8215 0.43423,0.66411 0.54065,1.43464 0.65559,2.20517 0.40443,0.98764 1.27287,1.7156 1.54107,2.77562 0.21285,0.8727 0.80459,1.61343 0.90676,2.51593 0.0894,0.99616 0.73222,1.86461 0.82587,2.83948 -0.42145,0.68113 -1.23455,0.49382 -1.88589,0.71519 -0.99615,0.47679 -2.11577,0.16602 -3.16301,0.32779 -0.84716,0.29374 -1.73263,0.44274 -2.58405,0.72371 -0.23839,-1.12387 -0.6045,-2.21794 -0.83439,-3.34181 -0.27245,-1.41335 0.85568,-2.67771 0.74925,-4.06552 -0.72796,-0.86844 -2.00083,-1.31969 -2.47336,-2.34991 0.28096,-1.06852 1.23455,-2.02211 0.77904,-3.20132 -0.6939,-0.34057 -1.43889,-0.56194 -2.12003,-0.92379 -0.6641,-0.89399 -0.88547,-2.0136 -1.36226,-3.00124 -1.12813,-1.24733 -2.65642,-2.47763 -2.70751,-4.29966 1.13664,-0.83013 2.82671,-1.07704 3.3333,-2.56702 -1.58364,-0.24265 -3.1247,0.18306 -4.60191,0.70242 -0.15751,-0.55768 -0.23839,-1.1409 -0.44699,-1.68155 -0.60025,-0.94507 -1.57938,-1.75817 -1.59215,-2.96718 0.0724,-0.85993 0.37888,-1.67729 0.50234,-2.53297 0.12771,-0.5151 -0.52363,-0.84716 -0.4172,-1.36652 0,-0.23414 -0.004,-0.70242 -0.004,-0.9323 -0.4555,-0.2086 -0.91953,-0.39591 -1.3878,-0.56194 1.37503,-0.97061 3.03955,-1.59215 4.16342,-2.91184 z"
         id="path7271" />
      <path
         inkscape:connector-curvature="0"
         style="fill:#c5c5c5"
         d="m 776.48828,813.91224 c 2.05617,-1.43464 4.01869,-3.22687 6.47503,-3.89949 0.46827,0.16603 0.9323,0.35334 1.3878,0.56194 0,0.22988 0.004,0.69816 0.004,0.9323 -0.10643,0.51936 0.54491,0.85142 0.4172,1.36652 -0.12346,0.85568 -0.42997,1.67304 -0.50234,2.53297 0.0128,1.20901 0.9919,2.02211 1.59215,2.96718 0.2086,0.54065 0.28948,1.12387 0.44699,1.68155 1.47721,-0.51936 3.01827,-0.94507 4.60191,-0.70242 -0.50659,1.48998 -2.19666,1.73689 -3.3333,2.56702 0.0511,1.82203 1.57938,3.05233 2.70751,4.29966 0.47679,0.98764 0.69816,2.10725 1.36226,3.00124 0.68114,0.36185 1.42613,0.58322 2.12003,0.92379 0.45551,1.17921 -0.49808,2.1328 -0.77904,3.20132 0.47253,1.03022 1.7454,1.48147 2.47336,2.34991 0.10643,1.38781 -1.0217,2.65217 -0.74925,4.06552 0.22989,1.12387 0.596,2.21794 0.83439,3.34181 -1.40058,0.88121 -3.46526,0.95358 -4.26985,2.63087 -0.76202,1.48998 -2.51594,2.04766 -3.24816,3.55467 -0.65133,0.86844 -0.56619,2.18814 -1.36652,2.90758 0.0255,-1.01318 -0.29374,-1.94122 -0.7535,-2.82244 -0.43848,-2.59682 -2.01786,-4.84456 -2.32863,-7.47118 -0.40016,-2.72453 -1.71986,-5.19364 -2.24774,-7.88412 -0.82161,-2.62236 -2.00083,-5.30432 -1.46018,-8.114 0.57045,-1.69857 2.36694,-2.37971 3.42696,-3.63129 -1.66878,0.18306 -3.02679,1.57938 -3.6909,3.04807 -0.17028,-0.13622 -0.50659,-0.40868 -0.67261,-0.5449 0.0596,-1.27287 1.18772,-2.14983 2.01785,-2.99699 0.92805,-1.00041 2.44357,-1.32395 3.19281,-2.48614 -2.30733,0.44274 -3.89097,2.41803 -5.5342,3.95058 -0.48105,-2.77136 -2.65217,-4.94248 -3.10342,-7.73938 -0.15751,-0.73222 0.51937,-1.16218 0.97913,-1.59215 z"
         id="path7273" />
      <path
         inkscape:connector-curvature="0"
         style="fill:#ffffff"
         d="m 803.95072,841.45131 c 0.86845,0.0298 1.60067,0.61728 2.51168,0.54916 0.54491,0.47254 1.00893,1.02596 1.56661,1.48147 1.8348,0.53213 3.81434,1.07278 5.1383,2.54999 l -0.73648,-0.0298 c 0.43848,1.75392 -0.1192,-0.14474 -0.59173,-0.17028 -1.02596,0.60876 -2.29031,0.0511 -3.32478,0.62153 -0.60877,0.21285 -1.27713,0.0937 -1.90292,0.17454 0,0.28523 0,0.84716 0,1.12813 0.21711,0.0468 0.65559,0.13197 0.87696,0.1788 -0.34483,0.65133 -0.76202,1.25583 -1.21753,1.8348 -0.0766,0.52788 -0.1192,1.06427 -0.13622,1.60492 -0.19157,-0.16603 -0.58322,-0.49808 -0.77479,-0.66411 -0.34057,-1.00467 0.54065,-1.805 0.40868,-2.78839 -0.34057,-0.0255 -1.0217,-0.0681 -1.36227,-0.0936 0.27245,-0.57471 1.38781,-0.50234 1.35801,-1.23881 -0.11068,-0.2086 -0.33631,-0.63431 -0.44699,-0.84291 0.21711,-0.004 0.65559,-0.017 0.8727,-0.0213 -0.20008,-0.37462 -0.52788,-0.74925 -0.0979,-1.13238 -0.28097,-0.34057 -0.58748,-0.6556 -0.91528,-0.94082 -0.69816,-0.0724 -1.40058,-0.0341 -2.09448,-0.0724 0.39591,-0.78756 1.22178,-0.89399 2.00934,-0.99616 -0.37037,-0.39165 -0.77053,-0.74924 -1.1409,-1.13238 z"
         id="path7275" />
      <path
         inkscape:connector-curvature="0"
         style="fill:#ffffff"
         d="m 788.37831,849.63768 0.27246,0 0,0.27671 -0.27671,0 0.004,-0.27671 z"
         id="path7277" />
      <path
         inkscape:connector-curvature="0"
         style="fill:#ffffff"
         d="m 787.94835,850.49335 0.27671,0 0,0.27245 -0.27245,0 -0.004,-0.27245 z"
         id="path7279" />
      <path
         inkscape:connector-curvature="0"
         style="fill:#c5c5c5"
         d="m 787.53967,851.78325 0.25117,0 0,0.25117 -0.25117,0 0,-0.25117 z"
         id="path7281" />
      <path
         inkscape:connector-curvature="0"
         style="fill:#ffffff"
         d="m 787.97815,852.97523 0.31928,-0.017 c 0.13623,1.08982 -0.0809,2.14557 -0.56619,3.12896 0.80459,-0.29374 1.1111,-1.33247 1.97528,-1.46018 -0.69816,0.94507 -1.60917,1.805 -1.91568,2.97996 -0.57471,1.32821 -0.30651,2.81393 -0.32354,4.21877 0.71519,0.0213 1.39632,0.17879 1.78797,0.83864 -0.59599,0.0979 -1.20475,0.1788 -1.73263,0.49808 -0.47254,-0.94933 -0.47254,-2.02211 -0.87696,-2.98422 -0.0936,-1.5368 -0.0851,-3.08638 -0.004,-4.62319 0.35334,-0.68539 0.40017,-1.43463 0.39591,-2.19239 0.19583,0.11919 0.58322,0.35759 0.77905,0.47679 0.0383,-0.21711 0.12346,-0.64708 0.16177,-0.86419 z"
         id="path7283" />
      <path
         inkscape:connector-curvature="0"
         style="fill:#ffffff"
         d="m 800.78345,855.64868 c 0.66411,-0.18731 1.29841,-0.49808 1.99232,-0.57045 0.68965,0.0681 1.32395,0.38314 1.9838,0.57471 1.38781,1.00041 1.55383,2.92887 2.74156,4.12937 0.22988,0.74499 0.38314,1.51552 0.71519,2.22645 0.7535,0.94082 2.03063,1.36652 2.61385,2.46911 0.54916,0.98338 1.23455,1.88163 2.05617,2.65642 1.0217,0.92378 1.1409,2.44356 2.12854,3.39289 1.25158,1.29841 2.51594,2.59682 3.63129,4.01869 0.54065,1.61343 0.91953,3.38012 0.56194,5.08295 -0.18306,0.98765 -0.2682,1.99232 -0.30226,2.99699 -0.91101,1.72412 -1.90291,3.50784 -3.52486,4.67002 -1.37078,0.98764 -2.90333,1.94549 -4.63171,2.04766 -0.82587,-0.1192 -1.62194,-0.39591 -2.44782,-0.51085 -0.73647,-0.15751 -1.5964,-0.0809 -2.1328,-0.69816 1.70709,-0.74074 3.06085,-2.0732 3.91652,-3.71644 -0.67688,0.0298 -1.36227,0.10643 -1.97954,0.40443 -0.99616,0.41293 -2.0136,0.77053 -3.03956,1.09407 -0.80885,-0.19583 -1.56661,-0.0639 -2.02212,0.68964 -0.62579,-0.50659 -1.20475,-1.08555 -1.66026,-1.74966 0.71945,-0.0766 1.31118,0.74073 2.03063,0.3576 2.50742,-0.94933 5.52995,-0.80459 7.56484,-2.75859 0.68539,-0.59599 1.64323,-1.38781 2.45633,-0.51511 0.0681,-0.97913 -0.0511,-2.34139 -1.1111,-2.72879 -0.45976,-0.42571 -0.94507,0.24691 -1.45592,0.13197 -1.6262,-0.0255 -2.90759,1.38355 -4.54656,1.29841 -0.0681,-0.2086 -0.2086,-0.63005 -0.27671,-0.8429 -1.21753,-0.22563 -2.93739,0.37036 -2.9757,1.82203 0.71519,-0.42997 1.35801,-0.98339 2.14557,-1.2899 0.14899,0.149 0.44699,0.447 0.59599,0.596 -0.34483,0.0213 -1.04299,0.0681 -1.38781,0.0894 -0.44274,0.78331 -1.3495,0.89399 -1.9838,1.44315 -0.55342,0.55343 -1.40484,0.28097 -2.09449,0.28523 -0.55767,-0.48531 -0.61302,-1.24307 -0.85993,-1.88589 -0.32354,-1.11535 0.17029,-2.36268 -0.41293,-3.41418 -0.32354,-1.12813 0.0468,-2.34991 -0.2086,-3.49081 -0.60451,-0.76627 -1.03021,-1.92845 -2.17111,-1.94123 -1.76244,-0.80458 -3.65684,-1.24306 -5.44481,-1.97954 -1.45592,-1.88589 -2.18389,-4.44865 -2.53722,-6.81985 1.5666,-0.20434 3.26944,0.35334 4.7211,-0.42996 0.96636,0.0681 0.85568,2.1328 2.15834,1.70283 0.0553,-0.5151 -0.65133,-0.99616 -0.20008,-1.46869 0.52362,-1.27713 1.77095,-2.00083 2.97996,-2.52445 0.42571,-0.94933 1.03021,-1.79223 1.57086,-2.66919 0.53214,-0.65134 -0.0809,-1.79649 0.8429,-2.17537 m 2.17537,13.64395 c -0.42996,0.72796 -0.96636,1.39206 -1.61769,1.93697 -0.82162,0.0937 -1.64323,0.017 -2.46059,0.0511 0.81736,0.76627 2.11151,1.46443 3.31626,1.25158 0.18306,0.0809 0.54917,0.24265 0.73222,0.31928 l 0.59599,0.11494 c 0.37888,0.28097 0.75351,0.62153 1.22179,0.7535 1.21752,-0.5747 2.51593,-1.29415 3.07787,-2.5883 0.34482,-0.74499 0.90676,-1.33673 1.68155,-1.63472 0.0511,-0.25543 0.15751,-0.77053 0.20859,-1.02596 -0.43422,0.22988 -0.85567,0.48105 -1.26861,0.74499 -1.59215,0.0255 -2.63939,1.84332 -4.29965,1.34524 0.62153,-0.68965 1.45166,-1.12813 2.15408,-1.72412 0.87696,-0.6343 1.70284,-1.46444 2.85225,-1.49849 l 0.0213,-0.31928 c -2.39248,-0.41294 -4.19322,1.37929 -6.21534,2.27328 m 1.08982,7.98203 c 0.0213,0.30651 0.0596,0.92379 0.0809,1.23455 -0.68113,0.0553 -1.09833,0.72371 -0.95784,1.37504 0.74924,-0.85567 1.80926,-1.07704 2.89907,-1.13664 0.49808,0.2086 0.95359,0.50659 1.42187,0.77904 -0.017,-0.25968 -0.0468,-0.77478 -0.0596,-1.03447 l 0.43422,0.0298 c -0.27245,-0.43848 -0.57045,-0.8727 -0.9621,-1.21752 -0.94507,-0.14474 -1.90717,-0.11069 -2.8565,-0.0298 z"
         id="path7285" />
      <path
         inkscape:connector-curvature="0"
         style="fill:#ffffff"
         d="m 816.81137,858.17739 c -0.31502,-1.21753 1.08556,-1.44741 1.94549,-1.65175 1.20049,0.34908 2.62236,0.71519 3.19707,1.96251 0.61727,0.82162 0.20434,1.9242 0.71519,2.78839 0.37036,0.70668 -0.30651,1.37078 -0.48957,2.02637 l -0.22137,-0.34908 c -0.0213,-0.58322 -0.0128,-1.1707 -0.0851,-1.75392 -0.38739,-0.44699 -0.85142,-0.8131 -1.32821,-1.15366 0.18306,0.80033 0.60025,1.51552 0.92804,2.26051 -0.26393,0.0468 -0.78756,0.14474 -1.04724,0.19156 -0.10217,0.60451 -0.13622,1.21753 -0.25117,1.82204 -0.29373,0.71944 -1.16644,0.89824 -1.61769,1.4772 -0.34482,1.2899 0.94508,2.20517 1.20901,3.40141 0.65985,0.10643 1.40058,0.19583 2.03489,-0.0851 0.57471,-0.67688 1.17495,-1.54958 0.97062,-2.48614 -0.16603,-0.4853 -0.63005,-1.00041 -0.298,-1.52403 0.43422,-0.71945 0.26394,-1.57512 0.35759,-2.36694 0.17029,0.0128 0.51085,0.0383 0.68114,0.0511 0.72796,1.02595 1.43463,2.07745 1.97954,3.21835 0.35334,0.50659 0.34908,1.14941 0.20434,1.72838 -0.44274,0.28096 -0.98339,0.48105 -1.26435,0.95784 -0.89399,1.44315 -1.46444,3.0949 -1.59215,4.79347 -1.19198,-0.89824 -0.66836,-2.70324 -1.77946,-3.6696 0.0937,2.47762 1.66877,4.68705 1.30692,7.22001 l -0.009,0.0255 c -0.298,0.55342 -0.56194,1.12813 -0.83439,1.69858 -0.10217,-1.35375 0.30651,-2.86076 -0.42997,-4.0868 -0.6343,-1.0813 -0.36185,-2.48614 -1.17921,-3.49081 -1.36652,-1.8944 -2.57128,-3.90374 -4.03145,-5.72577 0.22988,-0.14474 0.68539,-0.42997 0.91527,-0.57471 0.0468,0.2086 0.14048,0.62153 0.18731,0.83013 0.39591,-0.0255 0.99616,0.19157 1.0813,-0.38314 0.93656,-1.69857 0.26394,-3.74623 0.43848,-5.59806 0.47253,-0.59173 1.12813,-0.97487 1.7454,-1.39632 -0.0724,-0.15751 -0.22562,-0.47254 -0.30225,-0.63431 l -0.27671,-0.21711 c -1.03873,-0.44274 -2.12003,-0.12771 -2.86076,0.69391 z"
         id="path7287" />
      <path
         inkscape:connector-curvature="0"
         style="fill:#b3b3b3"
         d="m 816.81137,858.17739 c 0.74073,-0.82162 1.82203,-1.13665 2.86076,-0.69391 -0.77479,0.0809 -1.79223,0.46402 -1.57086,1.4389 0.0766,2.13705 -0.13623,4.27836 -0.0341,6.4069 -0.0851,0.57471 -0.68539,0.3576 -1.0813,0.38314 -0.0468,-0.2086 -0.14048,-0.62153 -0.18731,-0.83013 0.28097,-0.53639 0.50659,-1.09407 0.51085,-1.70709 -0.24266,0.11494 -0.73222,0.33631 -0.97487,0.45125 0.0383,-0.74073 0.38313,-1.40909 0.47679,-2.1328 0.0639,-1.10684 -0.0298,-2.21368 0,-3.31626 z"
         id="path7289" />
      <path
         inkscape:connector-curvature="0"
         style="fill:#000000"
         d="m 818.10127,858.92238 c -0.22137,-0.97488 0.79607,-1.35801 1.57086,-1.4389 l 0.27671,0.21711 c -0.84716,0.42571 -1.72412,0.9323 -1.44315,2.03063 -0.17454,1.85183 0.49808,3.89949 -0.43848,5.59806 -0.10217,-2.12854 0.11068,-4.26985 0.0341,-6.4069 z"
         id="path7291" />
      <path
         inkscape:connector-curvature="0"
         style="fill:#9d9d9d"
         d="m 818.50569,859.73122 c -0.28097,-1.09833 0.59599,-1.60492 1.44315,-2.03063 0.0766,0.16177 0.22988,0.4768 0.30225,0.63431 -0.61727,0.42145 -1.27287,0.80459 -1.7454,1.39632 z"
         id="path7293" />
      <path
         inkscape:connector-curvature="0"
         style="fill:#cdcccc"
         d="m 807.50113,859.78231 c 1.13664,0.92804 2.50742,1.46018 3.79732,2.12428 1.71986,0.93656 2.5287,3.23538 4.58488,3.55041 1.46017,1.82203 2.66493,3.83137 4.03145,5.72577 0.81736,1.00467 0.54491,2.40951 1.17921,3.49081 0.73648,1.22604 0.3278,2.73305 0.42997,4.0868 -0.0255,0.68539 -0.0213,1.37504 0.0255,2.06469 0.97062,-1.03448 0.83013,-2.4606 0.80885,-3.76327 l 0.009,-0.0255 c 0.50659,-0.71519 0.38314,-1.60918 0.45551,-2.43079 0.36611,0.45125 0.63005,1.10258 1.3495,0.97487 -0.21286,-0.82587 -0.78757,-1.47295 -1.33247,-2.09449 0.12771,-1.69857 0.69816,-3.35032 1.59215,-4.79347 0.28096,-0.47679 0.82161,-0.67688 1.26435,-0.95784 l 0.51936,0.10642 c -0.77478,1.88589 -2.75858,3.1545 -3.09064,5.23621 1.07704,-0.61727 1.42187,-2.05191 2.52445,-2.71601 0.0979,0.6641 0.45551,1.30692 0.43423,1.9838 -0.4172,0.80884 -0.78757,1.64323 -1.01745,2.52445 -0.32354,1.27286 -1.11535,2.35416 -1.49423,3.60575 -0.68114,1.69006 -1.41761,3.53763 -3.08639,4.49122 0.10217,-0.78331 0.65985,-1.33673 1.09833,-1.94123 -0.19157,0.0255 -0.57896,0.0681 -0.77053,0.0894 -0.65134,0.89398 -1.50275,1.75391 -1.50701,2.93313 l -0.38314,0.004 c -0.004,-0.35759 -0.0128,-1.06852 -0.017,-1.42612 0.0341,-1.00467 0.1192,-2.00934 0.30226,-2.99699 0.35759,-1.70283 -0.0213,-3.46952 -0.56194,-5.08295 -1.11535,-1.42187 -2.37971,-2.72028 -3.63129,-4.01869 -0.98764,-0.94933 -1.10684,-2.46911 -2.12854,-3.39289 -0.82162,-0.77479 -1.50701,-1.67304 -2.05617,-2.65642 -0.58322,-1.10259 -1.86035,-1.52829 -2.61385,-2.46911 -0.33205,-0.71093 -0.48531,-1.48146 -0.71519,-2.22645 z"
         id="path7295" />
      <path
         inkscape:connector-curvature="0"
         style="fill:#000000"
         d="m 820.54483,860.04625 c 0.47679,0.34056 0.94082,0.70667 1.32821,1.15366 0.0724,0.58322 0.0639,1.1707 0.0851,1.75392 -0.45125,0.54491 -0.89824,1.09833 -1.37078,1.62621 -0.1192,-0.88973 0.47254,-1.55809 0.88547,-2.27328 -0.32779,-0.74499 -0.74498,-1.46018 -0.92804,-2.26051 z"
         id="path7297" />
      <path
         inkscape:connector-curvature="0"
         style="fill:#b3b3b3"
         d="m 820.42563,862.49832 c 0.25968,-0.0468 0.78331,-0.14474 1.04724,-0.19156 -0.41293,0.71519 -1.00467,1.38355 -0.88547,2.27328 0.47254,-0.52788 0.91953,-1.0813 1.37078,-1.62621 l 0.22137,0.34908 0.18731,0.31503 c -0.27245,0.99615 -0.54065,1.99231 -0.44699,3.04807 0.004,0.1788 0.017,0.53639 0.0255,0.71093 0.20434,0.73222 -0.46402,1.58364 -1.24307,1.32821 -0.23414,-0.0979 -0.69816,-0.29374 -0.9323,-0.39165 0,0.22137 -0.004,0.6641 -0.004,0.88547 -0.26393,-1.19624 -1.55383,-2.11151 -1.20901,-3.40141 0.45125,-0.57896 1.32396,-0.75776 1.61769,-1.4772 0.11495,-0.60451 0.149,-1.21753 0.25117,-1.82204 m -0.50659,2.86502 c -0.12346,0.12346 -0.36611,0.36611 -0.48956,0.48957 0.0979,1.06427 1.54957,-0.38314 0.48956,-0.48957 z"
         id="path7299" />
      <path
         inkscape:connector-curvature="0"
         style="fill:#ffffff"
         d="m 787.92706,863.69882 0.3278,0.004 0.15751,0.33631 -0.16177,0.33631 -0.32354,0 -0.15751,-0.33631 0.15751,-0.34057 z"
         id="path7301" />
      <path
         inkscape:connector-curvature="0"
         style="fill:#000000"
         d="m 819.91904,865.36334 c 1.06001,0.10643 -0.39165,1.55384 -0.48956,0.48957 0.12345,-0.12346 0.3661,-0.36611 0.48956,-0.48957 z"
         id="path7303" />
      <path
         inkscape:connector-curvature="0"
         style="fill:#ffffff"
         d="m 821.91987,866.66601 0.34057,-0.0128 0.19156,0.35759 -0.17028,0.36611 -0.33631,0 c -0.009,-0.17454 -0.0213,-0.53213 -0.0255,-0.71093 z"
         id="path7305" />
      <path
         inkscape:connector-curvature="0"
         style="fill:#000000"
         d="m 802.95882,869.29263 c 2.02212,-0.89399 3.82286,-2.68622 6.21534,-2.27328 l -0.0213,0.31928 c -1.14941,0.034 -1.97529,0.86419 -2.85225,1.49849 -0.70242,0.59599 -1.53255,1.03447 -2.15408,1.72412 -0.68113,0.62579 -1.30693,1.30692 -1.94975,1.97103 -1.20475,0.21285 -2.4989,-0.48531 -3.31626,-1.25158 0.81736,-0.0341 1.63897,0.0426 2.46059,-0.0511 0.65133,-0.54491 1.18773,-1.20901 1.61769,-1.93697 z"
         id="path7307" />
      <path
         inkscape:connector-curvature="0"
         style="fill:#000000"
         d="m 808.4462,869.216 c 0.41294,-0.26394 0.83439,-0.51511 1.26861,-0.74499 -0.0511,0.25543 -0.15751,0.77053 -0.20859,1.02596 -0.77479,0.29799 -1.33673,0.88973 -1.68155,1.63472 -1.28138,0.92804 -2.76285,1.48572 -4.29966,1.8348 l -0.59599,-0.11494 c 0.25117,-0.34908 0.52362,-0.68965 0.80885,-1.01319 0.60025,-0.12771 1.21752,-0.16602 1.82203,-0.29799 1.11961,-0.55768 2.0136,-1.44741 2.8863,-2.32437 z"
         id="path7309" />
      <path
         inkscape:connector-curvature="0"
         style="fill:#c5c5c5"
         d="m 826.52603,871.47225 c -0.40868,-0.90675 -0.68965,-2.23071 0.3576,-2.80967 l 0.26819,0.31928 c -0.20859,0.83013 -0.43848,1.65601 -0.62579,2.49039 z"
         id="path7311" />
      <path
         inkscape:connector-curvature="0"
         style="fill:#b3b3b3"
         d="m 804.14655,870.56124 c 1.66026,0.49808 2.7075,-1.3197 4.29965,-1.34524 -0.8727,0.87696 -1.76669,1.76669 -2.8863,2.32437 -0.60451,0.13197 -1.22178,0.17028 -1.82203,0.29799 -0.28523,0.32354 -0.55768,0.66411 -0.80885,1.01319 -0.18305,-0.0766 -0.54916,-0.2384 -0.73222,-0.31928 0.64282,-0.66411 1.26862,-1.34524 1.94975,-1.97103 z"
         id="path7313" />
      <path
         inkscape:connector-curvature="0"
         style="fill:#ffffff"
         d="m 827.15182,868.98186 c 1.00042,1.11536 1.4687,2.69899 2.85225,3.43972 -0.10643,0.93231 -0.51511,1.82204 -0.42145,2.77988 0.15325,-0.24265 0.46402,-0.73222 0.61727,-0.97913 1.67304,1.86886 3.81861,3.19281 5.79389,4.70833 1.4985,1.01745 2.48188,2.63514 4.04423,3.58021 1.4985,1.0515 3.26944,1.85183 4.32094,3.42269 0.85993,1.53681 1.66878,3.1545 1.88589,4.92545 0.53639,2.56276 1.14515,5.13404 2.20517,7.53504 0.89824,2.06894 1.36652,4.28688 1.61769,6.52185 0.22562,2.13279 1.81352,3.82286 2.08597,5.94288 0.0255,0.89825 0.14474,1.86461 -0.27245,2.69899 -0.70242,1.67729 -1.47721,3.37587 -2.66919,4.76794 0.14048,-0.76202 0.18731,-1.5581 0.48956,-2.27754 0.37462,-0.4768 0.8429,-0.87696 1.17921,-1.3793 -0.0511,-2.39248 -1.01318,-4.63596 -1.52403,-6.9433 -0.46828,-2.21794 -1.37504,-4.42311 -2.93313,-6.09614 -0.63431,-0.11494 -1.28139,-0.1192 -1.91569,-0.149 0.28948,-0.46828 0.62579,-0.90676 0.92379,-1.36652 -0.5364,0.034 -0.97062,0.25116 -1.31119,0.65984 -0.10217,1.03022 -0.0468,2.06895 -0.0937,3.10767 -0.40442,-1.32821 -0.80033,-2.6777 -0.80885,-4.07402 -0.0851,-1.46444 0.15751,-2.95016 -0.10642,-4.40183 -0.65985,-0.38313 -1.3793,-0.71093 -1.79224,-1.38355 -1.4772,-2.16685 -3.89948,-3.35458 -6.18979,-4.45716 -1.03873,-0.46828 -2.43931,-0.79608 -3.3929,0.017 -0.73647,0.63431 -1.70709,0.80034 -2.57128,1.17922 -0.72796,1.11961 -1.5368,2.19239 -2.56702,3.05658 -1.91994,1.62621 -3.62703,3.47804 -5.24472,5.39798 -0.69391,0.75351 -0.58748,1.87312 -1.09833,2.71176 -0.37037,0.37037 -0.7833,0.69391 -1.15367,1.06002 -0.35334,1.6858 -0.45125,3.41418 -0.80459,5.10424 -0.16177,-0.70242 -0.22562,-1.41761 -0.33205,-2.12003 0.39165,-1.76243 0.85142,-3.51635 0.97061,-5.32561 0.0553,-1.45592 0.69817,-2.80116 0.83865,-4.24005 0.149,-1.3793 0.20008,-2.79265 0.65133,-4.1166 0.76628,-1.93697 2.86502,-2.95442 3.60149,-4.89565 0.16177,-1.24732 -0.52362,-2.41376 -0.60876,-3.64406 0.62154,-1.26861 1.74541,-2.18388 2.52019,-3.34607 0.81736,-1.22604 1.49424,-2.54147 2.103,-3.88246 0.42145,-0.76201 -0.017,-1.6262 0.0979,-2.43505 0.18731,-0.53213 0.43848,-1.04298 0.65133,-1.5666 -0.28948,0.0298 -0.86419,0.0894 -1.15367,0.1192 -0.70242,1.31543 -0.97913,3.0353 -2.46911,3.73346 0.34908,-1.33247 0.85993,-2.60959 1.4091,-3.86969 -0.0128,-0.25543 -0.0383,-0.77479 -0.0511,-1.03022 0.18731,-0.83438 0.4172,-1.66026 0.62579,-2.49039 z"
         id="path7315" />
      <path
         inkscape:connector-curvature="0"
         style="fill:#b3b3b3"
         d="m 791.24759,870.03336 c 1.78797,0.73648 3.68237,1.17496 5.44481,1.97954 0.42996,0.48531 0.82587,1.03448 -0.017,1.3197 -1.35375,0.26394 -2.74156,0.0341 -4.00166,-0.48956 -0.74925,-0.74074 -1.15367,-1.80501 -1.42612,-2.80968 z"
         id="path7317" />
      <path
         inkscape:connector-curvature="0"
         style="fill:#000000"
         d="m 821.05994,869.81625 c 1.1111,0.96636 0.58748,2.77136 1.77946,3.6696 0.5449,0.62154 1.11961,1.26862 1.33247,2.09449 -0.71945,0.12771 -0.98339,-0.52362 -1.3495,-0.97487 -0.0724,0.82161 0.0511,1.7156 -0.45551,2.43079 0.36185,-2.53296 -1.21327,-4.74239 -1.30692,-7.22001 z"
         id="path7319" />
      <path
         inkscape:connector-curvature="0"
         style="fill:#b3b3b3"
         d="m 803.52501,872.96649 c 1.53681,-0.34908 3.01828,-0.90676 4.29966,-1.8348 -0.56194,1.29415 -1.86035,2.0136 -3.07787,2.5883 -0.46828,-0.13197 -0.84291,-0.47253 -1.22179,-0.7535 z"
         id="path7321" />
      <path
         inkscape:connector-curvature="0"
         style="fill:#c5c5c5"
         d="m 827.63713,872.6387 c 0.28948,-0.0298 0.86419,-0.0894 1.15367,-0.1192 -0.21285,0.52362 -0.46402,1.03447 -0.65133,1.5666 -0.11495,0.80885 0.32353,1.67304 -0.0979,2.43505 -0.60876,1.34099 -1.28564,2.65642 -2.103,3.88246 -0.77478,1.16219 -1.89865,2.07746 -2.52019,3.34607 0.0851,1.2303 0.77053,2.39674 0.60876,3.64406 -0.73647,1.94123 -2.83521,2.95868 -3.60149,4.89565 -0.45125,1.32395 -0.50233,2.7373 -0.65133,4.1166 -0.14048,1.43889 -0.7833,2.78413 -0.83865,4.24005 -0.11919,1.80926 -0.57896,3.56318 -0.97061,5.32561 -0.68965,-1.42186 0.55342,-2.86501 0.0809,-4.33371 -0.20434,-0.1788 -0.61727,-0.54065 -0.82161,-0.7237 0.21711,0.94933 0.61302,1.9242 0.19582,2.8863 -0.39165,1.0813 -0.017,2.1924 0.22137,3.26093 -0.59599,0.25542 -0.60025,0.53213 -0.009,0.83013 0.14899,0.69816 0.31928,1.38781 0.49807,2.07745 0.55343,2.38823 0.85994,4.82328 1.34099,7.22853 0.28522,1.57938 1.16218,2.9459 2.08171,4.23154 0.65559,1.90717 0.79182,3.94631 1.43038,5.85774 0.54916,1.2601 0.90676,2.58831 1.17921,3.93355 -0.0341,1.5964 0.37888,3.14173 0.7535,4.68279 -0.50659,0.0341 -1.00892,0.10643 -1.507,0.21285 -3.43973,2.64791 -6.95608,5.21493 -10.68954,7.44564 -1.00041,-2.12003 -2.60107,-3.89949 -3.44823,-6.1004 1.74966,-1.26435 3.45249,-2.58405 5.23621,-3.80157 2.47762,-1.94123 5.52995,-2.98847 7.99906,-4.93822 -0.2384,0.017 -0.71519,0.0553 -0.95359,0.0724 -2.09874,1.15367 -4.15917,2.37971 -6.2494,3.55041 -1.25584,0.94933 -2.57553,1.81777 -3.82286,2.77987 -0.50233,-0.42996 -0.73222,-0.29373 -0.68965,0.40868 -0.45976,0.40017 -0.90675,0.82588 -1.39632,1.2005 -0.64282,0.16177 -1.31969,0.0724 -1.97528,0.0937 -0.3874,-1.29416 -0.84291,-2.56702 -1.18773,-3.86969 0.0255,-1.80926 -1.12387,-3.31201 -1.37078,-5.06167 -0.0724,-0.9919 -1.23881,-1.76243 -0.71945,-2.80542 1.77095,-2.35842 4.56359,-3.49081 6.96459,-5.0489 1.77946,-1.34524 3.42695,-2.8565 5.18938,-4.22303 0.0511,-0.19582 0.15326,-0.59599 0.20009,-0.79607 -1.99232,1.46018 -3.86544,3.06936 -5.80667,4.58913 -2.29456,1.48147 -4.90841,2.5798 -6.70064,4.72111 -0.55768,-1.75818 -0.40868,-3.61852 -0.24266,-5.42352 1.65601,-2.26477 3.94206,-3.89949 5.9812,-5.79389 0.76628,-0.67262 1.80926,-0.95785 2.48614,-1.74115 0.58748,-0.63431 1.20901,-1.23881 1.7752,-1.89014 -0.80884,0.13196 -1.58363,0.49382 -2.01785,1.21326 -0.63431,0.97913 -1.83481,1.25159 -2.67771,1.98806 -1.88163,1.70709 -3.83989,3.32904 -5.6534,5.10424 -0.0341,-1.0813 -0.017,-2.16685 0.0213,-3.24389 0.26394,-0.79608 0.49382,-1.60918 0.46402,-2.45208 -0.017,-2.68197 -0.15325,-5.36818 -0.0681,-8.05015 0.0468,-1.50275 0.9025,-2.80967 1.22604,-4.25282 0.57471,-2.53297 1.97529,-5.01059 1.45166,-7.67552 1.11962,0.67687 2.31586,1.54532 3.70792,1.30267 1.71135,-0.24692 3.2439,-1.16219 4.5636,-2.23923 1.72837,-1.46018 2.45633,-3.72495 4.04848,-5.30858 0.64282,-0.65134 1.25584,-1.33247 1.79649,-2.06894 0.72796,-0.97062 1.72412,-1.74115 2.23923,-2.86076 0.8131,-1.4687 1.13238,-3.16727 2.07745,-4.56785 1.48998,-0.69816 1.76669,-2.41803 2.46911,-3.73346 m -14.89979,31.51943 c -1.19624,0.43848 -1.91569,1.5283 -2.83947,2.33714 -2.103,1.45167 -3.84841,3.37161 -5.53847,5.27027 0.20434,-0.0298 0.60877,-0.0894 0.81311,-0.1192 1.20049,-1.09832 2.27753,-2.32011 3.45249,-3.44398 0.65985,-0.6343 1.52404,-1.00893 2.13705,-1.69432 0.64708,-0.6939 1.31119,-1.37929 2.17112,-1.80926 0.0298,-0.17028 0.0851,-0.5151 0.11494,-0.68539 l -0.31077,0.14474 m -1.7454,16.50046 c -0.14474,0.59173 0.0766,0.81736 0.6641,0.67262 0.14474,-0.60025 -0.0809,-0.82162 -0.6641,-0.67262 m 8.99947,0.0937 c -1.90292,1.38355 -3.91652,2.63088 -5.65766,4.22729 -2.0434,1.49849 -4.04423,3.06084 -6.10892,4.53805 -0.59599,0.4853 -1.37503,1.00467 -1.23029,1.8944 2.51593,-2.252 5.35115,-4.10809 8.00331,-6.19831 1.37504,-1.23882 2.93313,-2.24774 4.38905,-3.38439 0.47254,-0.38739 1.1111,-0.63004 1.3793,-1.21752 -0.19157,0.0383 -0.57896,0.10643 -0.77479,0.14048 m -4.40182,8.56951 c -0.15752,0.59173 0.0596,0.8131 0.65559,0.65985 0.15325,-0.59174 -0.0681,-0.8131 -0.65559,-0.65985 z"
         id="path7323" />
      <path
         inkscape:connector-curvature="0"
         style="fill:#c5c5c5"
         d="m 790.51111,873.92008 c 0.39165,-0.56194 1.1111,-0.54065 1.71986,-0.56619 0.68965,1.14089 1.27713,2.34139 2.00083,3.46526 1.07279,1.67729 1.4091,3.80158 2.9161,5.19364 0.51937,0.57471 1.2601,1.00467 1.52404,1.77095 -0.42996,0.40016 -0.85142,0.82587 -1.36652,1.11961 -0.25117,-0.10217 -0.74925,-0.31077 -1.00042,-0.41719 -0.31076,-0.43423 -0.62579,-0.86419 -0.93656,-1.29416 0.26394,-0.60876 0.51937,-1.22604 0.68539,-1.86886 -0.58322,0.42146 -0.97061,1.03022 -1.35375,1.62195 -0.63856,0.59174 -1.23029,1.3495 -2.14557,1.49424 -1.04724,0.18305 -1.85609,1.13238 -2.98421,0.89824 -0.0979,-1.56235 0.6641,-3.06935 0.37036,-4.62745 -0.31502,-0.0639 -0.93655,-0.19582 -1.25158,-0.25968 1.51552,-1.47295 3.26518,-2.68622 4.83179,-4.11234 -0.61302,0.0511 -1.31544,-0.004 -1.69858,0.57896 -1.34098,1.48573 -3.36309,2.31586 -4.23154,4.21877 -0.47679,-0.17028 -0.9323,-0.37888 -1.37078,-0.62579 -0.27671,-0.91101 0.54491,-1.57512 0.98765,-2.26051 1.14515,-1.40909 2.12002,-2.95442 3.30349,-4.32945 z"
         id="path7325" />
      <path
         inkscape:connector-curvature="0"
         style="fill:#b3b3b3"
         d="m 793.07388,873.49011 0.22988,-0.004 0,0.22563 -0.22988,0.0128 0,-0.23414 z"
         id="path7327" />
      <path
         inkscape:connector-curvature="0"
         style="fill:#b3b3b3"
         d="m 793.30376,873.71148 c 0.63856,0.0511 1.09407,0.48956 1.57512,0.85993 1.09407,0.35334 2.34565,0.1788 3.11193,-0.74073 0.94933,0.87696 0.45125,2.34139 0.45976,3.48229 -0.98338,0.22988 -2.43931,-0.0681 -2.77562,1.19199 -0.45976,-1.76669 -1.9838,-3.02253 -2.37119,-4.79348 m 3.72495,1.53681 c -0.68539,0.42145 -2.21369,-0.10643 -1.96252,1.10684 0.80885,-0.4172 1.71135,-0.39591 2.59682,-0.45551 0,-0.2086 0.004,-0.62153 0.004,-0.83013 -0.15751,0.0468 -0.48105,0.13623 -0.63856,0.1788 z"
         id="path7329" />
      <path
         inkscape:connector-curvature="0"
         style="fill:#000000"
         d="m 797.02871,875.24829 c 0.15751,-0.0426 0.48105,-0.13197 0.63856,-0.1788 0,0.2086 -0.004,0.62153 -0.004,0.83013 -0.88547,0.0596 -1.78797,0.0383 -2.59682,0.45551 -0.25117,-1.21327 1.27713,-0.68539 1.96252,-1.10684 z"
         id="path7331" />
      <path
         inkscape:connector-curvature="0"
         style="fill:#ffffff"
         d="m 795.67495,878.50496 c 0.33631,-1.2601 1.79224,-0.96211 2.77562,-1.19199 0.69391,1.13664 0.42571,2.46485 0.53214,3.72069 0.23839,0.97487 0.63856,1.88163 1.31969,2.62662 -0.64707,0.13197 -1.0515,-0.41293 -1.46018,-0.79182 -0.77053,-0.78756 -1.61343,-1.507 -2.31159,-2.35842 -0.30651,-0.65985 -0.59599,-1.32395 -0.85568,-2.00508 z"
         id="path7333" />
      <path
         inkscape:connector-curvature="0"
         style="fill:#b3b3b3"
         d="m 804.04864,877.27466 c 0.94933,-0.0809 1.91143,-0.11494 2.8565,0.0298 0.39165,0.34482 0.68965,0.77904 0.9621,1.21752 l -0.43422,-0.0298 c -1.0813,-0.4555 -2.20943,-0.24691 -3.3035,0.017 -0.0213,-0.31076 -0.0596,-0.92804 -0.0809,-1.23455 z"
         id="path7335" />
      <path
         inkscape:connector-curvature="0"
         style="fill:#000000"
         d="m 821.52396,878.76038 c 0.27245,-0.57045 0.53639,-1.14516 0.83439,-1.69858 0.0213,1.30267 0.16177,2.72879 -0.80885,3.76327 -0.0468,-0.68965 -0.0511,-1.3793 -0.0255,-2.06469 z"
         id="path7337" />
      <path
         inkscape:connector-curvature="0"
         style="fill:#000000"
         d="m 804.12952,878.50921 c 1.09407,-0.26394 2.2222,-0.47253 3.3035,-0.017 0.0128,0.25969 0.0426,0.77479 0.0596,1.03447 -0.46828,-0.27245 -0.92379,-0.57044 -1.42187,-0.77904 -1.08981,0.0596 -2.14983,0.28097 -2.89907,1.13664 -0.14049,-0.65133 0.27671,-1.3197 0.95784,-1.37504 z"
         id="path7339" />
      <path
         inkscape:connector-curvature="0"
         style="fill:#ffffff"
         d="m 786.87556,883.90294 c 0.59174,-1.15793 1.10259,-2.36268 1.81352,-3.4525 0.31503,0.0639 0.93656,0.19583 1.25158,0.25968 0.29374,1.5581 -0.46828,3.0651 -0.37036,4.62745 1.12812,0.23414 1.93697,-0.71519 2.98421,-0.89824 0.91528,-0.14474 1.50701,-0.9025 2.14557,-1.49424 -0.39165,1.04299 -0.70667,2.11577 -0.94081,3.20133 -0.12346,0.46402 -0.34483,1.0515 -0.85568,1.19198 -1.64323,0.55768 -3.26092,1.17921 -4.85307,1.86035 -0.42145,-0.94933 -0.74499,-1.94123 -1.1707,-2.88631 -0.38739,-0.74498 -0.44273,-1.67729 -0.004,-2.4095 z"
         id="path7341" />
      <path
         inkscape:connector-curvature="0"
         style="fill:#040404"
         d="m 778.14003,885.99316 c 1.2303,-1.50275 1.83906,-3.65683 3.69941,-4.52953 0.0468,0.21285 0.13197,0.63856 0.17879,0.85141 1.2005,0.0809 2.97145,-0.10642 3.55041,1.17922 -1.41761,-0.38314 -2.8565,-1.09833 -4.35074,-0.61302 -1.38781,0.85993 -1.61769,2.72027 -2.99698,3.59723 l -0.0809,-0.48531 z"
         id="path7343" />
      <path
         inkscape:connector-curvature="0"
         style="fill:#818181"
         d="m 781.2179,882.88124 c 1.49424,-0.48531 2.93313,0.22988 4.35074,0.61302 0.23414,0.17879 0.39591,0.42996 0.48956,0.7535 0.017,1.88163 0.78331,3.61852 1.55384,5.30007 0.91102,0.20859 1.74115,-0.31928 2.57128,-0.60877 1.10684,-0.47253 2.32436,-0.71519 3.35884,-1.35375 0.69816,-0.47253 0.62153,-1.42612 0.91527,-2.1328 0.9025,-0.91101 2.11577,-0.19156 3.17153,-0.11494 0.63856,-0.37462 1.15792,-0.91527 1.75817,-1.33672 1.55384,1.24732 3.04381,2.69048 4.03997,4.43588 -0.149,1.62195 -0.97913,3.07361 -1.44741,4.61042 -0.39591,1.30267 -1.05575,2.51594 -2.04765,3.46526 -2.00935,0.0553 -4.1762,0.0937 -5.88329,-1.12812 -0.8429,-0.33631 -1.1409,-1.20476 -1.61769,-1.89015 -1.14516,-0.37888 -2.21369,0.41294 -3.21836,0.85142 -0.90676,0.51085 -2.00083,0.46402 -2.98847,0.28522 -1.54958,-0.97061 -2.28605,-2.66919 -2.95016,-4.28688 -1.42612,-1.79223 -4.12085,-1.29841 -6.07485,-0.83439 -0.30651,-0.57896 -0.57897,-0.56193 -0.81311,0.0553 -0.59173,-0.0979 -1.17921,-0.21286 -1.77094,-0.31077 1.27286,-0.2682 2.33288,-1.03873 3.02253,-2.13706 0.14474,-0.16177 0.43422,-0.48105 0.58322,-0.63856 1.37929,-0.87696 1.60917,-2.7373 2.99698,-3.59723 z"
         id="path7345" />
      <path
         inkscape:connector-curvature="0"
         style="fill:#b3b3b3"
         d="m 815.38099,887.29583 c 1.62195,-1.16218 2.61385,-2.9459 3.52486,-4.67002 0.004,0.3576 0.0128,1.06853 0.017,1.42612 -0.85141,2.11152 -2.14557,4.01443 -3.48229,5.84924 -1.32821,1.48146 -3.10341,2.57127 -5.03613,3.05658 -0.54916,0.0341 -1.24733,0.20434 -1.68155,-0.23414 -1.52829,-1.34098 -3.63129,-2.39248 -4.206,-4.49974 -0.0383,-0.68964 -0.5747,-1.13238 -1.20049,-1.29841 l -0.27246,-0.31928 c 0.45551,-0.7535 1.21327,-0.88547 2.02212,-0.68964 1.07278,0.40016 2.66919,0.12771 3.03956,-1.09407 0.61727,-0.298 1.30266,-0.37463 1.97954,-0.40443 -0.85567,1.64324 -2.20943,2.9757 -3.91652,3.71644 0.5364,0.61727 1.39633,0.54065 2.1328,0.69816 0.82588,0.11494 1.62195,0.39165 2.44782,0.51085 1.72838,-0.10217 3.26093,-1.06002 4.63171,-2.04766 m -3.98037,2.39674 0,0.20434 0.20434,0 0,-0.2086 -0.20434,0.004 z"
         id="path7347" />
      <path
         inkscape:connector-curvature="0"
         style="fill:#cbcaca"
         d="m 820.23832,882.96212 0.24691,0.004 0,0.23414 -0.25542,0.017 0.009,-0.25543 z"
         id="path7349" />
      <path
         inkscape:connector-curvature="0"
         style="fill:#ffffff"
         d="m 794.80225,884.43507 c -0.0979,-0.47253 0.39591,-0.83013 0.56619,-1.24307 0.31077,0.42997 0.6258,0.85993 0.93656,1.29416 -0.50659,0.0383 -1.00893,0.0213 -1.50275,-0.0511 z"
         id="path7351" />
      <path
         inkscape:connector-curvature="0"
         style="fill:#cac9c9"
         d="m 819.90627,883.24309 0.32354,-0.0255 0.12771,0.34908 -0.17454,0.34908 -0.31928,0.009 -0.13623,-0.33205 0.1788,-0.34908 z"
         id="path7353" />
      <path
         inkscape:connector-curvature="0"
         style="fill:#000000"
         d="m 805.06608,885.91654 c 1.02596,-0.32354 2.0434,-0.68114 3.03956,-1.09407 -0.37037,1.22178 -1.96678,1.49423 -3.03956,1.09407 z"
         id="path7355" />
      <path
         inkscape:connector-curvature="0"
         style="fill:#e1e1e1"
         d="m 803.31642,886.92546 c 0.62579,0.16603 1.16218,0.60877 1.20049,1.29841 -0.56193,0.20009 -1.50275,-0.73221 -1.20049,-1.29841 z"
         id="path7357" />
      <path
         inkscape:connector-curvature="0"
         style="fill:#c5c5c5"
         d="m 773.39338,890.42904 c 0.3576,-0.42996 0.61728,-1.05575 1.22179,-1.17495 0.59173,0.0979 1.17921,0.21285 1.77094,0.31077 0.20434,-0.0128 0.60877,-0.0426 0.81311,-0.0553 1.954,-0.46402 4.64873,-0.95784 6.07485,0.83439 0.66411,1.61769 1.40058,3.31627 2.95016,4.28688 0.98764,0.1788 2.08171,0.22563 2.98847,-0.28522 1.00467,-0.43848 2.0732,-1.2303 3.21836,-0.85142 0.47679,0.68539 0.77479,1.55384 1.61769,1.89015 1.70709,1.22178 3.87394,1.18347 5.88329,1.12812 -0.80885,2.30309 -1.23881,4.72962 -2.17963,6.98588 -0.47679,0.28096 -1.1409,0.40016 -1.35375,0.98338 -1.40484,2.75859 -1.75392,5.87478 -2.71602,8.78662 -0.60451,1.83055 -0.71945,3.76752 -1.2005,5.62361 -0.38739,1.69857 -0.94507,3.35032 -1.26009,5.06593 -0.88122,0.61727 -1.85184,1.09832 -2.86928,1.45166 -2.27754,0.78756 -4.1464,2.3712 -6.35157,3.31201 -0.47253,-2.41802 -0.81735,-4.8701 -1.507,-7.23704 -1.25584,0.13623 -2.42654,0.66411 -3.66535,0.87696 -1.44741,-0.72796 -2.78413,-1.66878 -4.2656,-2.33714 -0.0937,-0.97913 0.64282,-1.76669 0.94508,-2.6479 0.42996,-0.83865 0.53639,-1.90292 1.27286,-2.54148 1.2303,-0.35334 2.49891,-0.50234 3.76326,-0.68114 -0.14474,-1.14515 -0.57045,-2.22645 -0.80033,-3.35032 -0.17454,-1.26435 -0.0298,-2.54573 -0.12771,-3.81009 -1.58789,0.0639 -2.8267,1.22604 -4.26134,1.76669 -1.36652,-1.04298 -2.47762,-2.37545 -3.72069,-3.55466 0.63856,-1.46018 1.24733,-2.93313 1.82203,-4.42311 1.29841,-1.00042 3.12896,-0.15326 4.45717,-1.15367 0.11068,-1.82203 0.0426,-3.64832 0.0298,-5.47461 -0.70242,0.60451 -1.32821,1.30267 -2.07746,1.85609 -1.06427,-0.51511 -2.06894,-1.16644 -2.99699,-1.89866 -0.14899,-0.55342 0.0341,-1.10684 0.50234,-1.43889 0.70668,-0.71519 1.45592,-1.40058 2.02211,-2.24349 z"
         id="path7359" />
      <path
         inkscape:connector-curvature="0"
         style="fill:#ffffff"
         d="m 776.38611,889.56486 c 0.23414,-0.61728 0.5066,-0.63431 0.81311,-0.0553 -0.20434,0.0128 -0.60877,0.0426 -0.81311,0.0553 z"
         id="path7361" />
      <path
         inkscape:connector-curvature="0"
         style="fill:#ffffff"
         d="m 803.77618,889.09232 c 0.10643,0.0341 0.31928,0.10217 0.42571,0.13623 0.74499,1.04724 1.63898,1.96677 2.53296,2.8863 0.52363,2.66493 -0.87695,5.14255 -1.45166,7.67552 -0.32354,1.44315 -1.17921,2.75007 -1.22604,4.25282 -0.0851,2.68197 0.0511,5.36818 0.0681,8.05015 0.0298,0.8429 -0.20008,1.656 -0.46402,2.45208 -0.0383,-1.08982 -0.0128,-2.17963 -0.0383,-3.26519 -1.20901,0.54491 -2.59682,1.08982 -2.95867,2.51594 -0.0511,1.71986 -0.0468,3.43972 0.0128,5.15958 l 0.37036,0 c 0.0937,-1.6262 -0.017,-3.25241 0.004,-4.87436 0.54065,-0.83013 1.40484,-1.39206 2.14131,-2.03488 -0.0128,2.08597 0.0681,4.1762 -0.0383,6.25791 -0.67262,0.44699 -1.37078,0.85142 -2.03914,1.30267 -0.0213,0.28097 -0.0553,0.84716 -0.0724,1.12812 0.97487,-0.49382 1.81777,-1.19624 2.70324,-1.82628 -0.16602,1.805 -0.31502,3.66534 0.24266,5.42352 -0.43423,0.61728 -1.21753,0.53639 -1.86461,0.71093 -0.60024,0.76202 -1.13238,1.59641 -1.30692,2.56702 0.97487,2.20091 1.66026,4.50825 2.55851,6.73896 0.93655,-0.49382 1.8646,-1.00467 2.8565,-1.39206 0.34482,1.30267 0.80033,2.57553 1.18773,3.86969 -1.69432,0.98338 -2.96293,2.50316 -4.60191,3.55892 -0.31503,1.1707 0.16603,2.29031 0.89399,3.19281 1.26435,1.63472 1.97528,3.6696 3.46526,5.13404 0.68539,0.0596 1.49849,0.24266 2.06469,-0.26819 1.36226,-1.01745 3.08212,-1.71987 3.90374,-3.3035 0.12771,1.38355 -0.70667,2.63513 -1.1409,3.908 -0.63856,0.54491 -1.47295,0.79608 -2.20517,1.19198 -1.28138,0.72371 -2.83521,0.68539 -4.10382,1.4389 -0.45977,0.1788 -0.95359,0.64707 -1.46444,0.31502 -2.43931,-1.10258 -4.99781,-1.96251 -7.3009,-3.35032 -0.70667,-0.58748 -1.16644,-1.4091 -1.85608,-2.00934 -0.57471,-0.0553 -1.14516,-0.0468 -1.71987,0.017 -0.0553,0.91528 0.5662,1.61344 1.18347,2.20092 -0.29799,0.41293 -0.92378,0.78756 -0.59173,1.37078 1.36652,1.03872 2.86927,1.8944 4.17194,3.02678 -0.31928,0.0937 -0.95784,0.28948 -1.28138,0.38314 -0.0426,0.45551 -0.0341,0.91527 0.017,1.37078 1.87737,0.76627 3.95483,0.59599 5.93863,0.56619 0.83438,0.0383 1.54532,-0.42145 2.27328,-0.7535 -0.2682,0.42996 -0.42145,1.15367 -1.06853,1.10684 -1.13664,0.14474 -2.34565,-0.0851 -3.41844,0.41294 -1.80074,0.77904 -3.80157,0.93655 -5.61935,1.67303 -0.94507,0.54916 -1.33246,1.83055 -2.46059,2.12003 -1.25584,0.37036 -2.30308,1.16644 -3.32904,1.94123 -0.0298,-2.45208 -0.009,-4.90416 -0.0298,-7.35624 -0.0681,-1.74541 0.56194,-3.40567 0.85142,-5.10424 0.17028,-1.0217 -0.40868,-1.96252 -0.40442,-2.96719 -0.0341,-1.99657 -0.149,-4.02294 0.35759,-5.96843 0.0341,-2.09023 0.55342,-4.1166 1.09407,-6.12169 0.40017,-2.11151 0.017,-4.35073 0.97913,-6.34731 0.67688,-1.16644 0.42145,-2.55425 0.90676,-3.77177 0.82162,-2.55425 1.29415,-5.20216 2.0434,-7.77343 0.34057,-1.08982 0.68113,-2.18389 0.9025,-3.3035 0.23414,-3.75475 1.65175,-7.29238 2.80542,-10.83427 0.6641,-1.81352 1.04298,-3.72069 1.77946,-5.50867 0.83013,-1.19624 1.72412,-2.39248 2.1328,-3.81435 0.33205,-1.39206 1.03447,-2.66919 1.18772,-4.10808 z"
         id="path7363" />
      <path
         inkscape:connector-curvature="0"
         style="fill:#c5c5c5"
         d="m 831.7367,889.58188 c 0.95359,-0.8131 2.35417,-0.4853 3.3929,-0.017 2.29031,1.10258 4.71259,2.29031 6.18979,4.45716 0.41294,0.67262 1.13239,1.00042 1.79224,1.38355 0.26393,1.45167 0.0213,2.93739 0.10642,4.40183 0.009,1.39632 0.40443,2.74581 0.80885,4.07402 -0.0553,1.42187 0.19157,2.81819 0.67262,4.15492 -0.35334,2.11151 0.6939,4.09957 1.30266,6.06208 0.73648,1.82203 0.63431,3.97612 1.94123,5.55124 0.1788,0.57896 0.34057,1.16644 0.46828,1.76243 l -0.11494,0.36611 c 0.11069,0.15325 0.3278,0.45976 0.43848,0.61302 0.0128,0.52362 0.0298,1.04724 0.0511,1.57512 -0.28097,0.62579 -0.18731,1.38355 0.38739,1.81352 0.63005,1.02595 0.35334,2.26051 0.45551,3.40141 0.34908,2.34139 0.56619,4.70407 0.83864,7.05398 -0.21711,0.70242 -0.80033,1.32396 -1.57937,0.94507 -1.25159,-1.01744 -2.18814,-2.53722 -2.28606,-4.17194 -0.32353,-3.37586 -1.77094,-6.50056 -3.20558,-9.52735 -0.45125,-1.23881 -0.79607,-2.52019 -1.45592,-3.6696 -0.65559,-1.09833 -0.86845,-2.401 -1.55384,-3.47378 -0.6641,1.51126 -0.28522,3.43546 -1.51978,4.68279 -0.75776,0.11494 -1.5368,0.12345 -2.29456,0.017 -0.22563,-0.53214 -0.22137,-1.20476 -0.68539,-1.60492 -0.54065,-0.0724 -1.08556,-0.0851 -1.62621,-0.0383 -0.16603,1.30693 0.97487,2.19666 1.3495,3.35458 0.99615,2.65642 3.48229,4.46994 4.26559,7.22853 0.92379,2.73305 1.94123,5.59806 1.59215,8.53119 -0.13197,1.46444 -1.78797,1.64324 -2.78413,2.31586 -0.79607,0.39165 -1.14516,1.28564 -1.24307,2.12002 0.0426,1.53681 1.41761,2.57128 1.63046,4.057 0.61728,2.69899 1.44741,5.36819 1.66452,8.1438 0.55342,2.35417 0.36186,4.79348 0.31077,7.19022 -5.11276,0.0553 -10.23403,0.11494 -15.34678,-0.0341 0.66836,-4.27411 2.09874,-8.40348 2.68196,-12.69888 0.18731,-1.26435 0.54916,-2.49465 0.7237,-3.759 -0.58322,-2.40951 -1.91143,-4.57637 -2.30733,-7.03696 -0.22989,-1.79649 -0.97488,-3.48655 -1.08982,-5.29581 l 0.0937,-0.36185 c -0.1192,-0.149 -0.35334,-0.44274 -0.47254,-0.59174 -0.18731,-0.52788 -0.36185,-1.05575 -0.51511,-1.58789 l 0.11495,-0.35759 c -0.11069,-0.15752 -0.33206,-0.46828 -0.44274,-0.62154 l 0.009,-0.31928 c -0.034,-0.19157 -0.10642,-0.57045 -0.14048,-0.75776 l -0.31928,-0.17028 c -1.22178,-2.68622 -1.30693,-5.68321 -2.00934,-8.50565 -0.16177,-0.67688 -0.0937,-1.37504 -0.10643,-2.05617 l 0.0681,-0.36611 c -0.1192,-0.14049 -0.35759,-0.42997 -0.47679,-0.57471 -0.10217,-1.58363 0.43848,-3.44824 -0.77053,-4.73388 -1.09407,-1.29415 -2.09875,-2.72453 -2.44357,-4.41459 0.35334,-1.69006 0.45125,-3.41844 0.80459,-5.10424 0.37037,-0.36611 0.7833,-0.68965 1.15367,-1.06002 0.51085,-0.83864 0.40442,-1.95825 1.09833,-2.71176 1.61769,-1.91994 3.32478,-3.77177 5.24472,-5.39798 1.03022,-0.86419 1.83906,-1.93697 2.56702,-3.05658 0.86419,-0.37888 1.83481,-0.54491 2.57128,-1.17922 z"
         id="path7365" />
      <path
         inkscape:connector-curvature="0"
         style="fill:#ffffff"
         d="m 811.40062,889.69257 0.20434,-0.004 0,0.2086 -0.20434,0 0,-0.20434 z"
         id="path7367" />
      <path
         inkscape:connector-curvature="0"
         style="fill:#030303"
         d="m 817.22431,900.91424 c 0.20434,0.18305 0.61727,0.5449 0.82161,0.7237 0.47254,1.4687 -0.77053,2.91185 -0.0809,4.33371 0.10643,0.70242 0.17028,1.41761 0.33205,2.12003 0.34482,1.69006 1.3495,3.12044 2.44357,4.41459 1.20901,1.28564 0.66836,3.15025 0.77053,4.73388 0.0255,0.19157 0.0766,0.57896 0.10217,0.77479 l 0.30651,0.16603 c 0.0128,0.68113 -0.0553,1.37929 0.10643,2.05617 0.70241,2.82244 0.78756,5.81943 2.00934,8.50565 0.0341,0.18731 0.10217,0.57045 0.13623,0.75776 l 0.32353,0.17028 -0.009,0.31928 c 0.0128,0.19583 0.0426,0.58322 0.0553,0.77479 l 0.27245,0.20434 c 0.15326,0.53214 0.3278,1.06001 0.51511,1.58789 0.0213,0.19157 0.0681,0.57897 0.0894,0.77053 l 0.28948,0.18306 c 0.11494,1.80926 0.85993,3.49932 1.08982,5.29581 0.3959,2.46059 1.72411,4.62745 2.30733,7.03696 -0.17454,1.26435 -0.53639,2.49465 -0.7237,3.759 -0.58322,4.2954 -2.0136,8.42477 -2.68196,12.69888 l -0.37888,0.14048 -0.0851,-0.55768 c 0.54065,-3.00124 1.40483,-5.93437 1.89865,-8.94413 0.15752,-0.19582 0.15752,-0.19582 0,0 -1.01744,0.24692 -1.81777,0.92805 -2.59682,1.57938 -0.67261,0.48957 -1.42186,0.88548 -1.99657,1.49424 0.0256,0.49382 0.27671,0.9919 0.15751,1.48998 -0.36185,0.45976 -0.77904,0.87696 -1.17921,1.30692 -0.5747,0.53639 -1.11961,1.12387 -1.805,1.52829 -0.64708,0.40868 -1.29415,0.81736 -1.93697,1.23456 -0.79608,-0.30651 -1.63898,-0.70242 -2.07746,-1.47721 -0.70667,-1.21753 -1.57938,-2.31585 -2.42228,-3.43547 -0.36185,-0.5151 -0.77905,-0.98764 -1.17921,-1.46869 -0.004,-0.22562 -0.0128,-0.67688 -0.017,-0.89824 0.0511,-0.2682 0.149,-0.80033 0.19583,-1.06853 0.80459,-1.0813 1.55383,-2.23497 2.57127,-3.13321 0.79608,-0.37037 1.33247,0.50233 1.96678,0.8131 2.11151,-1.72412 4.29539,-3.37587 6.33454,-5.19364 1.03021,-0.79182 2.22219,-1.38781 3.09489,-2.37971 0.23414,-0.149 0.69817,-0.44699 0.92805,-0.59599 -0.22563,0.5747 -0.53639,1.1111 -0.86419,1.63046 -2.26902,1.11961 -4.00166,2.9757 -5.98546,4.49122 -0.94507,0.78331 -2.05191,1.40484 -2.75007,2.44357 1.21752,1.26435 2.25625,2.6777 3.42695,3.98037 0.31077,0.53639 1.1409,0.50234 1.41761,-0.0511 1.0217,-0.64707 1.954,-1.4176 2.91184,-2.14982 0.93656,-0.48957 1.8646,-1.06853 2.29031,-2.08597 l 0.22988,-0.24266 c -0.009,-0.20008 -0.034,-0.59599 -0.0426,-0.79181 0.30226,-1.64749 0.72796,-3.32053 0.47254,-5.00633 -0.2384,-0.95785 -0.70242,-1.83481 -1.06001,-2.75008 -0.80459,-1.98806 -1.04725,-4.12937 -1.50275,-6.20682 -0.34057,-1.64324 -0.99616,-3.19707 -1.55384,-4.77645 -0.27245,-1.34524 -0.63005,-2.67345 -1.17921,-3.93355 -0.63856,-1.91143 -0.77479,-3.95057 -1.43038,-5.85774 0.017,-2.24348 -0.60876,-4.42737 -0.49382,-6.66659 0.14474,-0.71519 -0.26394,-1.33673 -0.71519,-1.83906 -0.67262,-1.03447 -1.48998,-1.96252 -2.21369,-2.95442 -0.17879,-0.68964 -0.34908,-1.37929 -0.49807,-2.07745 0.004,-0.20434 0.004,-0.62154 0.009,-0.83013 -0.2384,-1.06853 -0.61302,-2.17963 -0.22137,-3.26093 0.4172,-0.9621 0.0213,-1.93697 -0.19582,-2.8863 m -2.91611,50.58265 c -0.16176,0.24266 -0.4853,0.72796 -0.64707,0.97062 -0.3278,0.62579 -1.15367,0.99616 -1.08556,1.80074 -0.26819,0.77479 0.58322,1.09833 0.94933,1.62621 0.72371,1.2303 1.72838,2.26051 2.42654,3.51635 0.40016,0.52788 0.77053,1.44315 1.57938,1.27712 0.86844,0.009 1.67729,-0.65133 2.23071,-1.18346 0.98764,-0.72371 1.81777,-1.63898 2.63513,-2.53723 -1.28989,-0.69816 -2.47762,-1.63897 -3.19281,-2.94164 -0.52362,-0.64708 -1.13664,-1.48998 -1.8348,-1.805 -0.62154,-0.61728 -1.22604,-1.2601 -1.96677,-1.73264 -0.45551,0.21286 -0.74925,0.6556 -1.09408,1.00893 z"
         id="path7369" />
      <path
         inkscape:connector-curvature="0"
         style="fill:#c5c5c5"
         d="m 844.50795,901.48043 c 0.6343,0.0298 1.28138,0.0341 1.91569,0.149 1.55809,1.67303 2.46485,3.8782 2.93313,6.09614 0.51085,2.30734 1.47295,4.55082 1.52403,6.9433 -0.33631,0.50234 -0.80459,0.9025 -1.17921,1.3793 -0.30225,0.71944 -0.34908,1.51552 -0.48956,2.27754 l -0.0681,0.20859 c -0.2086,0.0128 -0.62153,0.0383 -0.83013,0.0511 -1.12813,-3.63129 -1.72837,-7.41158 -3.13747,-10.95773 -0.88122,-1.93272 -0.73647,-4.08254 -0.66836,-6.14723 z"
         id="path7371" />
      <path
         inkscape:connector-curvature="0"
         style="fill:#818181"
         d="m 796.39866,904.48167 c 0.21285,-0.58322 0.87696,-0.70242 1.35375,-0.98338 -1.06001,3.18429 -2.103,6.40691 -2.39248,9.76574 -1.07278,3.89098 -2.05191,7.81175 -3.08213,11.71124 -0.13622,2.0434 -1.34524,3.83563 -1.39206,5.88754 -0.0937,1.3197 0.0468,2.82245 -0.78756,3.93781 -0.83014,0.43847 -1.73264,0.71519 -2.58831,1.09832 0.57896,-3.66109 2.11151,-7.06675 2.92036,-10.67676 0.45976,-0.30225 0.88973,-0.65133 0.79182,-1.26435 0.31502,-1.71561 0.8727,-3.36736 1.26009,-5.06593 0.48105,-1.85609 0.59599,-3.79306 1.2005,-5.62361 0.9621,-2.91184 1.31118,-6.02803 2.71602,-8.78662 z"
         id="path7373" />
      <path
         inkscape:connector-curvature="0"
         style="fill:#000000"
         d="m 812.73734,904.15813 0.31077,-0.14474 c -0.0298,0.17029 -0.0851,0.51511 -0.11494,0.68539 -0.85993,0.42997 -1.52404,1.11536 -2.17112,1.80926 -0.61301,0.68539 -1.4772,1.06002 -2.13705,1.69432 -1.17496,1.12387 -2.252,2.34566 -3.45249,3.44398 -0.20434,0.0298 -0.60877,0.0894 -0.81311,0.1192 1.69006,-1.89866 3.43547,-3.8186 5.53847,-5.27027 0.92378,-0.80884 1.64323,-1.89866 2.83947,-2.33714 z"
         id="path7375" />
      <path
         inkscape:connector-curvature="0"
         style="fill:#ffffff"
         d="m 817.63299,907.8916 c -0.59174,-0.298 -0.58748,-0.57471 0.009,-0.83013 -0.004,0.20859 -0.004,0.62579 -0.009,0.83013 z"
         id="path7377" />
      <path
         inkscape:connector-curvature="0"
         style="fill:#fdfdfd"
         d="m 846.00218,914.09842 c -0.60876,-1.96251 -1.656,-3.95057 -1.30266,-6.06208 0.94507,2.59682 1.93271,5.20215 2.39248,7.93946 0.23414,1.23455 0.5747,2.44356 0.85141,3.67386 -1.30692,-1.57512 -1.20475,-3.72921 -1.94123,-5.55124 z"
         id="path7379" />
      <path
         inkscape:connector-curvature="0"
         style="fill:#030303"
         d="m 811.97107,910.69701 c 0.43422,-0.71944 1.20901,-1.0813 2.01785,-1.21326 -0.56619,0.65133 -1.18772,1.25583 -1.7752,1.89014 -0.67688,0.7833 -1.71986,1.06853 -2.48614,1.74115 -2.03914,1.8944 -4.32519,3.52912 -5.9812,5.79389 -0.88547,0.63004 -1.72837,1.33246 -2.70324,1.82628 0.017,-0.28096 0.0511,-0.84715 0.0724,-1.12812 0.66836,-0.45125 1.36652,-0.85568 2.03914,-1.30267 0.10643,-2.08171 0.0255,-4.17194 0.0383,-6.25791 -0.73647,0.64282 -1.60066,1.20475 -2.14131,2.03488 -0.0213,1.62195 0.0894,3.24816 -0.004,4.87436 l -0.37036,0 c -0.0596,-1.71986 -0.0639,-3.43972 -0.0128,-5.15958 0.36185,-1.42612 1.74966,-1.97103 2.95867,-2.51594 0.0255,1.08556 0,2.17537 0.0383,3.26519 -0.0383,1.07704 -0.0553,2.16259 -0.0213,3.24389 1.81351,-1.7752 3.77177,-3.39715 5.6534,-5.10424 0.8429,-0.73647 2.0434,-1.00893 2.67771,-1.98806 z"
         id="path7381" />
      <path
         inkscape:connector-curvature="0"
         style="fill:#818181"
         d="m 818.13106,909.96905 c 0.72371,0.9919 1.54107,1.91995 2.21369,2.95442 -0.32354,0.71944 -0.0894,1.58363 0.71519,1.83906 -0.11494,2.23922 0.51085,4.42311 0.49382,6.66659 -0.91953,-1.28564 -1.79649,-2.65216 -2.08171,-4.23154 -0.48105,-2.40525 -0.78756,-4.8403 -1.34099,-7.22853 z"
         id="path7383" />
      <path
         inkscape:connector-curvature="0"
         style="fill:#b7b7b7"
         d="m 820.34475,912.92347 c 0.45125,0.50233 0.85993,1.12387 0.71519,1.83906 -0.80459,-0.25543 -1.03873,-1.11962 -0.71519,-1.83906 z"
         id="path7385" />
      <path
         inkscape:connector-curvature="0"
         style="fill:#000000"
         d="m 810.68968,919.61134 c 1.94123,-1.51977 3.81435,-3.12895 5.80667,-4.58913 -0.0468,0.20008 -0.149,0.60025 -0.20009,0.79607 -1.76243,1.36653 -3.40992,2.87779 -5.18938,4.22303 -2.401,1.55809 -5.19364,2.69048 -6.96459,5.0489 -0.51936,1.04299 0.64708,1.81352 0.71945,2.80542 0.24691,1.74966 1.39632,3.25241 1.37078,5.06167 -0.9919,0.38739 -1.91995,0.89824 -2.8565,1.39206 -0.89825,-2.23071 -1.58364,-4.53805 -2.55851,-6.73896 0.17454,-0.97061 0.70668,-1.805 1.30692,-2.56702 0.64708,-0.17454 1.43038,-0.0936 1.86461,-0.71093 1.79223,-2.14131 4.40608,-3.23964 6.70064,-4.72111 m -7.77769,6.6666 c -0.47679,0.42996 -0.93655,0.88547 -1.37503,1.35375 -0.298,0.65559 0.77053,0.94507 0.34056,1.60066 l -0.0937,0.53639 0.48956,-0.0979 c 0.60451,1.22604 0.65134,2.69473 1.47295,3.80158 0.54917,-0.447 1.06853,-0.94082 1.51127,-1.4985 -0.90676,-1.88163 -1.4687,-3.88671 -2.17537,-5.84497 l -0.17029,0.149 z"
         id="path7387" />
      <path
         inkscape:connector-curvature="0"
         style="fill:#ffffff"
         d="m 821.51119,917.24015 c 0.1192,0.14474 0.35759,0.43422 0.47679,0.57471 l -0.0681,0.36611 -0.30651,-0.16603 c -0.0255,-0.19583 -0.0766,-0.58322 -0.10217,-0.77479 z"
         id="path7389" />
      <path
         inkscape:connector-curvature="0"
         style="fill:#ffffff"
         d="m 848.31378,918.58539 c 0.2086,-0.0128 0.62153,-0.0383 0.83013,-0.0511 0.0596,0.87696 -1.2005,1.10259 -0.83013,0.0511 z"
         id="path7391" />
      <path
         inkscape:connector-curvature="0"
         style="fill:#ffffff"
         d="m 810.99194,920.65859 c 0.58322,-0.149 0.80884,0.0724 0.6641,0.67262 -0.58748,0.14474 -0.80884,-0.0809 -0.6641,-0.67262 z"
         id="path7393" />
      <path
         inkscape:connector-curvature="0"
         style="fill:#040404"
         d="m 819.99141,920.75224 c 0.19583,-0.034 0.58322,-0.10217 0.77479,-0.14048 -0.2682,0.58748 -0.90676,0.83013 -1.3793,1.21752 -1.45592,1.13665 -3.01401,2.14557 -4.38905,3.38439 -2.65216,2.09022 -5.48738,3.94631 -8.00331,6.19831 -0.14474,-0.88973 0.6343,-1.4091 1.23029,-1.8944 2.06469,-1.47721 4.06552,-3.03956 6.10892,-4.53805 1.74114,-1.59641 3.75474,-2.84374 5.65766,-4.22729 z"
         id="path7395" />
      <path
         inkscape:connector-curvature="0"
         style="fill:#ffffff"
         d="m 848.41169,921.41209 0.27246,0.20008 c 0.0128,0.19583 0.0383,0.58322 0.0511,0.77905 -0.11068,-0.15326 -0.32779,-0.45977 -0.43848,-0.61302 l 0.11494,-0.36611 z"
         id="path7397" />
      <path
         inkscape:connector-curvature="0"
         style="fill:#ffffff"
         d="m 848.78632,923.96634 c 0.59173,0.41719 0.47679,1.19198 0.38739,1.81352 -0.5747,-0.42997 -0.66836,-1.18773 -0.38739,-1.81352 z"
         id="path7399" />
      <path
         inkscape:connector-curvature="0"
         style="fill:#c5c5c5"
         d="m 785.93049,927.22301 c 1.39207,-0.88973 2.9459,-1.46444 4.49974,-2.00083 -0.80885,3.61001 -2.3414,7.01567 -2.92036,10.67676 -1.36652,0.94933 -2.74156,1.87738 -4.07829,2.86502 -3.36735,2.20517 -7.0327,3.91652 -10.74061,5.45758 -0.88973,0.36185 -1.69432,1.03873 -2.66494,1.1409 -0.89399,-0.38314 -1.64323,-1.04724 -2.57979,-1.33247 -0.70668,-0.28948 -1.51552,-0.39591 -2.103,-0.91527 -0.24265,-0.69816 0.20434,-1.31118 0.50234,-1.90292 0.61727,-1.1111 1.13238,-2.27328 1.75391,-3.37586 0.46828,-0.85142 1.46444,-1.12387 2.252,-1.57513 1.0217,-0.48105 1.83055,-1.29415 2.77562,-1.89865 2.92887,-1.74115 5.90883,-3.41844 9.0761,-4.68279 1.32395,-0.96211 2.86927,-1.54533 4.22728,-2.45634 z"
         id="path7401" />
      <path
         inkscape:connector-curvature="0"
         style="fill:#ffffff"
         d="m 802.91199,926.27794 0.17029,-0.149 c 0.70667,1.95826 1.26861,3.96334 2.17537,5.84497 -0.44274,0.55768 -0.9621,1.0515 -1.51127,1.4985 -0.82161,-1.10685 -0.86844,-2.57554 -1.47295,-3.80158 l -0.48956,0.0979 0.0937,-0.53639 c 0.42997,-0.65559 -0.63856,-0.94507 -0.34056,-1.60066 0.43848,-0.46828 0.89824,-0.92379 1.37503,-1.35375 z"
         id="path7403" />
      <path
         inkscape:connector-curvature="0"
         style="fill:#010101"
         d="m 815.30436,932.34428 c 2.09023,-1.1707 4.15066,-2.39674 6.2494,-3.55041 0.2384,-0.017 0.71519,-0.0553 0.95359,-0.0724 -2.46911,1.94975 -5.52144,2.99699 -7.99906,4.93822 -1.78372,1.21752 -3.48655,2.53722 -5.23621,3.80157 0.84716,2.20091 2.44782,3.98037 3.44823,6.1004 3.73346,-2.23071 7.24981,-4.79773 10.68954,-7.44564 0.49808,-0.10642 1.00041,-0.17879 1.507,-0.21285 l 0.0766,0.35759 c -1.48998,0.13623 -2.43505,1.39207 -3.61,2.16686 -2.45208,1.67729 -4.76368,3.57169 -7.39456,4.97653 -0.68113,0.29374 -0.72796,1.09833 -0.8429,1.73689 -0.82162,1.58363 -2.54148,2.28605 -3.90374,3.3035 -0.5662,0.51085 -1.3793,0.32779 -2.06469,0.26819 -1.48998,-1.46444 -2.20091,-3.49932 -3.46526,-5.13404 -0.72796,-0.9025 -1.20902,-2.02211 -0.89399,-3.19281 1.63898,-1.05576 2.90759,-2.57554 4.60191,-3.55892 0.65559,-0.0213 1.33246,0.0681 1.97528,-0.0937 0.48957,-0.37462 0.93656,-0.80033 1.39632,-1.2005 0.17454,-0.10217 0.51511,-0.30651 0.68965,-0.40868 1.24733,-0.9621 2.56702,-1.83054 3.82286,-2.77987 m -9.15698,5.93437 0.25542,0.34057 -0.47679,-0.0255 c -0.80459,0.85567 -1.69432,1.60917 -2.71602,2.19239 -0.22988,1.01745 0.60876,1.80926 1.09407,2.60534 1.19624,1.57086 1.8646,3.51635 3.29924,4.90841 0.17028,0.0128 0.51511,0.0383 0.68539,0.0511 1.42187,-1.0217 3.07361,-1.805 4.23154,-3.16301 -0.44699,-2.56277 -2.40099,-4.58488 -3.51635,-6.90073 -0.45125,-0.2086 -0.74073,-0.55342 -0.86844,-1.03447 -0.79608,0 -1.2005,0.91527 -1.98806,1.02595 z"
         id="path7405" />
      <path
         inkscape:connector-curvature="0"
         style="fill:#ffffff"
         d="m 824.03564,928.74279 0.31928,0.17028 c 0.0341,0.18731 0.10643,0.56619 0.14048,0.75776 l -0.32353,-0.17028 c -0.0341,-0.18731 -0.10217,-0.57045 -0.13623,-0.75776 z"
         id="path7407" />
      <path
         inkscape:connector-curvature="0"
         style="fill:#ffffff"
         d="m 815.58959,929.32175 c 0.58747,-0.15325 0.80884,0.0681 0.65559,0.65985 -0.59599,0.15325 -0.81311,-0.0681 -0.65559,-0.65985 z"
         id="path7409" />
      <path
         inkscape:connector-curvature="0"
         style="fill:#ffffff"
         d="m 824.48689,929.99011 c 0.11068,0.15326 0.33205,0.46402 0.44274,0.62154 l -0.11495,0.35759 -0.27245,-0.20434 c -0.0128,-0.19157 -0.0426,-0.57896 -0.0553,-0.77479 z"
         id="path7411" />
      <path
         inkscape:connector-curvature="0"
         style="fill:#818181"
         d="m 824.16335,931.22041 c 0.55768,1.57938 1.21327,3.13321 1.55384,4.77645 0.4555,2.07745 0.69816,4.21876 1.50275,6.20682 0.35759,0.91527 0.82161,1.79223 1.06001,2.75008 0.25542,1.6858 -0.17028,3.35884 -0.47254,5.00633 -0.0894,0.17028 -0.26819,0.51085 -0.35333,0.68113 l 0.16602,0.35334 c -0.42571,1.01744 -1.35375,1.5964 -2.29031,2.08597 0.0851,-2.95016 1.98806,-5.75132 0.97913,-8.71425 0.3278,-0.51936 0.63856,-1.05576 0.86419,-1.63046 -0.22988,0.149 -0.69391,0.44699 -0.92805,0.59599 -0.96635,-2.24774 -0.75776,-4.72111 -1.25158,-7.07102 l -0.0766,-0.35759 c -0.37462,-1.54106 -0.78756,-3.08639 -0.7535,-4.68279 z"
         id="path7413" />
      <path
         inkscape:connector-curvature="0"
         style="fill:#ffffff"
         d="m 825.32979,932.55713 c 0.1192,0.149 0.35334,0.44274 0.47254,0.59174 l -0.0937,0.36185 -0.28948,-0.18306 c -0.0213,-0.19156 -0.0681,-0.57896 -0.0894,-0.77053 z"
         id="path7415" />
      <path
         inkscape:connector-curvature="0"
         style="fill:#ffffff"
         d="m 810.79185,935.53283 c -0.0426,-0.70241 0.18732,-0.83864 0.68965,-0.40868 -0.17454,0.10217 -0.51511,0.30651 -0.68965,0.40868 z"
         id="path7417" />
      <path
         inkscape:connector-curvature="0"
         style="fill:#c5c5c5"
         d="m 821.38348,938.42765 c 1.17495,-0.77479 2.12002,-2.03063 3.61,-2.16686 0.49382,2.34991 0.28523,4.82328 1.25158,7.07102 -0.8727,0.9919 -2.06468,1.58789 -3.09489,2.37971 -2.03915,1.81777 -4.22303,3.46952 -6.33454,5.19364 -0.63431,-0.31077 -1.1707,-1.18347 -1.96678,-0.8131 -1.01744,0.89824 -1.76668,2.05191 -2.57127,3.13321 -0.0468,0.2682 -0.14474,0.80033 -0.19583,1.06853 -0.17454,0.017 -0.53213,0.0553 -0.70668,0.0766 l -0.15751,0.3278 0.15326,0.34057 c 0.1788,0.0383 0.5449,0.11494 0.72796,0.15325 0.40016,0.48105 0.81736,0.95359 1.17921,1.46869 -0.21711,1.46444 -1.8348,1.6475 -2.89056,2.25626 -1.27712,0.95358 -2.9757,0.0937 -4.35499,0.75776 -1.97103,0.83013 -3.86118,1.84332 -5.84072,2.65216 -3.68663,0.0851 -7.39455,0.11069 -11.08119,-0.0298 l 0.0596,-0.22562 c 1.02596,-0.77479 2.0732,-1.57087 3.32904,-1.94123 1.12813,-0.28948 1.51552,-1.57087 2.46059,-2.12003 1.81778,-0.73648 3.81861,-0.89399 5.61935,-1.67303 1.07279,-0.49808 2.2818,-0.2682 3.41844,-0.41294 0.64708,0.0468 0.80033,-0.67688 1.06853,-1.10684 -0.72796,0.33205 -1.4389,0.79182 -2.27328,0.7535 -1.9838,0.0298 -4.06126,0.20008 -5.93863,-0.56619 -0.0511,-0.45551 -0.0596,-0.91527 -0.017,-1.37078 0.32354,-0.0937 0.9621,-0.28948 1.28138,-0.38314 -1.30267,-1.13238 -2.80542,-1.98806 -4.17194,-3.02678 -0.33205,-0.58322 0.29374,-0.95785 0.59173,-1.37078 -0.61727,-0.58748 -1.23881,-1.28564 -1.18347,-2.20092 0.57471,-0.0639 1.14516,-0.0724 1.71987,-0.017 0.68964,0.60024 1.14941,1.42186 1.85608,2.00934 2.30309,1.38781 4.86159,2.24774 7.3009,3.35032 0.51085,0.33205 1.00467,-0.13622 1.46444,-0.31502 1.26861,-0.75351 2.82244,-0.71519 4.10382,-1.4389 0.73222,-0.3959 1.56661,-0.64707 2.20517,-1.19198 0.43423,-1.27287 1.26861,-2.52445 1.1409,-3.908 0.11494,-0.63856 0.16177,-1.44315 0.8429,-1.73689 2.63088,-1.40484 4.94248,-3.29924 7.39456,-4.97653 z"
         id="path7419" />
      <path
         inkscape:connector-curvature="0"
         style="fill:#fdfdfd"
         d="m 806.14738,938.27865 c 0.78756,-0.11068 1.19198,-1.02595 1.98806,-1.02595 0.12771,0.48105 0.41719,0.82587 0.86844,1.03447 1.11536,2.31585 3.06936,4.33796 3.51635,6.90073 -1.15793,1.35801 -2.80967,2.14131 -4.23154,3.16301 -0.17028,-0.0128 -0.51511,-0.0383 -0.68539,-0.0511 -1.43464,-1.39206 -2.103,-3.33755 -3.29924,-4.90841 -0.48531,-0.79608 -1.32395,-1.58789 -1.09407,-2.60534 1.0217,-0.58322 1.91143,-1.33672 2.71602,-2.19239 l 0.47679,0.0255 c -0.49382,1.2005 -2.23071,1.81352 -1.92846,3.28221 1.03022,1.73263 2.09023,3.45675 3.22262,5.12978 1.49423,0.37888 2.38822,-1.19624 3.55466,-1.8348 0.0341,-0.67262 0.2682,-1.51552 -0.27671,-2.04766 -1.3793,-1.46443 -2.15408,-3.34606 -3.3035,-4.96801 -0.42145,-0.21286 -0.85567,0.33631 -1.26861,0.43848 l -0.25542,-0.34057 z"
         id="path7421" />
      <path
         inkscape:connector-curvature="0"
         style="fill:#070707"
         d="m 806.4028,938.61922 c 0.41294,-0.10217 0.84716,-0.65134 1.26861,-0.43848 1.14942,1.62195 1.9242,3.50358 3.3035,4.96801 0.54491,0.53214 0.31077,1.37504 0.27671,2.04766 -1.16644,0.63856 -2.06043,2.21368 -3.55466,1.8348 -1.13239,-1.67303 -2.1924,-3.39715 -3.22262,-5.12978 -0.30225,-1.46869 1.43464,-2.08171 1.92846,-3.28221 m 0.40017,0.35759 c -0.31503,1.07705 -1.43464,1.60067 -1.93272,2.53722 0.90676,1.80501 2.27754,3.32479 3.21836,5.11276 0.11494,-0.017 0.34482,-0.0511 0.45976,-0.0639 0.67688,-0.70667 1.48147,-1.24732 2.30308,-1.76668 0.12772,-0.57471 -0.0298,-1.12813 -0.5151,-1.47296 -1.16219,-1.25158 -1.94549,-2.79264 -2.61811,-4.34648 -0.22562,0 -0.68539,0 -0.91527,0 z"
         id="path7423" />
      <path
         inkscape:connector-curvature="0"
         style="fill:#ffffff"
         d="m 806.80297,938.97681 c 0.22988,0 0.68965,0 0.91527,0 0.67262,1.55384 1.45592,3.0949 2.61811,4.34648 0.4853,0.34483 0.64282,0.89825 0.5151,1.47296 -0.82161,0.51936 -1.6262,1.06001 -2.30308,1.76668 -0.11494,0.0128 -0.34482,0.0468 -0.45976,0.0639 -0.94082,-1.78797 -2.3116,-3.30775 -3.21836,-5.11276 0.49808,-0.93655 1.61769,-1.46017 1.93272,-2.53722 z"
         id="path7425" />
      <path
         inkscape:connector-curvature="0"
         style="fill:#c5c5c5"
         d="m 844.6612,939.50043 c 0.80885,-0.46827 1.3495,0.47254 1.80075,0.97913 0.33205,1.5879 0.82162,3.20984 0.54065,4.84456 -0.31928,0.76202 -0.81736,1.44315 -1.3495,2.0732 -1.17495,0.16603 -2.37971,0.15326 -3.55466,0 -0.62579,-0.96635 -0.76627,-2.32436 -1.87312,-2.89907 -0.64707,-0.26394 -0.41719,-1.08556 -0.36185,-1.60918 0.39591,-0.40868 1.00042,-0.46402 1.48572,-0.7237 0.44274,-0.56619 0.51937,-1.58789 1.44741,-1.50275 0.81736,0 1.27287,-0.71945 1.8646,-1.16219 z"
         id="path7427" />
      <path
         inkscape:connector-curvature="0"
         style="fill:#c5c5c5"
         d="m 820.32346,948.8575 c 1.9838,-1.51552 3.71644,-3.37161 5.98546,-4.49122 1.00893,2.96293 -0.89399,5.76409 -0.97913,8.71425 -0.95784,0.73222 -1.89014,1.50275 -2.91184,2.14982 -0.35334,0.0128 -1.06427,0.0383 -1.41761,0.0511 -1.1707,-1.30267 -2.20943,-2.71602 -3.42695,-3.98037 0.69816,-1.03873 1.805,-1.66026 2.75007,-2.44357 z"
         id="path7429" />
      <path
         inkscape:connector-curvature="0"
         style="fill:#c5c5c5"
         d="m 846.59392,947.45692 c 0.31502,-0.6045 1.05576,-0.39165 1.59641,-0.37888 0.73647,1.68155 0.52362,3.54615 0.64281,5.32987 -0.0553,1.66026 -0.83438,3.16301 -1.04298,4.79773 -0.2086,1.75392 -1.30692,3.27795 -1.24307,5.0787 -0.68113,0.10217 -1.37078,0.11068 -2.05617,0.0894 l 0.0468,-0.298 c 0.29799,-0.0639 0.89824,-0.19157 1.19624,-0.25542 0.0851,-0.74925 0.10217,-1.51127 -0.0383,-2.252 -0.48105,-0.26394 -0.98338,-0.47679 -1.45166,-0.74924 -0.60451,-1.38781 -0.93656,-2.86928 -1.2005,-4.35074 -0.23414,-1.29841 -0.92378,-2.57128 -0.62579,-3.91652 0.8131,-0.8131 2.54574,-0.52788 2.86502,-1.82629 0.0128,-0.82161 0.91953,-0.74924 1.31118,-1.26861 m -2.2818,3.89098 c -0.16602,0.62153 0.10217,1.34098 0.33206,1.92845 0.65133,-0.19582 0.54064,-2.09022 -0.33206,-1.92845 z"
         id="path7431" />
      <path
         inkscape:connector-curvature="0"
         style="fill:#ffffff"
         d="m 827.45408,950.64122 c 0.0851,-0.17028 0.26393,-0.51085 0.35333,-0.68113 0.009,0.19582 0.0341,0.59173 0.0426,0.79181 l -0.22988,0.24266 -0.16602,-0.35334 z"
         id="path7433" />
      <path
         inkscape:connector-curvature="0"
         style="fill:#c5c5c5"
         d="m 814.3082,951.49689 c 0.34483,-0.35333 0.63857,-0.79607 1.09408,-1.00893 0.74073,0.47254 1.34523,1.11536 1.96677,1.73264 -0.26394,0.11068 -0.78756,0.32779 -1.0515,0.43422 -0.18306,-0.17028 -0.54917,-0.50659 -0.73222,-0.67262 -0.41294,-0.2086 -0.83439,-0.37037 -1.27713,-0.48531 z"
         id="path7435" />
      <path
         inkscape:connector-curvature="0"
         style="fill:#ffffff"
         d="m 844.31212,951.3479 c 0.8727,-0.16177 0.98339,1.73263 0.33206,1.92845 -0.22989,-0.58747 -0.49808,-1.30692 -0.33206,-1.92845 z"
         id="path7437" />
      <path
         inkscape:connector-curvature="0"
         style="fill:#ebebeb"
         d="m 813.66113,952.46751 c 0.16177,-0.24266 0.48531,-0.72796 0.64707,-0.97062 0.44274,0.11494 0.86419,0.27671 1.27713,0.48531 -0.65985,0.59599 -1.33247,1.18773 -1.89015,1.89015 0.28949,0.92378 0.95359,1.67303 1.51553,2.44782 0.77904,0.89824 1.23881,2.00934 1.81777,3.0353 0.53214,0.0383 1.06427,0.0553 1.60492,0.0468 -0.37462,0.42145 -0.73647,0.85567 -1.10258,1.28563 -0.80885,0.16603 -1.17922,-0.74924 -1.57938,-1.27712 -0.69816,-1.25584 -1.70283,-2.28605 -2.42654,-3.51635 -0.36611,-0.52788 -1.21752,-0.85142 -0.94933,-1.62621 -0.0681,-0.80458 0.75776,-1.17495 1.08556,-1.80074 z"
         id="path7439" />
      <path
         inkscape:connector-curvature="0"
         style="fill:#070707"
         d="m 813.69518,953.87235 c 0.55768,-0.70242 1.2303,-1.29416 1.89015,-1.89015 0.18305,0.16603 0.54916,0.50234 0.73222,0.67262 1.64323,1.57086 2.98847,3.62703 5.23621,4.37628 -0.54065,0.57896 -1.13238,1.10259 -1.76243,1.58789 -0.39165,0.25117 -0.77479,0.51511 -1.15793,0.78331 -0.54065,0.009 -1.07278,-0.009 -1.60492,-0.0468 -0.57896,-1.02596 -1.03873,-2.13706 -1.81777,-3.0353 -0.56194,-0.77479 -1.22604,-1.52404 -1.51553,-2.44782 m 0.55768,0.11919 c 0.43848,1.01745 1.30267,1.72838 1.99657,2.56277 0.45977,0.76627 0.77479,1.60492 1.16645,2.40951 0.95784,0.14474 1.8348,-0.66837 2.4393,-1.28564 l 0.28097,-0.0511 0.1192,-0.36611 c -0.13623,-0.17454 -0.40868,-0.51936 -0.54491,-0.6939 l -0.27671,0.0936 c -1.32821,-1.20049 -2.46485,-2.63513 -3.89097,-3.70366 -0.48957,0.25543 -0.88547,0.66411 -1.2899,1.03447 z"
         id="path7441" />
      <path
         inkscape:connector-curvature="0"
         style="fill:#ffffff"
         d="m 817.36905,952.2206 c 0.69816,0.31502 1.31118,1.15792 1.8348,1.805 0.71519,1.30267 1.90292,2.24348 3.19281,2.94164 -0.81736,0.89825 -1.64749,1.81352 -2.63513,2.53723 0.009,-0.22137 0.0213,-0.66411 0.0298,-0.88548 0.63005,-0.4853 1.22178,-1.00893 1.76243,-1.58789 -2.24774,-0.74925 -3.59298,-2.80542 -5.23621,-4.37628 0.26394,-0.10643 0.78756,-0.32354 1.0515,-0.43422 z"
         id="path7443" />
      <path
         inkscape:connector-curvature="0"
         style="fill:#818181"
         d="m 827.13479,952.94004 c 0.15752,-0.19582 0.15752,-0.19582 0,0 z"
         id="path7445" />
      <path
         inkscape:connector-curvature="0"
         style="fill:#c5c5c5"
         d="m 814.25286,953.99154 c 0.40443,-0.37036 0.80033,-0.77904 1.2899,-1.03447 1.42612,1.06853 2.56276,2.50317 3.89097,3.70366 0.10643,0.25117 0.31503,0.76202 0.42145,1.01745 -0.6045,0.61727 -1.48146,1.43038 -2.4393,1.28564 -0.39166,-0.80459 -0.70668,-1.64324 -1.16645,-2.40951 -0.6939,-0.83439 -1.55809,-1.54532 -1.99657,-2.56277 z"
         id="path7447" />
      <path
         inkscape:connector-curvature="0"
         style="fill:#818181"
         d="m 824.53797,954.51942 c 0.77905,-0.65133 1.57938,-1.33246 2.59682,-1.57938 -0.49382,3.00976 -1.358,5.94289 -1.89865,8.94413 -0.46403,0.92379 -1.74967,0.37037 -2.57128,0.42997 0.0724,-0.86419 0.10643,-1.74966 0.46402,-2.55425 0.67262,-1.6858 1.03447,-3.46952 1.40909,-5.24047 z"
         id="path7449" />
      <path
         inkscape:connector-curvature="0"
         style="fill:#ffffff"
         d="m 811.37507,954.37042 c 0.17455,-0.0213 0.53214,-0.0596 0.70668,-0.0766 0.004,0.22136 0.0128,0.67262 0.017,0.89824 -0.18306,-0.0383 -0.54916,-0.11494 -0.72796,-0.15325 l -0.15326,-0.34057 0.15751,-0.3278 z"
         id="path7451" />
      <path
         inkscape:connector-curvature="0"
         style="fill:#c5c5c5"
         d="m 822.5414,956.01366 c 0.57471,-0.60876 1.32396,-1.00467 1.99657,-1.49424 -0.37462,1.77095 -0.73647,3.55467 -1.40909,5.24047 -0.35759,0.80459 -0.39165,1.69006 -0.46402,2.55425 -0.63431,0.0724 -1.27287,0.0894 -1.90718,0.0894 0.25969,-1.2005 0.45551,-2.40951 0.76202,-3.59298 0.40017,-0.42996 0.81736,-0.84716 1.17921,-1.30692 0.1192,-0.49808 -0.13196,-0.99616 -0.15751,-1.48998 z"
         id="path7453" />
      <path
         inkscape:connector-curvature="0"
         style="fill:#ffffff"
         d="m 821.00034,955.28144 c 0.35334,-0.0128 1.06427,-0.0383 1.41761,-0.0511 -0.27671,0.55343 -1.10684,0.58748 -1.41761,0.0511 z"
         id="path7455" />
      <path
         inkscape:connector-curvature="0"
         style="fill:#ffffff"
         d="m 819.43373,956.66073 0.27671,-0.0936 c 0.13623,0.17454 0.40868,0.51936 0.54491,0.6939 l -0.1192,0.36611 -0.28097,0.0511 c -0.10642,-0.25543 -0.31502,-0.76628 -0.42145,-1.01745 z"
         id="path7457" />
      <path
         inkscape:connector-curvature="0"
         style="fill:#c5c5c5"
         d="m 818.6334,959.4023 c 0.38314,-0.2682 0.76628,-0.53214 1.15793,-0.78331 -0.009,0.22137 -0.0213,0.66411 -0.0298,0.88548 -0.55342,0.53213 -1.36227,1.19198 -2.23071,1.18346 0.36611,-0.42996 0.72796,-0.86418 1.10258,-1.28563 z"
         id="path7459" />
      <path
         inkscape:connector-curvature="0"
         style="fill:#c5c5c5"
         d="m 817.77773,961.57341 c 0.64282,-0.4172 1.28989,-0.82588 1.93697,-1.23456 0.0596,0.67262 0.0894,1.3495 0.0639,2.02638 -0.70668,0.0468 -1.41336,0.0298 -2.11577,-0.0383 0.0298,-0.18731 0.0851,-0.56619 0.11494,-0.7535 z"
         id="path7461" />
    </g>
    <text
       xml:space="preserve"
       style="font-size:40px;font-style:normal;font-weight:normal;line-height:125%;letter-spacing:0px;word-spacing:0px;fill:#000000;fill-opacity:1;stroke:none;font-family:Sans"
       x="200.00002"
       y="378.07645"
       id="text3087"
       sodipodi:linespacing="125%"><tspan
         sodipodi:role="line"
         id="tspan3089"
         x="200.00002"
         y="378.07645"
         style="font-size:150px;font-style:normal;font-variant:normal;font-weight:bold;font-stretch:normal;text-align:start;line-height:125%;writing-mode:lr-tb;text-anchor:start;font-family:Sans;-inkscape-font-specification:Sans Bold">Porque</tspan><tspan
         sodipodi:role="line"
         x="200.00002"
         y="665.25134"
         id="tspan3105"
         style="font-size:250px;font-style:normal;font-variant:normal;font-weight:bold;font-stretch:normal;text-align:start;line-height:125%;writing-mode:lr-tb;text-anchor:start;font-family:Sans;-inkscape-font-specification:Sans Bold">  S </tspan></text>
  </g>
</svg>
