<?xml version="1.0" encoding="UTF-8" standalone="no"?>
<!-- Created with Inkscape (http://www.inkscape.org/) -->

<svg
   xmlns:dc="http://purl.org/dc/elements/1.1/"
   xmlns:cc="http://creativecommons.org/ns#"
   xmlns:rdf="http://www.w3.org/1999/02/22-rdf-syntax-ns#"
   xmlns:svg="http://www.w3.org/2000/svg"
   xmlns="http://www.w3.org/2000/svg"
   xmlns:sodipodi="http://sodipodi.sourceforge.net/DTD/sodipodi-0.dtd"
   xmlns:inkscape="http://www.inkscape.org/namespaces/inkscape"
   width="900"
   height="900"
   id="svg4328"
   version="1.1"
   inkscape:version="0.48.4 r9939"
   sodipodi:docname="como.svg">
  <defs
     id="defs4330">
    <inkscape:perspective
       sodipodi:type="inkscape:persp3d"
       inkscape:vp_z="540.08875 : 278.36438 : 1"
       inkscape:vp_y="0 : 1000 : 0"
       inkscape:vp_x="0 : 278.36438 : 1"
       inkscape:persp3d-origin="270.04437 : 185.57625 : 1"
       id="perspective35" />
  </defs>
  <sodipodi:namedview
     id="base"
     pagecolor="#ffffff"
     bordercolor="#666666"
     borderopacity="1.0"
     inkscape:pageopacity="0.0"
     inkscape:pageshadow="2"
     inkscape:zoom="0.49497475"
     inkscape:cx="341.59226"
     inkscape:cy="233.45538"
     inkscape:document-units="px"
     inkscape:current-layer="layer1"
     showgrid="false"
     inkscape:window-width="1438"
     inkscape:window-height="875"
     inkscape:window-x="0"
     inkscape:window-y="0"
     inkscape:window-maximized="1" />
  <metadata
     id="metadata4333">
    <rdf:RDF>
      <cc:Work
         rdf:about="">
        <dc:format>image/svg+xml</dc:format>
        <dc:type
           rdf:resource="http://purl.org/dc/dcmitype/StillImage" />
        <dc:title />
      </cc:Work>
    </rdf:RDF>
  </metadata>
  <g
     inkscape:label="Capa 1"
     inkscape:groupmode="layer"
     id="layer1"
     transform="translate(0,-152.36218)">
    <g
       id="g3235">
      <g
         transform="translate(1.1117681,1.5681808)"
         id="g3050">
        <g
           style="overflow:visible"
           id="g3104"
           transform="matrix(4.6535746,0,0,4.6535746,39.263887,213.44762)">
          <g
             transform="matrix(0.23805273,0,0,0.23148791,-3.3284999e-7,1.8373001e-7)"
             id="g3002">
            <path
               style="fill:#092e20"
               inkscape:connector-curvature="0"
               d="m 504.09,187.994 c 0,15.464 -12.536,28 -28,28 H 28 c -15.464,0 -28,-12.536 -28,-28 V 28 C 0,12.536 12.536,0 28,0 h 448.09 c 15.464,0 28,12.536 28,28 v 159.994 z"
               id="path3" />
            <g
               id="g5">
              <g
                 id="g7">
                <path
                   style="fill:#ffffff"
                   inkscape:connector-curvature="0"
                   d="m 86.945,33.919 h 23.872 v 110.496 c -12.246,2.325 -21.237,3.255 -31.002,3.255 -29.142,0 -44.333,-13.174 -44.333,-38.443 0,-24.336 16.122,-40.147 41.078,-40.147 3.875,0 6.82,0.311 10.386,1.239 v -36.4 z m 0,55.62 C 84.155,88.61 81.83,88.3 78.885,88.3 c -12.091,0 -19.067,7.441 -19.067,20.46 0,12.713 6.666,19.688 18.912,19.688 2.634,0 4.805,-0.155 8.215,-0.618 V 89.539 z"
                   id="path9" />
                <path
                   style="fill:#ffffff"
                   inkscape:connector-curvature="0"
                   d="m 148.793,70.783 v 55.341 c 0,19.065 -1.395,28.21 -5.58,36.117 -3.876,7.596 -8.992,12.399 -19.532,17.67 L 101.514,169.37 c 10.541,-4.96 15.656,-9.297 18.911,-15.966 3.411,-6.819 4.497,-14.727 4.497,-35.498 V 70.783 h 23.871 z M 124.922,34.046 h 23.871 V 58.539 H 124.922 V 34.046 z"
                   id="path11" />
                <path
                   style="fill:#ffffff"
                   inkscape:connector-curvature="0"
                   d="m 163.212,76.209 c 10.542,-4.961 20.617,-7.13 31.623,-7.13 12.246,0 20.306,3.255 23.872,9.611 2.014,3.564 2.634,8.214 2.634,18.137 v 48.517 c -10.697,1.552 -24.182,2.636 -34.102,2.636 -19.996,0 -28.988,-6.977 -28.988,-22.476 0,-16.744 11.936,-24.493 41.234,-26.975 v -5.271 c 0,-4.339 -2.17,-5.888 -8.216,-5.888 -8.835,0 -18.756,2.479 -28.058,7.285 V 76.209 z m 37.358,37.978 c -15.812,1.552 -20.927,4.031 -20.927,10.231 0,4.65 2.946,6.821 9.456,6.821 3.566,0 6.82,-0.311 11.471,-1.084 v -15.968 z"
                   id="path13" />
                <path
                   style="fill:#ffffff"
                   inkscape:connector-curvature="0"
                   d="m 232.968,74.505 c 14.105,-3.722 25.731,-5.426 37.512,-5.426 12.246,0 21.082,2.788 26.354,8.216 4.96,5.113 6.509,10.693 6.509,22.632 v 46.813 h -23.871 v -45.884 c 0,-9.145 -3.1,-12.557 -11.625,-12.557 -3.255,0 -6.2,0.311 -11.007,1.706 v 56.734 H 232.969 V 74.505 z"
                   id="path15" />
                <path
                   style="fill:#ffffff"
                   inkscape:connector-curvature="0"
                   d="m 312.623,159.761 c 8.372,4.339 16.742,6.354 25.577,6.354 15.655,0 22.321,-6.354 22.321,-21.546 0,-0.154 0,-0.31 0,-0.467 -4.65,2.326 -9.301,3.257 -15.5,3.257 -20.927,0 -34.26,-13.797 -34.26,-35.652 0,-27.128 19.688,-42.473 54.564,-42.473 10.232,0 19.688,1.084 31.159,3.407 l -8.174,17.222 c -6.356,-1.241 -0.509,-0.167 -5.312,-0.632 v 2.48 l 0.309,10.074 0.154,13.022 c 0.155,3.253 0.155,6.51 0.311,9.764 0,2.945 0,4.342 0,6.512 0,20.462 -1.705,30.073 -6.82,37.977 -7.441,11.627 -20.307,17.362 -38.598,17.362 -9.301,0 -17.36,-1.396 -25.732,-4.651 v -22.01 z m 47.434,-71.306 c -0.31,0 -0.619,0 -0.774,0 h -1.706 c -4.649,-0.155 -10.074,1.084 -13.796,3.409 -5.734,3.257 -8.681,9.146 -8.681,17.518 0,11.937 5.892,18.756 16.432,18.756 3.255,0 5.891,-0.62 8.99,-1.55 v -1.705 -6.51 c 0,-2.79 -0.154,-5.892 -0.154,-9.146 l -0.154,-11.006 -0.156,-7.905 v -1.861 z"
                   id="path17" />
                <path
                   style="fill:#ffffff"
                   inkscape:connector-curvature="0"
                   d="m 433.543,68.77 c 23.871,0 38.443,15.037 38.443,39.371 0,24.957 -15.19,40.613 -39.373,40.613 -23.873,0 -38.599,-15.036 -38.599,-39.216 10e-4,-25.114 15.193,-40.768 39.529,-40.768 z m -0.467,60.763 c 9.147,0 14.573,-7.596 14.573,-20.773 0,-13.019 -5.271,-20.771 -14.415,-20.771 -9.457,0 -14.884,7.598 -14.884,20.771 10e-4,13.178 5.427,20.773 14.726,20.773 z"
                   id="path19" />
              </g>
            </g>
          </g>
        </g>
        <g
           id="g3144"
           transform="matrix(5.3144797,0,0,5.3144797,649.21225,223.54915)">
          <g
             transform="translate(0,-405.40248)"
             style="fill-rule:nonzero;stroke:#000000;stroke-miterlimit:4"
             id="orginal" />
          <g
             transform="matrix(0.09270411,0,0,0.08963868,-0.67294511,0.02829903)"
             style="fill:none;stroke:#ffffff;stroke-width:12.46510029;stroke-linecap:round;stroke-linejoin:round;stroke-miterlimit:4"
             id="Layer_x0020_3">
            <path
               inkscape:connector-curvature="0"
               style="fill:#000000;stroke:#000000;stroke-width:37.39530182;stroke-linecap:butt;stroke-linejoin:miter"
               id="path6"
               d="m 323.205,324.227 c 2.833,-23.601 1.984,-27.062 19.563,-23.239 l 4.463,0.392 c 13.517,0.615 31.199,-2.174 41.587,-7 22.362,-10.376 35.622,-27.7 13.572,-23.148 -50.297,10.376 -53.755,-6.655 -53.755,-6.655 C 401.746,185.774 423.948,85.741 404.784,61.255 352.514,-5.534 262.036,26.049 260.522,26.869 l -0.482,0.089 c -9.938,-2.062 -21.06,-3.294 -33.554,-3.496 -22.761,-0.374 -40.032,5.967 -53.133,15.904 0,0 -161.408,-66.498 -153.899,83.628 1.597,31.936 45.777,241.655 98.47,178.31 19.259,-23.163 37.871,-42.748 37.871,-42.748 9.242,6.14 20.307,9.272 31.912,8.147 l 0.897,-0.765 c -0.281,2.876 -0.157,5.689 0.359,9.019 -13.572,15.167 -9.584,17.83 -36.723,23.416 -27.457,5.659 -11.326,15.734 -0.797,18.367 12.768,3.193 42.305,7.716 62.268,-20.224 l -0.795,3.188 c 5.325,4.26 4.965,30.619 5.72,49.452 0.756,18.834 2.017,36.409 5.856,46.771 3.839,10.36 8.369,37.05 44.036,29.406 29.809,-6.388 52.6,-15.582 54.677,-101.107" />
            <path
               inkscape:connector-curvature="0"
               style="fill:#336791;stroke:none"
               id="path8"
               d="m 402.395,271.23 c -50.302,10.376 -53.76,-6.655 -53.76,-6.655 53.111,-78.808 75.313,-178.843 56.153,-203.326 -52.27,-66.785 -142.752,-35.2 -144.262,-34.38 l -0.486,0.087 c -9.938,-2.063 -21.06,-3.292 -33.56,-3.496 -22.761,-0.373 -40.026,5.967 -53.127,15.902 0,0 -161.411,-66.495 -153.904,83.63 1.597,31.938 45.776,241.657 98.471,178.312 19.26,-23.163 37.869,-42.748 37.869,-42.748 9.243,6.14 20.308,9.272 31.908,8.147 l 0.901,-0.765 c -0.28,2.876 -0.152,5.689 0.361,9.019 -13.575,15.167 -9.586,17.83 -36.723,23.416 -27.459,5.659 -11.328,15.734 -0.796,18.367 12.768,3.193 42.307,7.716 62.266,-20.224 l -0.796,3.188 c 5.319,4.26 9.054,27.711 8.428,48.969 -0.626,21.259 -1.044,35.854 3.147,47.254 4.191,11.4 8.368,37.05 44.042,29.406 29.809,-6.388 45.256,-22.942 47.405,-50.555 1.525,-19.631 4.976,-16.729 5.194,-34.28 l 2.768,-8.309 c 3.192,-26.611 0.507,-35.196 18.872,-31.203 l 4.463,0.392 c 13.517,0.615 31.208,-2.174 41.591,-7 22.358,-10.376 35.618,-27.7 13.573,-23.148 l 0.002,0 z" />
            <path
               inkscape:connector-curvature="0"
               id="path10"
               d="m 215.866,286.484 c -1.385,49.516 0.348,99.377 5.193,111.495 4.848,12.118 15.223,35.688 50.9,28.045 29.806,-6.39 40.651,-18.756 45.357,-46.051 3.466,-20.082 10.148,-75.854 11.005,-87.281" />
            <path
               inkscape:connector-curvature="0"
               id="path12"
               d="m 173.104,38.256 c 0,0 -161.521,-66.016 -154.012,84.109 1.597,31.938 45.779,241.664 98.473,178.316 19.256,-23.166 36.671,-41.335 36.671,-41.335" />
            <path
               inkscape:connector-curvature="0"
               id="path14"
               d="m 260.349,26.207 c -5.591,1.753 89.848,-34.889 144.087,34.417 19.159,24.484 -3.043,124.519 -56.153,203.329" />
            <path
               inkscape:connector-curvature="0"
               style="stroke-linejoin:bevel"
               id="path16"
               d="m 348.282,263.953 c 0,0 3.461,17.036 53.764,6.653 22.04,-4.552 8.776,12.774 -13.577,23.155 -18.345,8.514 -59.474,10.696 -60.146,-1.069 -1.729,-30.355 21.647,-21.133 19.96,-28.739 -1.525,-6.85 -11.979,-13.573 -18.894,-30.338 -6.037,-14.633 -82.796,-126.849 21.287,-110.183 3.813,-0.789 -27.146,-99.002 -124.553,-100.599 -97.385,-1.597 -94.19,119.762 -94.19,119.762" />
            <path
               inkscape:connector-curvature="0"
               id="path18"
               d="m 188.604,274.334 c -13.577,15.166 -9.584,17.829 -36.723,23.417 -27.459,5.66 -11.326,15.733 -0.797,18.365 12.768,3.195 42.307,7.718 62.266,-20.229 6.078,-8.509 -0.036,-22.086 -8.385,-25.547 -4.034,-1.671 -9.428,-3.765 -16.361,3.994 l 0,0 z" />
            <path
               inkscape:connector-curvature="0"
               id="path20"
               d="m 187.715,274.069 c -1.368,-8.917 2.93,-19.528 7.536,-31.942 6.922,-18.626 22.893,-37.255 10.117,-96.339 -9.523,-44.029 -73.396,-9.163 -73.436,-3.193 -0.039,5.968 2.889,30.26 -1.067,58.548 -5.162,36.913 23.488,68.132 56.479,64.938" />
            <path
               inkscape:connector-curvature="0"
               style="fill:#ffffff;stroke-width:4.15500021;stroke-linecap:butt;stroke-linejoin:miter"
               id="path22"
               d="m 172.517,141.7 c -0.288,2.039 3.733,7.48 8.976,8.207 5.234,0.73 9.714,-3.522 9.998,-5.559 0.284,-2.039 -3.732,-4.285 -8.977,-5.015 -5.237,-0.731 -9.719,0.333 -9.996,2.367 l -0.001,0 z" />
            <path
               inkscape:connector-curvature="0"
               style="fill:#ffffff;stroke-width:2.0775001;stroke-linecap:butt;stroke-linejoin:miter"
               id="path24"
               d="m 331.941,137.543 c 0.284,2.039 -3.732,7.48 -8.976,8.207 -5.238,0.73 -9.718,-3.522 -10.005,-5.559 -0.277,-2.039 3.74,-4.285 8.979,-5.015 5.239,-0.73 9.718,0.333 10.002,2.368 l 0,-0.001 z" />
            <path
               inkscape:connector-curvature="0"
               id="path26"
               d="m 350.676,123.432 c 0.863,15.994 -3.445,26.888 -3.988,43.914 -0.804,24.748 11.799,53.074 -7.191,81.435" />
            <path
               inkscape:connector-curvature="0"
               d=""
               style="stroke-width:3"
               id="path28" />
          </g>
        </g>
      </g>
      <g
         transform="translate(-39.625178,1.5681808)"
         id="g3078">
        <g
           transform="matrix(5.1990465,0,0,5.1990465,539.71635,-427.04902)"
           id="g3045">
          <path
             inkscape:export-ydpi="90"
             inkscape:export-xdpi="90"
             id="path5256"
             d="m 55.001137,196.95815 c -2.437124,-0.42891 -4.973682,-0.71132 -7.033364,-0.78777 l -0.363229,-0.0128 c 0.0832,-0.1911 0.146102,-0.32062 0.166394,-0.33973 0.04464,-0.0382 0.08117,-0.1996 0.08523,-0.35672 0,-0.0871 0.03652,-0.36946 0.09334,-0.74317 0.558044,0.0212 1.298718,0.0382 2.106353,0.0445 3.118949,0.0255 6.381977,0.28877 8.620232,0.70282 1.333211,0.24631 1.773558,0.23781 0.78938,-0.0128 -0.996364,-0.25268 -3.950944,-0.62426 -6.304868,-0.78564 -1.580779,-0.11254 -3.847444,-0.155 -5.182685,-0.13164 0.03856,-0.24206 0.0832,-0.51173 0.12987,-0.78776 0.188717,-1.06804 0.251626,-2.14245 0.255685,-4.28065 0.004,-3.31666 -0.1664,-4.2297 -1.199281,-6.4231 -0.420057,-0.89605 -0.8949,-1.65621 -1.469174,-2.34417 0.501218,-1.54792 0.489048,-3.94517 -0.03045,-6.04728 -0.428169,-1.72414 -0.578333,-1.83456 -2.071859,-1.50332 -1.266245,0.28241 -2.280869,0.66673 -3.581615,1.35256 -0.614864,0.32488 -1.463084,0.83023 -2.077942,1.2273 -1.603105,-0.59029 -3.260996,-0.98098 -5.030502,-1.1912 -1.79385,-0.21233 -6.191224,-0.0934 -7.751712,0.20809 -1.525991,0.29515 -2.899789,0.65611 -4.143714,1.08503 -0.620951,-0.40131 -1.521936,-0.94276 -2.165205,-1.2825 -1.306832,-0.68796 -2.321456,-1.07016 -3.591762,-1.35257 -1.489465,-0.33336 -1.643688,-0.22082 -2.06983,1.50333 -0.527604,2.12971 -0.531663,4.5673 -0.01016,6.11097 0.06088,0.17624 0.0974,0.30152 0.111609,0.39919 -2.114473,2.78582 -2.804414,5.90288 -2.345807,10.25361 0.119725,1.13386 0.304387,2.1743 0.562101,3.12768 -1.349446,-0.008 -3.2691148,0.0425 -4.6550875,0.13589 -2.3579797,0.16349 -5.3125602,0.53083 -6.30891943,0.78351 -0.98215409,0.25055 -0.54586643,0.25904 0.78937623,0.0149 2.2382557,-0.41192 5.5033094,-0.67947 8.6202308,-0.70283 0.5884819,-0.002 1.1384049,-0.0148 1.6112199,-0.0276 0.142046,0.50323 0.304387,0.98312 0.489048,1.43963 l -0.0142,0.002 c -2.0596831,0.0743 -4.59421,0.35672 -7.0313344,0.78563 -1.8283479,0.32063 -4.52724249,0.96187 -4.84177528,1.1466 -0.33076709,0.19323 -0.06087743,0.15076 1.35553488,-0.22507 2.5832276,-0.68371 5.9416277,-1.20818 10.1015788,-1.57339 l 0.464698,-0.0424 c 0.892866,2.17005 2.268692,3.82626 4.212709,5.11724 1.189139,0.79201 3.094599,1.60526 4.054431,1.73265 0.263801,0.034 1.030854,0.19959 1.704564,0.36521 0.67574,0.16563 1.996777,0.41406 2.934287,0.55632 h 0.02234 c -0.01825,0.0128 -0.0345,0.0213 -0.05073,0.034 -1.136376,0.6179 -1.875023,1.57977 -2.372185,3.09371 -0.223218,0.0701 -0.501224,0.16562 -0.801553,0.27391 -1.073469,0.3822 -1.491494,0.46076 -2.579167,0.46926 -1.128263,0.008 -1.396123,-0.0425 -2.069829,-0.37371 -0.980128,-0.47775 -1.893287,-1.35681 -2.502061,-2.40574 -1.016649,-1.75388 -2.773975,-2.99392 -4.239089,-2.99392 -1.252045,0 -1.4894674,0.53084 -0.5844225,1.30586 1.3636505,1.16572 2.3823335,2.35479 2.8003555,3.26357 0.235392,0.5096 0.596599,1.29737 0.805611,1.74964 0.221188,0.482 0.694,1.13598 1.144493,1.58825 1.059267,1.05743 2.082005,1.56278 3.607996,1.8006 1.022741,0.15712 1.274364,0.15712 2.481767,-0.004 0.582391,-0.0743 1.073469,-0.16138 1.513816,-0.26967 0,0.5181 0,1.11476 0,1.81546 0,3.74982 -0.04261,4.95587 -0.184662,5.30835 -0.267861,0.67098 -0.868515,1.36106 -1.452938,1.67106 -0.582394,0.31002 -0.762998,0.65187 -0.517458,0.96613 0.135959,0.16987 0.397732,0.19959 1.276393,0.14014 1.668039,-0.10829 2.847031,-0.75378 3.447686,-1.8919 0.192778,-0.36522 0.237422,-1.09989 0.2983,-4.9219 0.06494,-4.14688 0.09335,-4.54607 0.351059,-5.13849 0.156252,-0.35247 0.381499,-0.73467 0.507312,-0.83871 0.211041,-0.18261 0.225247,0.17836 0.225247,5.13848 -0.0022,5.47397 -0.05479,6.13433 -0.578336,7.1875 -0.117696,0.23994 -0.340913,0.55208 -0.497166,0.70071 -0.273949,0.26116 -0.389612,0.93002 -0.198866,1.13174 0.314533,0.32699 1.891256,-0.18686 2.751657,-0.89605 1.465112,-1.21455 1.63963,-2.21889 1.651807,-9.47222 l 0.0061,-4.25517 0.444405,0.0446 0.444404,0.0425 0.07305,5.56527 c 0.0832,6.26598 0.09538,6.35728 1.114058,7.56758 0.578333,0.68372 1.160725,1.06167 2.108386,1.35682 1.268277,0.39918 1.649776,-0.21659 0.79749,-1.28462 -0.927362,-1.16147 -0.972005,-1.60525 -0.921272,-8.48062 0.0345,-4.40806 0.0345,-4.40806 0.306412,-4.15113 0.572249,0.54357 0.681829,1.43538 0.681829,5.56951 0,5.13425 0.140018,5.62261 1.872992,6.51866 0.809668,0.41405 1.036944,0.46501 2.073887,0.46926 1.103905,0.004 1.170873,-0.0128 1.211457,-0.31426 0.0345,-0.24417 -0.101465,-0.4098 -0.616891,-0.73892 -0.675737,-0.43528 -1.144493,-0.99159 -1.438734,-1.6923 -0.111608,-0.26967 -0.186688,-2.03628 -0.237421,-5.67357 -0.07305,-5.08114 -0.08929,-5.31259 -0.391642,-6.10884 -0.40788,-1.07016 -1.030856,-1.91526 -1.820232,-2.47581 -0.204955,-0.14015 -0.409908,-0.25693 -0.675739,-0.34399 0.326707,-0.034 0.643271,-0.0701 0.949689,-0.11678 3.189972,-0.44378 4.876269,-0.81324 6.229775,-1.36106 2.863263,-1.15297 4.799164,-3.06823 5.848282,-5.78398 0.09335,-0.24206 0.186692,-0.47138 0.265832,-0.65611 l 0.807639,0.0701 c 4.161978,0.36734 7.520381,0.8918 10.103608,1.57764 1.416411,0.37583 1.686294,0.42042 1.355531,0.22295 -0.308443,-0.18048 -3.007345,-0.81961 -4.833657,-1.14023 z m -12.203875,-0.0658 c -0.472812,1.08715 -1.791825,2.48431 -2.857172,3.03213 -1.051153,0.54358 -2.698899,0.95763 -4.565804,1.1551 -1.276392,0.1359 -8.394984,0.17623 -9.569915,0.0552 -3.890061,-0.39918 -6.06947,-1.18269 -7.676632,-2.75184 -1.521932,-1.49059 -2.232169,-3.51414 -2.108385,-6.00481 0.07914,-1.55853 0.438318,-2.53739 1.377859,-3.72646 0.854311,-1.0829 1.753267,-1.75176 2.812531,-2.09149 0.886782,-0.28452 3.607997,-0.31 7.266724,-0.0637 1.617309,0.10829 2.95458,0.10829 4.569859,0 3.827156,-0.25267 6.381971,-0.22507 7.32557,0.0807 1.483376,0.47987 2.834855,1.77087 3.64655,3.49077 0.365269,0.76865 0.436291,1.09564 0.489052,2.28259 0.07305,1.63497 -0.196839,3.37186 -0.710237,4.54182 z M 23.49915,189.8726 c -2.177381,-0.39919 -3.421306,3.50138 -1.751238,5.49307 0.793434,0.94489 1.497582,1.09989 2.378274,0.52659 0.815755,-0.53296 1.258131,-1.5288 1.258131,-2.8198 0,-1.72202 -0.748789,-2.98754 -1.885167,-3.19986 z m 13.216466,0.23356 c -2.177379,-0.39918 -3.423334,3.49714 -1.753263,5.49096 0.79546,0.94488 1.497581,1.10201 2.380301,0.52446 0.813726,-0.53083 1.258132,-1.52881 1.258132,-2.81979 0,-1.71566 -0.74879,-2.98542 -1.88517,-3.19563 z m -5.856399,7.6695 c -0.04667,0.15713 -0.273946,0.39069 -0.503249,0.51597 -0.580365,0.31214 -0.998388,0.20385 -1.611224,-0.38007 -0.379467,-0.35885 -0.551951,-0.54782 -0.667617,-0.17199 -0.107552,0.34823 0.568186,1.04681 1.089702,1.26126 0.478905,0.19959 0.821848,0.20596 1.341331,-0.0211 0.515429,-0.22508 0.965921,-0.83023 0.965921,-1.22304 0,-0.36522 -0.501225,-0.34823 -0.614864,0.0191 z m -0.643268,-1.22091 c 0.330763,-0.30577 0.405847,-0.93427 0.08929,-1.26764 -0.316558,-0.33337 -0.959835,-0.2824 -1.211458,0.0913 -0.292213,0.43741 -0.135959,0.77076 0.07305,1.12536 0.324679,0.26329 0.760972,0.31638 1.04912,0.051 z"
             inkscape:connector-curvature="0"
             style="fill:#000000;fill-opacity:1;stroke:none" />
        </g>
        <g
           transform="matrix(3.8402383,0,0,3.7339765,127.59229,228.96453)"
           id="g3042">
          <g
             id="g19"
             transform="matrix(0.43729502,0,0,0.43729502,-74.919946,-31.193736)">
            <path
               style="fill:#a41e11"
               inkscape:connector-curvature="0"
               id="path21"
               d="m 334.774,339.535 c -9.078,4.732 -56.106,24.068 -66.118,29.287 -10.012,5.221 -15.574,5.17 -23.483,1.389 -7.909,-3.781 -57.955,-23.996 -66.97,-28.305 -4.506,-2.154 -6.875,-3.971 -6.875,-5.688 0,-1.713 0,-17.195 0,-17.195 0,0 65.153,-14.184 75.672,-17.957 10.518,-3.774 14.167,-3.91 23.118,-0.631 8.952,3.279 62.474,12.936 71.321,16.176 0,0 -0.004,15.357 -0.004,16.951 10e-4,1.7 -2.04,3.565 -6.661,5.973 z" />
            <path
               style="fill:#d82c20"
               inkscape:connector-curvature="0"
               id="path23"
               d="m 334.774,322.336 c -9.078,4.73 -56.106,24.068 -66.118,29.287 -10.012,5.221 -15.574,5.17 -23.483,1.389 -7.91,-3.779 -57.955,-23.998 -66.97,-28.305 -9.015,-4.309 -9.204,-7.275 -0.348,-10.742 8.855,-3.469 58.626,-22.996 69.146,-26.77 10.518,-3.772 14.167,-3.91 23.118,-0.63 8.952,3.279 55.699,21.886 64.545,25.126 8.848,3.243 9.188,5.913 0.11,10.645 z" />
            <path
               style="fill:#a41e11"
               inkscape:connector-curvature="0"
               id="path25"
               d="m 334.774,311.496 c -9.078,4.732 -56.106,24.068 -66.118,29.289 -10.012,5.219 -15.574,5.168 -23.483,1.387 -7.91,-3.779 -57.955,-23.996 -66.97,-28.305 -4.506,-2.154 -6.875,-3.969 -6.875,-5.686 0,-1.713 0,-17.197 0,-17.197 0,0 65.153,-14.183 75.672,-17.957 10.518,-3.773 14.167,-3.91 23.118,-0.631 8.952,3.279 62.474,12.934 71.321,16.175 0,0 -0.004,15.357 -0.004,16.953 10e-4,1.699 -2.04,3.564 -6.661,5.972 z" />
            <path
               style="fill:#d82c20"
               inkscape:connector-curvature="0"
               id="path27"
               d="m 334.774,294.297 c -9.078,4.732 -56.106,24.068 -66.118,29.289 -10.012,5.219 -15.574,5.168 -23.483,1.387 -7.91,-3.779 -57.955,-23.997 -66.97,-28.305 -9.015,-4.308 -9.204,-7.274 -0.348,-10.743 8.855,-3.467 58.626,-22.995 69.146,-26.768 10.518,-3.773 14.167,-3.91 23.118,-0.631 8.952,3.279 55.699,21.885 64.545,25.126 8.848,3.242 9.188,5.913 0.11,10.645 z" />
            <path
               style="fill:#a41e11"
               inkscape:connector-curvature="0"
               id="path29"
               d="m 334.774,282.419 c -9.078,4.732 -56.106,24.069 -66.118,29.29 -10.012,5.219 -15.574,5.168 -23.483,1.387 -7.91,-3.779 -57.955,-23.997 -66.97,-28.305 -4.506,-2.154 -6.875,-3.97 -6.875,-5.686 0,-1.714 0,-17.197 0,-17.197 0,0 65.153,-14.183 75.672,-17.956 10.518,-3.774 14.167,-3.91 23.118,-0.631 8.952,3.279 62.474,12.934 71.321,16.175 0,0 -0.004,15.357 -0.004,16.952 10e-4,1.698 -2.04,3.563 -6.661,5.971 z" />
            <path
               style="fill:#d82c20"
               inkscape:connector-curvature="0"
               id="path31"
               d="m 334.774,265.22 c -9.078,4.732 -56.106,24.069 -66.118,29.289 -10.012,5.219 -15.574,5.168 -23.483,1.388 -7.909,-3.78 -57.955,-23.997 -66.97,-28.305 -9.015,-4.308 -9.204,-7.275 -0.348,-10.743 8.855,-3.468 58.626,-22.994 69.146,-26.768 10.518,-3.774 14.167,-3.91 23.118,-0.63 8.952,3.279 55.699,21.885 64.545,25.126 8.848,3.24 9.188,5.912 0.11,10.643 z" />
            <polygon
               style="fill:#ffffff"
               id="polygon33"
               points="263.933,250.186 260.631,258.13 255.296,249.269 238.277,247.74 250.978,243.157 247.168,236.128 259.055,240.78 270.272,237.111 267.236,244.379 278.667,248.657 " />
            <polygon
               style="fill:#ffffff"
               id="polygon35"
               points="232.236,275.771 271.656,269.72 259.753,287.181 " />
            <ellipse
               d="m 242.681,261.241 c 0,4.51051 -9.43291,8.167 -21.069,8.167 -11.63609,0 -21.069,-3.65649 -21.069,-8.167 0,-4.51051 9.43291,-8.167 21.069,-8.167 11.63609,0 21.069,3.65649 21.069,8.167 z"
               style="fill:#ffffff"
               sodipodi:ry="8.1669998"
               sodipodi:rx="21.069"
               sodipodi:cy="261.241"
               sodipodi:cx="221.612"
               id="ellipse37"
               ry="8.1669998"
               rx="21.069"
               cy="261.241"
               cx="221.612" />
          </g>
          <polygon
             style="fill:#7a0c00"
             id="polygon39"
             points="319.421,260.053 296.107,269.257 296.094,250.826 "
             transform="matrix(0.43729502,0,0,0.43729502,-74.919946,-31.193736)" />
          <polygon
             style="fill:#ad2115"
             id="polygon41"
             points="296.094,250.826 296.107,269.257 293.582,270.253 270.281,261.036 "
             transform="matrix(0.43729502,0,0,0.43729502,-74.919946,-31.193736)" />
        </g>
      </g>
      <g
         id="g3202"
         transform="matrix(2.2452659,0,0,2.2459752,54.726814,967.30495)">
        <g
           id="g3194">
          <polygon
             style="fill:#e45126"
             id="polygon5"
             points="26,228.35 323.45,228.35 296.352,531.921 174.543,565.69 53.07,531.97 "
             transform="matrix(0.29639379,0,0,0.29639379,18.293761,-157.70652)" />
          <polygon
             style="fill:#f1682b"
             id="polygon7"
             points="174.725,539.878 273.152,512.591 296.31,253.175 174.725,253.175 "
             transform="matrix(0.29639379,0,0,0.29639379,18.293761,-157.70652)" />
          <polygon
             style="fill:#ebebeb"
             id="polygon9"
             points="81.35,290.413 82.242,300.404 91.394,403.02 174.725,403.02 174.725,365.784 125.45,365.784 122.046,327.652 174.725,327.652 174.725,290.413 174.596,290.413 "
             transform="matrix(0.29639379,0,0,0.29639379,18.293761,-157.70652)" />
          <polygon
             style="fill:#ebebeb"
             id="polygon11"
             points="133.09,451.338 130.438,421.641 110.287,421.641 93.058,421.641 98.275,480.108 174.553,501.284 174.725,501.235 174.725,462.491 174.562,462.538 "
             transform="matrix(0.29639379,0,0,0.29639379,18.293761,-157.70652)" />
          <polygon
             style="fill:#ffffff"
             id="polygon23"
             points="174.596,403.02 220.45,403.02 216.128,451.312 174.596,462.524 174.596,501.267 250.936,480.108 251.495,473.817 260.246,375.783 261.154,365.784 251.12,365.784 174.596,365.784 "
             transform="matrix(0.29639379,0,0,0.29639379,18.293761,-157.70652)" />
          <polygon
             style="fill:#ffffff"
             id="polygon25"
             points="264.543,327.652 265.29,319.282 266.986,300.404 267.877,290.413 174.596,290.413 174.596,313.541 174.596,327.56 174.596,327.652 264.423,327.652 264.423,327.652 "
             transform="matrix(0.29639379,0,0,0.29639379,18.293761,-157.70652)" />
        </g>
        <g
           transform="translate(12.000003,0)"
           id="g3184">
          <polygon
             style="fill:#1673b6"
             id="polygon37"
             points="970.903,531.945 849.093,565.715 727.62,531.994 700.55,228.374 998,228.374 "
             transform="matrix(0.29639379,0,0,0.29639379,18.293761,-157.71023)" />
          <polygon
             style="fill:#35a9db"
             id="polygon39-1"
             points="947.703,512.615 970.86,253.2 849.276,253.2 849.276,539.904 "
             transform="matrix(0.29639379,0,0,0.29639379,18.293761,-157.71023)" />
          <g
             id="g41"
             transform="matrix(0.29639379,0,0,0.29639379,18.293761,-157.71023)">
            <polygon
               style="fill:#ffffff"
               id="polygon43"
               points="849.275,325.068 849.275,287.829 849.404,287.829 942.65,287.829 941.758,297.82 932.605,400.436 849.275,400.436 849.275,363.2 898.551,363.2 901.953,325.068 " />
            <polygon
               style="fill:#ebebeb"
               id="polygon45"
               points="849.336,459.954 807.863,448.754 805.212,419.057 785.061,419.057 767.832,419.057 773.049,477.525 849.326,498.701 849.498,498.652 849.498,459.907 " />
            <polygon
               style="fill:#ffffff"
               id="polygon47"
               points="849.369,498.682 925.709,477.525 926.269,471.234 932.746,398.859 895.386,398.859 890.901,448.729 849.369,459.94 " />
            <polygon
               style="fill:#ebebeb"
               id="polygon49"
               points="849.404,325.068 759.576,325.068 759.576,325.068 759.457,325.068 758.711,316.698 757.014,297.82 756.123,287.829 849.404,287.829 849.404,310.957 849.404,324.976 " />
            <polygon
               style="fill:#ebebeb"
               id="polygon51"
               points="849.275,400.441 808.447,400.441 808.447,400.441 808.328,400.441 807.582,392.073 805.885,373.195 804.994,363.204 849.275,363.204 849.275,386.333 849.275,400.35 " />
          </g>
        </g>
        <g
           transform="translate(6.000002,0)"
           id="g3174">
          <polygon
             style="fill:#e4a227"
             id="polygon55"
             points="633.627,408.705 511.818,442.475 390.345,408.754 363.275,105.132 660.725,105.132 "
             transform="matrix(0.29639379,0,0,0.29639379,18.293761,-121.17184)" />
          <polygon
             style="fill:#f0bf26"
             id="polygon57"
             points="511.75,129.583 511.75,416.287 610.178,389 633.336,129.583 "
             transform="matrix(0.29639379,0,0,0.29639379,18.293761,-121.17184)" />
          <polygon
             style="fill:#ebebeb"
             id="polygon65"
             points="511.693,338.926 511.531,338.973 470.059,327.773 467.406,298.075 447.256,298.075 430.027,298.075 435.244,356.543 511.521,377.719 511.693,377.67 "
             transform="matrix(0.29639379,0,0,0.29639379,18.293761,-121.17184)" />
          <polygon
             style="fill:#ebebeb"
             id="polygon67"
             points="431.059,269.438 430.151,279.437 440.186,279.437 516.709,279.437 516.709,242.2 470.855,242.2 476.232,183.758 516.812,182.677 516.709,143.954 442.565,143.954 439.811,171.403 "
             transform="matrix(0.29639379,0,0,0.29639379,18.293761,-121.17184)" />
          <polygon
             style="fill:#ffffff"
             id="polygon69"
             points="516.457,182.729 516.62,182.683 557.291,185.132 560.742,223.579 580.893,223.579 598.123,223.579 591.609,151.633 516.629,143.937 516.457,143.985 "
             transform="matrix(0.29639379,0,0,0.29639379,18.293761,-121.17184)" />
          <polyline
             style="fill:#ffffff"
             id="polyline71"
             points="594.284,182.843 591.093,143.954 512.49,143.954 512.49,168.106 512.49,182.746 512.49,182.843    594.284,182.843  "
             transform="matrix(0.29639379,0,0,0.29639379,18.293761,-121.17184)" />
          <polygon
             style="fill:#ffffff"
             id="polygon73"
             points="597.215,252.217 598.123,242.218 588.088,242.218 511.564,242.218 511.564,279.454 557.418,279.454 553.096,327.748 511.564,338.959 511.564,377.701 587.904,356.543 588.463,350.252 "
             transform="matrix(0.29639379,0,0,0.29639379,18.293761,-121.17184)" />
          <path
             style="fill:#ffffff"
             inkscape:connector-curvature="0"
             id="path75"
             d="M 193.0179,-67.467364" />
        </g>
      </g>
    </g>
  </g>
</svg>
