<svg xmlns="http://www.w3.org/2000/svg" viewBox="-152 -152 400 400"><path fill="#5a753d" d="M139.121 100.01l5.772-5.301 36.756-34.045-29.686-12.605-17.084 2.356-20.496 26.98z"/><path fill="#474747" d="M187.299 34.157l-9.424 16.258-11.544-2.827 2.358-23.679z"/><path d="M-91.421-20.856l5.891 14.843 9.187-3.297 5.539 2.119 1.059-4.475 27.095-9.66s-32.396-30.63-31.099-32.042c1.177-1.532-17.79 32.396-17.79 32.396l.118.116z" fill="#6c6d6d"/><path fill="#a0a1a0" d="M-85.059-47.245l-23.915 12.605L-85.53-6.013l7.54-25.682z"/><path fill="#b9b9b9" d="M-78.579-69.392l-14.843-2.591-15.552 37.343 45.001 11.899 4.712-7.304-2.827-6.951 4.124-24.386z"/><path fill="#eaeceb" d="M-64.444-49.601l-4.83-2.591-24.148-19.791 36.164-12.369 32.631 17.434-15.785 20.379z"/><path fill="#e2e3e2" d="M-55.02-45.83l-7.068 8.834-.706 5.301-1.179 8.954 45.238-8.01-12.488-10.72z"/><path fill="#c6c8c8" d="M-33.343-53.723l-8.366-2.473-27.565 4.004 7.186 15.196 30.865-4.475z"/><path fill="#c2c1c2" d="M-31.223-41.471l12.488-8.13 6.595 2.709-9.54 16.964-1.532-4.121z"/><path fill="#8b8a8a" d="M-19.797-25.333l1.65-5.536 6.007-16.023-11.072 12.843-2.003 7.066 2.474 5.656-1.295 1.648z"/><path fill="#a0a1a0" d="M-23.212-34.049l-40.761 11.308 21.441 1.649 18.496 1.413 1.295-1.648.706-5.656z"/><path fill="#c2c1c2" d="M-24.036-17.912l6.713 3.771 3.3-4.006-3.417-14.254-4.595 5.418z"/><path fill="#cbcbcb" d="M-33.579-12.964l8.952 4.595 7.304-5.772-4.712-12.842-8.599 4.83z"/><path fill="#dbdcda" d="M-34.758-4.481l10.131-3.888-6.007-13.784-11.898 1.061z"/><path fill="#feeee9" d="M-24.272 6.356l-11.427 1.886-25.445-.355-2.592-9.423 11.073 1.059 29.215-4.594z"/><path d="M-61.144 7.887l-15.081-17.08 3.3-1.179 3.416-1.177 16.022 7.186 28.978-4.006.12 5.771C-31.34-.477-61.144 7.887-61.144 7.887z" fill="#eecec9"/><path fill="#5a753d" d="M22.023 23.673l-8.01-9.307L-12.022-.359l-12.605-8.01 2.356 26.977 30.04 29.098z"/><path fill="#b8c745" d="M-19.679 3.882l4.948-11.663-9.896-.588-11.072 16.611 3.298 9.778z"/><path fill="#a0cf7e" d="M36.631 2.232l-11.425 2.71-11.193 9.424-6.244 33.34 19.911-5.183 3.179-9.778 12.017 5.654z"/><path fill="#709d53" d="M27.68 42.523L25.206 4.942l9.66 11.898 8.01 21.559z"/><path fill="#4f5253" d="M26.029 2.468L18.608.467l-4.595 13.899 11.428-6.833zM82.338 163.035l-19.434-7.776 2.589-27.21 26.626-2.241.82 32.276-2.236 3.539z"/><path d="M83.044 166.689l7.659-5.066c.354 0-14.255-3.3-27.921-6.364l-1.295 13.784 13.195-2.825 2.825 12.367 2.476.589 2.947-12.485h.114z" fill="#474747"/><path fill="#4f5253" d="M61.487 116.03l21.444 10.955 12.955 31.927.235.588 19.909-1.766 28.863-16.612-10.72-47.001-66.909.942z"/><path fill="#474747" d="M96.121 159.5l6.836 3.889 13.548 13.073 4.237-.706 14.609-18.257 9.542-16.377z"/><path d="M82.931 126.636l7.772 34.987 12.019-1.769 1.294-3.296-21.085-29.922zm33.574 49.826l2.354 1.299 1.883-2.005-4.237.706z" fill="#474747"/><path fill="#404040" d="M90.703 161.623l12.603 5.066 13.199 9.773 4.237-.706 2.825-2.946-13.191-9.068-6.36-7.184z"/><path fill="#696a6d" d="M48.412 87.054l4.71 13.074-10.837 50.536 14.49 8.365 18.849-.945 7.307-31.448-5.188-20.03z"/><path d="M42.285 150.664l8.601 12.015 10.249 12.371 13.666-8.832.823-8.134c-15.078-3.414-33.339-7.42-33.339-7.42z" fill="#5b5f61"/><path fill="#444648" d="M56.775 83.637l20.968 22.969 56.43-12.485-2.122-10.484z"/><path fill="#696a6d" d="M55.834 74.33l-7.422 9.655 12.487 16.731 16.844 5.89-.349-12.132z"/><path fill="#67b595" d="M45.82 59.957l1.886 14.49 4.004 5.184-3.298 4.354 3.891 8.134 25.091 2.355L98.24 56.657l-9.425-20.614-23.557 3.533z"/><path fill="#eaeceb" d="M47.706 74.447l.706 9.538 3.891 8.134 25.091 2.355 5.772-10.489-5.658 1.182z"/><path fill="#72c9a6" d="M53.95 19.196L42.876 38.399l2.944 21.558 31.81 11.779 6.948-12.131 21.674-33.34L72.913 1.644z"/><path fill="#4c9e7d" d="M91.292 56.893L77.63 71.736l-.122 13.431 2.711 4.124 45.236-10.484 4.712-4.83 4.006-.829-7.537-17.55z"/><path fill="#448e71" d="M132.051 83.637l-.115-7.659 2.237-2.83 3.649-18.021-11.186.471z"/><path fill="#dbdcda" d="M77.508 85.167l-.114 9.307 29.565 1.176 25.092-12.013-.115-7.659-1.769-2.001z"/><path fill="#c5c6c4" d="M132.051 83.637l2.122-10.489-4.006.829z"/><path fill="#6f6054" d="M121.685-53.017l33.103 10.72 14.726-20.968-30.511-12.252z"/><path fill="#554537" d="M137.002-27.218l.585.117 20.497 4.006-3.296-19.202-22.737-16.491z"/><path fill="#4d3e32" d="M112.617-19.797l18.849 10.604 26.618-13.902-26.033-35.693-22.146 32.749z"/><path fill="#858686" d="M76.096-1.771l-12.372-17.2L45.82-9.784 34.157-2.598 18.608.467l24.268 37.932 35.46-29.098z"/><path fill="#cbcbcb" d="M46.173.585l32.163 8.716 3.889-29.216-31.928-1.647-6.362-.118-.706 9.187z"/><path fill="#eaeceb" d="M47.352-19.915l-10.485.474-2.71 16.843L46.173.585l-.941-18.732z"/><path d="M50.061-129.235l-2.474-12.016 12.604-9.778 75.275 4.006s-18.492 35.105-16.491 34.869c1.885-.235-68.914-17.081-68.914-17.081z" fill="#8b7a6d"/><path fill="#eecec9" d="M94.003-118.398L91.174-13.552l39.464-48.536.353-73.98-12.96-.353z"/><path fill="#6f6054" d="M128.637-104.261l-11.783-4.242 1.177-27.918 17.437-10.602 18.496 30.51z"/><path fill="#554537" d="M141.004-81.879l8.13-10.248 4.83-24.386-37.11 8.01 3.653 13.431 3.535 12.84z"/><path fill="#8b7a6d" d="M126.043-72.454l-1.295-2.003-4.358-7.893 2.122-14.843 26.622 5.066 20.38 28.862-30.04-6.597z"/><path d="M121.57-53.84l-3.304-7.777 3.889-21.203 17.201 5.418-7.306 18.614c.001 0-10.48 4.83-10.48 4.948z" fill="#feeee9"/><path fill="#554537" d="M100.245-19.088l-3.296-7.895 6.592-7.302 14.726-27.45 13.905 2.712-4.123 25.209-10.489 12.605z"/><path fill="#feeee9" d="M23.556-33.814l-.589-74.807 24.621-32.63 70.443 4.83-13.308 37.225-1.182 64.911-58.662 12.25z"/><path fill="#eecec9" d="M30.153-42.415l-1.767 6.245 1.059 1.648 8.012-3.651 24.03 1.412 16.256 6.716 10.724-13.664-8.719 3.768-31.454-8.716zM32.862-102.611l-6.95 4.477 10.13 15.078 7.893 21.792 6.48-5.183 2.942 5.656 16.378-18.023L90.82-95.543l-16.137-6.598-16.373 7.658-4.482 6.008-3.648 3.887-3.065-3.768-1.059-6.245z"/><path fill="#554537" d="M67.264-46.183l8.243 2.474h12.96l-11.665 9.66z"/><path fill="#6f6054" d="M56.069-45.124l5.066 4.242 15.667 6.833-1.295-9.66-17.79-9.189z"/><path fill="#554537" d="M31.801-44.3l-2.592-1.059-5.771.353 5.065 8.836z"/><path fill="#6f6054" d="M42.05-49.601l-3.298-3.886-9.543 8.128-.706 9.189 7.775-6.009z"/><path fill="#cea19c" d="M48.177-64.68l-4.242 3.416 4.124 5.068 5.298-4.595z"/><path fill="#54b08b" d="M104.016-2.479l-25.68 11.78-.706 62.435 49.476-13.662 5.886-10.604 6.835-17.552z"/><path fill="#4c9e7d" d="M127.106 58.074l10.716-2.947 2.005-25.209-21.203-19.203 3.061 18.848z"/><path fill="#858686" d="M142.773 16.017L155.141.585l-34.281-17.2-9.071 4.711-21.675-1.413L88.467 2.35 78.336 9.301l43.349 20.262z"/><path fill="#eaeceb" d="M108.022-11.314L124.16.585l11.426-9.778-7.537-24.621-10.724 11.897z"/><path fill="#cbcbcb" d="M117.325-21.917l-17.08 2.829L95.18-8.84l11.429 15.55L124.16.585z"/><path fill="#eaeceb" d="M99.539-21.68l-17.314 1.765-3.889 29.216 28.273-2.591z"/><path fill="#554537" d="M58.074-99.666l16.962-4.595 16.373 6.951-.589 1.767-16.019-4.359-16.491 5.419zM46.291-99.196l-12.84-5.418-7.657 4.712.118 1.768 7.774-2.592 12.37 6.125z"/><path fill="#fef4f2" d="M47.115-88.356l-3.18 27.092 9.422.473.471-27.684z"/><path fill="#8b7a6d" d="M38.752-53.487l18.965.589 3.418 12.016-24.857-1.297z"/><path fill="#cea19c" d="M133.227-75.281l-7.184-2.238-2.476 9.542z"/><path fill="#fff" d="M123.332-63.029l-5.301 10.954 6.483 2.003 2-11.663z"/><path fill="#dbdcda" d="M-31.223-41.471l-10.486-14.725 17.082-10.722 5.892 17.317z"/><path fill="#6c6d6d" d="M-43.356-51.131l6.595 8.716-18.612 2.239-4.712-8.834zM-35.346-53.134l9.425-8.13 3.062 10.839-7.186 5.419z"/><path fill="#000002" fill-opacity=".149" d="M-12.846 231.127l124.756-9.312 92.943 10.131-98.836 14.961z"/><path fill="#4f4e4e" d="M53.244 207.683l-24.27 20.38 24.854 2.357 24.743-2.357-1.769-20.38-1.413-4.712-11.43-4.124-8.597 4.124z"/><path fill="#eaeceb" d="M140.062 195.312l-3.06-31.217-2.711-2.707-28.392 7.184-1.059 5.772 9.071 23.208 12.725 4.237 10.951-2.118z"/><path d="M137.002 164.095c-.235-2.707-.471-5.536-.706-8.247l-35.345 9.777 3.889 8.601c10.72-4.124 21.086-6.831 32.162-10.248v.117z" fill="#d4d2d2"/><path fill="#696a6d" d="M142.182 208.624l-2.12-13.312-26.151 2.24 4.591 13.191 1.417 4.952 11.782 5.536 10.131-6.717z"/><path fill="#eaeceb" d="M51.592 169.278l1.652 27.332 13.073 7.185 10.249-2.59 1.883-3.889 3.418-22.384-2.712-3.3-7.537.828-7.659-3.888z"/><path fill="#d4d2d2" d="M50.886 162.679l.824 8.604 30.157 3.649 1.177-8.243z"/><path fill="#696a6d" d="M53.244 207.683V196.61l25.205.706-1.647 10.367h-5.301z"/><path fill="#e8f078" d="M-12.022-.359l-10.249 18.967-10.13-.588 17.67-25.801z"/><path fill="#4c9e7d" d="M77.394 94.474l67.499 46.648 7.305-10.837-33.221-32.751z"/><path fill="#67b595" d="M77.394 94.474l74.804 35.811-20.147-46.648zM51.71 96.121l-20.144 40.288 10.719 14.255 35.109-56.19z"/><path d="M34.04 133.467l5.536 16.609-5.536-16.609z" fill="#378266"/><path fill="#72c9a6" d="M31.566 136.409l16.846-52.424 28.982 10.489z"/><path fill="#474747" d="M83.044 127.221l-19.904-10.01 14.254-22.737 26.382 18.257z"/><path fill="#383838" d="M28.974 228.063h49.597l.114 4.83H29.092z"/><path fill="#4f4e4e" d="M114.971 231.476l3.531-20.733 23.68-2.119 12.488 22.852-19.084 3.535z"/><path fill="#383838" d="M115.206 237.605l-.235-6.129h39.699l-.235 6.364z"/><path d="M71.736-85.647c2.411 0 4.359 1.95 4.359 4.357 0 2.409-1.948 4.359-4.359 4.359-2.407 0-4.359-1.95-4.359-4.359 0-2.407 1.952-4.357 4.359-4.357zM36.042-87.415c2.407 0 4.359 1.952 4.359 4.359s-1.952 4.359-4.359 4.359-4.359-1.952-4.359-4.359c.001-2.407 1.953-4.359 4.359-4.359z" fill="#2b2b2b"/><path fill="#6f6054" d="M116.854-108.503l-3.06 35.696 5.653 4.123 2.708-14.136.357-14.373zM45.35-17.794l-4.477-4.123 4.712-2.945 57.956-9.423-3.296 15.197z"/><path fill="#8b7a6d" d="M45.35-17.794L30.153-20.15l-6.597-14.49 22.029 9.778z"/><path fill="#a0cf7e" d="M137.822 55.127l-10.716-17.081 15.076-5.065h29.214l6.479 17.434 3.774 10.249z"/><path fill="#709d53" d="M127.106 38.046l-5.421-8.483 31.219-9.187 18.492 12.605z"/><path fill="#4f5253" d="M187.299 34.157l-15.903-1.176-49.711-3.418L155.141.585z"/><path fill="#e8f078" d="M132.051 83.637l12.842 11.072-2.711 12.25z"/><path fill="none" d="M-151.5-151.5h399v399h-399z"/></svg>