<svg xmlns="http://www.w3.org/2000/svg" viewBox="0 0 400 400"><g fill-rule="evenodd" clip-rule="evenodd"><path opacity=".1" fill="#33302d" d="M129.722 385.059l84.359-11.396 82.29 13.681-82.769 12.762z"/><path fill="#4b4949" d="M151.467 382.121l50.596-.143v-6.488l-6.803-3.462h-32.313l-11.48 3.462zM234.675 391.132h37.117v-6.816l-4.99-3.636h-23.706l-8.421 3.636z"/><path fill="#646060" d="M176.492 359.044l-25.025 16.446h50.596l-.229-16.426-4.872-3.472h-16.583zM245.629 363.261l-5.466 3.578-5.488 17.477h37.117l-7.227-17.477-5.117-3.146z"/><path fill="#47aa7e" d="M151.893 272.382l24.599 86.662h11.045l3.109-3.429-10.059-71.533-16.364-9.674z"/><path fill="#2d8862" d="M180.587 284.082l-4.677 1.352 11.627 73.61 14.297.02 4.481-57.105-7.575-7.797zM210.393 295.225l-4.078 6.734 33.85 64.88h13.236l2.806-5.17-16.853-78.496z"/><path fill="#47aa7e" d="M253.401 366.839l-17.442-81.429 15.506-8.17 7.335 1.805 5.666 87.794z"/><path fill="#1e7150" d="M187.607 254.556h12.756l7.227 17.016 21.78.231 29.43 7.242-52.485 22.914-54.422-29.577 5.526-4.456 22.11.809z"/><path fill="#405b25" d="M153.167 182.844l7.161-5.348 16.225-26.254 2.453-11.802-24.641-41.336-5.924 2.018-12.705 19.113-.767 11.614z"/><path fill="#53702a" d="M179.006 139.44l17.956 9.776-.851 4.862-35.29 29.171-7.654-.405zM119.694 87.208l2.01-6.057 12.331-6.482 6.263-.165 14.067 23.6-19.396 32.745z"/><path fill="#d4a8a2" d="M188.616 138.708l7.557-2.279 52.874 7.757-3.562 6.433-27.447 7.07h-10.007l-15.216-10.731z"/><path fill="#f2d6d2" d="M263.526 59.729l-6.367 1.733-14.551 47.085 10.113 9.651-8.639 16.262-8.741-1.488 4.943 14.538-1.298 4.783 2.075 6.71 5.222 2.773 32.134-43.992 1.211-11.852-9.596-17.667 4.66-18.264z"/><path fill="#e5e4e4" d="M251.841 154.167l-11.557-6.657-.942 9.747 9.971 11.132 6.613-1.252z"/><path fill="#3e2b18" d="M252.721 107.663l-12.394 4.947-10.34 19.836 10.297 15.064 30.691-45.979 1.033-10.503-3.443-3.409z"/><path fill="#405b25" d="M271.792 175.956l-5.951 7.698-6.497 52.733 3.485 10.682 6.045 8.189 5.912-.518 15.373-20.242.114-8.483z"/><path fill="#e5e4e4" d="M188.625 172.665l-2.967 6.85 9.178 34.526 8.503 1.215 29.317-32.536.364-8.078-2.045-5.573-11.48-6.078-14.879-.81-12.757 5.267z"/><path fill="#f0f2f2" d="M207.612 162.344l-4.141 4.492-10.178 41.396 1.543 5.809 8.503 1.215 5.331-5.915 9.524-40.778-3.149-5.814z"/><path fill="#39471c" d="M126.412 240.314l-8.109 2.898 33.59 29.17 5.526-4.456 4.253-25.119z"/><path fill="#53702a" d="M228.424 276.838l30.376 2.207 12.992-103.089-25.509-14.18-2.127 8.913 9.779 26.335-19.324 50.085z"/><path fill="#dfdf3a" d="M188.625 172.665l10.462 34.894 4.252 7.697-2.551 32.412-6.803 6.888-10.936 19.641-31.156-1.815 4.251-24.714 3.401-21.068 21.729-50.067z"/><path fill="#bdc30f" d="M233.02 174.642l-33.933 32.917-5.102 46.997 9.424 20.826 25.015 1.456 6.187-29.729 1.892-69.127z"/><path fill="#53702a" d="M153.167 182.844l3.402 4.456 2.976 39.3-3.401 21.068-37.841-4.456z"/><path fill="#738944" d="M153.167 182.844l31.464-23.499 4.855.209 2.373 7.894-3.234 5.217-32.481 75.003zM246.283 161.776l17.539 38.272-35.398 76.79 4.596-102.196 3.738-8.328z"/><path fill="#2d8862" d="M240.284 147.51l-19.513 6.568-3.826 4.862 14.03 6.482 15.308-3.646z"/><path fill="#1e7150" d="M233.02 174.642l-14.826-6.079-1.249-9.623 29.338 2.836z"/><path fill="#2d8862" d="M192.815 146.959l13.074 7.119 1.701 4.862-13.179 3.646-9.78-3.241z"/><path fill="#1e7150" d="M188.625 172.665l-3.994-13.32 22.959-.405-4.119 7.896z"/><path fill="#47aa7e" d="M205.889 154.078l-2.418 12.758 14.723 1.727 2.577-14.485z"/><path fill="#53702a" d="M290.273 226.015l-21.399 29.243 18.031 24.428 5.297.394 12.331-6.888.923-6.049z"/><path fill="#c49212" d="M105.91 58.901l8.701 13.784 4.968.363 9.779-28.36-2.976-2.431L106.13 52.76z"/><path fill="#f2d6d2" d="M98.991 47.718l1.455 5.072 5.464 6.111 11.968-6.921 9.779-20.257z"/><path d="M131.826 20.329l-4.169 11.394-1.804 3.736 7.331 14.089 4.677.811 11.054-1.621v-7.292l-9.354-17.421c.001 0-7.863-3.46-7.735-3.696z" fill="#c49212"/><path fill="#e5a91f" d="M131.826 20.329l17.09 28.41 11.48-8.103-11.905-15.802z"/><path fill="#e7c800" d="M146.816 13.036l-14.99 7.293 28.57 20.307-3.827-16.206z"/><path fill="#e5a91f" d="M159.984 20.126l-13.168-7.09 13.58 27.6 2.125-13.37.852-3.646z"/><path fill="#c49212" d="M163.022 14.454l-3.038 5.672 2.537 7.14h6.803l.851-7.293z"/><path fill="#e7c800" d="M171.936 9.592l-8.914 4.862 6.302 12.812 8.992-3.874 1.213-9.091z"/><path fill="#fef2f0" d="M137.862 50.359l-10.205-18.636-13.818 13.589 4.039 6.668 6.803-4.051-10.07 24.756 4.968.363 11.48-6.077z"/><path fill="#e5e4e4" d="M114.611 72.685l18.382-10.435 7.305 12.254-20.604 12.704z"/><path fill="#e7c800" d="M79.374 49.912l19.617-2.194 11.821 8.349-2.76 6.448-10.157.809-8.079-1.215-6.609-4.304z"/><path fill="#e5a91f" d="M94.918 71.427l2.977-8.103 12.917-7.257 3.799 16.618-12.423 13.682-4.293-4.406z"/><path fill="#c49212" d="M83.438 74.669l-4.064-24.757 18.521 13.412 4.293 23.043z"/><path fill="#342519" d="M180.965 39.14l7.977 3.435 30.615-3.382 12.332-3.647-33.59-19.447-18.77-1.798z"/><path fill="#59422e" d="M179.529 14.301l41.237 21.588 4.197 2.646 17.469 5.9 4.932-1.969.258-12.591-18.286-19.448L214.03-.106z"/><path fill="#3e2b18" d="M306.04 57.638l-21.29-37.965-19.697 6.555-17.689 16.238 11.613 6.427 29.918 11.835z"/><path fill="#342519" d="M263.227 48.166l4.25-.727 38.563 10.199-10.568 25.594-13.373 1.327-11.124 16.972-6.939-40.047-3.373-4.894z"/><path fill="#d4a8a2" d="M278.417 117.784l-7.442-16.253 8.684-.669 5.398 7.83z"/><path fill="#fef2f0" d="M180.965 39.14l-9.513 63.897 6.328 18.46 47.082 3.684 27.859-17.518 14.756-60.224-46.711-11.55zM278.809 76.958l-7.834 24.573 14.082 7.161 10.491-25.527z"/><path fill="#d4a8a2" d="M282.974 85.573l6.121 2.43-9.149 8.808zM198.301 86.621l5.549 7.536 9.707-7.371-7.817-2.981z"/><path fill="#f2d6d2" d="M206.212 73.904l-7.911 12.717-5.786-19.018-8.501-5.4 8.025-3.137 12.261 4.719 1.345 4.49zM210.936 74.354l2.229-5.78 6.335-4.809 15.391-2.391 9.574 4.026-15.951 5.425-14.957 15.961z"/><path fill="#fef8f8" d="M205.645 68.275l-7.344 18.346 15.256.165-.392-18.212z"/><path fill="#342519" d="M204.068 60.945l.232 2.84-12.869-3.2-7.417 1.618 6.953-4.431zM219.987 60.751l-.487 3.014 16.606-.827 8.359 2.462-7.685-5.377z"/><path fill="#f2d6d2" d="M215.529 51.965l.949 7.788 3.022 4.012-5.699-2.675z"/><path d="M193.566 72.132c2.08 0 3.778-1.617 3.778-3.601 0-1.983-1.698-3.601-3.778-3.601-2.082 0-3.779 1.618-3.779 3.601 0 1.984 1.697 3.601 3.779 3.601zM227.769 74.845c2.083 0 3.78-1.618 3.78-3.6 0-1.983-1.697-3.601-3.78-3.601-2.08 0-3.778 1.617-3.778 3.601 0 1.983 1.698 3.6 3.778 3.6z" fill="#33302d"/><path fill="#1e7150" d="M192.052 219.085l6.378-5.47 5.852 6.581-7.113 5.035zM188.909 244.119l6.793-5.37 5.467 6.48-6.733 5.17z"/><path fill="#d4a8a2" d="M193.44 102.734l24.596.58 5.363-1.84 1.103 2.744-5.826 2.078-25.556-1.203z"/><path d="M171.452 103.037l10.568 7.053 4.8-12.961 17.03-2.972 24.242 4.213-1.467 15.834 26.096-6.541-16.428 28.114-5.681 3.488-41.688-7.148-17.519-5.427.047-23.653zm51.947-1.563l-33.178-.698-4.117 11.558 5.053 2.973 5.502-6.07 11.7-.025 1.678 7.289 11.525-1.057 1.837-13.97z" fill="#59422e"/><path fill="#342519" d="M188.616 138.708l-17.21-12.019 64.887 9.088 3.991 11.733z"/><path fill="#f4d7d2" d="M222.639 93.07l9.996 10.182-2.06-7.732z"/><path fill="#d4a8a2" d="M302.5 289.26l-9.022-.671-2.033 10.8 8.503 3.241 12.757-6.888z"/><path fill="#f4d7d2" d="M291.445 299.389l5.417-1.102 23.283-1.128.481 8.576-27.693 4.794z"/><path fill="#fef2f0" d="M298.249 281.967l-4.771 6.622 14.124 3.912-10.74 5.786 2.309 6.156 20.974-7.284-.851-9.317-9.659-9.382z"/><path fill="#e5e4e4" d="M286.905 279.686l6.573 8.903 16.157-10.129-4.179-11.317z"/><path fill="#59422e" d="M284.75 19.673l-32.976-9.267-6.279 5.693-1.258 10.177 3.127 16.19z"/><path fill="#3e2b18" d="M251.774 10.406l-4.41 32.06L214.03-.106z"/></g></svg>