<svg xmlns="http://www.w3.org/2000/svg" viewBox="0 0 533.33331 533.33331" height="533.33331" width="533.33331"><defs><clipPath id="a"><path d="M0 400h400V0H0z"/></clipPath><clipPath id="b"><path d="M94.73 22.1211h179.218V-1.291H94.73z"/></clipPath><clipPath id="c"><path d="M0 400h400V0H0z"/></clipPath></defs><path d="M313.40105883 333.55466833l-37.2653324-8.64266645-31.0226659-11.62133305-14.1186663 22.28133278-20.45733283 22.08933278 13.25466634 13.73466633 7.58666648 17.19066623-19.59066618 5.47599987-35.34533245 2.20933327 9.31599977 5.28266654 3.36266658 6.2426665 30.34933257 25.64399937 37.35999907 36.1119991 5.76399986 2.59199993 7.58666647 9.5093331 1.43999997-14.11866632 5.66666652-10.94933306 19.20933285-72.99466484z" fill="#14896a"/><path d="M369.10679077 268.43613662l-23.6279994 10.4706664-34.28666582 6.14666652-3.84133323-18.44133287 2.11333328-19.11333286-16.0399996 2.78533327-13.92666632-2.30533328-10.85333306.28933333-12.96533301-2.30533328-20.64933282-4.61066655-23.43466608-14.7906663-8.45199979 22.6666661-21.1293328 38.6106657 7.20266648 14.11866632 8.64399979 36.68799908 4.99466654-36.40133242 8.93199978-22.7626661 6.5306665-4.51466655 11.71733304-.57466666 8.73999978 14.8866663 2.01599995 12.48533302 3.65066658 4.9933332.67199998 6.53333318 30.7346659 7.00933316 37.5533324 13.25466633 29.67733258-28.14133263 33.51866583-25.54799936-5.66666652-4.99466654z" fill="#2ba549"/><path d="M353.93092449 31.20840922l-7.87466647-1.24799997-4.80266655-4.89999988-23.81866607-9.21999977L294.96159263 1.7217433l-35.05733246 14.79199963-30.92533256 7.10666649-5.37866653 21.2253328-12.00533304 24.97199938-2.2106666 7.10666649-3.93733324 5.57199986-.48 31.69333254-4.8973332 58.6826652-9.0293331 16.32799959-15.2706663 18.63333287 19.59333285 7.39466648 16.2319996 11.33333305 20.36133282 11.52533304 23.72266607 7.87466647 16.32666626 3.16933326 7.49199981-1.15199997 19.49733285 1.82533328 10.46933307-2.30533327 9.41199976-2.88133326 11.04399973 2.49733327-10.94933306-16.4239996-10.56399974-23.33733274 9.89199976-21.99466612 14.11866631-20.45733282 21.6093328-10.2786664 25.83599935-8.64266646-18.91999953-49.07866544-13.157333-52.91999868 1.05599997-7.4919998z" fill="#fddac6"/><g clip-path="url(#a)" transform="matrix(1.33333 0 0 -1.33333 0 533.33333)"><g clip-path="url(#b)" opacity=".10000598"><path d="M273.9482 8.6914l-80.892 13.43-98.326-10.303 76.139-13.109z" fill="#2b2c2b"/></g></g><path d="M332.41799169 164.90173921l47.44533215-18.92133286-32.07866587-101.99866412-12.48533302-6.3386665-12.77466635-6.14666652-19.40133284-7.49199981-14.5986663 21.89733279-2.97599993-1.53466663-5.95466652 12.29333302 28.1399993 116.98133041z" fill="#fee5d6"/><path d="M347.88025797 43.9824089l-6.6266665-18.92133286-46.29199884-23.33866608-2.9786666 22.5706661 11.14133306-.288 19.39999951 7.49066649 12.77466635 6.14799984z" fill="#e6e97b"/><path d="M294.96092596 1.72200996l-65.98266502 21.89733278-17.38399956 46.19866551-6.14799985 12.67866635 18.53733287-6.43599983 18.44133287-6.14666652 18.43999954-6.5306665 18.82399953-6.53199984 8.83599978-10.94933306 14.5986663-21.89733278z" fill="#d8e157"/><path d="M279.688793 56.85160858l-18.34399953 6.4346665-18.91999953 6.6266665-18.44133287 6.14799985-18.53733287 6.4346665-5.3773332 90.37733108 73.57066483-103.34266408z" fill="#b8c644"/><path d="M323.39065858 70.2974749l9.60399976 26.12399936 17.38266623-31.1186659zM316.95439208 71.45054155l-22.9546661 16.99999957 19.49733285 2.49733327 17.86399955 20.93733281zM279.688793 56.85160858l28.04533264 116.79066375-4.03333323 4.31999989-10.65999974 1.4413333-7.49333314-9.31599977-5.2813332-13.349333-3.16933326-35.15333246z" fill="#f4cab4"/><path d="M337.98825822 109.86787392l-1.6333333 7.01199982-4.99466654-4.99466654z" fill="#c3927d"/><path d="M316.95439208 71.45054155l-21.5133328 9.50799976-1.4413333 7.49199981zM323.39065858 70.2974749l24.87333271-9.02799977 2.11333328 4.03333324z" fill="#b8c644"/><path d="M293.04039267 179.40360551l15.36533295 27.94933264 24.0119994-42.4506656-24.68266605 8.73999978z" fill="#c3927d"/><path d="M316.95439208 71.45054155l14.4066663 40.43466565 6.6266665-2.01733328-14.59733296-39.57066568z" fill="#fff1e9"/><path d="M273.6393265 69.5305416l-17.9613329 176.43199558 23.81999941 2.01733329.76799998-91.24133106-.67199998-100.07866416z" fill="#e6e97b"/><path d="M270.37372657 100.74347415l-58.7786652 125.81866352-35.82666576-18.72933287 24.30133272-34.95999912 73.5693315-103.34266408zM280.265593 156.73827275l28.13999929 50.6146654 21.51466613 39.76266567-50.4226654.86399998z" fill="#d8e157"/><path d="M270.37372657 100.74347415l-58.7786652 125.81866352 44.0839989 19.39999951 4.99333321-49.65466542 8.54933312-37.83999906z" fill="#b8c644"/><path d="M359.98172433 121.1061403l-19.49733284 13.541333-25.35466603.67199998 27.37333264 6.8186665z" fill="#99c16d"/><path d="M359.98172433 121.1061403l-7.9719998 2.87999993-11.04399972 1.8253333-7.10799982 2.40133326-8.35466646 4.80266655-10.37333307 2.30399994 25.35466603-.67199998z" fill="#59763e"/><path d="M353.93092449 31.20840922l-12.67733302-6.14799985-6.24133318 12.67733302 12.86799968 6.24399984z" fill="#36785e"/><path d="M335.29945828 37.64320906l-12.77466634-6.14666651-6.14666652 12.67733301 12.87066635 6.24399985z" fill="#55b08a"/><path d="M316.85812541 43.9824089l-12.86799968-6.24399984-6.05066651 12.77466634 12.67599968 6.14666652z" fill="#36785e"/><path d="M298.22652588 50.51240874l-12.67866635-6.14533318-6.24133318 12.77199968 12.77333301 6.14799984z" fill="#55b08a"/><path d="M279.688793 56.85160858l-12.77466634-6.24266651-6.04933318 12.77333301 12.77466635 6.14799985z" fill="#36785e"/><path d="M261.34439347 63.28640842l-12.67733302-6.24266651-6.24266651 12.869333 12.86933301 6.05066652z" fill="#55b08a"/><path d="M242.9042606 69.5305416l-12.86933302-6.14799985-6.05066651 12.67866635 12.77333301 6.24133318z" fill="#36785e"/><path d="M224.36852772 75.96414143l-12.77466634-6.14533318-6.14666652 12.67733302 12.67866635 6.24266651z" fill="#55b08a"/><path d="M279.785193 94.30854098l-9.41199976 6.4346665-2.20933328 22.47599944 11.81466637-7.9719998z" fill="#59763e"/><path d="M279.97785967 115.24680712l-11.81333304 7.9719998-1.6333333 16.32666626 13.541333-7.49199981z" fill="#99c16d"/><path d="M280.07292633 132.05334003l-13.541333 7.49199981-1.92133328 18.15199955 15.55866628-8.64399978z" fill="#59763e"/><path d="M280.16932633 149.0533396l-15.55866628 8.6439998-2.01733328 20.07333282 17.57599956-10.08399975z" fill="#99c16d"/><path d="M280.16932633 167.6868058l-17.57599956 10.08399976-1.92133329 18.53733287 19.40133285-10.75733307z" fill="#59763e"/><path d="M309.46359226 247.49933715l3.93733324 86.05599784-57.72266523-87.59333114 23.81866608 2.01733328z" fill="#728c57"/><path d="M311.19145889 285.0533362l57.91466522-16.61733291 5.47466653 4.99466654 2.01733328 6.4346665-63.19733176 53.689332z" fill="#99c16d"/><path d="M369.10679077 268.43613662l9.1253331-9.41199976 11.62133305 8.64533311 12.67599968-20.55466615h3.45733325l-5.95466652 27.46799932-23.43466608 5.28266653z" fill="#fee5d6"/><path d="M373.619724 263.6348034l26.41333267 10.94799974 5.0893332-12.38933303.86399998-15.07866629h-3.45599991l-8.35733313 10.46799974-4.31999989 10.08666641-5.47599986-6.53199983-6.14533318-2.11333328z" fill="#c3927d"/><path d="M211.59439471 226.561871l29.19599927 75.20266479 17.76933289 5.47466653 36.2079991-1.82533329-39.08933236-59.45199851z" fill="#59763e"/><path d="M294.7682593 305.41400236l-53.97733199-3.64933324 4.32266656 11.52533305 25.54799936 18.34399954 42.73999893 1.91999995z" fill="#99c16d"/><path d="M211.59439471 226.561871l-29.5813326 61.2773318 48.02266547-13.44799966z" fill="#728c57"/><path d="M211.78706137 279.48173635l-13.92666632 59.16399852-10.3066664-16.05333293 1.0813333-13.521333-6.6226665-21.23199947z" fill="#99c16d"/><path d="M197.85999505 338.6458682l-12.04266636 1.2413333-14.31866631-4.0999999 17.15999957-26.72399933z" fill="#fee5d6"/><path d="M245.1133272 313.29040217l-34.57599913 44.37066556 45.3333322 7.5879998 57.53066523-31.69466587z" fill="#55b08a"/><path d="M210.53772807 357.66146773l20.84133281 30.92533256-10.94799972 32.27199919 56.8573319 35.7279991 36.11333244-123.03199692z" fill="#3f8e6f"/><path d="M231.37892755 388.58720029l-54.93599863 7.68533314 5.6653332 8.06666646 7.01199982 3.45733325 68.57599828 62.42933177 3.16933326 3.93733324 9.31599977 7.4919998 7.10666648-25.06799936z" fill="#36785e"/><path d="M176.44266226 396.27213343l-17.5773329-6.33866651-9.50799976 52.34266536 39.76266567-34.4786658z" fill="#fee5d6"/><path d="M160.69079598 432.48053252l3.84133324 22.18666611-15.17466629-12.39066635z" fill="#f4cab4"/><path d="M257.69599356 470.22653158l-20.16933283 14.98133296 19.88133283 38.99466569 12.77333302-42.54799894z" fill="#fee5d6"/><path d="M257.40826023 524.20306356l22.66399943-.47999999-18.72799953-12.77466634z" fill="#f4cab4"/><path d="M176.44266226 396.27213343l4.12933323 19.01733285 8.54799978-7.4919998zM270.18092658 481.6549313l-17.38399957-7.68399982 4.03333324-4.41733322z" fill="#c3927d"/><path d="M185.81772869 339.88666817l-25.19599937-20.85333281-4.22133323 16.50933292 11.13199972 6.33333317z" fill="#f4cab4"/><path d="M449.73572209 40.9557423L429.27838927 4.4584099l-9.02933311 33.71333249z" fill="#3f8e6f"/><path d="M420.24865616 38.17120905l-32.84666585-8.35733313 19.88133284 35.34399912z" fill="#55b08a"/><path d="M449.25518877 54.01827532l-29.00666594-15.84666627 3.93866657 10.6586664 6.8186665 7.20399982z" fill="#728c57"/><path d="M420.24865616 38.17120905l-.86266664 32.84666584 11.6199997-14.9826663z" fill="#99c16d"/><path d="M134.61519663 44.26894223l20.36133283-36.59199909 9.12399977 33.71066583z" fill="#3f8e6f"/><path d="M164.10092923 41.3873423l32.84666585-8.3559998-19.97733284 35.34533246z" fill="#55b08a"/><path d="M135.09572996 57.1393419l29.0053326-15.7519996-5.47599986 12.39066636-5.3773332 5.47466653z" fill="#728c57"/><path d="M164.10092923 41.3873423l.86399998 32.84799918-11.71733304-14.98399963z" fill="#99c16d"/><path d="M132.2623967 246.8274705l-6.72399984-41.39466564-20.0719995 28.61999929z" fill="#3f8e6f"/><path d="M105.4661307 234.05333748l-27.9479993-19.20933285 6.62533316 40.14666566z" fill="#55b08a"/><path d="M127.36453015 258.7362702l-21.89866612-24.68266605.86399998 11.71733304 3.16933325 8.73999978z" fill="#728c57"/><path d="M105.4661307 234.05333748l-12.00533304 30.4466659 16.03866627-9.98933308z" fill="#99c16d"/><path d="M418.08932288 247.11467049h-20.36133282v-20.26533283h20.36133282z" fill="#59763e"/><path d="M410.69398973 274.9674698l.38266666 24.77999937h-4.9933332l.38533331-24.77999938z" fill="#728c57"/><path d="M408.00385647 226.84960433l2.01866661-24.20266606-28.23733262 7.58666647 15.94266626 16.61599959zM397.72785672 231.26827088l-26.60399933-12.19866636-9.5093331 24.01066607 36.11333243-4.22533323zM397.72785672 243.08067059l-31.02266589 7.10799982 23.14799942 17.47999956 12.67733302-20.55333281h-4.80266655zM405.98692318 247.11520382l-5.95466651 27.46799932 24.39599939.38399999-11.23866639-27.8519993zM418.08985621 247.11520382l18.72799954 24.77999938 15.65466627-15.17466628-34.3826658-15.36799962zM418.08985621 238.08653738l36.3039991 8.64399979 3.65066657-20.45733283-39.95466567 7.10799983zM418.08985621 230.01893758l30.92533256-16.23066626-21.0333328-12.77466635-16.80799958 25.83599936h6.91599982z" fill="#b8c644"/><path d="M408.00385647 226.84960433l-10.27599975 10.18133308 10.27599975 10.08399975 10.08533308-10.08399975z" fill="#d8e157"/><g clip-path="url(#c)" transform="matrix(1.33333 0 0 -1.33333 0 533.33333)"><path d="M257.957 342.0898c-2.232 0-4.033-1.729-4.033-3.962 0-2.232 1.801-4.034 4.033-4.034 2.233 0 4.107 1.802 4.107 4.034 0 2.233-1.874 3.962-4.107 3.962M231.4492 332.5093c-2.233 0-4.106-1.872-4.106-4.105 0-2.234 1.873-4.034 4.106-4.034 2.232 0 4.033 1.8 4.033 4.034 0 2.233-1.801 4.105-4.033 4.105" fill="#2a2a2a"/></g></svg>