<svg id="image" xmlns="http://www.w3.org/2000/svg" viewBox="0 0 1170 350"><style>.st1{fill:#efefef}.st2{opacity:.1;fill-rule:evenodd;clip-rule:evenodd}.st3,.st4,.st5,.st6,.st7,.st8{fill-rule:evenodd;clip-rule:evenodd;fill:#969696}.st4,.st5,.st6,.st7,.st8{fill:#afafaf}.st5,.st6,.st7,.st8{fill:#bcbcbc}.st6,.st7,.st8{fill:#c9c9c9}.st7,.st8{fill:#dbdbdb}.st8{fill:#aaa}.st9{fill:#8c8c8c}.st10,.st11,.st12{fill-rule:evenodd;clip-rule:evenodd;fill:#9b9b9b}.st11,.st12{fill:#efefef}.st12{fill:#848484}.st13{fill:#369496}.st16,.st17,.st18{fill-rule:evenodd;clip-rule:evenodd;fill:#8e8e8e}.st17,.st18{fill:#b2b2b2}.st18{fill:#efefef;stroke:#9e9e9e;stroke-width:4;stroke-miterlimit:10}.st19{fill:#8e8e8e}.st20,.st22,.st23,.st25,.st26{fill-rule:evenodd;clip-rule:evenodd;fill:#a8a8a8}.st22,.st23,.st25,.st26{fill:#fff}.st23,.st25,.st26{fill:#a3a3a3}.st25,.st26{fill:#c4c4c4}.st26{fill:#898989}.st28{fill:#ddd}.st29{fill:#7f7f7f}.st30{fill:#686868}.st31{fill:#9b9b9b}.st32{opacity:.1}.st33{fill:#fff}.st34{fill:#939393}.st35{fill:#7c7c7c}.st37{fill:#777}.st39,.st40,.st41,.st42,.st43,.st44{fill-rule:evenodd;clip-rule:evenodd;fill:#474747}.st40,.st41,.st42,.st43,.st44{fill:#318fa6}.st41,.st42,.st43,.st44{fill:#616161}.st42,.st43,.st44{fill:#27788c}.st43,.st44{fill:#ffdbc7}.st44{fill:#f5cab3}.st45{fill:#c4937d}.st45,.st47{fill-rule:evenodd;clip-rule:evenodd}.st49,.st51,.st52,.st53,.st54,.st55{fill-rule:evenodd;clip-rule:evenodd;fill:#e3e3e3}.st51,.st52,.st53,.st54,.st55{fill:#1c7678}.st52,.st53,.st54,.st55{fill:#737373}.st53,.st54,.st55{fill:#8f8f8f}.st54,.st55{fill:#369496}.st55{fill:#72cbcc}</style><g id="bg"><path fill="#dbdbdb" d="M-10-11h1190v369H-10z"/><path class="st1" d="M-10 282h1190v76H-10z"/></g><path class="st2" d="M19 290h874v3.6H19zM668 295h82v3h-82z"/><g id="Layer_12"><path transform="rotate(-23 55.42055661 67.70121354)" class="st3" d="M51.9 49.3h6.9v36.9h-6.9z"/><path transform="rotate(-23 65.42041087 67.70067212)" class="st3" d="M61.9 49.3h6.9v36.9h-6.9z"/><path transform="rotate(-23 75.42026512 67.7001307)" class="st3" d="M71.9 49.3h6.9v36.9h-6.9z"/><path transform="rotate(-23 85.42011938 67.69958928)" class="st3" d="M81.9 49.3h6.9v36.9h-6.9z"/><path class="st4" d="M44.5 64.6v63.6h58.1V64.6H44.5zm44.9 15.6H57.6v-8.4h31.8v8.4z"/><path transform="rotate(-23 119.41973213 67.6977193)" class="st3" d="M115.9 49.3h6.9v36.9h-6.9z"/><path transform="rotate(-23 129.41958638 67.69717788)" class="st3" d="M125.9 49.3h6.9v36.9h-6.9z"/><path transform="rotate(-23 139.41944064 67.69663647)" class="st3" d="M135.9 49.3h6.9v36.9h-6.9z"/><path transform="rotate(-23 149.4192949 67.69609505)" class="st3" d="M145.9 49.3h6.9v36.9h-6.9z"/><path class="st4" d="M108.5 64.6v63.6h58.1V64.6h-58.1zm44.9 15.6h-31.8v-8.4h31.8v8.4z"/><path class="st5" d="M30 132.4h150.7v159.3H30z"/><path class="st4" d="M30 133.1h150.7v7.7H30z"/><path class="st6" d="M30 126.3h150.7v12H30z"/><g><path class="st7" d="M45.8 154.1h56.6v37.1H45.8z"/><path class="st4" d="M45.8 188.4h56.6v2.7H45.8z"/><path class="st8" d="M67.4 154c0 3.7 3 6.7 6.7 6.7s6.7-3 6.7-6.7H67.4z"/><path class="st7" d="M69.9 154c0 2.3 1.9 4.1 4.1 4.1 2.3 0 4.1-1.8 4.1-4.1h-8.2z"/><path class="st9" d="M76.5 178.3h-5.4l-.8 2.1h-2.8l4.6-12h3.2l4.6 12h-2.8l-.6-2.1zm-4.7-2.2h4l-2-5.5-2 5.5z"/></g><g><path class="st7" d="M109.8 154.1h56.6v37.1h-56.6z"/><path class="st4" d="M109.8 188.4h56.6v2.7h-56.6z"/><path class="st8" d="M131.4 154c0 3.7 3 6.7 6.7 6.7s6.7-3 6.7-6.7h-13.4z"/><path class="st7" d="M133.9 154c0 2.3 1.9 4.1 4.1 4.1s4.1-1.8 4.1-4.1h-8.2z"/><path class="st9" d="M133.1 168.3h6.3c2.3 0 3.5 1.5 3.5 3.1 0 1.5-.9 2.5-2.1 2.8 1.3.2 2.3 1.4 2.3 3 0 1.8-1.2 3.2-3.5 3.2h-6.5v-12.1zm5.7 4.9c.9 0 1.4-.6 1.4-1.3 0-.7-.5-1.3-1.4-1.3h-3.2v2.6h3.2zm.1 5c1 0 1.5-.6 1.5-1.4 0-.8-.5-1.4-1.5-1.4h-3.3v2.8h3.3z"/></g><g><path class="st7" d="M45.8 198.1h56.6v37.1H45.8z"/><path class="st4" d="M45.8 232.4h56.6v2.7H45.8z"/><path class="st8" d="M67.4 198c0 3.7 3 6.7 6.7 6.7s6.7-3 6.7-6.7H67.4z"/><path class="st7" d="M69.9 198c0 2.3 1.9 4.1 4.1 4.1 2.3 0 4.1-1.8 4.1-4.1h-8.2z"/><path class="st9" d="M68.3 218.4c0-3.7 2.8-6.2 6.3-6.2 2.7 0 4.3 1.4 5.1 2.9l-2.2 1.1c-.5-1-1.6-1.7-2.9-1.7-2.1 0-3.7 1.7-3.7 3.9s1.6 3.9 3.7 3.9c1.3 0 2.4-.8 2.9-1.7l2.2 1.1c-.9 1.5-2.4 3-5.1 3-3.5-.1-6.3-2.7-6.3-6.3z"/></g><g><path class="st7" d="M109.8 198.1h56.6v37.1h-56.6z"/><path class="st4" d="M109.8 232.4h56.6v2.7h-56.6z"/><path class="st8" d="M131.4 198c0 3.7 3 6.7 6.7 6.7s6.7-3 6.7-6.7h-13.4z"/><path class="st7" d="M133.9 198c0 2.3 1.9 4.1 4.1 4.1s4.1-1.8 4.1-4.1h-8.2z"/><path class="st9" d="M132.6 212.3h4.7c3.8 0 6.4 2.4 6.4 6s-2.6 6-6.4 6h-4.7v-12zm4.7 9.8c2.4 0 3.8-1.7 3.8-3.7 0-2.1-1.3-3.8-3.8-3.8h-2.2v7.5h2.2z"/></g><g><path class="st7" d="M45.8 242.1h56.6v37.1H45.8z"/><path class="st4" d="M45.8 276.4h56.6v2.7H45.8z"/><path class="st8" d="M67.4 242c0 3.7 3 6.7 6.7 6.7s6.7-3 6.7-6.7H67.4z"/><path class="st7" d="M69.9 242c0 2.3 1.9 4.1 4.1 4.1 2.3 0 4.1-1.8 4.1-4.1h-8.2z"/><path class="st9" d="M69.8 256.3h8.5v2.2h-5.9v2.6h5.8v2.2h-5.8v2.8h5.9v2.2h-8.5v-12z"/></g><g><path class="st7" d="M109.8 242.1h56.6v37.1h-56.6z"/><path class="st4" d="M109.8 276.4h56.6v2.7h-56.6z"/><path class="st8" d="M131.4 242c0 3.7 3 6.7 6.7 6.7s6.7-3 6.7-6.7h-13.4z"/><path class="st7" d="M133.9 242c0 2.3 1.9 4.1 4.1 4.1s4.1-1.8 4.1-4.1h-8.2z"/><path class="st9" d="M133.9 256.3h8.5v2.2h-5.9v2.6h5.8v2.2h-5.8v5h-2.6v-12z"/></g></g><g id="text"><path class="st10" d="M216 50.4h76.7v241.4H216z"/><path class="st11" d="M229.6 66.9H279v49.4h-49.4z"/><path class="st12" d="M229.6 114.5H279v2.6h-49.4z"/><path class="st13" d="M250.7 78.8h7.3v24h-7.3v-24z"/><path class="st11" d="M229.6 120.9H279v49.4h-49.4z"/><path class="st12" d="M229.6 168.5H279v2.6h-49.4z"/><path d="M247.2 148c1.8 1.7 4.5 3.1 7.7 3.1 1.4 0 2.7-.5 2.7-1.4 0-.9-1-1.4-3.4-1.8-4-.7-10-1.7-10-7.7 0-4.1 3.4-7.8 10-7.8 3.9 0 7.5 1.1 10.2 3.3l-3.9 5.1c-2.1-1.6-4.8-2.4-6.7-2.4-1.8 0-2.2.6-2.2 1.3 0 .9 1 1.3 3.5 1.7 4 .7 9.8 1.8 9.8 7.4 0 5.3-3.9 8.4-10.4 8.4-5.1 0-8.6-1.5-11.2-3.8l3.9-5.4z" fill="#318fa6"/><path class="st11" d="M229.6 174.9H279v49.4h-49.4z"/><path class="st12" d="M229.6 222.5H279v2.6h-49.4z"/><path class="st13" d="M250.7 193.1h-6.4v-6.3h20.1v6.3H258v17.7h-7.3v-17.7z"/><path class="st11" d="M229.6 228.9H279v49.4h-49.4z"/><path class="st12" d="M229.6 276.5H279v2.6h-49.4z"/><path d="M248.3 257.7c.8.5 1.9 1.1 3.1 1.1 1.6 0 2.7-1 2.7-2.7v-15.3h7.3v15.4c0 6.2-3.7 9-9.3 9-2.3 0-4.8-.5-6.7-1.9l2.9-5.6z" fill="#27788c"/></g><g id="Layer_10"><path class="st16" d="M331.4 20h233.2v240.4H331.4z"/><path class="st6" d="M359.4 45.7h27.3v87h-27.3z"/><path class="st17" d="M359.4 86.9h27.3v45.8h-27.3z"/><path class="st11" d="M367.9 96.2h10.3v29.3h-10.3z"/><path class="st10" d="M367.9 120.4h10.3v5.1h-10.3z"/><path class="st18" d="M379 58.9c0 3.3-2.6 5.9-5.9 5.9-3.3 0-5.9-2.6-5.9-5.9 0-3.3 2.6-5.9 5.9-5.9 3.3 0 5.9 2.7 5.9 5.9z"/><path class="st19" d="M372.2 75.9l-1.2 1.2-.9-.9 2.3-2.3h1.4v7.3h-1.6v-5.3z"/><path class="st6" d="M389.4 45.7h27.3v87h-27.3z"/><path class="st17" d="M389.4 86.9h27.3v45.8h-27.3z"/><path class="st11" d="M397.9 96.2h10.3v29.3h-10.3z"/><path class="st10" d="M397.9 120.4h10.3v5.1h-10.3z"/><path class="st18" d="M409 58.9c0 3.3-2.6 5.9-5.9 5.9-3.3 0-5.9-2.6-5.9-5.9 0-3.3 2.6-5.9 5.9-5.9 3.3 0 5.9 2.7 5.9 5.9z"/><path class="st19" d="M399.4 79.9c3-2.2 3.9-3 3.9-3.9 0-.6-.6-1-1.2-1-.8 0-1.5.3-2 .8l-.9-1c.7-.8 1.8-1.2 2.8-1.2 1.6 0 2.8.9 2.8 2.3 0 1.3-1 2.3-3 3.7h3.1V81h-5.5v-1.1z"/><path class="st6" d="M419.4 45.7h27.3v87h-27.3z"/><path class="st17" d="M419.4 86.9h27.3v45.8h-27.3z"/><path class="st11" d="M427.9 96.2h10.3v29.3h-10.3z"/><path class="st10" d="M427.9 120.4h10.3v5.1h-10.3z"/><path class="st18" d="M439 58.9c0 3.3-2.6 5.9-5.9 5.9-3.3 0-5.9-2.6-5.9-5.9 0-3.3 2.6-5.9 5.9-5.9 3.3 0 5.9 2.7 5.9 5.9z"/><path class="st19" d="M430 79.1c.5.5 1.3.8 2 .8.9 0 1.4-.4 1.4-.9 0-.6-.5-.9-1.5-.9h-.9v-1.4h.9c.8 0 1.4-.3 1.4-.8 0-.6-.6-.9-1.4-.9-.7 0-1.4.3-1.9.8l-.8-1c.6-.7 1.5-1.2 2.8-1.2 1.7 0 2.8.8 2.8 2 0 .9-.8 1.5-1.6 1.7.7.1 1.7.7 1.7 1.8 0 1.3-1.1 2.2-2.9 2.2-1.4 0-2.4-.5-2.9-1.2l.9-1z"/><path class="st6" d="M449.4 45.7h27.3v87h-27.3z"/><path class="st17" d="M449.4 86.9h27.3v45.8h-27.3z"/><path class="st11" d="M457.9 96.2h10.3v29.3h-10.3z"/><path class="st10" d="M457.9 120.4h10.3v5.1h-10.3z"/><path class="st18" d="M469 58.9c0 3.3-2.6 5.9-5.9 5.9-3.3 0-5.9-2.6-5.9-5.9 0-3.3 2.6-5.9 5.9-5.9 3.3 0 5.9 2.7 5.9 5.9z"/><path class="st19" d="M462.7 79.7h-3.5v-1.2l2.9-4.6h2.2v4.4h.9v1.4h-.9v1.5h-1.6v-1.5zm-2-1.4h2v-3.1l-2 3.1z"/><g><path class="st6" d="M479.4 45.7h27.3v87h-27.3z"/><path class="st17" d="M479.4 86.9h27.3v45.8h-27.3z"/><path class="st11" d="M487.9 96.2h10.3v29.3h-10.3z"/><path class="st10" d="M487.9 120.4h10.3v5.1h-10.3z"/><path class="st18" d="M499 58.9c0 3.3-2.6 5.9-5.9 5.9-3.3 0-5.9-2.6-5.9-5.9 0-3.3 2.6-5.9 5.9-5.9 3.3 0 5.9 2.7 5.9 5.9z"/><path class="st19" d="M490.3 79.2c.5.5 1.2.8 2 .8.9 0 1.4-.5 1.4-1.1 0-.7-.5-1.1-1.3-1.1-.6 0-1.1.2-1.5.6l-1.1-.3v-4.2h5v1.3h-3.5V77c.4-.3 1-.6 1.7-.6 1.2 0 2.4.9 2.4 2.4 0 1.6-1.2 2.5-2.9 2.5-1.3 0-2.2-.4-2.8-1.1l.6-1z"/></g><g><path class="st6" d="M509.4 45.7h27.3v87h-27.3z"/><path class="st17" d="M509.4 86.9h27.3v45.8h-27.3z"/><path class="st11" d="M517.9 96.2h10.3v29.3h-10.3z"/><path class="st10" d="M517.9 120.4h10.3v5.1h-10.3z"/><path class="st18" d="M529 58.9c0 3.3-2.6 5.9-5.9 5.9-3.3 0-5.9-2.6-5.9-5.9 0-3.3 2.6-5.9 5.9-5.9 3.3 0 5.9 2.7 5.9 5.9z"/><path class="st19" d="M522.7 73.7c.9 0 1.6.3 2.2.8l-.7 1.2c-.4-.4-.8-.6-1.5-.6-1.1 0-1.8 1-1.8 2.1v.2c.3-.5 1.1-.9 1.9-.9 1.3 0 2.5.8 2.5 2.4 0 1.4-1.1 2.5-2.8 2.5-2.2 0-3.2-1.7-3.2-3.8 0-2.3 1.2-3.9 3.4-3.9zm-.4 4c-.5 0-1.1.3-1.4.7.1.7.5 1.5 1.5 1.5.8 0 1.3-.6 1.3-1.1-.1-.7-.7-1.1-1.4-1.1z"/></g><path class="st20" d="M331.4 132.2h233.2v16.5H331.4z"/><path class="st6" d="M331.4 132.2h233.2v2.6H331.4z"/><g><path class="st6" d="M359.4 167.7h27.3v87h-27.3z"/><path class="st17" d="M359.4 208.9h27.3v45.8h-27.3z"/><path class="st11" d="M367.9 218.2h10.3v29.3h-10.3z"/><path class="st10" d="M367.9 242.4h10.3v5.1h-10.3z"/><path class="st18" d="M379 180.9c0 3.3-2.6 5.9-5.9 5.9-3.3 0-5.9-2.6-5.9-5.9 0-3.3 2.6-5.9 5.9-5.9 3.3 0 5.9 2.7 5.9 5.9z"/><path class="st19" d="M373.2 197.2h-3.7v-1.4h5.5v1.1l-2.7 6.3h-1.7l2.6-6z"/></g><g><path class="st6" d="M389.4 167.7h27.3v87h-27.3z"/><path class="st17" d="M389.4 208.9h27.3v45.8h-27.3z"/><path class="st11" d="M397.9 218.2h10.3v29.3h-10.3z"/><path class="st10" d="M397.9 242.4h10.3v5.1h-10.3z"/><path class="st18" d="M409 180.9c0 3.3-2.6 5.9-5.9 5.9-3.3 0-5.9-2.6-5.9-5.9 0-3.3 2.6-5.9 5.9-5.9 3.3 0 5.9 2.7 5.9 5.9z"/><path class="st19" d="M400.8 199.4c-.8-.3-1.5-.8-1.5-1.7 0-1.4 1.5-1.9 2.8-1.9 1.4 0 2.8.6 2.8 1.9 0 .9-.6 1.5-1.5 1.7.9.3 1.6 1 1.6 1.9 0 1.4-1.4 2-2.9 2s-2.9-.7-2.9-2c.1-.9.8-1.6 1.6-1.9zm1.4.7c-.5.1-1.4.4-1.4 1 0 .5.6.9 1.4.9.7 0 1.4-.3 1.4-.9 0-.7-.9-1-1.4-1zm0-3c-.7 0-1.2.3-1.2.8 0 .6.8.8 1.2.9.5-.1 1.2-.3 1.2-.9.1-.5-.5-.8-1.2-.8z"/></g><g><path class="st6" d="M419.4 167.7h27.3v87h-27.3z"/><path class="st17" d="M419.4 208.9h27.3v45.8h-27.3z"/><path class="st11" d="M427.9 218.2h10.3v29.3h-10.3z"/><path class="st10" d="M427.9 242.4h10.3v5.1h-10.3z"/><path class="st18" d="M439 180.9c0 3.3-2.6 5.9-5.9 5.9-3.3 0-5.9-2.6-5.9-5.9 0-3.3 2.6-5.9 5.9-5.9 3.3 0 5.9 2.7 5.9 5.9z"/><path class="st19" d="M430.3 201.4c.4.4.8.6 1.5.6 1.2 0 1.8-1 1.8-2.1v-.2c-.4.5-1.1.9-1.9.9-1.3 0-2.5-.8-2.5-2.4 0-1.4 1.1-2.5 2.8-2.5 2.2 0 3.2 1.7 3.2 3.8 0 2.2-1.2 3.8-3.4 3.8-.9 0-1.6-.3-2.2-.8l.7-1.1zm1.8-4.3c-.8 0-1.3.6-1.3 1.1 0 .8.6 1.1 1.4 1.1.6 0 1.1-.3 1.4-.7-.1-.7-.5-1.5-1.5-1.5z"/></g><g><path class="st6" d="M449.4 167.7h27.3v87h-27.3z"/><path class="st17" d="M449.4 208.9h27.3v45.8h-27.3z"/><path class="st11" d="M457.9 218.2h10.3v29.3h-10.3z"/><path class="st10" d="M457.9 242.4h10.3v5.1h-10.3z"/><path class="st18" d="M469 180.9c0 3.3-2.6 5.9-5.9 5.9-3.3 0-5.9-2.6-5.9-5.9 0-3.3 2.6-5.9 5.9-5.9 3.3 0 5.9 2.7 5.9 5.9z"/><path class="st19" d="M458.8 197.9l-1.2 1.2-.9-.9 2.3-2.3h1.4v7.3h-1.6v-5.3zM464.5 195.7c2.1 0 3 1.9 3 3.8s-.9 3.8-3 3.8-3-1.9-3-3.8.9-3.8 3-3.8zm0 1.4c-1.1 0-1.5 1-1.5 2.4s.4 2.4 1.5 2.4c1 0 1.4-1.1 1.4-2.4s-.4-2.4-1.4-2.4z"/></g><g><path class="st6" d="M479.4 167.7h27.3v87h-27.3z"/><path class="st17" d="M479.4 208.9h27.3v45.8h-27.3z"/><path class="st11" d="M487.9 218.2h10.3v29.3h-10.3z"/><path class="st10" d="M487.9 242.4h10.3v5.1h-10.3z"/><path class="st18" d="M499 180.9c0 3.3-2.6 5.9-5.9 5.9-3.3 0-5.9-2.6-5.9-5.9 0-3.3 2.6-5.9 5.9-5.9 3.3 0 5.9 2.7 5.9 5.9z"/><path class="st19" d="M489.9 197.9l-1.2 1.2-.9-.9 2.3-2.3h1.4v7.3h-1.6v-5.3zM494.4 197.9l-1.2 1.2-.9-.9 2.3-2.3h1.4v7.3h-1.6v-5.3z"/></g><g><path class="st6" d="M509.4 167.7h27.3v87h-27.3z"/><path class="st17" d="M509.4 208.9h27.3v45.8h-27.3z"/><path class="st11" d="M517.9 218.2h10.3v29.3h-10.3z"/><path class="st10" d="M517.9 242.4h10.3v5.1h-10.3z"/><path class="st18" d="M529 180.9c0 3.3-2.6 5.9-5.9 5.9-3.3 0-5.9-2.6-5.9-5.9 0-3.3 2.6-5.9 5.9-5.9 3.3 0 5.9 2.7 5.9 5.9z"/><path class="st19" d="M518.9 197.9l-1.2 1.2-.9-.9 2.3-2.3h1.4v7.3h-1.6v-5.3zM521.7 201.9c3-2.2 3.9-3 3.9-3.9 0-.6-.6-1-1.2-1-.8 0-1.5.3-2 .8l-.9-1c.7-.8 1.8-1.2 2.8-1.2 1.6 0 2.8.9 2.8 2.3 0 1.3-1 2.3-3 3.7h3.1v1.4h-5.5v-1.1z"/></g><path class="st20" d="M331.4 254.2h233.2v16.5H331.4z"/><path class="st6" d="M331.4 252.2h233.2v2.6H331.4z"/><path class="st17" d="M325.2 9.2h16.5v282.6h-16.5zM555.2 9.2h16.5v282.6h-16.5z"/><path class="st17" d="M325.2 9.2h244v16.5h-244z"/></g><g id="Layer_9"><path fill-rule="evenodd" clip-rule="evenodd" fill="#eaeaea" d="M825.2 121.6h39v49h-39z"/><path class="st22" d="M821.2 121.6h39v49h-39z"/><path class="st23" d="M821.2 121.6h39v7.9h-39z"/><path d="M835.9 152.1c1.1 1.2 2.7 1.8 4.4 1.8 2 0 3.1-1.1 3.1-2.5 0-1.5-1.1-2.5-3-2.5-1.4 0-2.5.4-3.5 1.4l-2.5-.7V140h11.4v3h-8v4.2c.9-.8 2.2-1.4 3.7-1.4 2.8 0 5.3 2 5.3 5.4 0 3.5-2.6 5.7-6.7 5.7-2.9 0-5-.9-6.4-2.5l2.2-2.3z" fill="#ababb0"/><path class="st25" d="M655 61.4h153.3v86.3H655z"/><path class="st26" d="M663.3 68.8h136.8v71.5H663.3z"/><path class="st22" d="M642.9 118.1h-27.5c-3.7 0-6.7 2.9-6.7 6.5s3 6.5 6.7 6.5h27.5v-13z"/><path class="st23" d="M615.4 131.1c-3.7 0-6.7-2.9-6.7-6.5s3-6.5 6.7-6.5h29.5v-2.2h-30.2c-4.8 0-8.7 3.9-8.7 8.7 0 4.8 3.9 8.7 8.7 8.7h30.2v-2.2h-29.5z"/><path class="st22" d="M642.9 136.1h-27.5c-3.7 0-6.7 2.9-6.7 6.5s3 6.5 6.7 6.5h27.5v-13z"/><path class="st23" d="M615.4 149.1c-3.7 0-6.7-2.9-6.7-6.5s3-6.5 6.7-6.5h29.5v-2.2h-30.2c-4.8 0-8.7 3.9-8.7 8.7 0 4.8 3.9 8.7 8.7 8.7h30.2v-2.2h-29.5z"/><path class="st22" d="M642.9 154.1h-27.5c-3.7 0-6.7 2.9-6.7 6.5s3 6.5 6.7 6.5h27.5v-13z"/><path class="st23" d="M615.4 167.1c-3.7 0-6.7-2.9-6.7-6.5s3-6.5 6.7-6.5h29.5v-2.2h-30.2c-4.8 0-8.7 3.9-8.7 8.7 0 4.8 3.9 8.7 8.7 8.7h30.2v-2.2h-29.5z"/><path class="st5" d="M606.8 183.3h13.4v109.1h-13.4z"/><path class="st23" d="M606.8 183.3h13.4v11.5h-13.4z"/><path class="st5" d="M856.8 183.3h13.4v109.1h-13.4z"/><path class="st23" d="M856.8 183.3h13.4v11.5h-13.4z"/><path class="st5" d="M599.4 169.9h278.4v18.4H599.4z"/><path class="st23" d="M775.9 203.2h65.3v25.9h-65.3z"/><path class="st16" d="M775.9 229.1h65.3v3h-65.3z"/><path class="st26" d="M813.3 218.3c0 3.8-2.1 6.9-4.7 6.9s-4.7-3.1-4.7-6.9c0-3.8 2.1-6.9 4.7-6.9 2.5 0 4.7 3.1 4.7 6.9z"/><path class="st5" d="M813.3 216.1c0 2.6-2.1 4.7-4.7 4.7s-4.7-2.1-4.7-4.7 2.1-4.7 4.7-4.7c2.5 0 4.7 2.1 4.7 4.7z"/><path class="st23" d="M775.9 232.2h65.3v25.9h-65.3z"/><path class="st16" d="M775.9 258.1h65.3v3h-65.3z"/><path class="st26" d="M813.3 247.3c0 3.8-2.1 6.9-4.7 6.9s-4.7-3.1-4.7-6.9c0-3.8 2.1-6.9 4.7-6.9 2.5 0 4.7 3.1 4.7 6.9z"/><path class="st5" d="M813.3 245.1c0 2.6-2.1 4.7-4.7 4.7s-4.7-2.1-4.7-4.7 2.1-4.7 4.7-4.7c2.5 0 4.7 2.1 4.7 4.7z"/><path class="st23" d="M775.9 261.2h65.3v25.9h-65.3z"/><path class="st26" d="M813.3 276.3c0 3.8-2.1 6.9-4.7 6.9s-4.7-3.1-4.7-6.9c0-3.8 2.1-6.9 4.7-6.9 2.5 0 4.7 3.1 4.7 6.9z"/><path class="st5" d="M813.3 274.1c0 2.6-2.1 4.7-4.7 4.7s-4.7-2.1-4.7-4.7 2.1-4.7 4.7-4.7c2.5 0 4.7 2.1 4.7 4.7z"/><path class="st23" d="M709.1 242.1h10.5V281h-10.5zM658.6 180.9h19.9v14.4h-19.9zM749.6 180.9h19.9v14.4h-19.9z"/><path class="st17" d="M669.5 114.6h89.7v141h-89.7z"/><path class="st23" d="M696 289.9c0 3.9-3.1 7-7 7s-7-3.1-7-7 3.1-7 7-7c3.8.1 7 3.2 7 7z"/><path d="M725 289.9c0 3.9-3.1 7-7 7s-7-3.1-7-7 3.1-7 7-7c3.8.1 7 3.2 7 7z" fill-rule="evenodd" clip-rule="evenodd" fill="#8c8c8c"/><path class="st23" d="M746 289.9c0 3.9-3.1 7-7 7s-7-3.1-7-7 3.1-7 7-7c3.8.1 7 3.2 7 7z"/><path class="st17" d="M685.9 277.5h56.8v6.5h-56.8z"/></g><g id="al"><path class="st2" d="M706.3 310.9l67.7-6.8 66 7-62.2 7.7z"/><path class="st1" d="M727.4 94.4h10.7v23.5h-10.7z"/><path class="st28" d="M734 118l-6.6-23.6H738z"/><path class="st1" d="M808.4 94.4h10.7v23.5h-10.7z"/><path class="st28" d="M812.4 118l-4-23.6H819z"/><path class="st29" d="M741.7 53.3l-7.8 14.2-13.1 24.4 19.1 19.1 69.8.4 15.5-22.1-13.1-21.8-7.9-13.9zM733.9 144.9l-22.8 45.7 26.3 21.2z"/><path class="st30" d="M711.1 190.6l26.7-6.2-.4 47.6z"/><path class="st29" d="M812 144.9l22.8 45.7-26.3 21.2z"/><path class="st30" d="M834.8 190.6l-26.7-6.2.4 47.6z"/><path class="st31" d="M733.9 144.5h78.2v97.4h-78.2z"/><path class="st1" d="M758.8 144.6l14.7 16.6 14.1-16.3z"/><path class="st32" d="M733.9 144.9l38.5 7.7 39.7-7.7z"/><path class="st1" d="M733.9 67.5h78.2v77.4h-78.2z"/><path class="st32" d="M751.9 89.7l16.9 12.4-2.3 12.1 5.8 6.6 6.6-6.6-2.3-12.1 17-12.4z"/><path class="st33" d="M766.5 88.1h12.4v26.1h-12.4z"/><path class="st29" d="M751.9 83.5h41.6v6.2h-41.6zM762.2 99.6c0 2.3-1.8 4.1-4.1 4.1s-4.1-1.8-4.1-4.1 1.8-4.1 4.1-4.1 4.1 1.9 4.1 4.1zM792.2 99.6c0 2.3-1.8 4.1-4.1 4.1s-4.1-1.8-4.1-4.1 1.8-4.1 4.1-4.1 4.1 1.9 4.1 4.1z"/><path class="st31" d="M753.1 122.8h38.5l-7.8 9.8h-22.9z"/><path class="st33" d="M759.7 124.8H785l-4.3 5.9h-16.6z"/><path class="st34" d="M733.9 241.9l39.1 25.8v28.2h-15.8z"/><path class="st35" d="M773 295.9v14.7h-25.2l9.4-14.7zM812.1 241.9L773 267.7v28.2h15.9z"/><path class="st34" d="M773 295.9v14.7h25.2l-9.3-14.7z"/><path class="st30" d="M733.9 241.9l39.1 25.8 39.1-25.8zM772.1 194.6h-5.4l-.8 2.1h-2.8l4.6-12h3.2l4.6 12h-2.8l-.6-2.1zm-4.7-2.2h4l-2-5.5-2 5.5zM776.8 184.6h2.6v9.8h5.1v2.3h-7.6v-12.1z"/></g><g id="ben"><path class="st2" d="M856.3 310.9l67.7-6.8 66 7-62.2 7.7z"/><path class="st1" d="M877.4 94.4h10.7v23.5h-10.7z"/><path class="st28" d="M884 118l-6.6-23.6H888z"/><path class="st1" d="M958.4 94.4h10.7v23.5h-10.7z"/><path class="st28" d="M962.4 118l-4-23.6H969z"/><path class="st29" d="M891.7 53.3l-7.8 14.2-13.1 24.4 19.1 19.1 69.8.4 15.5-22.1-13.1-21.8-7.9-13.9zM883.9 144.9l-22.8 45.7 26.3 21.2z"/><path class="st30" d="M861.1 190.6l26.7-6.2-.4 47.6z"/><path class="st29" d="M962 144.9l22.8 45.7-26.3 21.2z"/><path class="st30" d="M984.8 190.6l-26.7-6.2.4 47.6z"/><path class="st31" d="M883.9 144.5h78.2v97.4h-78.2z"/><path class="st1" d="M908.8 144.6l14.7 16.6 14.1-16.3z"/><path class="st32" d="M883.9 144.9l38.5 7.7 39.7-7.7z"/><path class="st1" d="M883.9 67.5h78.2v77.4h-78.2z"/><path class="st29" d="M903.1 131.8h38.5l-7.8-17.6h-22.9z"/><path class="st32" d="M901.9 89.7l16.9 12.4-2.3 12.1 5.8 6.6 6.6-6.6-2.3-12.1 17-12.4z"/><path class="st33" d="M916.5 88.1h12.4v26.1h-12.4z"/><path class="st29" d="M901.9 83.5h41.6v6.2h-41.6zM912.2 99.6c0 2.3-1.8 4.1-4.1 4.1s-4.1-1.8-4.1-4.1 1.8-4.1 4.1-4.1 4.1 1.9 4.1 4.1zM942.2 99.6c0 2.3-1.8 4.1-4.1 4.1s-4.1-1.8-4.1-4.1 1.8-4.1 4.1-4.1 4.1 1.9 4.1 4.1z"/><path class="st34" d="M883.9 241.9l39.1 25.8v28.2h-15.8z"/><path class="st35" d="M923 295.9v14.7h-25.2l9.4-14.7zM962.1 241.9L923 267.7v28.2h15.9z"/><path class="st34" d="M923 295.9v14.7h25.2l-9.3-14.7z"/><path class="st30" d="M883.9 241.9l39.1 25.8 39.1-25.8zM907.5 184.6h6.3c2.3 0 3.5 1.5 3.5 3.1 0 1.5-.9 2.5-2.1 2.8 1.3.2 2.3 1.4 2.3 3 0 1.8-1.2 3.2-3.5 3.2h-6.5v-12.1zm5.8 4.9c.9 0 1.4-.6 1.4-1.3 0-.7-.5-1.3-1.4-1.3h-3.2v2.6h3.2zm.1 5c1 0 1.5-.6 1.5-1.4 0-.8-.5-1.4-1.5-1.4h-3.3v2.8h3.3zM919.5 184.6h8.5v2.2h-6v2.6h5.8v2.2H922v2.8h5.9v2.2h-8.5v-12zM932.5 188.6v8.1H930v-12h2.6l5.6 7.8v-7.8h2.6v12h-2.5l-5.8-8.1z"/></g><g id="cindy"><path class="st2" d="M1006.3 310.9l67.7-6.8 66 7-62.2 7.7z"/><path class="st1" d="M1027.4 94.4h10.7v23.5h-10.7z"/><path class="st28" d="M1034 118l-6.6-23.6h10.6z"/><path class="st1" d="M1108.4 94.4h10.7v23.5h-10.7z"/><path class="st28" d="M1112.4 118l-4-23.6h10.6z"/><path class="st29" d="M1041.7 53.3l-7.8 14.2-13.1 24.4 19.1 19.1 69.8.4 15.5-22.1-13.1-21.8-7.9-13.9zM1033.9 144.9l-22.8 45.7 26.3 21.2z"/><path class="st30" d="M1011.1 190.6l26.7-6.2-.4 47.6z"/><path class="st29" d="M1112 144.9l22.8 45.7-26.3 21.2z"/><path class="st30" d="M1134.8 190.6l-26.7-6.2.4 47.6z"/><path class="st31" d="M1033.9 144.5h78.2v97.4h-78.2z"/><path class="st1" d="M1058.8 144.6l14.7 16.6 14.1-16.3z"/><path class="st32" d="M1033.9 144.9l38.5 7.7 39.7-7.7z"/><path class="st1" d="M1033.9 67.5h78.2v77.4h-78.2z"/><path class="st29" d="M1058.1 127.8l14.4 3 14.1-3-14.1-3.6z"/><path fill="#bcbcbc" d="M1052.1 124.8l20.4 13 20.1-13-20.1 5.4z"/><path class="st32" d="M1051.9 89.7l16.9 12.4-2.3 12.1 5.8 6.6 6.6-6.6-2.3-12.1 17-12.4-14.5-5.5-12.6-.1z"/><path class="st33" d="M1066.5 84.1h12.4v30.1h-12.4z"/><path class="st29" d="M1051.9 89.7v-6.2l14.6.6zM1093.6 83.5l-14.7.6 14.7 5.6"/><path class="st37" d="M1062.2 99.6c0 2.3-1.8 4.1-4.1 4.1s-4.1-1.8-4.1-4.1 1.8-4.1 4.1-4.1 4.1 1.9 4.1 4.1zM1092.2 99.6c0 2.3-1.8 4.1-4.1 4.1s-4.1-1.8-4.1-4.1 1.8-4.1 4.1-4.1 4.1 1.9 4.1 4.1z"/><path class="st34" d="M1033.9 241.9l39.1 25.8v28.2h-15.8z"/><path class="st35" d="M1073 295.9v14.7h-25.2l9.4-14.7zM1112.1 241.9l-39.1 25.8v28.2h15.9z"/><path class="st34" d="M1073 295.9v14.7h25.2l-9.3-14.7z"/><path class="st30" d="M1033.9 241.9l39.1 25.8 39.1-25.8zM1047.6 190.7c0-3.7 2.8-6.2 6.3-6.2 2.7 0 4.3 1.4 5.1 2.9l-2.2 1.1c-.5-1-1.6-1.7-2.9-1.7-2.1 0-3.7 1.7-3.7 3.9s1.6 3.9 3.7 3.9c1.3 0 2.4-.8 2.9-1.7l2.2 1.1c-.9 1.5-2.4 3-5.1 3-3.5-.1-6.3-2.6-6.3-6.3zM1060.6 184.6h2.6v12h-2.6v-12zM1068 188.6v8.1h-2.6v-12h2.6l5.6 7.8v-7.8h2.6v12h-2.5l-5.7-8.1zM1078.6 184.6h4.7c3.8 0 6.4 2.4 6.4 6s-2.6 6-6.4 6h-4.7v-12zm4.7 9.8c2.4 0 3.8-1.7 3.8-3.7 0-2.1-1.3-3.8-3.8-3.8h-2.2v7.5h2.2zM1094.2 191.7l-4.6-7.1h2.9l3 4.8 3-4.8h2.9l-4.6 7.1v4.9h-2.6v-4.9z"/><g><path class="st30" d="M1047.6 190.7c0-3.7 2.8-6.2 6.3-6.2 2.7 0 4.3 1.4 5.1 2.9l-2.2 1.1c-.5-1-1.6-1.7-2.9-1.7-2.1 0-3.7 1.7-3.7 3.9s1.6 3.9 3.7 3.9c1.3 0 2.4-.8 2.9-1.7l2.2 1.1c-.9 1.5-2.4 3-5.1 3-3.5-.1-6.3-2.6-6.3-6.3zM1060.6 184.6h2.6v12h-2.6v-12zM1068 188.6v8.1h-2.6v-12h2.6l5.6 7.8v-7.8h2.6v12h-2.5l-5.7-8.1zM1078.6 184.6h4.7c3.8 0 6.4 2.4 6.4 6s-2.6 6-6.4 6h-4.7v-12zm4.7 9.8c2.4 0 3.8-1.7 3.8-3.7 0-2.1-1.3-3.8-3.8-3.8h-2.2v7.5h2.2zM1094.2 191.7l-4.6-7.1h2.9l3 4.8 3-4.8h2.9l-4.6 7.1v4.9h-2.6v-4.9z"/></g><path class="st29" d="M1033.9 67.5l19.3-1-20.3 20.8zM1112.3 67.5l-19.4-1 20.3 20.8z"/></g><g id="character"><path class="st2" d="M373.3 329.7l81.7-6 77.5 6.2-74 7.9z"/><path fill-rule="evenodd" clip-rule="evenodd" fill="#0f5f9c" d="M447.6 328.7l25.1-91.1 2.1-41.5 5.6-17.2-9.7-30-66.4 6.1-24.1 73.4 9.8-1.2 3.6 3.4z"/><path class="st39" d="M452.6 244.1l5.9-2.3 20.3 1.4-8.2 32.9-14 5.5h-8.3l-.4-21.6z"/><path class="st39" d="M470.6 276.1l-10.4 39-6.7 2.7-5.5-1.2-1.4-19.1 1.7-15.9z"/><path class="st40" d="M460.2 315.1l15 17.4h-27.8l-1.3-8.1 1.9-7.8z"/><path class="st41" d="M449.1 266.8l-.8 14.8-16 7.2-13.2 2.2-7.3-21.5v-4.2l-3.1-4.7z"/><path class="st41" d="M448.3 281.6l-.3 35-7.4 3-10.2.1-11.3-28.7z"/><path class="st42" d="M448 316.6l-.6 15.9-22.2.6 5.2-13.4z"/><path class="st39" d="M449.1 266.8l-37.3 2.7-3.1-8.9 19.5 1.1z"/><path class="st43" d="M470 34.6l-24.3 5.1-14.1 6.1-12.1-4.1h-17.4l4.4 8.9 7.4 3.8-4.4 11 1.2 11.1 4.2 13.6 7.6 10.8-3.3.4-2.8 2.7-2-6.1-3.8-4.1-6.7 2.2-4.8 4.5 4.1 8.7 6.5 7.8.2 5.7 4.3 7.2 2.7 3.3-.4 3.5 11.1 6.9 17.5 6.9 4.8-4.9 2.3-5.9v-11l32.6-7-5.4-38 1.5-7.4-2.8-12.9-3.1-3.7z"/><path class="st44" d="M416.8 43.8l7.7 25.8 5.1 24 9.1 37.7 13.5-2.6-1.3 5.3 1.3 5.7-7.1 10.8-28.6-13.8-6.8-19.7 9.7-4.2-3-8.8 2.3-2.6 3.8-.5-4.9-7-6.9-17.4.2-10.5 3-11.6-6.4-5-5.4-7.7 9.4.5z"/><path class="st45" d="M409.7 117l9.7-4.2-5.2 17.1-4.3-7.5zM452.2 128.7l-19.1 3.7 12 18.1 5.3-5 1.8-5.8zM434 86.9l.9-10.7 10.4-2.5 5 11-20.7 8.9 21.5-2.3 4.2 3.8-5.8-30.3-18 9.5-2 6.6zM467.5 79.6l.3-9.4 9.3-3 2.7 1.4-.4 12.1-16.9 6.3.7 3.4 16.2-6.7 2.9-10.3-3.5-12-17.2 4.8L463 80zM455.3 95.1l4.9 3.5 3.6-5z"/><path fill-rule="evenodd" clip-rule="evenodd" fill="#ffeae0" d="M450.7 70.7l8.3-1.8 4.8 24.7-8.5 1.5z"/><path class="st42" d="M450.7 70.7l-1.9-2.9.7-3 8.3-1.7 2.4 2.7-1.2 3.1z"/><path class="st40" d="M449.5 64.8l-24.9 4.8.9 9.1 2.4 6.5 1.8 8.4 24.4-5.2-3.3-17.7-1.3-5.9zm-18 9.5l13.4-2.5 2.4 12.4-13.3 2.7-2.5-12.6zM457.8 63.1l24.3-4.8 4.6 23.9-24.2 4.8-3.5-18.1-1.2-5.8zm7.5 4.8l2.2 11.7 11.6-2.1-2.2-11.9-11.6 2.3z"/><path class="st47" d="M440.4 76.6c.9-.2 1.8.6 2 1.8.3 1.2-.2 2.3-1.1 2.5-.9.2-1.8-.6-2-1.8-.3-1.1.2-2.3 1.1-2.5zM471.8 70.5c.9-.2 1.8.6 2 1.8.3 1.2-.2 2.3-1.1 2.5-.9.2-1.8-.6-2-1.8-.2-1.2.2-2.3 1.1-2.5z"/><path transform="matrix(.9807 -.1957 .1957 .9807 -12.4319 92.0397)" class="st45" d="M447.2 108H472v1.9h-24.8z"/><path class="st45" d="M413.6 107l-4.2-7.1-5.1 2.3z"/><path fill-rule="evenodd" clip-rule="evenodd" fill="#d6d6d6" d="M470 34.6l-46.2-5.5 3.2 10.1 4.6 6.6z"/><path class="st25" d="M402.1 41.7l-10 4.8-2.4 19.8 11.4-3.3 12.8-8.6z"/><path class="st49" d="M389.7 66.3l-4.6 33.8 14.4-11.4 11.2-12.2 3.2-22.1z"/><path class="st23" d="M410.7 76.5l11.8 24.4-6.1 3.1-5.9-10.1-11.4 6.6 10.6 16.5 4.5 12.9-29.1-29.8z"/><path class="st25" d="M431.6 45.8l-7.8-16.7-21.7 12.6z"/><path class="st42" d="M424.5 69.6l-31.2 31.1 9.2 5-3.4-5.2 11.6-6.6 17.1-8.7z"/><path class="st45" d="M417.5 90.5l10.3-5.3.9 4.2-9.9 3.7z"/><path fill-rule="evenodd" clip-rule="evenodd" fill="#787878" d="M410.6 94l6.9-3.5 1.3 2.6-7.2 2.6z"/><path class="st49" d="M416.5 136.7l-2.6 11 24.3 13.5 10.1 3.2 7.4-8.2 4.1-10.7-7.6-5.8-7.1 10.8z"/><path class="st25" d="M459.8 145.5l10.9 3.4-8.6 17.3-10.3 13.8-25.7-11.7-21.8-13.3 9.6-7.3 34.4 16.7z"/><path class="st51" d="M404.3 155l37.4 19.7 4.6 1.3 5.5 4-24.2-2.8-23.1-5.5zM451.8 180l2.1-5.6 4.5-5.2 12.3-20.3 2.9 23.7 1.2 23.5-9.2 13-9 8.9 3-24.4 2.6-11.8-4.8.4z"/><path class="st39" d="M445.1 150.5l-6 9.5 9.2 4.4 5.7-9.3z"/><path class="st52" d="M448.3 164.4l-6.6 10.3 10.1 5.3 6.6-10.8z"/><path class="st53" d="M402.7 171.4l49.1 8.6 10.4 1.8-9.6 62.3-3.5 22.7-59.7-9.1z"/><path class="st52" d="M452.6 244.1l-60.7-2.5 1.6-10.9 39.3 3.7 8.4 4.1 5.4 1.3z"/><path class="st54" d="M474.8 196.1L456.6 218l1.7 4.8 5.1 4.1-3.7 6.7-2.9 10.5 22-.9z"/><path class="st55" d="M404.3 155l.6 53.9-24.7 19.5 4.6-62.2z"/><path class="st54" d="M404.9 208.9l32 9.6 2.8 1.4 3.9.6-2.4 18-4.1-1.7-4.1.3-52.8-8.7z"/><path class="st49" d="M436.9 218.5l6.7 2-.2 8.3-2.2 9.7-8.2-1.4z"/><path class="st43" d="M443.6 220.5l11.7 2.9 8.1 3.5-4.1 7.4-2.5 9.8h-4.2l-11.4-5.6z"/><path class="st44" d="M443.6 220.5l13-2.5 6.8 8.9z"/><path class="st45" d="M455.7 224.4l-3.1 19.7h4.2l6.6-17.2z"/><path fill-rule="evenodd" clip-rule="evenodd" fill="#51a9ab" d="M470.7 148.9l23.4 35.2-8.5 7.6-10.8 4.4z"/><path class="st55" d="M474.8 196.1l19.3-12 15.7-10.3 2.9-.1 2.4-3.3 6.9 5.9 4.8 10.3-3.9 1.3-2 3-29.9 21.8z"/><path class="st49" d="M515.1 170.4l6.7 7 5 9.2-5.9 4.3-11.1-17.1z"/><path class="st53" d="M532 140.6l5-11.7 2.3 12.6-4.2.9z"/><path class="st45" d="M519.8 177l7 9.6 2.3-8.6-.1-11.2z"/><path class="st44" d="M538.4 148.8l8.8 1-2.9 26.6-8.9-1 .2-16.1z"/><path transform="rotate(-83.506 532.62032678 167.37979853)" class="st39" d="M506.1 163.7h53v7.3h-53z"/><path class="st43" d="M515.1 170.4l16.1-17.7 6.2 4.7-17.6 19.6z"/></g></svg>