<svg xmlns="http://www.w3.org/2000/svg" viewBox="0 0 533.33331 533.33331" height="533.33331" width="533.33331"><defs><clipPath id="a"><path d="M0 400h400V0H0z"/></clipPath><clipPath id="b"><path d="M96.0898 18.8193H298.465V-.762695H96.0898z"/></clipPath><clipPath id="c"><path d="M0 400h400V0H0z"/></clipPath><clipPath id="d"><path d="M136.623 110.541h50.971V93.5498h-50.971z"/></clipPath><clipPath id="e"><path d="M0 400h400V0H0z"/></clipPath></defs><g clip-path="url(#a)" transform="matrix(1.33333 0 0 -1.33333 0 533.33333)"><g clip-path="url(#b)" opacity=".10000598"><path d="M96.0898 11.1885l103.887 7.631 98.488-7.919-94.096-11.663z" fill="#2b2c2b"/></g></g><path d="M249.1653271 517.93493038l29.4693326.384-.096-6.5266665-53.46666533-5.56666654 17.75866623 13.533333z" fill="#2b6775"/><path d="M211.24799472 508.91279728l-10.5586664 7.77466647-.096 6.43199984 48.76399878 1.24799997-.192-6.43199984z" fill="#2b6775"/><path d="M262.12439345 365.50000086l10.27199974-3.9359999 34.26933248 2.39999994-27.74266598 69.88133159-29.56666592 25.05599937-21.1173328-3.84133324 1.34399996-54.90666529z" fill="#5a5e5e"/><path d="M278.92319303 433.84506582l-21.40666613 52.02933203-11.99866637 4.70399989-17.27866624 5.27866653 15.35866629-53.75599866z" fill="#535353"/><path d="M257.51626023 485.87373119l21.02266614 25.91733268h-47.03599882l-.192-10.07866641 5.18399987-13.149333z" fill="#318ea7"/><path d="M250.12506041 403.03253326l-6.5266665 39.06933235-28.41466596 23.90266607-21.2133328-25.34266603-10.4626664-47.22799882 33.59733249-20.54266615z" fill="#6a696a"/><path d="M295.52999261 349.3737346l11.13599972 14.58933297-48.28533212 28.60533262-22.07866612-28.1239993z" fill="#535353"/><path d="M243.59826058 442.10159895l-7.10399983 46.46133217-12.47866635 12.57333302-18.23866621-7.39066648-11.80666637-53.08399868z" fill="#5a5e5e"/><path d="M236.49479409 488.56253112l12.67066635 29.37199926-48.4759988-1.24666663 5.08799988-22.94133276z" fill="#367f90"/><g clip-path="url(#c)" transform="matrix(1.33333 0 0 -1.33333 0 533.33333)"><g clip-path="url(#d)" opacity=".301956"><path d="M187.5938 97.7256l-47.732-4.176-3.239 16.991 25.702-7.056z" fill="#3b3c3b"/></g></g><path d="M292.07292603 10.4250764l-41.27599897 8.44666646-23.90133273 10.3666664-20.44666616-6.91066648h-29.4693326l7.39066649 15.16666628 12.67066635 6.33599984-7.48666648 18.62133287 2.01599995 18.8146662 7.00666649 23.03866609 13.05466634 18.4306662-5.75866652.67199999-4.60666655 4.60666655-3.45733325-10.3666664-8.83066645-16.22266627-15.45466628 3.35999992-9.88799975 6.23999984 15.16666629 25.82133269 10.94399972 13.24666633.384 9.59999976 7.29466648 12.18933303 4.60799988 5.56799986-.67199998 5.95199985 18.9106662 11.71066638 29.56533259 11.8079997 8.1599998-8.35199979 3.8399999-10.07999975V169.8677391l55.38666528-11.80666637-9.31066643-64.5079984 2.4946666-12.47866635-4.60533322-21.98133278-5.1853332-6.24133318z" fill="#fee5d6"/><path d="M201.93746162 25.78320936l12.95866634 43.8679989 8.63866645 40.60533232 15.45599962 64.02666506 22.84533276-4.41599989-2.11199995 8.92799978 2.11199995 9.69466642-11.99866637 18.43066621-48.47599879-23.51733275-11.90266637-24.76666604-7.6799998-21.7893328 19.4879995-8.8333331-4.87199987-10.5106664-1.3213333-9.62666643 8.01466647 2.95599992-11.51733305-29.5653326.096-17.66266622 5.37466653-19.77466617-10.9426664-8.44666645-9.11999976-13.05599968 15.93466626.86399998z" fill="#f4cab4"/><path d="M181.77932879 136.84707325l19.48666618-8.83333312-11.8079997 30.6226659-7.19999983-12.57466635z" fill="#c3927d"/><path d="M261.83652679 169.86720575l-32.44533252 6.23999985 20.44666615 30.81333256 8.92666644-8.63866645 3.07199993-9.79199976z" fill="#c08f7c"/><path d="M230.83132756 98.92974086l1.72799996-18.14266621 17.5653329-4.2239999 8.54399978 18.7186662-35.13333246 14.9746663 36.57333242-3.74399991 7.0066665 6.23999984-9.98266642-51.25999872-30.33333258 16.12666627-3.35866658 11.23066638zM287.85025947 86.4498745l.384-15.74266627 15.93466626-5.18266653 4.51066655 2.3986666-.76666664 20.54266616-28.60666596 10.6546664 1.05733331 5.85733318 27.54933265-11.42399971 4.89599987-17.47066623-5.85599985-20.44533282-29.0853326 8.25466646 2.39999993 23.22933275z" fill="#f4cab4"/><path d="M267.11585999 112.75267385l8.35199979 6.14266651 5.95066652-8.63866645z" fill="#c3927d"/><path d="M259.43679351 71.47587488l13.91866632-3.07333326 8.06266647 41.85466562-14.30266631 2.49599994z" fill="#fff1e9"/><path d="M259.43679351 71.47587488l-3.16666658-4.89599988.8613333-5.08799987 14.20799965-2.8786666 4.1279999 4.51066656-2.11199995 5.27866653z" fill="#367f90"/><path d="M226.79879433 77.6185414l22.6546661-4.41466656 4.12666656 21.1173328-22.74933276 4.60799989zm30.33333258-16.12666627l-42.23599895 8.1599998 1.63199996 15.35733294 3.7439999 9.4093331 3.2626666 15.83866627 41.46933229-8.73599978-5.56666653-30.04533258zM284.0103929 66.67574167l3.8399999 19.77466617 19.67999951-3.55199991-3.9359999-20.15866617zm-12.67066635-8.06266647l41.37199897-8.0639998 7.6799998 40.411999-41.0853323 8.15866646-5.95066652-30.71733257z" fill="#3b95aa"/><path d="M253.485727 138.76560653l41.27599896-8.1599998.67199999 3.26533326-41.27599897 8.25599979zM191.36826188 124.43480689l-8.43733312-16.09866627-8.63866645 3.9359999z" fill="#c3927d"/><path d="M219.02399452 18.10374288l7.87066647 11.13466639 65.17866504-18.81333286-78.32933137-9.40799977z" fill="#d7d8d6"/><path d="M176.97919558 22.3274761l-16.99066625 8.1599998-4.1279999 33.5973325 19.39066619-5.56799986 21.78933279-14.6866663z" fill="#c3c3c3"/><path d="M155.86066277 64.08467506l-7.67866647 57.30666524 25.3413327-16.60666625 19.9679995-18.6226662 3.54933324-42.33199895z" fill="#e2e4e2"/><path d="M194.83399513 88.65827445l11.87733304 24.09466606-10.31599975 4.75066655-7.89733313-17.03866624-21.69466613 11.51999971 14.49599964 24.09333273 8.15866646 22.5586661-40.50799898-37.91733238 11.32799971-9.02266644z" fill="#a0a2a2"/><path d="M176.97959558 22.32774278l49.91466541 6.91066649-13.15066633-28.22133263z" fill="#c3c3c3"/><path d="M214.89652796 69.6517416l-54.6186653 42.04533227 6.04533318 14.7826663.48133332-14.4946663 51.93066537-24.67066605z" fill="#367f90"/><path d="M198.96159503 96.62507425l19.77466617-9.31066643.47999999 2.11199994 1.05599997 4.99199988-19.33466618 6.6226665z" fill="#c08f7a"/><path d="M188.97786194 101.42507413l9.98399975-4.79999988 1.97599995 4.4159999-10.42399974 3.8399999z" fill="#797878"/><path d="M201.3613283 183.40293875l-4.51199989 18.7186662 41.3733323 22.84533276 16.99066624 5.47066653 12.57466636-14.11066631 6.91199982-17.94933289-12.86399968-9.88799975-11.99866636 18.4306662z" fill="#e2e4e2"/><path d="M274.70052647 198.37693837l18.62133286 5.75999986-14.68799963 29.1813326-17.3733329 23.51866608-43.67733224-19.87066617-36.85999908-22.6546661 16.12666627-12.19066636 58.36399854 28.31733263z" fill="#c3c3c3"/><path d="M180.72332882 214.3118713l63.45066508 33.5013325 7.77466647 2.30399995 9.31199977 6.7186665-42.62133227 49.62933209-37.72399906-63.73866507zM261.26106014 256.83653691l3.45466658-9.50266643 7.6799998-8.83066644 20.92533281-34.36666581 20.06266617 45.6933322-13.15066634 34.26799913-19.29466618 23.66666608-11.51866638 13.48266633-12.95866634-32.06133253z" fill="#357c7e"/><path d="M249.83719375 206.92053816l-10.1746664 15.93466627 15.55066627 7.58266648 9.79066642-15.83866627z" fill="#5a5e5e"/><path d="M255.21359362 230.43813757L244.1735939 247.8128038l17.08799957 9.02399978 11.13466639-18.3346662z" fill="#75777a"/><path d="M177.94012888 242.24547061l83.32133126 14.5906663 17.66133289 3.07199993-9.47999977 61.3453318 11.49599972 13.505333-18.33333288 30.74133256-5.95199985 38.49199903-101.36799747-15.45466628z" fill="#8e8f8e"/><path d="M262.60479343 365.50000086l-103.00133075-4.1279999 2.78533326-18.5266662 66.52133167 6.23999985 14.30399964 6.8146665 9.21599977 2.30399993z" fill="#737373"/><path d="M300.23305916 284.0976029l-30.81333256 37.1493324-1.63199996 10.75199973 13.15066634 4.41466656-6.23733318 11.23199972-12.0959997 17.85466622 44.3479989-1.53599996z" fill="#44999a"/><path d="M180.72332882 214.3118713l1.05599997 91.57733105-41.85333229 33.01999918 7.67866648-105.39866403z" fill="#76cacc"/><path d="M181.77932879 303.82546907l45.25999887 16.12666626 4.51199988 2.39733328 6.8146665 1.0573333-4.12666656 30.42933258-7.00799983-2.7826666-6.81599983.47866666-80.48933132-12.62399969z" fill="#44999a"/><path d="M227.039061 319.95186867l11.3279997 3.45466658-.28799999 14.11199965-3.8399999 16.31733292-13.82266632-2.3026666z" fill="#e2e4e2"/><path d="M238.36652737 323.40626858l15.71866628-6.96133316 15.19199962 5.73466653-.98799998 6.5106665h-11.8279997z" fill="#f4cab4"/><path d="M293.32159267 204.13667156l39.54933234 59.61066518-14.3986663 12.86266634-18.23866622 7.48799982z" fill="#44999a"/><path d="M300.23305916 284.0976029l32.63866585-20.35066616 26.68399933-17.3733329 4.99199988-.192 4.03333323-5.66399985 11.71066638 10.07866641-2.59199994 13.91999965-.38399999 9.21599977-49.62799876 38.58799904z" fill="#77cccd"/><path d="M368.58065745 240.51760399l11.42266638 11.90266637 6.5266665 14.01466631-9.21466643 7.29733315-17.75866622-27.35866598z" fill="#e2e4e2"/><path d="M395.16932345 190.3138719l8.44666646-19.77466616 3.84133324 21.21466613-7.19999982 1.72666663z" fill="#8e8f8e"/><path d="M376.54692392 251.84507037l9.98266642 14.58933297 8.1599998-5.18266654-2.59199994-26.878666z" fill="#c3927d"/><path d="M395.16932345 190.3138719l12.2879997 1.43999997-10.17599975 89.36799777-12.38133302-1.43999997 1.52266663-13.25866633 7.68933314-11.16933305-3.60799991-24.34666606z" fill="#535353"/><g clip-path="url(#e)" transform="matrix(1.33333 0 0 -1.33333 0 533.33333)"><path d="M185.5781 337.8257c0-1.799-1.512-3.168-3.168-3.168-1.799 0-3.24 1.369-3.24 3.168 0 1.801 1.441 3.169 3.24 3.169 1.656 0 3.168-1.368 3.168-3.169M225.0664 345.0977c0-1.799-1.367-3.167-3.168-3.167-1.656 0-3.167 1.368-3.167 3.167 0 1.729 1.511 3.096 3.167 3.096 1.801 0 3.168-1.367 3.168-3.096" fill="#2b2c2b"/><path d="M292 228.1667l16.672-4.955-9.172-24.212-9.603 1.174 1.978 20.793z" fill="#f4cab4"/><path d="M276.4355 219.6118l16.921 11.376 4.928-17.078-7.176-1-2.1 5.364-4.848-9.715zM178.7749 157.4453l22.442-3.963 1.666-9.165 2.566-5.987-3.885-5.471-4.61-6.984-21.275 8.748z" fill="#fee5d6"/><path d="M201.2174 153.4824l-4.264-27.607 6.659 4.925 7.092 16.889z" fill="#f4cab4"/></g></svg>