<?xml version="1.0" encoding="UTF-8" standalone="no"?>
<!-- Generator: Adobe Illustrator 22.1.0, SVG Export Plug-In . SVG Version: 6.00 Build 0)  -->

<svg
   xmlns:dc="http://purl.org/dc/elements/1.1/"
   xmlns:cc="http://creativecommons.org/ns#"
   xmlns:rdf="http://www.w3.org/1999/02/22-rdf-syntax-ns#"
   xmlns:svg="http://www.w3.org/2000/svg"
   xmlns="http://www.w3.org/2000/svg"
   xmlns:sodipodi="http://sodipodi.sourceforge.net/DTD/sodipodi-0.dtd"
   xmlns:inkscape="http://www.inkscape.org/namespaces/inkscape"
   version="1.1"
   x="0px"
   y="0px"
   viewBox="0 0 300 300"
   style="enable-background:new 0 0 300 300;"
   xml:space="preserve"
   id="svg48"
   sodipodi:docname="sad.svg"
   inkscape:version="0.92.3 (2405546, 2018-03-11)"><sodipodi:namedview
   pagecolor="#ffffff"
   bordercolor="#666666"
   borderopacity="1"
   objecttolerance="10"
   gridtolerance="10"
   guidetolerance="10"
   inkscape:pageopacity="0"
   inkscape:pageshadow="2"
   inkscape:window-width="1600"
   inkscape:window-height="852"
   id="namedview50"
   showgrid="false"
   inkscape:zoom="0.67141999"
   inkscape:cx="-225.39253"
   inkscape:cy="187.89653"
   inkscape:window-x="0"
   inkscape:window-y="48"
   inkscape:window-maximized="1"
   inkscape:current-layer="svg48" /><metadata
   id="metadata54"><rdf:RDF><cc:Work
       rdf:about=""><dc:format>image/svg+xml</dc:format><dc:type
         rdf:resource="http://purl.org/dc/dcmitype/StillImage" /><dc:title></dc:title></cc:Work></rdf:RDF></metadata><defs
   id="defs52">
	
	
	
	
	
	
	
	
	
	
	
	
	
	
	
	
	
	
	
	
	
	
</defs>
<polygon
   style="clip-rule:evenodd;opacity:1;fill:#b9b9b9;fill-rule:evenodd"
   points="75.875,197.37 55.951,158.719 79.292,148.055 98.501,190.098 84.216,196.625 "
   id="polygon2" /><polygon
   style="clip-rule:evenodd;opacity:1;fill:#b9b9b9;fill-rule:evenodd"
   points="228.905,197.37 248.507,158.719 225.166,148.055 205.957,190.098 220.24,196.624 "
   id="polygon4" /><polygon
   style="clip-rule:evenodd;opacity:1;fill:#9d9d9d;fill-rule:evenodd"
   points="84.215,196.623 75.16,200.763 55.951,158.719 "
   id="polygon6" /><polygon
   style="clip-rule:evenodd;opacity:1;fill:#9d9d9d;fill-rule:evenodd"
   points="220.239,196.623 229.298,200.763 248.507,158.719 "
   id="polygon8" /><polygon
   style="clip-rule:evenodd;opacity:1;fill:#7c7c7c;fill-rule:evenodd"
   points="51.493,112.933 89.992,105.661 95.816,74.561 "
   id="polygon10" /><polygon
   style="clip-rule:evenodd;opacity:1;fill:#5f5f5f;fill-rule:evenodd"
   points="51.493,112.933 84.215,178.809 100.257,178.809 91.269,98.84 "
   id="polygon12" /><polygon
   style="clip-rule:evenodd;opacity:1;fill:#5f5f5f;fill-rule:evenodd"
   points="228.905,89.807 245.266,107.37 210.192,188.643 205.483,110.368 "
   id="polygon14" /><polygon
   style="clip-rule:evenodd;opacity:1;fill:#7c7c7c;fill-rule:evenodd"
   points="245.266,107.37 220.239,104.148 212.544,85.769 231.147,82.564 "
   id="polygon16" /><polygon
   style="clip-rule:evenodd;opacity:1;fill:#9d9d9d;fill-rule:evenodd"
   points="152.23,236.998 220.239,242.327 152.225,265.345 84.215,242.327 "
   id="polygon18" /><polygon
   style="clip-rule:evenodd;opacity:1;fill:#d5d5d5;fill-rule:evenodd"
   points="152.225,242.327 220.239,242.327 220.239,97.399 152.225,97.399 84.215,97.399 84.215,242.327 "
   id="polygon20" /><polygon
   style="clip-rule:evenodd;opacity:1;fill:#9d9d9d;fill-rule:evenodd"
   points="112.021,132.397 100.046,135.388 135.975,171.321 141.963,139.667 135.975,135.388 "
   id="polygon22" /><path
   style="clip-rule:evenodd;opacity:1;fill:#2b2b2b;fill-rule:evenodd"
   d="m 117.365,165.33 c 4.831,0 8.774,-3.939 8.774,-8.768 0,-4.829 -3.943,-8.768 -8.774,-8.768 -4.827,0 -8.77,3.939 -8.77,8.768 0,4.828 3.943,8.768 8.77,8.768 z"
   id="path24"
   inkscape:connector-curvature="0" /><rect
   x="100.046"
   y="129.399"
   style="clip-rule:evenodd;opacity:1;fill:#5f5f5f;fill-rule:evenodd"
   width="35.929001"
   height="5.9889998"
   id="rect26" /><polygon
   style="clip-rule:evenodd;opacity:1;fill:#5f5f5f;fill-rule:evenodd"
   points="152.225,219.519 124.426,219.519 124.426,211.101 152.225,211.101 180.034,211.101 180.034,219.519 "
   id="polygon28" /><polygon
   style="clip-rule:evenodd;opacity:1;fill:#9d9d9d;fill-rule:evenodd"
   points="192.437,132.397 204.414,135.388 168.485,171.321 162.497,139.667 168.485,135.388 "
   id="polygon30" /><polygon
   style="clip-rule:evenodd;opacity:1;fill:#9d9d9d;fill-rule:evenodd"
   points="152.225,185.436 168.485,185.436 152.225,199.124 135.975,185.436 "
   id="polygon32" /><path
   style="clip-rule:evenodd;opacity:1;fill:#2b2b2b;fill-rule:evenodd"
   d="m 187.088,165.33 c 4.831,0 8.775,-3.939 8.775,-8.768 0,-4.829 -3.943,-8.768 -8.775,-8.768 -4.827,0 -8.767,3.939 -8.767,8.768 0,4.828 3.94,8.768 8.767,8.768 z"
   id="path34"
   inkscape:connector-curvature="0" /><polygon
   style="clip-rule:evenodd;opacity:1;fill:#e7e7e7;fill-rule:evenodd"
   points="152.225,185.436 168.485,185.436 168.485,135.388 152.225,135.388 135.975,135.388 135.975,185.436 "
   id="polygon36" /><rect
   x="168.485"
   y="129.399"
   style="clip-rule:evenodd;opacity:1;fill:#5f5f5f;fill-rule:evenodd"
   width="35.929001"
   height="5.9889998"
   id="rect38" /><polygon
   style="clip-rule:evenodd;opacity:1;fill:#9d9d9d;fill-rule:evenodd"
   points="95.815,74.561 84.215,97.399 210.614,123.198 231.147,82.564 121.005,41.187 "
   id="polygon40" /><polygon
   style="clip-rule:evenodd;opacity:1;fill:#b9b9b9;fill-rule:evenodd"
   points="231.147,82.564 116.086,34.654 95.816,74.561 "
   id="polygon42" />
<g
   id="guidelines">
</g>
<polygon
   transform="matrix(0.23364071,-0.15489845,0.55256947,0.83346684,-34.285239,63.042304)"
   style="clip-rule:evenodd;opacity:1;fill:#5f5f5f;fill-rule:evenodd"
   points="152.225,211.101 180.034,211.101 180.034,219.519 152.225,219.519 124.426,219.519 124.426,211.101 "
   id="polygon28-3" /><polygon
   transform="matrix(-0.23364071,-0.15489845,-0.55256947,0.83346684,338.74524,63.042304)"
   style="clip-rule:evenodd;opacity:1;fill:#5f5f5f;fill-rule:evenodd"
   points="152.225,211.101 180.034,211.101 180.034,219.519 152.225,219.519 124.426,219.519 124.426,211.101 "
   id="polygon28-3-6" /></svg>