<svg xmlns="http://www.w3.org/2000/svg" viewBox="0 0 900 350"><g fill-rule="evenodd" clip-rule="evenodd"><path fill="#349496" d="M547.871 144.603l.459 6.234.599.218.468-4.727z"/><path fill="#72CBCC" d="M550.745 138.503l4.318 5.6-5.666 2.225-2.077-2.879 1.168-3.934z"/><path fill="#4EA9AA" d="M547.666 139.051l-4.401 4.754 6.132 2.523.566-4.59z"/><path fill="#4EA9AA" d="M550.656 133.856l3.461 5.303-4.154 2.579-2.357-3.907 1.111-4.182z"/><path fill="#349496" d="M547.437 133.684l-3.154 5.732 5.68 2.322-.637-6.152z"/><path fill="#4EA9AA" d="M550.588 132.928l-2.319-9.061-3.665 10.143 4.722 1.576z"/><path fill="#72CBCC" d="M548.269 123.867l5.523 9.816-4.466 1.903z"/><g><path fill="#349496" d="M494.617 126.204l1.256 10.667 1.045.329.448-8.151z"/><path fill="#72CBCC" d="M499.092 115.517l7.834 9.287-9.56 4.245-3.783-4.785 1.709-6.841z"/><path fill="#4EA9AA" d="M493.848 116.688l-7.199 8.493 10.717 3.868.626-7.92zM498.589 107.545l6.339 8.843-6.936 4.741-4.34-6.531 1.592-7.263z"/><path fill="#349496" d="M493.049 107.493l-4.983 10.077 9.926 3.559-1.557-10.514z"/><path fill="#4EA9AA" d="M498.401 105.957l-4.662-15.379-5.528 17.686 8.224 2.351z"/><path fill="#72CBCC" d="M493.739 90.578l10.219 16.435-7.523 3.602z"/></g><g><path fill="#349496" d="M804.944 229.449l-2.577 8.275.662.586 3.007-5.861z"/><path fill="#72CBCC" d="M811.753 223.041l2.724 9.419-8.441-.011-1.217-4.77 3.507-4.481z"/><path fill="#4EA9AA" d="M807.503 222.182l-8.096 3.896 6.629 6.371 3.063-5.632z"/><path fill="#4EA9AA" d="M814 217l1.768 8.601-6.669 1.216-1.054-6.24 3.559-4.83z"/><path fill="#349496" d="M809.934 215.143l-6.982 5.791 6.147 5.883 2.305-8.261z"/><path fill="#4EA9AA" d="M814.384 215.768l4.769-12.086-13.038 10.44 5.289 4.434z"/><path fill="#72CBCC" d="M819.153 203.682l-1.02 14.69-6.729.184z"/></g><g><path fill="#349496" d="M96.223 219.561l2.384 8.332.875.127-.7-6.55z"/><path fill="#72CBCC" d="M98.401 210.468l7.444 6.382-7.063 4.62-3.634-3.321.474-5.67z"/><path fill="#4EA9AA" d="M94.376 212.081l-4.631 7.698 9.037 1.691-.529-6.389z"/><path fill="#4EA9AA" d="M96.966 204.184l6.197 6.222-4.91 4.675-4.304-4.639.327-5.991z"/><path fill="#349496" d="M92.548 204.861l-2.662 8.672 8.367 1.548-2.603-8.172z"/><path fill="#4EA9AA" d="M96.612 202.944L90.904 191.3l-2.109 14.803 6.855.806z"/><path fill="#72CBCC" d="M90.904 191.3l10.27 11.764-5.524 3.845z"/></g><g><path fill="#349496" d="M336.682 180.756v6.691l.623.28.871-5.01z"/><path fill="#72CBCC" d="M340.23 174.469l4.171 6.318-6.225 1.93-1.991-3.237 1.556-4.108z"/><path fill="#4EA9AA" d="M336.9 174.811l-5.073 4.731 6.349 3.175.965-4.856zM340.5 169.5l3.278 5.934-4.637 2.427-2.21-4.357 1.515-4.377z"/><path fill="#349496" d="M337.077 169.064l-3.818 5.872 5.882 2.925-.197-6.618z"/><path fill="#4EA9AA" d="M340.5 168.504l-.18-9.568-6.293 10.253 4.917 2.054z"/><path fill="#72CBCC" d="M340.32 158.936l3.541 10.626-4.917 1.681z"/></g><g><path fill="#349496" d="M322.094 187.464l2.251 4.81.542-.008-1.06-3.895z"/><path fill="#72CBCC" d="M322.53 181.75l7.197 4.384-4.977 5.366-3.443-4.786-.264-3.477z"/><path fill="#4EA9AA" d="M320.251 183.117l-2.052 8.814 7.926.319-3.237-7.694zM321.052 178.087l4.353 3.163-2.517 3.306-3.055-2.389-.384-3.657z"/><path fill="#349496" d="M318.444 178.926l-.769 5.505 5.213.125-2.369-4.692z"/><path fill="#4EA9AA" d="M320.717 177.371l-3.349-6.818-1.075 9.488 4.226-.177z"/><path fill="#72CBCC" d="M317.368 170.553l7.212 7.287-4.061 2.024z"/></g><g><path fill="#349496" d="M642.992 170.333l-.793 11.078.997.538 2.673-11.18z"/><path fill="#72CBCC" d="M649.544 158.403l6.223 12.897-12.992 1.6-.455-4.739 2.995-8.559z"/><path fill="#4EA9AA" d="M643.991 158.575l-8.892 9.173 7.676 5.152 4.631-7.067zM650.58 150.208l4.724 10.213-7.898 5.412-3.209-9.418 3.027-7.069z"/><path fill="#349496" d="M644.964 149.081l-7.017 9.268 9.459 7.484.391-12.924z"/><path fill="#4EA9AA" d="M650.698 148.56l2.408-15.545-13.206 15.91 7.897 3.984z"/><path fill="#72CBCC" d="M653.106 133.015l3.032 17.695-8.341 2.199z"/></g></g><g fill-rule="evenodd" clip-rule="evenodd"><path fill="#DDDDDC" d="M317.667 11l-27.334.5L222.5 5.75l50 24.417 60.667-3L387 15.5zM51.167 103.5c-1 0-46.667 6.667-46.667 6.667l45 20.333 46.333-3.333 29.667 2.667 37.333-18.667-49 4.667L51.167 103.5zM735 59.501l-41.5 3-107.5-6.5 108.5 41.5 110-24.5 57.5-10z"/><path fill="#ECECEB" d="M862 63.001l-122-25-56.5 13.5-97.5 4.5 110.5 18 75-10zM4.5 110.167l52.667-14 59.666 11.666 46 3.334-64 7zM387 15.5L335.667 0l-41.834 6.333L222.5 5.75 299.333 20l36.834-6.833z"/></g><g fill-rule="evenodd" clip-rule="evenodd"><path fill="#D0CECD" d="M350.167 182.167l-2.334-4.667 69.5-8.333-24.708 34.958z"/><path fill="#DDDDDC" d="M374.125 192.125L347.833 177.5l-65 30.333 41 2L381.5 207.5z"/><path fill="#BFBFBF" d="M427.458 163.375l-53.333 28.75L374 202l49.5 23zM553.167 183.5l-96.417-29.875L437.417 157l-4.917 67 146.667-3.833z"/><path fill="#D0CECD" d="M545.833 151.167L509 140l-34.25 68.75 119.75 3.417-2-22.334z"/><path fill="#DDDDDC" d="M604.5 187.5l-35.5-36-56-13.5-4 2 66.75 48.833z"/><path fill="#BFBFBF" d="M665.5 198L635 176.5l-66-25 6.833 37.5 83.667 63z"/><path fill="#DDDDDC" d="M782 228l-49.5-28-97.5-23.5 5.875 42.5z"/></g><g fill-rule="evenodd" clip-rule="evenodd"><path fill="#5EC0D9" d="M791.833 233.5l71.417 13 36.75.25L880.5 272l-1 43-28.5 23-207.5 12-16.333-96.5z"/><path fill="#3AA0BA" d="M801.833 232.833L863.25 246.5l-72.083 31.667-49.334 48L643.5 350 444 337.5l223.833-99.333z"/><path fill="#D0CECD" d="M501.25 209.5l-34.083 1.333L256.25 231.5l-65-39-13.333 10.5-18.021 5.729L79.5 317.25l120.75 32.25L445.5 299z"/><path fill="#BFBFBF" d="M161.75 266l-18.25 22.5-64 28.75L.361 296.084 80.25 269.5l14.5-42 69 17z"/><path fill="#DDDDDC" d="M125.917 231.833l-35.417-13.5-55.139 35.251 51.222-.751z"/><path fill="#D0CECD" d="M252 229l-142.417 1.833-74.222 22.751L80.25 269.5 149 254z"/><path fill="#BFBFBF" d="M402 292l-201.75 57.5 245.667-12 95.333-13L545 315l6.75-40.5-73.5-2z"/><path fill="#D0CECD" d="M559.917 312.833L545 315l-99.083 22.5L554.25 332zM600.25 250l-36.75-.25L488.25 274 545 315l105.583-23.5-5.333-41.5z"/><path fill="#DDDDDC" d="M605.25 239.5l-104-45-33.5 1.5 45.375 71.75 50.375-18z"/><path fill="#BFBFBF" d="M621.917 247.5L575.833 189l-72.5 1.917 57.917 59.833 25-2.75 19-8.5z"/><path fill="#D0CECD" d="M654.583 226.167L670.5 210.5l-35.5-34-59.167 12.5 25.75 46.833z"/><path fill="#BFBFBF" d="M731.75 227.5l.75-27.5-63 10.833-67.917 25 122 26z"/><path fill="#DDDDDC" d="M732.5 200l130.75 46.5-164 4z"/><path fill="#DDDDDC" d="M661.75 289.5l-42.5-22-58-16.75 40.333-14.917L706.25 239.5l-17 48z"/><path fill="#D0CECD" d="M706.25 239.5l157 7-105.333 13.667L705.25 283.5l-38-21.333z"/><path fill="#BFBFBF" d="M662.583 278.167L619.25 267.5 545 315l9.25 17 67.667-33.167z"/><path fill="#D0CECD" d="M730.583 267.5l-63.333-5.333-48 5.333 2.667 31.333 110-8.666z"/><path fill="#BFBFBF" d="M667.25 262.167l90.667-2-26 30zM202.583 230.833L183.5 240.5l-72.917-10L90.5 218.333l68.75-10.166 28.333-3.667z"/></g><path opacity=".1" fill-rule="evenodd" clip-rule="evenodd" fill="#2B2B2B" d="M79.5 290.5l178.5 43L544.5 315l74.75-47.5-58-16.75L415 233l-164 4.5-69 34.5-29.5-6.5z"/><g fill-rule="evenodd" clip-rule="evenodd"><path opacity=".1" fill="#2B2B2B" d="M746.333 229.5l28.834-3.667 28.5 8.334-30.334 3.333zM380.291 176.322l12.885-3.228 13.384 2.236-13.583 3.157zM680.944 197.6l11.689-1.6 12.756 4-12.711 1.333z"/><path fill="#349496" d="M772.263 202.495v28.831l2.682 1.207 6.931-24.808z"/><path fill="#72CBCC" d="M787.551 175.408l17.969 27.222-25.224 10.099-10.178-15.732 6.705-17.701z"/><path fill="#4EA9AA" d="M773.202 176.883l-21.858 20.383 28.952 15.463 2.561-22.705z"/><path fill="#4EA9AA" d="M788.713 153.997l14.125 25.568-19.981 10.459-9.521-18.773 6.526-18.863z"/><path fill="#349496" d="M773.962 152.12l-16.449 25.299 25.344 12.605-.849-28.518z"/><path fill="#4EA9AA" d="M788.713 149.706l-7.599-42.464-20.294 45.414 21.188 8.85z"/><path fill="#72CBCC" d="M781.114 107.242l22.081 47.023-21.187 7.241z"/><g><path opacity=".1" fill="#2B2B2B" d="M557.614 155.939l11.887-.962 12.652 4.75-12.905.636z"/><path fill="#349496" d="M569.354 145.869l-.449 11.717 1.071.532 3.203-9.974z"/><path fill="#72CBCC" d="M575.988 135.097l7.406 13.839-11.002 1.668-3.825-7.003 3.001-7.09z"/><path fill="#4EA9AA" d="M570.134 135.474l-9.835 9.46 12.093 5.67 1.461-9.639zM576.794 126.414l5.966 12.012-8.907 2.539-3.577-7.778 2.946-7.565z"/><path fill="#349496" d="M570.828 125.421l-7.079 10.026 10.104 5.518.099-11.604z"/><path fill="#4EA9AA" d="M576.861 124.67l-6.694-22.17-4.688 22.934 8.473 3.927z"/><path fill="#72CBCC" d="M570.167 102.5l12.509 24.248-8.724 2.613z"/></g><g><path fill="#349496" d="M692.964 191.334l-.553 7.71.694.374 1.86-7.78z"/><path fill="#72CBCC" d="M697.523 183.032l4.33 8.975-7.311 1.347-2.047-3.531 2.085-5.956z"/><path fill="#4EA9AA" d="M693.658 183.152l-6.188 6.383 7.072 3.819 1.493-5.151z"/><path fill="#4EA9AA" d="M698.494 172.996l4.339 10.254-6.798 4.953-1.983-10.888 2.106-4.919z"/><path fill="#349496" d="M694.586 172.212L687.5 182l8.535 6.203.522-13.327z"/><path fill="#4EA9AA" d="M698.576 171.849l-1.909-15.599-5.606 15.853 5.496 2.773z"/><path fill="#72CBCC" d="M696.667 156.25l5.694 17.095-5.804 1.531z"/></g><path opacity=".1" fill="#2B2B2B" d="M103.833 223.5L121 216.333l23.833 5-24 4.834z"/><g><path fill="#349496" d="M118.413 207.361l3.008 13.853 1.414.3.742-12.643z"/><path fill="#72CBCC" d="M122.933 192.75l11.474 11.206-11.067 7.484-6.532-6.497 1.376-9.205z"/><path fill="#4EA9AA" d="M116.192 194.956l-8.377 12.074 15.525 4.41-1.138-11.177z"/><path fill="#4EA9AA" d="M121.257 182.341l9.455 10.812-8.51 7.11-6.533-8.028 1.168-9.744z"/><path fill="#349496" d="M113.974 182.977l-5.265 13.873 13.493 3.413-3.383-13.615z"/><path fill="#4EA9AA" d="M120.81 180.279L109 155l-1.285 29.606 11.104 2.042z"/><path fill="#72CBCC" d="M109 155l19.245 25.959-9.426 5.689z"/></g><g><path fill="#349496" d="M389.985 163.718l2.152 12.684 1.27.331 1.198-11.432z"/><path fill="#72CBCC" d="M394.689 150.659l9.686 14.841-10.092 2.121-5.652-6.162 1.629-8.288z"/><path fill="#4EA9AA" d="M388.487 152.379l-6.737 14.371 12.533.871-.568-10.181z"/><path fill="#4EA9AA" d="M393.602 141.153L402 153.875l-8.285 3.565-5.59-7.549 1.464-8.786z"/><path fill="#349496" d="M386.973 141.428L382 156.5l11.715.94-2.502-12.483z"/><path fill="#4EA9AA" d="M393.282 139.265l-4.532-19.515-7.519 22.895 9.982 2.312z"/><path fill="#72CBCC" d="M388.75 119.75l11.244 20.44-8.781 4.767z"/></g></g><g fill-rule="evenodd" clip-rule="evenodd"><path opacity=".1" fill="#2B2B2B" d="M670.875 322.625l-23 6-24.875 8.25 37.875 8.938 46.313-11.5z"/><path fill="#4EA9AA" d="M668.125 312L682 308.75l9.25 22.375-22.437 4.5-23.313-2z"/><path fill="#349496" d="M658.5 314l-27.333 6.833 19.583 6.667z"/><path fill="#72CBCC" d="M682 308.75l-36.75-6 6.625 19.125-20.708-1.042 14.333 12.792z"/><circle fill="#1F7678" cx="660.125" cy="312.188" r="2.813"/><path fill="#75CFE3" d="M640.125 334.125l8.625 2.75 18.375.5 5.25 1 22.625-6-4.5-3.125-2.833 2.25-9.792.125-10.5 2.75-6.625-.75H645.5l-1.219-1.812zM638.167 335.667l10.5 3.291 16.416.542-16.833 1.875z"/><path opacity=".1" fill="#2B2B2B" d="M823.034 309.086l-16.591 4.329-17.943 5.951 27.321 6.447 33.406-8.296z"/><path fill="#4EA9AA" d="M821.05 301.422l14.2 2.578 2.481 11.218-16.185 3.246-16.816-1.443z"/><path fill="#349496" d="M814.107 302.865l-14.774-5.282 9.184 15.02z"/><path fill="#72CBCC" d="M835.25 304l-28.375-11.625 2.454 16.171-10.162-11.046 5.563 19.521z"/><path fill="#1F7678" d="M817.308 301.558c0 1.121-.908 2.029-2.029 2.029s-2.029-.908-2.029-2.029c0-1.12.908-2.029 2.029-2.029s2.029.908 2.029 2.029z"/><path fill="#75CFE3" d="M837 312.292l4.875 3.583-8.417 3.458-11.208-.166-9.083 2.5-11.459-4.125 2.417-2.62 4.125 2.12 15.25-1.459 10.208.625z"/><path fill="#75CFE3" d="M830.094 320.594l-7.656-.5-8.438 2.5 9.25-1.438zM796.667 259.833l-31.834 4.5-16.5 18.667 11.834-7.333 4.5-5.667 6.833-2.333z"/><path fill="#75CFE3" d="M766.667 273.167l-5.334 6.166-14.833 12.5 15.667-6.5 2-6.666 6-6.834zM633.5 307.167l-25.667 7.666-24 15.334 29-12.334z"/><path fill="#75CFE3" d="M611.833 322.167l-22 8.666-21 2.667-10.333 5.667 16-3 12.667 1.666z"/></g><g fill-rule="evenodd" clip-rule="evenodd"><path fill="#A3A1A1" d="M561.167 272.167l-59.834 20.583-65-4.417 13.5-30.833 73.334-4z"/><path fill="#D0CECD" d="M544.5 250.167l16.75.583L572 279l-44.417 12.5-7.75-29.333zM198.833 279.167l37.75 21 34.25-14.5.167-41-61.167 10.5z"/><path fill="#A3A1A1" d="M171.333 258.167l-24-3.25-4.5 33.25 88.5 10.25-2-35.75z"/><path fill="#ECECEB" d="M201.833 233.917l-54.5 21 68.334 10.75 41.416-24.25zM486.833 235.5l-32.333 23 42.125 5.5L530 259.5l31.25-8.75-37.083-8.25z"/></g><path fill="#2B6875" d="M286.083 290.917l6.75 3-.25 5-34.5-1-.25-4.5z"/><path fill="#367F90" d="M264.5 273.167l9.333 4.25 19 16.5-35-.5-.75-11.25z"/><path fill="#535353" d="M259.583 235.417l11-.25 3.25 42.25-16.75 4.75-11.875-28.625z"/><path fill="#5A5E5E" d="M240 224.417l30.583 10.75-23.25 16.25-25.333-5.25-1.25-8.834zM211.916 257.75l14.917 33 11.833 9.333L248 290.25l-.667-38.833z"/><path fill="#2B6875" d="M234.811 302.764l-7.314 1.941-.081 4.295 33.167-.583-.159-4.295z"/><path fill="#367F90" d="M248 290.25l12.424 13.872-32.927.583-.664-13.955z"/><g><path fill="#FEE5D6" d="M303.906 148.979l.693-8.606 12.562-7.125 8.938 10.001-11.989 13.05z"/><path fill="#F5CBB3" d="M292.933 145.83l2.823-.257 8.843-5.2 9.511 15.926-13.136 6.887-11.137-5.541z"/><path fill="#FEE5D6" d="M289.981 156.54l-.268-7.355 3.582-9.103 11.28-4.294 1.553 3.288-6.568 5.586.42 7.137z"/><path fill="#E2E4E2" d="M278.051 168.069l4.673-13.95 6.989-4.934 11.261 14.001-6.161 4.519z"/><path fill="#44999A" d="M222.891 183.316l16.553-33.408 39.15 24.712-15.683 16.441z"/><path fill="#76CACD" d="M181.12 155.179l.386 44.541-18.173 18.197.633-52.794z"/><path fill="#535353" d="M240.427 222.244l5.768 7.557-25.612 18.866-39.19-23.464z"/><path fill="#FEE5D6" d="M261.042 61.509l-21.78-1.384-13.355 1.935-9.281-6.232-14.731-4.003 1.634 8.585 5.473 4.888-6.271 8.292-1.548 9.678.373 12.468 4.022 10.985-2.97-.446-2.928 1.677-.32-5.651-2.211-9.309-8.181-.42-5.79 1.777 4.074 14.967 3.671 8.107-1.112 4.851 1.99 7.084 1.547 3.409-1.144 2.884 7.862 8.422 13.175 9.918 5.213-3.066 3.288-4.517 2.529-9.309 29.29 1.622 4.107-33.509 2.942-5.899.684-11.613-1.744-3.823z"/><path fill="#F5CAB4" d="M213.901 56.943l.519 23.688-1.197 21.469-.971 34.104 12.019.895-2.268 4.176-.261 5.133-8.501 7.583-21.227-14.532-2.396-17.804-.878-11.935 10.94-1.768-1.007-5.916.647-4.991 3.605 2.566-1.742-16.343 2.447-8.816 5.372-9.154-4.322-5.708-2.785-7.765 7.848 2.596z"/><path fill="#C3927D" d="M188.74 109.72l10.94-1.768-10.062 13.703-1.891-7.264z"/><path fill="#C1907C" d="M224.271 137.099l-17.065-1.288 6.035 18.18 5.636-3.106 2.865-4.477z"/><path fill="#F5CAB4" d="M218.408 97.43l3.329-8.835 9.354.275 1.728 10.517-19.596 2.713 18.79 3.097 2.655 4.071 1.972-26.979-17.352 3.94-3.205 5.158zM248.605 98.936l2.33-7.816 8.669-.427 1.929 1.812-3.174 10.164-15.746 1.44-.267 3.071 15.322-1.968 4.82-8.067-.149-11.016-15.66.176-1.956 11.937z"/><path fill="#C3927D" d="M234.668 109.268l3.34 4.204 4.148-3.51z"/><path fill="#FFF1E9" d="M236.436 87.592l7.375.355-1.655 22.015-7.488-.694z"/><path fill="#367F90" d="M236.436 87.592l-.918-2.877 1.122-2.426 7.493.49 1.451 2.816-1.773 2.352z"/><path fill="#3B96AA" d="M236.64 82.289l-22.22-1.658-1.271 7.898.594 5.211-.52 8.36 21.915 1.266 1.298-15.774.204-5.303zm-17.352 3.94l11.924.87-.805 11.117-11.997-.787.878-11.2zM244.133 82.779l21.775 1.589-1.65 21.243-21.645-1.503 1.198-16.162.322-5.167zm5.238 5.752l-.766 10.406 10.319.898.771-10.611-10.324-.693z"/><path fill="#C3927D" d="M226.671 117.615l19.727 1.895-3.343 8.859-13.779-1.261zM195.219 104.818l-2.031-9.193-4.853.794z"/><path fill="#D7D8D6" d="M261.042 61.509l-37.875-15.342.318 9.258 2.422 6.635z"/><path fill="#C3C3C3" d="M201.895 51.825l-9.601 1.771-6.627 16.233 10.449-.149 12.886-4.382z"/><path fill="#E2E4E2" d="M185.667 69.829l-11.622 27.602 14.923-4.859 12.51-6.596 7.524-20.678z"/><path fill="#A1A2A2" d="M201.81 87.406l2.664 13.657-5.801.973-1.633-9.589-12.409 2.812 3.973 14.012 1.014 12.384L174.52 97.2l6.888-2.972z"/><path fill="#C3C3C3" d="M225.907 62.06l-2.74-15.893-21.272 5.658z"/><path fill="#367F90" d="M214.42 80.631l-33.012 13.597 1.014 8.21 2.209-7.179 29.309-5.278z"/><path fill="#C1907B" d="M202.791 91.949l11.149-1.968-.047 1.121-.15 2.638-10.563.685z"/><path fill="#787878" d="M197.149 92.992l5.642-1.043.389 2.476-5.732.503z"/><path fill="#E2E4E2" d="M191.811 139.169l-2.338 9.695 21.431 11.834 8.801 2.834 6.513-7.309 3.581-9.298-6.664-5.122-6.215 9.547z"/><path fill="#C3C3C3" d="M229.799 146.925l9.645 2.983-7.608 15.115-8.999 12.183-22.624-10.293-19.093-11.734 8.353-6.315 30.232 14.668z"/><path fill="#357C7E" d="M181.12 155.179l32.866 17.353 4.028 1.193 4.823 3.481 4.093 33.21-45.537-15.627z"/><path fill="#357C7E" d="M222.837 177.206l1.79-4.922 3.978-4.575 10.839-17.801 3.306 37.217-10.917 25.375-9.104-4.268-2.539-17.164z"/><path fill="#5A5E5E" d="M216.92 151.35l-5.27 8.254 8.055 3.928 5.071-8.204z"/><path fill="#767779" d="M219.705 163.532l-5.719 9 8.851 4.674 5.768-9.497z"/><path fill="#44999A" d="M242.75 187.125L222 204.833l-40.607-10.044v30.414l42.009 6.89 22.942-2.292z"/><path opacity=".1" fill="#2B2B2B" d="M231 214.5l-13.5-.333-36.107-19.378v30.414l42.009 6.89 22.942-2.292z"/><path fill="#2B2C2B" d="M228.887 91.672c-.326 1.199-1.581 1.837-2.685 1.537-1.199-.326-1.911-1.499-1.586-2.698.326-1.2 1.534-1.851 2.733-1.525 1.104.3 1.864 1.486 1.538 2.686zM256.522 93.977c-.326 1.199-1.485 1.864-2.685 1.537-1.104-.3-1.863-1.485-1.537-2.685.313-1.152 1.568-1.79 2.671-1.49 1.2.327 1.864 1.486 1.551 2.638z"/><path fill="#FFF" d="M229.066 119.673l15.039 1.365-1.071 3.004-13.359-1.344z"/><path fill="#78CCCD" d="M282.724 154.119l-18.479 11.109-1.334 25.833 31.902-23.356z"/><path fill="#6A6A6A" d="M247.333 251.417l-31.5 14.25-29.5-12-4.94-28.464z"/></g><g><path fill-rule="evenodd" clip-rule="evenodd" fill="#494749" d="M423.75 284.583l-21.5 7.334.167 5 42.333.166.5-5.166z"/><path fill-rule="evenodd" clip-rule="evenodd" fill="#4F5353" d="M436.917 265.583l-13.334 8-21.333 18.334h43l1-16z"/><path fill-rule="evenodd" clip-rule="evenodd" fill="#357C7E" d="M455.25 231.583L431 238.25l-7.417 35.333 22.667 2.334 12-25.667z"/><path fill-rule="evenodd" clip-rule="evenodd" fill="#349496" d="M494.833 252.5l-40.333 6-23.5-20.25 31.167-14.75 53.333 15.833z"/><path fill-rule="evenodd" clip-rule="evenodd" fill="#F5CBB3" d="M537.708 227.625l4.375 15.25 14.75-6.625z"/><path fill-rule="evenodd" clip-rule="evenodd" fill="#FEE5D6" d="M551.083 208.75l-16.625 3.375L523.583 235l18.5 7.875 9.667-20.042z"/><path fill-rule="evenodd" clip-rule="evenodd" fill="#494749" d="M526.875 304.583l6 2.25-.375 5.5-33.667-.333v-5.5z"/><path fill-rule="evenodd" clip-rule="evenodd" fill="#4F5353" d="M517.583 278l10 13.5 5.292 15.333-34.042-.333 2.5-13.75z"/><path fill-rule="evenodd" clip-rule="evenodd" fill="#357C7E" d="M513 250.167l17 9.333-2.417 32-26.25 1.25-4.708-28.75z"/><path fill-rule="evenodd" clip-rule="evenodd" fill="#4EA9AA" d="M502.583 203l27 19 .417 37.5-33.375 4.5-1.792-11.5z"/><path fill-rule="evenodd" clip-rule="evenodd" fill="#357C7E" d="M512.583 211.5l17 10.5-34.75 30.5-32.666-29z"/><path fill-rule="evenodd" clip-rule="evenodd" fill="#308FA6" d="M510.083 180.75l26-31.25 21.5 21.75-6.75 26.75z"/><path fill-rule="evenodd" clip-rule="evenodd" fill="#3AA0BA" d="M478.333 145.25l-6.292-1.208L461 191.5l1.167 32 67.416-1.5 3.167-31.167-19.708-51.023z"/><path fill-rule="evenodd" clip-rule="evenodd" fill="#5EC0D9" d="M478.333 145.25l-6.292-1.208-15.208 9.208-3 37.75 7.667.833 71.25-1 3.333-41.333-23.041-9.69z"/><path fill-rule="evenodd" clip-rule="evenodd" fill="#ECECEB" d="M478.333 145.25l-8.125-5.875-2.75 7.25 2.375 26.5 19.389-8.914 24.111 7.164 6.25-29.125-7.25-7.375z"/><g fill-rule="evenodd" clip-rule="evenodd"><path fill="#FEE5D6" d="M425.35 79.807l6.175 22.902 8.766 38.208 23.917-3.375 25.137.922 8.571-2.797-1.941-11.143 1.728-33.434-3.245-6.765-6.904-18.259-42.06 13.868z"/><path fill="#F5CBB3" d="M484.586 70.117l10.138 65.095-23.038 5.218 4.353-1.387 7.14 3.762 6.043 21.406 24.111-28.461-1.664-18.872-2.782-5.147 2.403-1.709-.451-14.727-14.205-5.97z"/><path fill="#C3927D" d="M511.29 110.022l-9.119-.222 9.498 7.078zM502.356 104.986l.765-6.588 4.307.384z"/><path fill="#4F5353" d="M460 78.151l24.586-8.034 6.542 2.543 11.533-8.083-29.441-18.22-16.144 22.355zM498.419 75.367l11.745 5.108.675 14.82-12.319-1.438.046 10.911-4.712-1.15-2.038-17.27z"/><path fill="#494749" d="M431.152 79.808l-3.664-.076 4.037 22.977-13.565-21.885 11.09-3.973 5.603-1.201z"/><path fill="#5C5C5C" d="M436.877 55.651l16.179 17.714-5.145 9.673-29.951-2.214z"/><path fill="#737475" d="M436.877 55.651l11.034 27.387L460 78.151l13.22-31.794z"/><path fill="#5C5C5C" d="M502.661 64.577l7.503 15.898-18.348 5.873-7.23-16.231z"/><path fill="#C3927D" d="M447.429 121.872l22.495-3.196-4.778 9.449-10.615 1.416z"/><path fill="#FFF" d="M451.529 123.177l14.617-2.114-2.563 4.937-8.189 1.142z"/><path fill="#F5CBB3" d="M442.387 93.694l-6.701 2.277 18.222 15.313 7.014 2.344 12.532-23.303-8.259-.25-6.979 3.436.139 4.607-3.167 6.479-4.444-5.156-1.159-4.711z"/><path fill="#2B2B2B" d="M447.798 103.666c.403 1.586-.556 3.198-2.141 3.601-1.586.403-3.198-.556-3.601-2.141-.403-1.586.556-3.198 2.141-3.601 1.586-.404 3.198.555 3.601 2.141zM467.022 100.536c.12 1.632-1.106 3.052-2.738 3.172-1.632.12-3.052-1.106-3.171-2.738-.12-1.632 1.106-3.052 2.738-3.171 1.631-.121 3.051 1.105 3.171 2.737z"/><path fill="#C3927D" d="M454.232 111.66l-1.945 3.17 5.056 2.153 3.579-3.355z"/><path fill="#FFF1E9" d="M450.744 99.441l1.543 15.389 8.635-1.202-2.567-15.51z"/><path fill="#4F5353" d="M447.333 90l2.252 4.73-13.899 1.241zM458.216 93.511l1.45-5.594 13.788 2.408z"/><path fill="#C3927D" d="M494.375 133.146l-30.209 4.312 25.056 26.753 13.611-30.273z"/></g><path fill-rule="evenodd" clip-rule="evenodd" fill="#3AA0BA" d="M557.75 171.5l-23.292 40.625 17.292 10.708L575.833 189z"/></g><g><path fill="#308FA6" d="M298.833 256.083l52.5 41.25 22.5-11.666 5.667-72-73.167 1.166z"/><path fill="#D0CECD" d="M427.25 208.5l33.875-8.375 1.042 23.375-31.417 16L387 217.333z"/><path fill="#29788C" d="M293.667 216.833l4.5 79.167 53.166 1.333-2.5-73.833z"/><path fill="#A3A1A1" d="M259.167 206.833L198.5 210.25l8.75 38 223.5-8.75L430 212l-86-5.25z"/><path fill="#ECECEB" d="M260.75 200.25L204.333 213 430 212l31.125-11.875z"/></g><g fill-rule="evenodd" clip-rule="evenodd"><path opacity=".1" fill="#2B2B2B" d="M281.5 202.167l-25.333 7 120.666 3.166 38-12.166-9.333.208z"/><path fill="#349496" d="M388.458 192.063l9.292-4.938 7.75 13.25-28.625 9.25-3.937-9.562 10.375-3.125z"/><path fill="#72CBCC" d="M294 203.875l-19.125-8.75 23.75-5.75 99.125-2.25-20.875 16.125z"/><path fill="#1F7678" d="M274.875 195.125l-3.75 12.5 105.75 2v-6.375z"/><path fill="#349496" d="M299 191.167l8.751-.2 2.312.408 8.864-.663 10.263-.234 4.373 2.772 8.788-3.072 11.61-.265 1.164 1.462 10.25-1.722 12.39-.283 8.423.505-.228 2.743-5.511 4.454-9.511.866-8.161 1.824-11.837-.809-5.44-2.828-8.252 1.891-10.468-.716-1.53-1.112-9.683.346-11.279-.772-4.1-1.637-5.499.981-8.856-.606 5.792-1.453 3.75-.328.281-.735z"/><g fill="#94D5D4"><path d="M365.204 189.656l-11.243.257-16.713 8.103 13.692.937zM304.289 195.762l14.638-5.05-11.027.252-12.879 4.164zM342.352 190.178l-12.921.295-13.864 6.06 11.213.767zM377.764 189.37l-14.987 10.392 13.223.905 14.333-11.584z"/></g><path fill="#94D5D4" d="M373.11 192.597l-69.111-.372-8.393-.199-3.981 1.021 7.986.597 67.828 2.885 9.478-1.862z"/><g fill="#349496"><path d="M314.38 192.281l-10.381-.056-4.388 1.419 9.63.41zM337.481 192.405l-12.32-.066-4.985 2.18 11.605.493zM373.11 192.597l-5.671 3.932 13.019.554 5.542-4.416zM360.793 192.531l-12.097-.065-6.194 3.003 12.939.55z"/></g></g><g><g fill-rule="evenodd" clip-rule="evenodd"><path fill="#858686" d="M363.031 190.393l1.338-1.431-3.196-.594-3.845.668 4.774 2.378z"/><path fill="#494749" d="M362.131 193.48l-1.34 5.049-2.249-.581.573-4.651z"/><path fill="#4F5353" d="M362.801 193.723l.536 4.076-2.546.73.134-3.407zM362.131 193.48l-1.069-3.96-3.734-.484.112 4.93 3.485 1.156z"/><path fill="#737475" d="M361.062 189.52l3.307-.558-.093 5.248-3.351.912z"/><g><path fill="#AEADAD" d="M375.381 185.034l.669-1.699 3.597 2.796-4.182 1.745z"/><path fill="#737475" d="M378.177 187.486l-1.969-.873-.158-3.278-3.576 2.795 4.774 2.378z"/><path fill="#494749" d="M377.277 190.573l-1.341 5.05-2.106-.346.431-4.886z"/><path fill="#4F5353" d="M377.947 190.817l.546 4.218-2.557.588.134-3.407z"/><path fill="#4F5353" d="M377.277 190.573l-1.069-3.96-3.734-.483.112 4.93 3.484 1.156z"/><path fill="#737475" d="M376.208 186.613l3.439-.482-.225 5.172-3.352.913z"/></g><g><path fill="#D0CECD" d="M303.668 187.212l1.337-1.43-3.195-.595-3.846.669 4.775 2.378z"/><path fill="#737475" d="M302.767 190.299l-1.34 5.05-2.292-.495.616-4.737z"/><path fill="#8F8F8F" d="M303.438 190.542l.805 3.989-2.816.818.134-3.407zM302.767 190.299l-1.069-3.96-3.734-.483.112 4.93 3.485 1.156z"/><path fill="#AEADAD" d="M301.698 186.339l3.307-.557-.093 5.247-3.351.913z"/></g><g><path fill="#D0CECD" d="M329.283 187.204l.781-3.401 3.339 2.362-3.771 1.5z"/><path fill="#AEADAD" d="M332.065 187.378l-1.969-.741-.032-2.834-3.702 2.425 4.774 2.016z"/><path fill="#737475" d="M331.165 189.994l-1.34 4.281-2.533-.577.857-3.858z"/><path fill="#8F8F8F" d="M331.835 190.201l.806 3.381-2.816.693.134-2.888z"/><path fill="#8F8F8F" d="M331.165 189.994l-1.069-3.357-3.734-.409.112 4.179 3.485.98z"/><path fill="#AEADAD" d="M330.096 186.637l3.307-.472-.093 4.448-3.351.774z"/></g></g></g><g><path fill="#F5CBB3" d="M235.044 204.591l9.081-8.799L258.25 203l-5.563 9.792-12.773 1.625z"/><path fill="#FEE5D6" d="M219.5 204.591l3.625-6.987 21-1.812-4.211 18.625-19.352-1.063z"/><path fill="#44999A" d="M223.125 197.604l-41.732-2.815-18.06 23.128 57.229-4.563z"/><g fill-rule="evenodd" clip-rule="evenodd"><path fill="#308FA6" d="M435.333 177.75l6.25 1.125 15.25-25.625L461 191.5l-15.75 13.375z"/><path fill="#3AA0BA" d="M436.708 160.875l-9.25 2.5-4.708 36.875 22.5 4.625-.417-39.375z"/><path fill="#FEE5D6" d="M437.25 144.75l-8.042 1.5-1.75 17.125 17.375 2.125L452 150z"/><path fill="#F5CBB3" d="M438.958 135.417l18 3.208L452 150l-22.792-3.75z"/></g></g></svg>