<svg xmlns="http://www.w3.org/2000/svg" viewBox="0 0 900 350"><path fill="#DDDDDC" d="M479.75 12.75l86 10.25 94.75-8-94-14.75z"/><path fill="#ECECEB" d="M566.25 7.25L527 12l38.75 5.5L614 14.25z"/><path fill="#C4C4C4" d="M518.587 101.094L564 39.5 899.833 12 890.5 279.5l-328.5-37z"/><path fill="#DDDDDC" d="M564 39.5l-2 203-553.5 55L.25.25z"/><path opacity=".1" fill="#2B2B2B" d="M111.296 71.248l-36.15-20.831-6.41 61.083 49.226-1.795-.769-35.124z"/><path fill="#ECECEB" d="M122.257 52.243l.576 53.553-48.648 2.115.961-57.494z"/><path fill="#DDDDDC" d="M89.355 59.119l19.865.229.057 2.748-20.094-.458zM80.754 87.578l36.973.229.107 2.748-37.4-.458z"/><path fill="#72CBCC" d="M81.299 83.394l.577-17.979 34.996.288.577 19.133z"/><path fill="#ECECEB" d="M84.087 80.029l.673-11.249 28.94.096.384 12.883z"/><path fill="#72CBCC" d="M82.453 77.625l9.422-4.326 8.076 3.173 6.538-2.885 9.422 5-.288 5.192-32.978-1.635z"/><path fill="#DDDDDC" d="M80.946 96.007l36.974.229.106 2.747-37.4-.458z"/><g><path opacity=".1" fill="#2B2B2B" d="M517.322 91.607l-36.15-20.831-6.41 61.083 49.226-1.794-.769-35.125z"/><path fill="#ECECEB" d="M528.75 73.5l.109 52.655-48.649 2.115.962-57.494z"/><path fill="#DDDDDC" d="M495.38 79.479l19.865.229.058 2.748-20.094-.458zM486.779 107.937l36.974.229.107 2.748-37.4-.458zM486.904 98.937l36.974.229.107 2.748-37.4-.458zM487.029 89.937l36.974.229.107 2.748-37.4-.458zM486.972 116.366l36.973.229.107 2.748-37.4-.458z"/></g><g><path opacity=".1" fill="#2B2B2B" d="M191.5 66.5l-30.828-15.404-5.839 111.404 83-4.333-.333-82z"/><path fill="#A3A1A1" d="M169.71 59.836l65.389 1.674.707 72.912-71.37-.907z"/><path fill="#308FA6" d="M176.833 117.898l-5.115 11.874 1.013 7.554 55.053-3.985-12.591-15.913"/><path fill="#3AA0BA" d="M187.719 114.654l-10.886 3.244.643 25.288 35.967-4.508 1.75-21.25-4.587-2.162z"/><path fill="#FEE5D6" d="M219.91 80.616l-.817 32.776-10.034-.276-8.389 4.028-10.401.044-4.293-7.111-3.468-22.801 7.537-11.353 15.416-2.697 8.509 6.309z"/><path fill="#F5CBB3" d="M192.927 75.523l2.907 4.748.08 32.557 5.722 6.186-2.708 8.351-14.588-11.673-.768-13.168.187-4.423-.424-.217-.751-9.398 7.461-12.563zM201.211 89.965l6.663 8.797 3.72.116 5.135-8.423-1.775-1.08-3.399.688-.51.93-2.553-.075-.473-.992-5.076-1.755z"/><path fill="#C3927D" d="M183.335 97.884l4.74-.671-4.503 5.311zM186.719 93.768l-.222-2.927-2.669.439z"/><path fill="#FFF1E9" d="M208.492 90.918l-.618 7.844 3.72.116-.549-7.885z"/><path fill="#C3927D" d="M211.594 98.878l-2.076 1.878-1.644-1.994z"/><path fill="#4F5353" d="M207.559 73.268l-4.543-1.378-4.637.438-1.005.915-3.763-.464-6.457.61.944 3.508 3.872 3.941 3.864-.567 5.771-2.805 2.872 1.555 7.175 1.944z"/><path fill="#494749" d="M187.154 73.389l-4.804 7.616.306 8.682 3.522-2.815 1.815-.249.93 5.758 1.986.048 2.84-5.339-2.611-2.235.832-4.017z"/><path fill="#6F7273" d="M219.914 80.778l-3.698-5.832-13.2-3.056 8.636 9.075z"/><path fill="#4F5353" d="M191.97 80.838l-9.314 8.849 11.093-2.597z"/><path fill="#6F7273" d="M204.477 79.021l-6.098-6.693-4.769.451 2.224 7.492z"/><path fill="#494749" d="M201.211 89.965l-.426-1.297 1.477-1.898 5.683 2.024.074 1.132-5.021-1.215zM211.555 90.063l.056-1.064 5.254-.848-.136 2.304z"/><path fill="#2B2C2B" d="M204.116 92.251c-.068.694.459 1.303 1.179 1.363.719.059 1.358-.455 1.426-1.149.068-.693-.459-1.303-1.178-1.363-.72-.058-1.359.456-1.427 1.149zM212.424 92.765c-.068.693.459 1.303 1.178 1.363.719.059 1.358-.455 1.426-1.149.068-.693-.459-1.303-1.178-1.362-.719-.06-1.358.455-1.426 1.148z"/><path fill="#C3927D" d="M209.059 113.116l-17.379-.468 7.248 14.717z"/><path fill="#6F7273" d="M201.202 105.057l6.672-6.295 1.695 1.712 2.025-1.596 4.225 6.874z"/><path fill="#ECECEB" d="M160.672 51.096l.694 104.799 82.405-4.395-.493-95.964-82.606-4.44zm71.84 77.297l-60.795 1.379-.045-66.929 61.292 1.977-.452 63.573z"/><g fill="#C4C4C2"><path d="M181.483 137.021l-2.09 4.212-1.616-2.012-1.458 1.946-1.675-4.606-3.455 1.239 3.758 9.134 3.44-1.922 2.365 1.927 4.5-9.321zM187.703 137.289l-4.158 9.381 3.504.945 1.373-2.694 2.392.082 1.491 2.493 3.031-1.844-4.838-8.563-2.795.2zm.872 5.307l.436-1.854 1.475 1.81-1.911.044zM203.699 141.024l-4.334-4.409-2.657.265.355 9.621 3.203-.278-.313-4.773 3.718 4.354 2.862-.269.138-8.949-2.936-.002zM208.43 138.868l2.665.076-.002 5.941 2.732.006-.344-6.138 3.279.062.146-2.598-8.395.19zM221.204 141.059l2.226-.21-.269-1.815-2.229.051-.17-1.453 3.207-.141-.244-1.702-5.522.399.463 8.388 6.483-.215.05-1.777-3.848-.072zM230.817 135.97l-4.709-.508.365 8.801 4.695-.107 2.014-2.026.185-2.736-2.55-3.424zm-.199 5.672l-1.955.113.007-3.688 1.764.506 1.281 1.268-1.097 1.801z"/></g></g><g><path opacity=".1" fill="#2B2B2B" d="M850.5 64.5l7.5 26V219l-237.5-18-2-16L764 93.5z"/><path fill="#349496" d="M829.833 68.5L843 58l7.5 5.167-1.667 142.333L842 208z"/><path fill="#4EA9AA" d="M607.5 71v119L842 208l1-150z"/><path fill="#ECECEB" d="M620.5 84l-.75 94 206 13.5L826 76z"/><g><path opacity=".1" fill="#2B2B2B" d="M762 171.083v5.75l24.25 2 .5-31.666zM766 111.667l22.75-10.75.667 33.5-27.25-.167.75-20.75zM700.583 153.667l.25 7.833 27 1.5-1.583-31.75zM660.89 124.495l10.902-12.662 1.298 34.813-26.737-.779 3.634-18.257z"/><path fill="#DDDDDC" d="M646.411 112.756l-3.23 30.458 27.919 1.845.692-33.226z"/><path fill="#75CFE3" d="M649.468 116.275l-1.374 13.569 9.509 5.9 9.991-10.369.391-9.619z"/><path fill="#DDDDDC" d="M760.25 100.917l-.75 31.5 28 .25 1.25-31.75zM759.25 146.667l27.5.5-2.25 29.75-25.75-2.25zM698.75 130.75l27.5.5.083 29.333-28.083-1.833zM682.75 92.5l69.25-2-.25 6.75-69 1.25z"/><path fill="#94D5D4" d="M702 134.167l.167 22.166 20.333 1.5.167-22.916zM763.188 104.229l-.25 25.375 10.895-3.812 10.48 4.062 1.062-25.875z"/><path fill="#75CFE3" d="M762.125 149.729l-.375 22.375 10.375-2.646 9.188 4.146 1.875-23.5z"/><path fill="#5EC0D9" d="M657.156 122.563l-7.562 6 1.687.093-.093 1.407-3.094-.219-1.188 10.687 20.157 1.219.531-16.375z"/><path fill="#75CFE3" d="M655.531 126.406l-.25 3.438 3.969.062-.031-3.437z"/><path fill="#5EC0D9" d="M657 125.688l-.062 5.125.625-.032.093-5.187z"/><path fill="#5EC0D9" d="M654.781 127.813l5.688.156-.063.719-5.656-.313z"/><path fill="#72CBCC" d="M705.875 142.313l12.063.843 3 8.219-4.407.875-.906-3.437-3-.125-1-2.282-8.25-.656v-4.406l1.75.156z"/><path fill="#72CBCC" d="M715.469 144.031l1.031-1.718 1.563.218-.125.625z"/><path fill="#94D5D4" d="M713.188 146.531l.375 1.25 2.093.032-1.031-1.625z"/><path fill="#72CBCC" d="M776 109.708l-4.875.125-3.208 4.334 2.166 5.125 1.084.166v1.125l-6.584 2.917-1.645 6.104 21.375.25-1.313-6.937-6-2.25-.083-1.667 1.125-.208.916-5.292z"/><path fill="#5EC0D9" d="M774.542 155.167l-5.167-.167-1.792 2.958-.291 4.917-1.667 1 3.667 1.875.041.708-4.958 1-2.625 4.646 19.563 1.5-1.813-4.937-5.083-1.917v-.542l3.958-1.416-2.167-1.75-.125-5.5z"/><path fill="#DDDDDC" d="M711.833 102l-.166 8.833-33.354.042-.313 2.958 76 1.334-.187-4.229-38.313-.105-.333-9zM773.833 136.167V144l2 .167.334-8.167zM754 126.5l-13.5.333-.667 11.834H728.5l.083 4.25 14.917-.417 1.25-12.083 9.25-.334z"/></g></g><g><path opacity=".1" fill="#2B2B2B" d="M868.833 310.833L836.5 299.5l-95.667-2-73.907 11.16L447.5 266.5l-309 31.5 256 51.917L612 330.25l114.5 16.583z"/><path fill="#9B9FA0" d="M278.167 280.167l13 11 19-4 6.333-33 28.333 2 10.334 47.333 23-8.333-7.667-52-94.667-4.667z"/><path fill="#858686" d="M275.5 201.5l-7.333 7.333 2 79.334 21 3L297.833 266l31.834 3.667 4 29.5 22 3.833 3.833-27.5-27.667-31z"/><path fill="#858686" d="M297.833 127.833l-24.666-11-18.584 8.5 13.584 83.5 37.666-1.333z"/><path fill="#9B9FA0" d="M273.167 116.833l13.583 86.917 54.5-3.75 4.75-83.75-20.25 2z"/></g><g><path fill="#44999A" d="M362.75 149.836l12.259-12.65 15.884 5.975 17.774 17.006-.167 14-45.371-9.539z"/><path fill="#FEE5D6" d="M407.262 46.172l-23.13-3.633-14.458.747-9.299-7.575-15.341-5.733.897 9.333 5.363 5.763-7.519 8.237-2.611 10.186-.835 13.356 3.211 12.134-3.129-.771-3.294 1.502.217-6.069-1.441-10.163-8.699-1.257-6.361 1.325 2.872 16.392 3.12 9.024-1.668 5.072 1.426 7.765 1.315 3.794-1.507 2.968 7.566 9.775 13.093 11.898 5.872-2.76 3.96-4.5 3.623-9.694 31.129 4.629 7.702-35.391 3.726-6.011 1.879-12.338-1.485-4.257z"/><path fill="#F5CAB4" d="M357.354 36.632l-1.788 25.357-3.403 22.817-4.41 36.337 12.752 2.145-2.836 4.236-.787 5.458-9.832 7.26-21.017-21.649-1.02-15.231.241-12.837 11.863-.807-.491-6.419 1.185-5.268 3.597 3.097-.244-17.631 3.486-9.175 6.644-9.248-4.053-6.526-2.207-8.57 8.127 3.549z"/><path fill="#C3927D" d="M325.254 90.525l11.863-.807-12.104 13.644-1.302-7.947z"/><path fill="#C1907C" d="M360.505 123.288l-18.103-3.064 4.648 20.018 6.328-2.76 3.504-4.5z"/><path fill="#F5CAB4" d="M358.165 80.329l4.429-9.108 9.966 1.218.806 11.407-21.203.96 19.767 5.166 2.434 4.612 4.775-28.626-18.927 2.493-3.934 5.193zM390.274 84.925l3.262-8.12 9.304.402 1.881 2.127-4.395 10.544-16.964-.019-.59 3.254 16.564-.587 5.947-8.142.929-11.782-16.746-1.361-3.27 12.559z"/><path fill="#C3927D" d="M374.364 94.584l3.152 4.822 4.778-3.339z"/><path fill="#FFF1E9" d="M378.396 71.603l7.844 1.108-3.946 23.356-7.93-1.483z"/><path fill="#367F90" d="M378.396 71.603l-.696-3.165 1.439-2.48 7.956 1.265 1.271 3.151-2.126 2.337z"/><path fill="#3B96AA" d="M379.139 65.958l-23.573-3.969-2.138 8.312.119 5.626-1.383 8.879 23.286 3.52 2.947-16.723.742-5.645zm-18.927 2.493l12.652 2.109-1.96 11.796-12.739-2.027 2.047-11.878zM387.095 67.223l23.105 3.851-3.864 22.531-22.975-3.746 2.878-17.148.856-5.488zm5.027 6.662l-1.848 11.04 10.935 1.98 1.873-11.259-10.96-1.761z"/><path fill="#C3927D" d="M362.208 105.473l23.074 3.783-.285 1.83-23.093-3.733zM332.661 85.929L331.4 75.908l-5.262.368z"/><path fill="#D7D8D6" d="M407.262 46.172l-38.944-20.135-.576 9.921 1.932 7.328z"/><path fill="#C3C3C3" d="M345.034 29.978l-10.432.942-8.685 16.686 11.178.874 14.199-3.406z"/><path fill="#E2E4E2" d="M325.917 47.606l-15.145 28.337 16.422-3.714 14.017-5.81 10.083-21.345z"/><path fill="#A1A2A2" d="M341.425 67.98l1.495 14.853-6.294.466-.796-10.405-13.534 1.776 2.858 15.362-.141 13.33-13.711-27.619 7.652-2.493z"/><path fill="#C3C3C3" d="M369.674 43.286l-1.356-17.249-23.284 3.941z"/><path fill="#367F90" d="M355.566 61.989L318.954 73.25l.272 8.871 3.07-7.451 31.832-2.74z"/><path fill="#C1907B" d="M342.023 72.93l12.105-1-.161 1.193-.421 2.804-11.353-.314z"/><path fill="#787878" d="M335.893 73.486l6.13-.556.17 2.683-6.173-.029z"/><path fill="#2B2C2B" d="M370.497 78.344c-.467 1.249-1.871 1.806-3.02 1.377-1.249-.467-1.894-1.79-1.427-3.039.467-1.25 1.822-1.826 3.071-1.359 1.149.43 1.843 1.771 1.376 3.021zM399.791 83.539c-.467 1.249-1.771 1.844-3.02 1.377-1.15-.43-1.843-1.771-1.376-3.02.448-1.2 1.852-1.757 3.001-1.327 1.249.467 1.843 1.771 1.395 2.97z"/><g fill-rule="evenodd" clip-rule="evenodd"><path fill="#1E9193" d="M363.814 106.243c-6.348-5.209-8.665 9.698-8.798.881-.009-.664-.033-1.146-.848-1.765-2.196-1.665-8.107-1.69-9.956 1.528-1.66 2.886.904 11.772 7.024 11.448 5.791-.304 6.614-10.687 10.539-11.001.478-.038.54-.561 1.099-.381l.94-.71z"/><path fill="#6DCACB" d="M365.32 105.985c-2.535-2.079-5.11-1.399-6.88.38.621.366.887 1.436 1.09 2.412.827-.752 1.099-.906 1.836-1.163.453-.158 1.175-.188 1.778-.051l2.176-1.578z"/><path fill="#005658" d="M352.873 106.067c-1.607-.79-5.086-.863-6.551.473-1.292 1.178-1.46 1.913-.687 2.244 1.368.586 5.502.831 6.834.174 1.714-.846 1.823-2.193.404-2.891z"/></g><path fill="#E2E4E2" d="M326.033 118.593l-3.945 9.946 20.978 15.803 8.921 4.338 8.021-6.782 5.206-9.336-5.83-6.336-8.518 9.094z"/><path fill="#C3C3C3" d="M365.214 132.562l9.795 4.624-10.362 14.908-11.396 11.582-22.478-14.345-18.51-15.345 9.825-5.447 29.899 20.141z"/><path fill="#357C7E" d="M312.263 133.986l32.292 23.391 4.098 1.875 4.598 4.424 13.671 45.327-30.342-.758-4.584-13.555-26.308-10.236-2.958-45.82z"/><path fill="#357C7E" d="M353.251 163.676l2.644-4.958 4.915-4.259 14.199-17.273-2.777 56.551-12.137 9.956-7.388-3.941-4.625-18.652z"/><path fill="#5A5E5E" d="M350.866 135.32l-6.843 7.972 7.964 5.388 6.624-7.95z"/><path fill="#767779" d="M351.987 148.68l-7.432 8.697 8.696 6.299 7.559-9.217z"/><path fill="#44999A" d="M372.327 193.453l-22.093 13.274-44.546-22.273-1.441 32.609 65.773 9.125z"/></g><g><path fill="#3AA0BA" d="M600.785 266.806L590.5 308.5l-22.225-4.523-28.827-76.591 36.424 2.838z"/><path fill="#308FA6" d="M214.473 263.337l18.129 45.282 17.298-2.392 18.026-54.243-44.939-11.826z"/><path fill="#5EC0D9" d="M366.948 289.511l25.498 43.979 23.494-2.838 5.393-43.152L580.5 268.667l10 39.833 19.385-2.446 2.411-85.29-250.709 12.929z"/><path fill="#3AA0BA" d="M207.838 218.57l4.223 86.853 20.541 3.196 5.231-44.119 124.334 21.667 3.743 43.194 26.536 4.129.444-80.618z"/><path fill="#B3B3B3" d="M364.004 195.1l28.886 57.772 242.111-23.594-.473-20.814z"/><path fill="#9B9FA0" d="M354.375 203.525l-166.697-1.203v19.257l205.212 31.293.602-21.063z"/><path fill="#D0CECD" d="M187.678 202.322l263.786-18.455 183.064 24.597-241.036 23.345z"/><g><path opacity=".1" fill="#2B2B2B" d="M348.625 190l6.875.375 39.875-2.625-57.242 13.05-33.008-6.8L322 193z"/><path fill="#76CACD" d="M403.523 163.68l4.977 10.487L443.333 144l-48.666 9z"/><path fill="#308FA6" d="M395.002 131.977l-7.845 21.457 7.19 2.329 6.029-20.402z"/><path fill="#F5CAB4" d="M390.289 153.632l.604-10.471 12.843 4.778-.213 15.741h-2.94z"/><path fill="#FEE5D6" d="M368.222 173.257l10.153-15.706 12.518-14.39 9.69 20.519-15.171 8.821z"/><path fill="#44999A" d="M378.375 157.551l-33.077 13.784-22.046 8.577 14.881 20.888 47.279-28.299z"/><path fill="#76CACD" d="M302.73 138.634l37.927 34.527-2.524 27.639-44.032-21.76z"/><g fill="#FFF"><path d="M396.37 129.148c.203.187.408.371.624.543-.395-.338-.622-.541-.624-.543z"/><path opacity=".3" d="M398.116 130.431s2.339 1.112 4.257 1.152c1.918.039 3.978.148 6.543-1.396s6.849-6.113 7.945-12.477-1.93-12.613-7.103-15.313c-5.173-2.7-11.046 1.552-11.046 1.552-2.944 2.217-5.271 5.656-6.289 9.811-1.485 6.06.229 11.964 3.946 15.39l1.747 1.281z"/></g><path fill="#3AA0BA" d="M408.066 96.634c-9.163-2.11-18.758 5.024-21.431 15.934-2.673 10.911 2.588 21.467 11.751 23.577 9.163 2.11 18.758-5.024 21.431-15.935 2.673-10.91-2.588-21.466-11.751-23.576zm-11.696 32.514c.203.187.408.371.624.543-.395-.338-.622-.541-.624-.543zm20.491-11.439c-1.096 6.364-5.38 10.933-7.945 12.477-2.565 1.544-4.625 1.435-6.543 1.396-1.918-.039-4.257-1.152-4.257-1.152l-1.747-1.283c-3.718-3.425-5.431-9.329-3.946-15.39 1.018-4.155 3.345-7.594 6.289-9.811 0 0 5.872-4.252 11.046-1.552 5.174 2.702 8.199 8.951 7.103 15.315z"/><path fill="#308FA6" d="M408.885 101.519c-3.548-.817-7.179.174-10.173 2.428 2.619-1.639 5.648-2.3 8.617-1.616 6.649 1.531 10.466 9.19 8.527 17.107-1.94 7.917-8.902 13.093-15.55 11.562-1.463-.337-2.779-.985-3.936-1.852 1.424 1.312 3.131 2.271 5.08 2.72 7.038 1.621 14.408-3.859 16.462-12.239 2.053-8.381-1.989-16.489-9.027-18.11z"/><path opacity=".3" fill="#FFF" d="M408.208 105.292s3.458.792 5.292 5.25c1.833 4.458.625 6.625.625 6.625s-2.5-6.083-4.167-7.75c-1.667-1.667-2.792-2.042-2.792-2.042l1.042-2.083z"/></g><path fill="#ECECEB" d="M417.84 87.182l-16.309 68.839 44.85-2.75L462.5 91.069z"/><path fill="#FEE5D6" d="M447.571 128.338l7.804-9.682 1.678 13.475-8.463 12.919z"/><path fill="#F5CAB4" d="M438.445 124.569l16.93-5.913-6.785 26.394-9.292-4.694z"/></g><g><path opacity=".1" fill="#2B2B2B" d="M426.667 200.75l-14.084 3.333 25.334 6.75 15.555-7.041zM403.333 206.917l-16.916.5L410 217.833l18.667-6.5zM372.313 211.688l-9.938.937 9.792 9.875zM546.5 197.833c1.333 0 34 6.333 34 6.333l-61.667 9.333L431 195.833l60.167-4.667 55.333 6.667z"/><path fill="#ECECEB" d="M386.417 207.417l25.5 7.833 21.833-4.333-25.833-6.667zM383.75 208l15.917 11.333-27.5 3.167-7.417-12zM411.958 202.097l25.135 6.778 16.379-5.083-25.416-5.084z"/><path fill="#75CFE3" d="M386.719 212.188l7.062 5.843-20.156 2.563-2.937-4.375 6.558-6.057zM412.708 206.75l-11.094-.283.636 4.075 9.438 2.833 15.187-2.875zM435.333 201.208l-9.312-1.008 2.896 5.05 7.458 2 11.75-3.437z"/><path fill="#ECECEB" d="M535.437 194.677h27.23l-.335 8.485-43.579 4.938-21.478-15.344z"/><path fill="#4EA9AA" d="M466.976 196.112l-10.401-6.921 59.302-1.418 46.79 6.904-43.722 4.41z"/><path fill="#DDDDDC" d="M456.575 189.191l62.37 9.896-.192 9.013-62.754-11.047z"/><path fill="#ECECEB" d="M535.437 184.322h27.23l-.335 8.485-43.579 4.938-21.478-15.345z"/><path fill="#4EA9AA" d="M466.976 185.756l-10.401-6.92 59.302-1.418 46.79 6.904-43.722 4.41z"/><path fill="#DDDDDC" d="M456.575 178.836l62.37 9.896-.192 9.013-62.754-11.047z"/><g><path fill="#ECECEB" d="M535.437 173.966h27.23l-.335 8.486-43.579 4.938-21.478-15.345z"/><path fill="#4EA9AA" d="M466.976 175.401l-10.401-6.92 47.028-3.051 59.064 8.536-43.722 4.411z"/><path fill="#DDDDDC" d="M456.575 168.481l62.37 9.896-.192 9.013-62.754-11.047z"/></g><path fill="#5EC0D9" d="M386.719 212.188l-2.688 2.937-4.75-.719-2.375 2-6.218-.187-3.157-4.719 15.657-2.156zM412.583 208.667l.792.291 1.75.167 1.167 1.25-3.125 1.625-1.709-.792.084-1.5-1.375-.416-3.5 1.541-4.417-.291-9.187-2.792 15-2.25 4.645 1.25-.166.958-.542.459zM435.458 201.208l-1.041.709-1.25-.292-.584.375 4.209 1.708-1.542 1.459-2.833-1.042-.834 1.208-2.041-1.041-.625.958-11.573-3.094 10.812-2.437z"/></g><g><path opacity=".1" fill="#2B2B2B" d="M117.833 293.167l59 15.166-85 17.834-83.333-29-1.667-62.334 43.334-20.666z"/><path fill="#72CBCC" d="M112 242.5l47.5-31.667-46.667-14.666L33 202.5 95 251z"/><path fill="#4EA9AA" d="M57.5 272.5L94 317.25l64.5-10.417 1-96L94 216z"/><path fill="#349496" d="M31 301l63 16.25V216l-61-13.5z"/><path fill="#72CBCC" d="M105.5 238.833l-.333 67.667 44-6.5.166-65.5zM105.167 231.333L105 224l44-4.5v7.333z"/><path fill="#4EA9AA" d="M111.25 270.5l19.5-2.25-.125 3.5-19.125 2.625z"/><ellipse fill="#4EA9AA" cx="140.688" cy="266.75" rx="5.375" ry="8.063"/><ellipse fill="#72CBCC" cx="140.688" cy="266.75" rx="3.938" ry="6.438"/><path fill="#4EA9AA" d="M143.906 266.75c0 3.003-1.441 5.438-3.219 5.438s-3.219-2.435-3.219-5.438 1.441-5.438 3.219-5.438 3.219 2.435 3.219 5.438z"/><path fill="#4EA9AA" d="M140.438 259.542h.646v14.104h-.646z"/><path fill="#4EA9AA" d="M144.660402 262.2250686l.456722.4568512-8.2721184 8.269779-.456722-.4568512z"/><path fill="#4EA9AA" d="M145.5622 266.2704v.646h-9.604v-.646z"/><path fill="#4EA9AA" d="M144.980431 270.3559506l-.4567866.4567866-7.9789164-7.9789164.4567866-.4567866z"/></g><g><path fill="#3AA0BA" d="M110.184 140.963l-2.905 2.005-1.954 7.824 1.3 3.208 3.537-10.454zM93.3 148.281v3.258L97.667 168l.357-8.792-1.466-9.233z"/><path fill="#349496" d="M110.845 156.041l-5.52-5.249-2.746 11.071 7.089 6.576 4.344-9.774z"/><path fill="#4EA9AA" d="M105.325 150.792l20.814 13.424-13.756-.483z"/><path fill="#349496" d="M88.25 164.91l9.774-5.702 5.43 14.661-5.43 2.986-4.32-3.384z"/><path fill="#4EA9AA" d="M110.483 169.223l-7.904-7.36-4.472 12.3 4.955 1.878 2.414-2.424z"/><path fill="#8F8F8F" d="M93.85 181.464l4.257-7.301 7.369-.546 5.231 12.207-12.352 8.428-4.941-6.249z"/><path fill="#858686" d="M91.815 190.91l-5.086-5.522 6.975-11.917 4.403.692-1.351 11.854z"/><path opacity=".1" fill="#2B2B2B" d="M101.5 200.625l26.833 6.708-31.916 3-31.042-6.958z"/><path fill="#858686" d="M92.397 199.968l5.328 6.782 9.494-.775 3.488-20.151-13.951.193z"/><path fill="#737475" d="M90.362 205.006l-3.633-19.618 10.027.629.969 20.733z"/><path fill="#72CBCC" d="M116.637 176.282l-3.077-17.255-10.981 2.836z"/><path fill="#4EA9AA" d="M82.277 180.204l3.168-25.43 12.579 4.434z"/><path fill="#308FA6" d="M87.435 139.288l-3.91-14.858 8.993-.391 5.083 11.86-4.301 12.382z"/><path fill="#5EC0D9" d="M90.954 147.629l2.476-1.955-.912-21.635 8.732 8.211-1.825 9.123-3.91 6.647z"/><path fill="#3AA0BA" d="M92.387 148.281l-6.516-3.128-7.69-4.431 5.344-16.292 9.905 21.635z"/><path fill="#75CFE3" d="M93.43 145.674l-7.559-.521 7.429 6.386 3.258-1.564 2.867-8.602z"/><path fill="#5EC0D9" d="M93.43 145.674l-7.559-.521 7.429 6.386 3.258-1.564z"/><path fill="#308FA6" d="M109.464 132.135l1.031-10.565 9.737 3.142-2.502 10.196-8.856 5.942z"/><path fill="#5EC0D9" d="M107.668 139.279l2.567-.059 9.997-14.508 1.518 13.538-5.514 1.109-5.794 2.407z"/><path fill="#3AA0BA" d="M108.281 140.404l-2.704-5.223-2.829-6.644 7.747-6.967-.452 17.904z"/><path fill="#75CFE3" d="M110.235 139.22l-4.658-4.039 1.702 7.787 2.883.578 6.074-4.187z"/><path fill="#5EC0D9" d="M110.235 139.22l-4.658-4.039 1.702 7.787z"/></g><g><path fill="#858686" d="M863.833 290.5l-58.583-1 31.25 10z"/><path fill="#9B9FA0" d="M791.75 280.25l23.5 19.25h21.25l-34-23.5zM716.75 265l-9.25-30.5 61.75 15.625-1.5 20.25z"/><path fill="#858686" d="M728.875 258.875l26.292 3.458 14.083-12.208 11.25 5.5-3.75 20.75-54.375 7.25z"/><path fill="#4F5353" d="M785.875 283.75l6.375 20-16.25-2.5-24.875 7-10.625-21.625 4.875-13.875 18.125-4.083z"/><path fill="#9B9FA0" d="M777.125 308.875L767 312.5l6.25 8 12.875-2.25 1.75-6.125z"/><path fill="#737475" d="M784.917 299.5L776 301.25l-9 11.25 20.875-.375-.375-3.042z"/><path fill="#858686" d="M671.25 298.125L660.375 288 644 310.667l17.583 7.75 8.584-8.917z"/><path fill="#4F5353" d="M646.667 312.917l14.916-5.5v11l-20.166-.334z"/><path fill="#349496" d="M680.667 267.5l-12.042-5.375-8.25 25.875 9.792 21.5 22.167 13s12.667-16.833 12-17.5c-.667-.667-23.667-37.5-23.667-37.5z"/><path fill="#6F7273" d="M691.667 322l-8.167 11.5-15.667-3.333-6.25-11.75 8.584-8.917z"/><path fill="#858686" d="M689.5 293.833l.667 15.5-20 .167 13.333 24 18.375-12 2.625-20.333z"/><path fill="#4EA9AA" d="M707.375 295.625c-.625 0-27.708-3.875-27.708-3.875l-11.042-29.625 14.125-16.375 36.75 19.5-12.125 30.375z"/><path fill="#94D5D4" d="M725.875 256.25L707.5 234.5l-24.75 11.25L708 267l25.375 7.75z"/><path fill="#72CBCC" d="M741.75 284.25l3.625-11.5 9.792-10.417L707.5 234.5l21.875 33.625z"/><path fill="#858686" d="M743.417 313.083l-24.25 7.417-17.292 1-11.708-12.167-10.5-17.583 44.208 1.375z"/><path fill="#4F5353" d="M717.167 299l-15.292 22.5-11.708-12.167-10.5-17.583 44.208 1.375z"/><path fill="#6F7273" d="M734.75 300.75L717.167 299l-27.417-5.875-.375-2 19.75-15.875z"/><path fill="#858686" d="M737.125 279l-7.75-10.875L708 267l-12 11.688 4.875 4.437 6.542-2.958 21.208 17.208 15.125 6z"/><path fill="#9B9FA0" d="M752.25 293.5l3.917-3.667-10.792-17.083-16-4.625 8.875 30.063 10.75 7.187z"/><path fill="#737475" d="M752.083 313l4.084-23.167-3.5 2.834-7.792 5.458-3.542 1.875-3.083-1.812-10.583-3.355-10.5 4.167 16.25 8z"/><path fill="#8F8F8F" d="M739.833 323.583l-5 4.417-15.666-7.5 6.25-5.75 12.666 1.833z"/><path fill="#A3A1A1" d="M738 306.917l-4.583.083-8 7.75 6.75 3.167 15.5.416.666-6.333z"/><path fill="#9B9FA0" d="M751.583 316.75l6.417 1 2.083 5.917-6.5 4.666-18.75-.333-2.666-10.083 12.083-3z"/><path fill="#9B9FA0" d="M750.083 310.083l-1 5.917-4.833-1.083L733.417 307l4.833-8.812z"/><path fill="#D0CECD" d="M755.438 313.813l1.229-1.813-11.792-13.875-6.625.063 8.563 14.562z"/><path fill="#4F5353" d="M746.813 312.75l-2.563 2.167 1.667 4.583 8.583 1.167 3.5-2.917-1.333-5.75z"/><path fill="#494749" d="M751.977 320.323l.398-2.51L748.75 316l-2.833 3.5zM756.563 315.458l-1.334 2.105.495 2.108L758 317.75z"/><path fill="#2B2B2B" d="M731.167 297.208c0 1.68-1.362 3.042-3.042 3.042-1.68 0-3.042-1.362-3.042-3.042 0-1.68 1.362-3.042 3.042-3.042 1.68.001 3.042 1.363 3.042 3.042zM754.188 296.313c0 1.68-1.362 3.042-3.042 3.042-1.68 0-3.042-1.362-3.042-3.042s1.362-3.042 3.042-3.042c1.68 0 3.042 1.362 3.042 3.042z"/><path fill="#9B9FA0" d="M696 278.688l-16.333 13.062 14.458 10.125 13.292-21.708z"/><path fill="#6F7273" d="M639 303.417l22.583 4-13.416 14.75-15.667-5.584z"/><path fill="#9B9FA0" d="M780.5 255.625l-17 13.042L795 301l7.5-25-7.833-14.833z"/><path fill="#858686" d="M787.5 309.083L776 301.25 802.5 276l12.75 23.5z"/><path fill="#349496" d="M755.167 262.333l-2.5 22.084-7.292-11.667z"/></g></svg>