<svg xmlns="http://www.w3.org/2000/svg" viewBox="0 0 900 350"><path opacity=".1" fill="#2B2B2B" d="M185.429 314.337l-70.198-11.354-65.011 16.679 69.915 11.854z"/><path opacity=".1" fill="#2B2C2B" d="M393.169 318.893l-71.002-14.435-78.5 13 83 14.5zM331.5 291.5l380.667 51.333 188.666-35-50.333-6-15.5-18.416-253.5-22.25-78.5 11.75L402.167 246.5l7.333 35.667z"/><path fill="#D0CECD" d="M299.598 48.514L334.5 58.542l132.688-19.297 431.145-5.828-4.765 241.668-562.472-46.497z"/><path fill="#8F8F8F" d="M299.598 48.514L334.5 36.417 899.5 0l-1.167 33.417L334.5 58.542z"/><path fill="#DDDDDC" d="M6.5 272.5l325-31 3-182.958L56.386 16.333 1.083 32.583z"/><path fill="#A3A1A1" d="M1.083 32.583L334.5 58.542V36.417L.333.333z"/><path opacity=".1" fill="#2B2C2B" d="M475.5 123.167l10.333-28.25 3.917 77.5-63.5-2 .5-33.5z"/><path fill="#ECECEB" d="M420.875 99.542l.375 65.375 64.583 3-.083-68-42.5-5z"/><path fill="#5EC0D9" d="M420.833 94.917l.042 4.625 64.875.375v-6z"/><path fill="#DDDDDC" d="M426.625 111.125h53.25L480 159.25l-52.75-1.375z"/><path fill="#ECECEB" d="M437.208 109.25l.296 50.875 4.734.375-1.183-51.5zM450.818 109.625l.296 50.875 4.734.375-1.183-51.5zM464.428 110l.296 50.875 4.734.375-1.183-51.5z"/><path fill="#ECECEB" d="M425.167 122.958l56.875.5-.125-2.875h-57.5zM425.167 135.792l56.875.5-.125-2.875h-57.5zM425.167 148.458l56.875.5-.125-2.875h-57.5z"/><path fill="#DDDDDC" d="M439.417 104.333h24.833l-.167 3.167-24.5-.167z"/><g><path fill-rule="evenodd" clip-rule="evenodd" fill="#6F7273" d="M599.642 173.796l7.441-7.441 10.276 7.087-6.732 49.254-17.009-1.417z"/><path fill-rule="evenodd" clip-rule="evenodd" fill="#858686" d="M573.42 181.592l14.584-17.21 19.079 1.973-8.15 49.254-23.741-3.898z"/><path fill-rule="evenodd" clip-rule="evenodd" fill="#4EA9AA" d="M519.028 192.931l-8.43 3.241.325 7.301 17.54-2.569-2.126-9.834z"/><g fill-rule="evenodd" clip-rule="evenodd"><path fill="#494749" d="M580.153 140.443l.266 15.326 22.058-3.278z"/><path fill="#6F7273" d="M586.974 123.435l10.365 4.385-16.92 27.949-7.309-18.515zM529.846 81.054l-8.692-6.297-9.921 20.552 5.673 16.188 20.117-16.664z"/><path fill="#4F5353" d="M573.11 94.073l-17.053-24.986-34.903 5.67 6.822 17.172z"/><path fill="#6F7273" d="M580.891 100.689l-6.585-18.137-18.249-13.465-28.081 22.842 14.094 14.021z"/><path fill="#1F7678" d="M588.004 164.382l6.057 28.195-11.594 18.907-6.844-21.69-.043-9.534z"/><path fill="#FEE5D6" d="M548.52 154.645l-7.556 2.56-2.296 9.363 10.668 18.557 23.841-18.115-.807-9.689-7.871-4.031z"/><path fill="#D0CECD" d="M538.812 170.039l-2.226 10.999-2.296 9.364 10.668 18.556 21.73 2.399 4.171-28.735.831-10.447z"/><path fill="#DDDDDC" d="M538.812 170.039l-2.226 10.999 7.427 4.091 11.973 1.109 10.702 25.119 4.171-28.735.831-10.447z"/><path fill="#4EA9AA" d="M578.027 191.912l9.977-27.53-15.634-7.061-4.916 11.864-9.72 16.784 5.933 6.393z"/><path fill="#1F7678" d="M534.147 159.136l-4.415 1.22-19.134 35.816 19.178-.154 2.169-5.892z"/><path fill="#349496" d="M577.097 211.445l.93-19.533-10.826-4.479-9.823 2.377-2.311 13.613-.702 13.036z"/><path fill="#4EA9AA" d="M567.201 187.433l-1.737-7.087-9.478 5.892-.919 17.185z"/><path fill="#72CBCC" d="M572.37 157.321l-5.169 30.112-11.215-1.195z"/><path fill="#349496" d="M530.227 213.063l12.815 2.26.627-12.513-2.493-24.481-13.393 4.242z"/><path fill="#4EA9AA" d="M541.993 156.856l-12.261 3.5-1.949 22.215 7 1.155z"/><path fill="#4EA9AA" d="M538.834 179.021l-5.08 4.489 9.915 19.3.344-17.681z"/><path fill="#72CBCC" d="M541.993 156.856l-8.239 26.654 10.259 1.619z"/><path fill="#4F5353" d="M574.306 82.552l19.666 6.555-9.076 18.135-21.579-8.166-22.557 1.171-4.565-1.368z"/><path fill="#FEE5D6" d="M527.976 91.929l-11.07 19.568 7.778 42.539 17.871-2.427 12.794 5.179 9.285-7.51 6.841-10.345-8.158-39.857z"/><path fill="#C3927D" d="M542.555 151.609l11.332 17.606 15.652-20.729-4.905.792z"/><path fill="#F5CBB3" d="M553.887 169.215l16.015-13.222 4.791-15.079 5.017-8.222 2.745-16.939-10.873-12.009-8.265-4.668 1.317 50.202 3.421-.392z"/><path fill="#4F5353" d="M573.076 118.591l4.886-.254 4.493-2.584-10.873-12.009-8.265-4.668 3.613 19.223z"/><path fill="#C3927D" d="M569.487 126.181l7.738 8.021 1.401-7.337-3.091-2.828z"/><path fill="#6F7273" d="M563.317 99.076l30.655-9.969-5.448 34.859-2.546-2.491-6.303-8.793z"/><path fill="#494749" d="M574.693 140.914l13.831-16.948-8.849-11.284-1.049 14.183z"/><path fill="#F5CBB3" d="M530.309 112.494l-7.315 3.65 6.926 3.915 6.544 9.477 4.266-2.64 3.403 1.662 5.893-11.31 6.729-5.536-8.124-1.301-4.901.936-1.681 4.645-2.843 1.597-3.236-1.05-1.64-3.654z"/><path fill="#C3927D" d="M540.265 128.26l-3.801 1.276 4.128 3.279 3.541-4.257z"/><path fill="#2B2C2B" d="M530.604 119.112c.21 1.28-.658 2.487-1.938 2.697-1.28.209-2.487-.658-2.697-1.938-.209-1.28.658-2.487 1.938-2.697 1.28-.209 2.487.658 2.697 1.938zM552.201 116.762c.209 1.28-.658 2.487-1.938 2.697-1.28.209-2.487-.658-2.696-1.938-.21-1.28.658-2.487 1.938-2.697 1.279-.209 2.486.659 2.696 1.938z"/><path fill="#FFF1E9" d="M535.97 116.539l.494 12.997 7.669-.978-2.084-12.566z"/><path fill="#4F5353" d="M545.77 110.147l11.499 3.46-13.011-.702zM532.153 110.301l-9.159 5.843 11.336-3.259z"/><path fill="#F5CBB3" d="M569.977 112.375l9.698.307-1.049 14.183-9.139-.684z"/><path fill="#C3927D" d="M576.77 116.205l-3.752.195.152 5.726z"/><path fill="#72CBCC" d="M541.635 137.684l-8.672 3.929 8.961 1.571 10.436-3.535z"/><path fill="#349496" d="M532.963 141.613l7.98-6.202 11.417 4.238-10.826-.208z"/></g><path fill="#6F7273" d="M393.059 260.345l11.698 32.807 11.688-2.067 8.505-29.677zM502.551 269.115l14.529 35.08 15.591-2.126 2.162-16.569 57.667-4.667-5.614-51.759-91.422 5.315z"/><path fill="#858686" d="M388.098 230.137l2.834 61.656 13.825 1.359 3.076-14.319 90 7.667 5.516 16.366 13.731 1.329 2.037-56.961z"/><path fill="#DDDDDC" d="M540.732 230.58l94.256-20.552-145.193-10.719-116.58 13.111 146.256 27.373z"/><path fill="#9B9FA0" d="M512.739 231.643l6.378-10.63 115.871-10.985-.709 24.096-115.162 13.11z"/><path fill="#B3B3B3" d="M519.117 247.234v-26.221l-145.902-8.593.798 25.247z"/><g fill-rule="evenodd" clip-rule="evenodd"><path opacity=".1" fill="#2B2B2B" d="M414.29 212.153l58.935 2.4 42.969-6.12-48.968-3.028z"/><path fill="#75CFE3" d="M482.185 207.392l17.658-5.286-34.866-.562 12.709 8.322z"/><path fill="#3AA0BA" d="M461.603 199.069l11.361 13.528 28.081-3.721-1.202-6.77-25.981 2.924z"/><path fill="#308FA6" d="M439.109 195.583l-8.323 8.997.9 6.074 41.278 1.943-.564-6.892z"/><path fill="#5EC0D9" d="M464.077 171.964l7.648-1.575 5.586 34.266-4.911 1.05-18.895-30.367z"/><path fill="#75CFE3" d="M438.884 187.71l-16.196-14.621 4.499-3.375 44.538.675-4.724 3.599z"/><path fill="#3AA0BA" d="M422.688 173.089l8.098 31.491 41.614 1.125-5.399-31.717z"/></g><path opacity=".1" fill="#2B2B2B" d="M519.383 202.232l-5.847-1.196-2.746-.221 10.364 6.644 29.411 5.492 27.373-.974 20.021-4.651-48.709-3.631-14.807-1.02z"/><g><path fill="#FEE5D6" d="M527.799 201.081l8.061-4.385-7.309-3.544-15.015 7.884z"/><path fill="#F5CBB3" d="M513.536 201.036l7.618 6.423h12.225l2.481-10.763z"/><path fill-rule="evenodd" clip-rule="evenodd" fill="#F5CBB3" d="M563.587 203.295l-4.606-4.916-9.769 5.303.999 7.143 10.01.532z"/><path fill-rule="evenodd" clip-rule="evenodd" fill="#FEE5D6" d="M571.56 200.904l-3.632-1.683-8.947-.842 1.24 12.978 11.693-2.171z"/><path fill-rule="evenodd" clip-rule="evenodd" fill="#4EA9AA" d="M567.928 199.221l26.133-6.644 3.898 14.749-26.045 1.86z"/></g></g><g><path fill-rule="evenodd" clip-rule="evenodd" fill="#6F7273" d="M826.069 185.135l18.072-14.174 12.047 10.631-10.985 66.617-22.323-.355z"/><path fill-rule="evenodd" clip-rule="evenodd" fill="#858686" d="M797.367 176.277l15.68-9.036 31.094 3.72-12.048 71.224-37.207-.709z"/><path fill-rule="evenodd" clip-rule="evenodd" fill="#747474" d="M758.522 83.704l-1.905-13.377-42.388 15.281-2.437 22.525 44.604-6.889z"/><path fill-rule="evenodd" clip-rule="evenodd" fill="#858686" d="M737.837 113.557l-8.194-19.577 26.974-23.653 31.714 14.396-12.801 28.037z"/><g fill-rule="evenodd" clip-rule="evenodd"><path fill="#1F7678" d="M799.617 183.937l13.43-16.696 11.073 31.98-26.934 26.708 5.61-20.718zM754.757 208.256l-12.756-40.484-26.311 18.692 5.581 20.995z"/><path fill="#349496" d="M781.271 159.839l18.399 3.77 13.377 3.632-7.885 62.187-61.656-1.417-1.505-60.239 9.035-4.163z"/><path fill="#ECECEB" d="M781.271 159.839l11.224-2.874 7.574 6.777-15.281 25.911-13.497-10.197-13.914 8.743-8.866-23.261 5.316-7.309z"/><path fill="#FEE5D6" d="M729.643 93.98l-17.851 14.153 9.302 54.191 28.038.133 18.547-2.681-3.787-44.983-2.004-17.447-8.238-.266z"/><path fill="#F6CBB4" d="M757.572 163.662l8.496 3.669.987-6.897-7.293-61.228 13.537 11.796.314 2.315.486 5.84 1.696 3.481 1.906-8.372 1.24-3.012 9.523 5.935-3.332 4.803 1.183 3.578-.659 3.922-.597 6.621 1.327-.584 4.543 7.98 1.566 13.456-21.204 22.491z"/><path fill="#F6CBB4" d="M778.075 126.546l-.006 7.227 12.568.595-.713-14.344-10.787-4.219z"/><path fill="#747474" d="M788.331 84.723l10.94 24.316-14.86 1.48-14.196.292L753.65 97.08z"/><path fill="#858686" d="M770.215 110.811l1.462 12.668 6.378.532.974-7.237 10.895 3.25.713 14.344 8.634-25.329z"/><path fill="#C3937D" d="M786.244 121.781l-3.706-.718-.082 6.235zM790.637 134.368l-8.392-.546 8.684 9.687zM778.76 157.677l-11.867 1.221-45.799 3.426 28.835 1.462 21.362 15.67zM730.927 146.689l16.034.177.443 1.86h-16.477z"/><path fill="#F6CBB4" d="M722.6 117.898l5.581-.62 2.923 6.998 3.012 2.924 3.278-3.544 1.152-7.175 2.48-1.24 12.756 1.505-14.173 20.641-4.961-5.138-2.481 5.67-14.085-17.363z"/><path fill="#C3937D" d="M735.711 133.401l-3.544 4.518 4.43 3.543 3.012-4.075z"/><path fill="#FFF1E9" d="M731.104 124.276l1.063 13.643 7.442-.532-2.215-13.731z"/><circle fill="#2B2B2B" cx="724.638" cy="127.022" r="2.746"/><path fill="#2B2B2B" d="M749.264 124.985c0 1.517-1.23 2.746-2.746 2.746s-2.746-1.23-2.746-2.746c0-1.517 1.229-2.746 2.746-2.746s2.746 1.229 2.746 2.746z"/><path fill="#747474" d="M738.546 110.811l15.768 3.544-.532 2.391-15.236-.265zM725.612 112.229l-8.239 6.555.709 1.772 10.099-3.278z"/></g><path fill="#6F7273" d="M591.973 261.875l6.996 52.474 15.116-2.225 19.608-69.64-24.775 1.396z"/><path fill="#4F5353" d="M854.73 260.168L842.25 310.5l-11.75-.25-12.127-55.666 30.566-5.817z"/><path fill="#858686" d="M751.022 273.043l-17.26 50.553-15.98-1.396-4.615-17.033-113-10-1.198 19.182-13.185-1.203-1.64-73.919 170.524 6.36z"/><path fill="#6F7273" d="M859.243 238.148L855.75 308l-13.5 2.5-1.75-17.333L756 305l-4.19 16.565-18.048 2.031-.385-68.575z"/><path fill="#B3B3B3" d="M752.756 217.395l-19.526 42.153-163.707-7.796-.768-27.783z"/><path fill="#9B9FA0" d="M759.306 221.54l113.381-.593-1.262 33.286-138.195 5.315-.53-24.096z"/><path fill="#DDDDDC" d="M872.687 220.947l-179.418-9.077-124.514 12.099L732.7 235.452z"/><path fill-rule="evenodd" clip-rule="evenodd" fill="#ECECEB" d="M677.332 153.067l46.774-4.607 8.327 61.391-45.179-1.595z"/><path fill-rule="evenodd" clip-rule="evenodd" fill="#FEE5D6" d="M686.368 174.593l-6.29-5.049-3.986 9.124 8.571 14.971z"/><path fill-rule="evenodd" clip-rule="evenodd" fill="#F6CBB4" d="M691.772 173.176l-11.694-3.632 4.585 24.095 7.197-8.327z"/><path opacity=".1" fill-rule="evenodd" clip-rule="evenodd" fill="#2B2B2B" d="M793.558 216.761l-30.563 6.112-48.102-9.833 43.584 1.86z"/><g fill-rule="evenodd" clip-rule="evenodd"><path fill="#F6CBB4" d="M778.675 217.558l-11.162-7.176-15.68 7.707 7.043 11.295 16.61-1.727z"/><path fill="#FEE5D6" d="M791.697 214.9l-6.201-2.923-17.983-1.595 7.973 17.275 15.591-3.189z"/><path fill="#F6CBB4" d="M785.496 211.977l38.624-12.756 7.508 19.732-40.551 5.515z"/></g></g><g><path fill="#94D5D4" d="M308.333 269.625l-2.416-2.417 15.166-1.666 2.417 4.666z"/><path fill="#349496" d="M308.667 279.625l-31.5-1.667.5 36 13.5 3z"/><path fill="#94D5D4" d="M311.5 291.625l-21-10.5-13.333-3.167 50.666-4.5 7.667 19.167z"/><path fill="#4EA9AA" d="M290.5 281.125l46.5-1 1.333 34.833-47.166 2zM308.25 271.208l2.75-2.75 11.917-.583 1.916 4-8.25-.083-2 6.583-4.75.5z"/><path fill="#349496" d="M304.333 277.125l1.584-9.917 5.083 1.25-1.167 10.417z"/></g><g><path fill="#F5CAB4" d="M200.532 169.23l-1.063-11.516 20.198-5.67 1.063 22.678-13.288 3.189z"/><path fill="#E2E4E2" d="M181.221 179.506l6.909-16.832 11.339-4.96 7.973 20.197-8.15 4.43z"/><path fill="#4EA9AA" d="M132.256 158.058l12.047-7.441 36.675 26.576-11.339 24.272-37.206-8.327z"/><path fill="#4F5353" d="M107.039 61.43l-21.793.531-7.028 12.383-.645 23.419 36.522 16.711zM117.137 62.67l-4.96-17.895 42.876 8.328 14.675 28.948-34.165 2.234z"/><path fill="#6F7273" d="M143.536 79.678l-.708-9.744-30.651-25.159-26.931 17.186 23.119 17.673z"/><path fill="#207678" d="M135.732 301.706l18.496 4.863v4.874H103.42l3.408-17.21z"/><path fill="#349496" d="M127.576 289.477l7.022 4.529 19.63 12.563-41.331-1.013z"/><path fill="#207678" d="M101.135 313.708l19.241 5.661-.799 5.662H86.464v-5.662z"/><path fill="#349496" d="M100.04 298.762l12.857 6.794 7.479 13.813H86.464l1.024-11.322z"/><path fill="#484749" d="M135.513 265.021l8.906 6.114-9.821 22.871-21.701 11.55-10.749-25.546 4.023-13.857z"/><path fill="#4F5253" d="M107.923 270.908l9.948 11.776-4.974 22.872-25.409 2.491-6.281-19.581zM131.134 248.935l26.268-7.971-12.983 30.171-26.548 11.549-5.212-26.727z"/><path fill="#6F7173" d="M109.237 252.565l12.567 12.456-3.933 17.663-36.664 5.782-10.391-28.43z"/><path fill="#484749" d="M94.347 230.599l63.055 10.365-35.598 24.057-50.988-4.985-2.165-19.327z"/><path fill="#C4C4C3" d="M149.48 186.535l3.784 46.948-55.399 6.382-10.377-71.485 35.977-15.176z"/><path fill="#D0CECD" d="M149.48 186.535l3.784 46.948-28.409 4.915-5.278-75.686 3.888-9.508z"/><path fill="#ECECEB" d="M119.676 168.556l20.371 7.824-7.255-30.876-18.456-2.343-28.687 3.377-.379 29.842 8.11 6.446z"/><path fill="#349496" d="M94.872 170.726l27.285 30.562 8.681 38.004-6.998 6.467-55.189-5.05-2.013-35.503-4.844-49.401 23.511-8.909z"/><path fill="#1F7678" d="M136.552 149.022l7.751 1.595 13.099 90.347-33.562 4.795-1.683-44.471z"/><path fill="#94D5D4" d="M122.157 201.288l12.07-55.455 10.785 17.895-7.441 8.238 2.657 15.946zM122.157 201.288l-36.508-54.75-10.797 20.29 18.249 5.67-.709 17.717z"/><path fill="#F5CAB4" d="M83.788 114.198l-2.436 4.25 4.297 28.09 34.027 22.018-11.311-88.922-11.302 7.582-1.127 12.376-9.161 2.01z"/><path fill="#C3927D" d="M85.602 110.121l2.892 1.607-6.788 8.581-1.102-5.835zM113.932 137.717l-7.445 9.706-6.574.375 19.763 20.758 27.379-27.298z"/><path fill="#FEE5D6" d="M169.728 82.051l-6.282 64.806-56.959.566 1.878-67.789 34.463-9.7z"/><path fill="#F5CAB4" d="M92.037 111.816l-11.433 2.658-3.031-16.711 12.032-2.264z"/><path fill="#C3927D" d="M81.089 100.362l4.835-.44 1.421 7.185z"/><path fill="#F5CAB4" d="M141.714 115.858l-4.564.636-10.627-15.327-8.185-5.47 7.313-2.717 8.602 4.23 3.254 4.554 3.945 3.719 3.638-3.3 2.997-3.922 8.474-3.359 3.654 4.073-8.268 5.997-7.264 12.196z"/><path fill="#C3927D" d="M140.863 111.051l3.83 6.119-3.774 3.098-3.759-3.772z"/><path fill="#FFF1E9" d="M145.1 102.185l-.407 14.985-7.533-.674.357-14.73z"/><path fill="#2B2C2B" d="M132.413 100.794c-.322 1.652-1.922 2.731-3.575 2.409-1.652-.322-2.731-1.922-2.409-3.575.322-1.653 1.922-2.731 3.575-2.409 1.652.322 2.731 1.922 2.409 3.575zM158.292 102.485c-.322 1.652-1.922 2.731-3.575 2.409-1.652-.322-2.731-1.922-2.409-3.575.322-1.652 1.922-2.731 3.575-2.41 1.652.323 2.731 1.924 2.409 3.576z"/><path fill="#4F5353" d="M134.773 92.444l-8.45-3.429-9.188 4.091 1.4 2.651 7.497-1.513 8.221 2.966zM147.704 93.469l8.634-1.754 5.729 4.848-1.852 2.412-4.151-2.984-7.977 2.27z"/><path fill="#C3927D" d="M123.84 124.307l31.005 1.063-8.858 11.693-12.225-.088z"/><path fill="#FFF" d="M130.307 127.407l19.489.532-3.366 4.252-12.845-.354z"/><path fill="#207678" d="M188.13 162.674l-23.387 8.328L169.875 200l29.417-17.659z"/><path fill="#1F7678" d="M103.731 194.556l-41.937-38.751-2.711 55.051 33.309 14.882 13.465-10.63z"/><path fill="#F5CBB3" d="M153.871 219.183l-4.961-10.719 6.744-1.971 5.569 12.07z"/><g><path fill="#29788C" d="M176.903 174.004l-5.846-12.402-15.038-2.481.509 29.057 8.378 3.423z"/><path fill="#75CFE3" d="M184.344 173.649l3.898-11.041-6.555-4.018-25.668.531 8.482 4.961zM161.622 213.247l-5.968-9.412 15.535-2.68 14.086 5.714-17.806 16.743z"/><path fill="#308FA6" d="M166.406 222.018l5.979-11.694 12.89-3.455 2.436 27.728-16.123 3.543z"/><path fill="#29788C" d="M155.654 203.835l-3.732 30.053 19.666 4.252.797-27.816z"/><path fill="#308FA6" d="M169.196 197.833l3.987-11.294 4.783.044-1.196 18.692-5.315.93z"/><path fill="#29788C" d="M166.007 204.344l1.196-14.218 6.245-4.252-1.993 20.331z"/><path opacity=".1" fill="#2B2B2B" d="M166.649 196.726l.554-6.6 10.542-1.439-.266 4.053z"/><path fill="#3AA0BA" d="M164.501 164.082l23.741-1.474-1.949 27.696-21.387 1.297z"/><path fill="#29788C" d="M178.275 168.334h-3.865l-2.075 3.296-.041 3.255 2.563-.163-.406 7.079-2.686.122.041 2.889 8.951-.204v-3.01l-2.523-.163z"/></g><g><path fill="#F5CAB4" d="M161.268 225.339l2.79 5.582 12.314-5.183.62-16.565-11.206 1.55z"/><path fill="#FEE5D6" d="M142 217.101l6.91-8.637 16.876 2.259-1.728 20.198-17.274-3.057z"/><path fill="#E2E4E2" d="M130.307 219.36l7.574-13.82 11.029 2.924-2.126 19.4-11.694-.266z"/><path fill="#4EA9AA" d="M137.881 205.54l-34.615-11.338-10.874 31.536 42.698 1.86z"/></g></g><g><path fill="#F5CBB3" d="M262.122 185.917l-5.187 2.252-6.174-1.421 5.581-11.461 6.843 4.651z"/><path fill="#F0EFEF" d="M219.136 136.984l43.23 8.505-8.15 51.557-42.123-6.378z"/><path fill="#C4C4C2" d="M228.703 147.659l22.014 2.968-.399 2.48-22.014-3.41zM218.379 177.668l15.706 2.613-.355 2.037-15.635-2.613zM218.025 181.477l15.705 2.613-.354 2.038-15.636-2.614zM221.306 154.126l31.492 5.094-.354 2.17-31.492-5.359zM220.42 161.169l31.493 5.093-.355 2.171-31.492-5.36zM219.534 168.211l31.493 5.094-.355 2.17-31.492-5.359z"/><path fill="#72CBCC" d="M239.82 185.973l-2.923 6.954 4.031-1.108 3.853 2.525-1.948-7.973z"/><path fill="#94D5D4" d="M242.611 178.221l-6.467 3.898 5.138 7.132 5.67-4.651z"/><path fill="#72CBCC" d="M241.991 181.366l-2.392 1.462 1.816 3.012 2.48-1.993z"/><path fill="#FEE5D6" d="M267.858 184.112l-1.55-9.478-4.917-7.796-8.836-6.234-3.566 4.551 7.441 5.935.643 7.718 9.722 5.925zM286.926 62.65l21.998-.405 13.363 2.554 9.631-5.855 15.017-3.363-2.035 8.572-5.734 4.675 5.94 8.635 1.12 9.818-.942 12.54-4.549 10.882 3.012-.315 2.873 1.822.579-5.677 2.649-9.275 8.259-.052 5.75 2.052-4.782 14.89-4.065 7.999.9 4.935-2.326 7.045-1.713 3.363 1.022 2.957-8.301 8.125-13.718 9.391-5.112-3.324-3.107-4.699-2.125-9.49-29.572.305-2.617-33.935-2.696-6.075-.161-11.727 1.93-3.772z"/><path fill="#F5CAB4" d="M334.611 60.19l-1.597 23.834.231 21.678-.569 34.392-12.146.356 2.095 4.309.03 5.181 8.219 8.023 22.647-13.05 2.611-18.445 1.427-11.981-10.939-2.277 1.283-5.912-.426-5.057-3.747 2.421 2.496-16.381-2.065-8.99-4.995-9.463 4.612-5.553 3.157-7.694-8.021 2.258z"/><path fill="#C3927D" d="M357.559 114.487l-10.939-2.277 9.512 14.258 2.234-7.231z"/><path fill="#C1907C" d="M320.53 140.45l17.246-.523-3.655 18.85-8.992-.842-2.474-7.995z"/><path fill="#F5CAB4" d="M328.235 100.763l-2.951-9.049-9.434-.148-2.218 10.514 19.613 3.622-19.065 2.266-2.858 3.98-.763-27.262 17.299 4.756 2.993 5.341zM297.754 100.91l-1.992-7.978-8.712-.823-2.025 1.738 2.735 10.38 15.794 2.165.13 3.105-15.343-2.677-4.489-8.344.651-11.088 15.764.888 1.428 12.111z"/><path fill="#C3927D" d="M311.322 111.948l-3.555 4.083-4.018-3.723z"/><path fill="#FFF1E9" d="M310.524 90.037l-7.443.023.668 22.248 7.573-.36z"/><path fill="#367F90" d="M310.524 90.037l1.056-2.857-1.021-2.494-7.568.154-1.589 2.77 1.679 2.45z"/><path fill="#3B96AA" d="M310.524 90.037l.592 15.946 22.129-.281-.145-8.444.834-5.222-.921-8.013-22.454.662-.035 5.352zm17.711 10.726l-12.119.248-.307-11.233 12.048-.336.378 11.321zM303.081 90.06l.473 16.332-21.868.531-.698-21.47 22.003-.613.09 5.22zm-16.056.564l.295 10.722 10.434-.436-.3-10.515-10.429.229z"/><path fill="#C3927D" d="M321.32 120.773l-22.855.93 4.119 10.232 14.75-.531zM351.255 109.256l2.463-9.166 4.851 1.02z"/><path fill="#CCCCCB" d="M286.926 62.65l37.915-13.831.187 9.408-2.741 6.572z"/><path fill="#BABABA" d="M346.935 55.581l9.59 2.219 5.938 16.65-10.517-.625-12.78-4.997z"/><path fill="#E2E4E2" d="M362.463 74.45l10.453 28.327-14.809-5.571-12.301-7.211-6.64-21.167z"/><path fill="#A1A2A2" d="M345.406 91.42l-3.302 13.634 5.799 1.244 2.079-9.584 12.37 3.394-4.636 13.933-1.584 12.427 16.316-23.946-6.802-3.305z"/><path fill="#BABABA" d="M322.287 64.799l2.554-15.98 22.094 6.762z"/><path fill="#367F90" d="M333.014 84.024l32.632 15.193-1.395 8.223-1.899-7.332-29.279-6.645z"/><path fill="#C1907B" d="M344.212 95.951l-11.139-2.488-.004 1.131.032 2.665 10.608 1.168z"/><path fill="#787878" d="M349.848 97.258l-5.636-1.307-.503 2.476 5.75.767z"/><path fill="#2B2C2B" d="M317.19 97.634c.274 1.223 1.509 1.922 2.634 1.67 1.223-.274 1.993-1.423 1.719-2.645-.274-1.224-1.461-1.934-2.683-1.66-1.125.251-1.944 1.411-1.67 2.635zM288.632 97.993c.274 1.223 1.411 1.944 2.635 1.67 1.125-.252 1.944-1.411 1.67-2.634-.263-1.174-1.498-1.874-2.623-1.621-1.224.273-1.945 1.41-1.682 2.585z"/><path fill="#FFF" d="M300.901 123.209l17.363-.576-1.063 3.5-14.905.332z"/><path fill="#2B6875" d="M328.669 319.507l-15.389.2.05-3.409 27.921-2.906-9.274 7.067z"/><path fill="#2B6875" d="M348.47 314.795l5.514 4.06.05 3.359-25.465.652.1-3.359z"/><path fill="#5A5E5E" d="M321.902 239.902l-5.364-2.055-17.896 1.253 14.487 36.493 15.44 13.085 11.028-2.006-.702-28.673z"/><path fill="#535353" d="M313.129 275.593l11.179 27.171 6.266 2.456 9.023 2.757-8.021-28.072z"/><path fill="#318EA7" d="M324.308 302.764l-10.978 13.534h24.563l.1-5.263-2.707-6.867z"/><path fill="#6A6A6A" d="M328.168 259.503l3.408 20.402 14.839 12.482 11.078-13.234 6.481-28.867-18.562-6.524z"/><path fill="#535353" d="M304.457 231.481l-5.815 7.619 25.215 14.938 11.529-14.687z"/><path fill="#5A5E5E" d="M331.576 279.905l3.71 24.263 6.517 6.566 9.524-3.859 6.166-27.722z"/><path fill="#367F90" d="M335.286 304.168l-6.617 15.339 25.315-.652-2.657-11.98z"/><path fill="#3C3C3B" fill-opacity=".302" d="M328.168 259.503l33.236 2.907 2.255-11.831-17.897 4.914z"/><path fill="#E2E4E2" d="M353.633 144.808l2.356 9.775-21.605 11.931-8.873 2.857-6.567-7.369-3.61-9.374 6.718-5.164 6.266 9.625z"/><path fill="#C3C3C3" d="M315.334 152.628l-9.724 3.008 7.67 15.239 9.073 12.281 22.809-10.376 19.249-11.831-8.422-6.366-30.478 14.788z"/><path fill="#357C7E" d="M364.411 160.949l-33.135 17.495-4.061 1.204-4.862 3.508 22.257 25.917 19.701-33.285z"/><path fill="#357C7E" d="M322.353 183.156l-1.805-4.962-4.01-4.612-10.928-17.946-10.477 23.861 6.868 17.896 10.075 12.359 6.016 7.041 6.767-16.743z"/><path fill="#5A5E5E" d="M328.318 157.089l5.313 8.322-8.12 3.96-5.113-8.271z"/><path fill="#767779" d="M325.511 169.371l5.765 9.073-8.923 4.712-5.815-9.574z"/><path fill="#8F8F8E" d="M365.864 175.537l-43.511 7.619-9.224 1.605 4.951 32.035-6.004 7.053 9.575 16.053 3.108 20.102 52.105-11.445z"/><path fill="#737373" d="M321.651 239.902l53.789-2.155-1.455-9.675-34.739 3.258-7.469 3.559-4.813 1.203z"/><path fill="#44999A" d="M302.001 197.393l16.091 19.4.852 5.614-6.868 2.306 3.258 5.866 6.317 9.323-23.16-.802z"/><path fill="#76CACD" d="M364.411 160.949l-.552 47.824 21.857 17.243-4.01-55.041z"/><path fill="#44999A" d="M363.859 207.695l-23.635 8.421-2.356 1.252-3.56.552 2.156 15.891 3.659-1.453 3.559.25 42.034-6.592z"/><path fill="#E2E4E2" d="M340.224 216.116l-5.916 1.804.151 7.37 2.005 8.521 7.218-1.203z"/><path fill="#F5CAB4" d="M334.308 217.92l-8.208-3.635-7.934 2.995.516 3.4h6.177z"/><path fill="#44999A" d="M305.61 155.636l-20.653 31.129 7.519 6.718 9.525 3.91z"/><path fill="#78CCCD" d="M302.001 197.393l-17.044-10.628-13.936-9.073-2.607-.1-2.106-2.958-4.761 12.533.2 4.812 25.917 20.152z"/><path fill="#E2E4E2" d="M266.308 174.634l-9.373 13.535 4.812 3.81 9.274-14.287z"/><path fill="#FEE5D6" d="M334.308 217.92l-15.626 2.76-1.16 6.381-1.787 4.169 2.706 3.809 3.21 4.863 14.813-6.091z"/><path fill="#F5CAB4" d="M318.682 220.68l2.969 19.222-4.637-3.429-4.938-11.76z"/><path fill="#FEE5D6" d="M199.004 157.979l12.513-10.187 14.528.709-.354 5.492-12.048 2.658-3.012 9.567-6.644 3.189z"/></g></svg>