<svg xmlns="http://www.w3.org/2000/svg" viewBox="0 0 900 350"><path fill="#DDDDDC" d="M444.5 38.5l-13-15L1.5.5l9 295 438-48z"/><path fill="#D0CECD" d="M430.5 53.5l-4.25 158.75 22.25 35.25 438 55L900 .5l-468.5 23z"/><path fill="#C4C4C2" d="M819.167 57.167L817.5 215.5l-303.667-31L541.5 65.833z"/><path fill="#D0CECD" d="M607.5 106.833l-41-2 36.333 20L669.5 111.5l-44 1.667zM728 90.5l-20.5 2-34-3.75 49.5 22 81.5-22L753 87.5z"/><path fill="#349496" d="M773.988 178.209l-2.427.992-1.301 8.261.962.207z"/><path fill="#4EA9AA" d="M776.023 170.699l4.644 6.801-9.362 3.529 1.023-10.422z"/><path fill="#72CBCC" d="M772.167 169.913l-6.672 5.37 5.81 5.746 2.328-5.221z"/><path fill="#349496" d="M776.53 165.746l4.637 7.254-7.534 2.808-.757-7.196z"/><path fill="#4EA9AA" d="M773.286 165.26l-5.041 4.235 5.388 6.313.792-7.608zM774.208 165.425l.792-10.092 4.767 11.469-5.327 1.448z"/><path fill="#72CBCC" d="M775 155.333l-4.272 8.802 3.697 4.065z"/><path fill="#349496" d="M679.349 175.552l-1.789 2.016 2.542 8.215.982-.244z"/><path fill="#4EA9AA" d="M677.825 167.697l7.003 5.208-6.677 6.466-3.779-10.083z"/><path fill="#72CBCC" d="M673.909 168.719l-3.725 7.982 7.967 2.67-.218-5.874z"/><path fill="#349496" d="M676.048 162.895l6.593 5.526-4.708 5.076-3.959-6.3z"/><path fill="#4EA9AA" d="M672.833 163.917l-2.734 6.194 7.834 3.386-2.716-7.382zM673.759 163.651l-.045-7.502 5.8 6.254-4.261 3.751z"/><path fill="#72CBCC" d="M673.714 156.149l-3.752 7.889 5.255 2.077z"/><path fill="#A3A1A1" d="M644 197l-4.5-17.5-71.5-13-39.5 31.5 105 14.5z"/><path fill="#8F8F8F" d="M670 188.5l-30.5-9-62 25 .5 8L740.5 227 724 203.5z"/><path fill="#858686" d="M740.5 191.5l-51 15.5 31.5 21.5 98 9-1-32.5z"/><path fill="#A3A1A1" d="M746 191l-18.5-23.5-88 12 50 27.5z"/><path fill="#8F8F8F" d="M821 202l-93.5-34.5-38 39.5 127 6.5z"/><path fill="#ECECEB" d="M560.5 53.5l-28.667 54.667.297 1.069 27.37-38.069 255-5-6.333 162L594.5 207.5l-32.249 10.298 1.582 5.702 267.334 27.333L836.5 43.5z"/><path fill="#DDDDDC" d="M804.5 88.75l-55.25-5.5L714 88l-40.5.75 50.75 12.5 41.25-12zM566.5 104.833l43-3.333 22.333 7 37.667 3-42.667 4.667-24-5.334z"/><path fill="#ECECEB" d="M772.813 136.977l.933 3.348 3.613-.046-2.804 1.788 1.068 3.555L773 143l-2.996 2.622 1.254-3.617-2.99-1.726 3.799.046zM647.384 143.53l3.197 1.365 2.222-2.848-.357 3.306 3.443 1.389-3.687.408.175 3.978-2.04-3.241-3.217 1.256 2.411-2.937zM727.445 126.131l-.463 2.87 2.76 1.229-2.755.377-.433 3.074-1.075-2.91-3.193.944 2.219-2.309-1.668-2.357 2.87 1.364zM637.203 83.513l-2.48 1.516.863 2.895-2.079-1.847-2.616 1.672 1.51-2.709-2.795-1.81 3.197.181.705-2.799.831 3.066zM572.509 127.242l-1.84 2.25 1.771 2.448-2.573-1.057-1.916 2.442.53-3.056-3.236-.785 3.078-.885-.26-2.875 1.797 2.62z"/><path opacity=".1" fill="#2B2B2B" d="M595.813 176.5l12.25-.875 10.875 3.313-13.125 2.25zM689.181 179.398l12.104-2.077 11.149 2.226-12.84 3.531z"/><g><path fill="#349496" d="M612.926 163.188l-3.938 1.611-2.114 13.404 1.561.338z"/><path fill="#4EA9AA" d="M616.232 151.001l6.297 12.249-11.362 5.667-.932-18.065z"/><path fill="#72CBCC" d="M609.974 149.724l-10.83 8.714 12.023 10.479 1.184-9.626z"/><path fill="#349496" d="M617.055 142.963l5.496 12.414-10.2 3.914-1.226-11.677z"/><path fill="#4EA9AA" d="M611.791 142.173l-8.182 6.873 8.742 10.245 1.287-12.346zM613.288 142.442l8.962-12.942.058 15.177-8.646 2.349z"/><path fill="#72CBCC" d="M622.25 129.5l-14.61 10.848 5.998 6.597z"/></g><g><path fill="#349496" d="M701.174 161.138l-4.198 3.385 2.295 17.048 2.019-.156z"/><path fill="#4EA9AA" d="M700.766 145.136l12.984 15.781-16.204 7.359-4.117-21.145z"/><path fill="#72CBCC" d="M691.536 149.356l-9.991 14.514 16.001 4.406 1.515-11.662z"/><path fill="#349496" d="M698.851 135.075l11.179 13.084-10.969 8.455-5.726-13.739z"/><path fill="#4EA9AA" d="M692.171 136.026l-7.445 11.316 14.335 9.272-2.916-15.463zM694.085 135.809l2.665-19.726 9.102 19.168-9.648 5.99z"/><path fill="#72CBCC" d="M696.75 116.083l-10.284 19.231 9.679 5.837z"/></g><g fill-rule="evenodd" clip-rule="evenodd"><path opacity=".1" fill="#2B2B2B" d="M30.833 313.167l82.513 22.378 88.154-15.378-82.7-18.77z"/><path fill="#3AA0BA" d="M131.28 309.277l-3.386 4.459-5.76-2.45-1.949-29.02 12.431-1.7z"/><path fill="#29788C" d="M127.503 279.749l.391 33.987 8.091-.808 2.04-36.185z"/><path fill="#308FA6" d="M72.424 266.775l2.253 50.194 8.339-1.225 4.269-47.072z"/><path fill="#29788C" d="M163.558 269.922L159 320.75l-9.061-3.243-5.927-49.234z"/><path fill="#3AA0BA" d="M115.904 275.945l-5.458 50.095-7.43-2.331-1.813-37.176-25.481-5.179-1.045 35.615-5.731-1.976-.633-60.233 63.818 9.175-8.889 6.563z"/><path fill="#308FA6" d="M171.722 257.915l-2.452 61.733L159 320.75l-2.467-37.703-32.634 4.022-2.149 38.181-11.304.79.631-45.59z"/><path fill="#4EA9AA" d="M88.455 247.251l-24.252-.396-6.324 20.71 53.198 12.885 8.182-28.065z"/><path fill="#349496" d="M131.958 251.221l44.618-2.058 7.183 24.656-72.682 6.631 2.293-23.319z"/><path fill="#72CBCC" d="M176.576 249.163l-63.206 7.968-49.641-10.276 77.744-6.025z"/><g><path fill="#1F7678" d="M109.204 188.29l.408-1.763 4.86 22.232 2.484 16.642.288 2.904-10.352-36.851z"/><path fill="#1F7678" d="M111.486 182.312l-1.39-5.745-11.07 3.95 8.253 11.538z"/><path fill="#349496" d="M108.911 187.426l-9.885-6.909-2.592 10.568 11.341 3.516z"/><path fill="#4EA9AA" d="M107.775 194.601l6.668-5.006-4.347-13.028z"/><path fill="#1F7678" d="M124.316 195.577l1.056-1.47-4.253 16.914.207 8.3-3.353 2.029 2.866-26.001z"/><path fill="#1F7678" d="M127.525 195.887l2.132-10.784-11.737-.621 2.919 11.178z"/><path fill="#349496" d="M127.566 196.55l-9.646-12.068-.691 12.071 6.901 4.054zM108.51 213.23l5.962-4.471 3.915 14.371-1.656 2.774-3.002-3.022-6.461-7.044z"/><path fill="#349496" d="M128.187 209.963l-7.068 1.058-3.726 12.047 2.981 1.863 1.428-2.111 9.117-10.373z"/><path fill="#308FA6" d="M118.946 224.372l-1.553-1.304-3.664-.186-.31 2.856 6.21 3.478z"/><path fill="#3AA0BA" d="M120.312 229.029l1.801-3.167-.311-3.042-4.409.248-.124 2.918z"/><path opacity=".1" fill="#2B2B2B" d="M136.271 245.858l-18.008-2.981-17.139 4.223 19.002 3.353z"/><path fill="#3AA0BA" d="M119.256 229.961l-1.987-3.975-3.85-.248-8.014 8.108 13.106 7.913z"/><path fill="#5EC0D9" d="M123.23 240.021l7.452-6.334-8.569-7.825-4.844.124-.497 8.818z"/><path fill="#308FA6" d="M121.616 239.151l-3.353 9.191-9.439-2.36-3.419-12.136 11.367.958z"/><path fill="#3AA0BA" d="M130.682 233.687l-3.477 13.289-8.942 1.366-1.491-13.538z"/><path fill="#4EA9AA" d="M145.574 223.624l-16.766-18.753-7.689 6.15zM100.119 230.704l1.118-19.623 13.235-2.322zM124.13 200.607l8.996-3.681-3.469-11.823z"/></g></g><g fill-rule="evenodd" clip-rule="evenodd"><path opacity=".1" fill="#2B2B2B" d="M667.25 320.25L757 342l63-22-76.75-16.75z"/><path fill="#3AA0BA" d="M736.499 313.503l3.306 4.321 5.625-2.375 2.135-29.529-12.139-1.647z"/><path fill="#29788C" d="M740.419 283.48l-.614 34.344-7.901-.782-1.76-36.475z"/><path fill="#308FA6" d="M782.195 269.813l-2.191 51.899-7.441-.765-2.053-48.571z"/><path fill="#29788C" d="M705.211 273.957l4.274 50.854 8.848-3.144 5.965-49.31z"/><path fill="#3AA0BA" d="M751.746 279.792l4.428 51.581 7.073-3.472 2.854-37.846 13.268-7.78.635 39.437 5.996-3.337 2.127-59.43-52.226 9.206 8.68 6.362z"/><path fill="#308FA6" d="M697.24 262.317l2.216 61.427 10.029 1.067 2.585-38.132 31.868 3.897 1.713 39.677 10.523 1.12 3.794-58.839z"/><path fill="#4EA9AA" d="M778.552 251.975l14.094-1.078 4.229 20.728-37.5 13.125-10.904-27.796z"/><path fill="#349496" d="M736.07 255.827l-43.57-1.994L682.625 277l76.75 7.75 1.047-23.242z"/><path fill="#72CBCC" d="M692.5 253.833l67.922 7.675 32.224-10.611-58.569-4.09z"/><g><path fill="#1F7678" d="M755.843 204.148l-.41-1.774-3.728 17.298L750 232.875l-.29 2.923 8.46-28.465z"/><path fill="#1F7678" d="M753.547 198.132l1.399-5.782 11.141 3.976-8.306 11.612z"/><path fill="#349496" d="M756.139 203.279l9.948-6.953-.165 7.043-8.641 7.131z"/><path fill="#4EA9AA" d="M757.281 210.5l-6.688-10.486 4.353-7.664z"/><path fill="#1F7678" d="M742.438 197.229l-1.063-1.479 4.435 22.652-.209 8.354 3.375 2.041L745.938 197z"/><path fill="#1F7678" d="M739.208 197.542l-2.145-10.854 11.812-.625-2.937 11.25z"/><path fill="#349496" d="M739.167 198.208l9.708-12.145 2.563 6.562-8.813 9.667zM758.5 220.625l-6-4.5-3.94 14.464 1.666 2.792 3.021-3.042 6.503-7.089z"/><path fill="#349496" d="M742.31 220.339l3.5-1.937 3.75 12.125-3 1.875-1.438-2.125-6.25-7.875z"/><path fill="#3AA0BA" d="M747.997 231.839l1.563-1.312 3.687-.188.313 2.875-6.25 3.5z"/><path fill="#308FA6" d="M746.622 236.527l-1.812-3.188.312-3.062 4.438.25.125 2.937z"/><path opacity=".1" fill="#2B2B2B" d="M730.56 253.464l18.125-3 17.25 4.25-19.125 3.375z"/><path fill="#5EC0D9" d="M747.685 237.464l2-4 3.875-.25 8.065 8.161-13.19 7.964z"/><path fill="#3AA0BA" d="M743.685 247.589l-7.5-6.375 8.625-7.875 4.875.125.5 8.875zM745.31 246.714l3.375 9.25 9.5-2.375 3.44-12.214-11.44.964z"/><path fill="#308FA6" d="M736.185 241.214l3.5 13.375 9 1.375 1.5-13.625z"/><path fill="#4EA9AA" d="M731.622 227.652l3.128-11.277 11.06 2.027zM762.789 231.672l.461-13.797-10.75-1.75zM742.625 202.292L736 195.438l1.063-8.75z"/></g></g><g><path fill="#9B9FA0" d="M267.688 150.021l-7-6.333L248 155.5l8 48 23.333 10.083z"/><path fill="#C4C4C2" d="M291 147.583l-1.242-5.866-29.07 1.971 9.979 59.562H296z"/><path fill="#8F8F8F" d="M564.167 164.417l13.75-13.75 8 10L575.5 219.5l-29-1z"/><path fill="#9B9FA0" d="M543.917 148.667l4.25-1.5 29.75 3.5L566 209l-33.5-2.75z"/></g><g><path fill="#FEE5D6" d="M416.456 131.499l.71-9.01 11.807-7.857 10.121 10.209-9.943 12.606z"/><path fill="#F5CBB3" d="M405.625 129.102l2.93-.621 8.611-5.992 11.985 14.958-13.317 8.257-11.984-3.818z"/><path fill="#FEE5D6" d="M403.406 142.774l-2.486-7.369.888-10.298 10.131-7.745 2.564 2.863-4.972 7.634 2.575 7.103z"/><path fill="#E2E4E2" d="M394.794 158.043l.533-15.535 5.593-7.103 14.914 10.299-4.172 6.924z"/><path fill="#44999A" d="M333.894 171.449l17.491-35.301 41.368 26.112-26.278 14.249z"/><path fill="#76CACD" d="M289.758 141.717l.578 50.122-20.349 17.065 1.644-56.679z"/><path fill="#5A5E5E" d="M334.31 224.466l5.622-2.155 18.756 1.314-15.184 38.247-16.182 13.714-11.558-2.103.735-30.051z"/><path fill="#6A6A6A" d="M327.743 245.008l-3.573 21.383-15.551 13.082-10.591-13.478-7.812-47.229 19.454 9.745z"/><path fill="#535353" d="M352.594 215.639l6.094 7.986-30.945 21.383-37.527-26.242z"/><path fill="#FEE5D6" d="M374.206 42.742l-23.013-1.463-14.112 2.045-9.807-6.585-15.565-4.229 1.727 9.071 5.783 5.165-6.627 8.761-1.635 10.227.394 13.174 4.25 11.607-3.139-.471-3.094 1.772-.338-5.972-2.336-9.836-8.644-.443-6.118 1.877 4.304 15.815 3.879 8.567-1.175 5.125 2.104 7.485 1.634 3.602-1.209 3.048 8.308 8.898 13.92 10.48 5.509-3.239 3.474-4.773 2.673-9.836 30.948 1.714 4.341-35.407 3.108-6.234.723-12.27-1.843-4.04z"/><path fill="#F5CAB4" d="M324.395 37.917l.549 25.03-1.265 22.686-1.026 36.035 12.7.946-2.397 4.412-.276 5.424-8.983 8.012-22.429-15.355-2.531-18.812-.928-12.611 11.559-1.868-1.064-6.251.684-5.274 3.809 2.711-1.84-17.268 2.585-9.315 5.677-9.673-4.567-6.032-2.943-8.204 8.292 2.743z"/><path fill="#C3927D" d="M297.809 93.684l11.559-1.868-10.631 14.479-1.998-7.676z"/><path fill="#C1907C" d="M335.353 122.614l-18.032-1.361 6.376 19.209 5.955-3.281 3.028-4.731z"/><path fill="#F5CAB4" d="M329.158 80.697l3.517-9.334 9.883.29 1.826 11.113-20.705 2.867 19.854 3.271 2.805 4.302 2.084-28.507-18.335 4.164-3.386 5.45zM361.065 82.289l2.462-8.259 9.16-.451 2.038 1.915-3.353 10.739-16.639 1.522-.282 3.245 16.191-2.079 5.092-8.525-.158-11.639-16.547.185-2.066 12.614z"/><path fill="#C3927D" d="M346.338 93.206l3.53 4.443 4.382-3.709z"/><path fill="#FFF1E9" d="M348.207 70.303l7.792.374-1.749 23.263-7.912-.734z"/><path fill="#367F90" d="M348.207 70.303l-.971-3.041 1.186-2.563 7.918.518 1.532 2.975-1.873 2.485z"/><path fill="#3B96AA" d="M348.422 64.699l-23.478-1.752-1.342 8.346.627 5.507-.55 8.834 23.156 1.338 1.372-16.668.215-5.605zm-18.335 4.164l12.599.92-.851 11.746-12.677-.831.929-11.835zM356.34 65.217l23.009 1.679-1.744 22.447-22.871-1.588L356 70.677l.34-5.46zm5.534 6.077l-.81 10.995 10.904.949.814-11.212-10.908-.732z"/><path fill="#C3927D" d="M337.889 102.025l20.844 2.004-3.533 9.36-14.559-1.332zM304.654 88.505l-2.146-9.714-5.127.839z"/><path fill="#CFCFCE" d="M374.206 42.742l-40.02-16.211.336 9.782 2.559 7.011z"/><path fill="#C3C3C3" d="M311.709 32.51l-10.145 1.871-7.002 17.153 11.041-.159 13.616-4.629z"/><path fill="#E2E4E2" d="M294.562 51.534l-12.281 29.165 15.769-5.134 13.218-6.97 7.951-21.849z"/><path fill="#A1A2A2" d="M311.62 70.106l2.815 14.43-6.131 1.029-1.725-10.132-13.112 2.97 4.198 14.806 1.072 13.086-15.953-25.841 7.277-3.14z"/><path fill="#C3C3C3" d="M337.081 43.324l-2.895-16.793-22.477 5.979z"/><path fill="#367F90" d="M324.944 62.947l-34.883 14.367 1.072 8.676 2.334-7.587 30.97-5.577z"/><path fill="#C1907B" d="M312.656 74.906l11.781-2.08-.05 1.185-.159 2.788-11.162.723z"/><path fill="#787878" d="M306.694 76.008l5.962-1.102.41 2.616-6.056.532z"/><path fill="#E2E4E2" d="M301.053 124.8l-2.469 10.245 22.644 12.504 9.3 2.995 6.882-7.723 3.783-9.825-7.041-5.412-6.567 10.088z"/><path fill="#C3C3C3" d="M341.193 132.996l10.192 3.152-8.039 15.972-9.508 12.872-23.906-10.875-20.174-12.4 8.826-6.672 31.944 15.499z"/><path fill="#357C7E" d="M289.758 141.717l34.727 18.336 4.256 1.261 5.097 3.678 4.495 38.15-48.117-16.513z"/><path fill="#357C7E" d="M333.838 164.992l1.891-5.201 4.203-4.833 11.453-18.81 3.783 43.764-10.561 12.954-10.713 7.968-2.684-18.137z"/><path fill="#5A5E5E" d="M327.585 137.672l-5.569 8.721 8.512 4.151 5.358-8.669z"/><path fill="#767779" d="M330.528 150.544l-6.043 9.509 9.353 4.939 6.094-10.034z"/><path fill="#44999A" d="M355.168 179.912l-21.274 19.856-43.678-13.139v32.137l44.388 7.28 24.242-2.421z"/><path fill="#2B2C2B" d="M340.229 74.614c-.344 1.267-1.671 1.941-2.837 1.624-1.267-.344-2.02-1.583-1.675-2.851s1.621-1.956 2.888-1.612c1.166.318 1.969 1.571 1.624 2.839zM369.43 77.049c-.344 1.267-1.569 1.969-2.837 1.624-1.166-.317-1.969-1.569-1.624-2.837.331-1.217 1.656-1.891 2.823-1.574 1.267.345 1.968 1.57 1.638 2.787z"/><path fill="#FFF" d="M340.419 104.201l15.891 1.442-1.132 3.174-14.115-1.421z"/><path fill="#78CCCD" d="M395.327 142.508l-28.852 34.001 27.698 4.261 17.489-28.142z"/></g><g fill-rule="evenodd" clip-rule="evenodd"><path fill="#FEE5D6" d="M506.112 156.228l-7.715-8.62-22.247 26.863 5.926 19.509 20.175-12.584z"/><path fill="#F5CBB4" d="M480.012 145.841l-7.191 5.992-12.251 39.484 21.373 4.194 5.66-40.482z"/><path fill="#FCE4D5" d="M485.339 131.992l-14.515 4.128 1.997 15.713 14.782 3.196 3.595-13.915z"/><path fill="#4F5353" d="M498.123 124.268l.274 23.34 21.964 1.962 2.264-26.633zM550.989 115.746l1.731 14.248 2.562 18.12-27.863-2.806 4.261-39.283z"/><path fill="#6F7273" d="M557.913 88.447l7.724 10.875-12.917 30.672-15.847-7.723 5.327-26.234z"/><path fill="#4F5353" d="M539.537 47.477l20.907 5.815 5.193 46.03-18.954 8.7-13.538 5.86-12.429-62.499z"/><path fill="#6F7273" d="M518.586 39.842l16.512-4.261 25.346 17.711-25.348 14.738-41.901-1.91z"/><path fill="#858686" d="M478.281 50.318l22.727-18.288 34.09 3.551-44.566 32.137z"/><path fill="#6F7273" d="M486.626 81.389L474.02 67.895l4.261-25.212 22.727-10.653-15.092 25.567z"/><path fill="#4F5353" d="M492.308 65.765l-6.392-8.168-11.896 10.298 11.541 27.344z"/><path fill="#C3937D" d="M506.445 273.7l-21.809-6.696 7.432-3.929 15.104-3.401 3.096 7.352zM522.186 276.506l-.498-9.556 4.399-2.836 15.697-1.237 4.263 4.225z"/><path fill="#707274" d="M554.238 223.192l-8.191 43.91-61.411-.098 12.472-53.868 6.035-1.223 29.87 4.454z"/><path fill="#8F8F8F" d="M542.557 203.475l-12.972-12.066-29.891 16.831-2.586 4.896 57.13 10.056z"/><path fill="#3AA0BA" d="M491.742 182.935l5.366 30.201 48.102-4.974.95-30.644-4.504-3.858-45.123-5.202z"/><path fill="#5EC0D9" d="M544.098 190.717l-52.356-7.782 12.015-32.962 26.447-1.599 9.463 13.636 3.138 5.836z"/><path fill="#5EC0D9" d="M541.808 140.764l-11.676 17.016 13.866 32.937 12.044-19.953-.76-22.65zM498.397 147.608l-6.655 35.327 16.199-27.844 1.709-11.376z"/><path fill="#FEE5D6" d="M543.998 190.717l11.284-42.603 6.893 38.564-31.179 19.503 13.029-12.734z"/><path opacity=".1" fill="#090A0A" d="M545.21 208.162l-60.574 58.842 61.411.098 8.191-43.91z"/><path fill="#C3937D" d="M519.385 149.732l13.865-9.708 7.027-13.448-36.687-1.141z"/><path fill="#F5CBB4" d="M529.843 129.116l6.446.645-16.904 19.971 20.039-10.166 7.259-31.544-.133-3.995 1.997-2.929 3.241-12.917-7.518-2.531-3.668 10.387-3.862-.532 2.53-19.176-4.174-8.299-16.333 47.31z"/><path fill="#FCE4D5" d="M535.096 68.03l-5.265 61.175-47.484-1.315-3.229-57.029 6.798-13.264z"/><path fill="#F6CBB4" d="M483.94 76.433l8.521-.876 7.538 3.011 1.294 2.956.782 8.247-3.071 8.462-5.051-12.086zM505.48 90.701l1.228-9.095 2.707-3.428 10.658-3.407 7.811 2.549-13.594 9.037-6.303 11.867z"/><path fill="#505354" d="M496.214 74.021l-12.274 2.412 16.059 2.135zM509.415 78.178l18.469-.858-13.915-3.654z"/><path fill="#C3937D" d="M503.709 102.459l-4.705-4.226 8.983-.009z"/><path fill="#FFF1E9" d="M499.004 98.233l2.289-16.709 5.306.007 1.388 16.693z"/><path fill="#FFF" d="M501.496 108.136l9.753.379 3.002.883-6.99 6.811-7.463-.757-5.45-6.937z"/><path fill="#72CBCC" d="M498.968 116.924l-6.273-8.365 2.561-.128 4.818 5.634 6.99.336 6.515-5.298 2.779.431-8.149 7.684z"/><path fill="#369596" d="M492.695 108.559l10.86.355 12.803.62-13.156-3.721z"/><path fill="#ECECEB" d="M505.089 145.262l-.79 15.095 15.006-9.797 13.268 11.605 12.163-20.014-5.449-2.859-19.982 10.175-4.976-7.568z"/><path fill="#2B2B2B" d="M517.239 85.989c0 1.511-1.225 2.736-2.736 2.736-1.511 0-2.736-1.225-2.736-2.736 0-1.511 1.225-2.736 2.736-2.736 1.511.001 2.736 1.226 2.736 2.736z"/><circle fill="#2B2B2B" cx="491.2" cy="85.457" r="2.736"/><path fill="#C3937D" d="M548.773 91.772l-3.034-1.327-2.655 6.258zM543.354 99.899l5.193 1.199-1.864 6.924z"/><path fill="#F5CBB4" d="M482.143 121.738l-11.319 14.382 20.374 4.994 3.329-12.717z"/></g><g><path opacity=".1" fill="#2B2B2B" d="M189.5 309.5L430 350l220.5-44-96.416-10.293L422.5 238l-142 57.5z"/><path fill="#29788C" d="M261.489 285.131l10.653 27.435 17.578-2.666 17.578-29.829-40.749-4.528z"/><path fill="#308FA6" d="M580.285 274.744l-12.291 35.467-22.864-2.176-16.513-43.145z"/><path fill="#3AA0BA" d="M407.704 273.679L426.613 336l21.583-3.937 5.583-29.088 108.129-18.909 6.086 26.145 22.145-4.04 1.598-78.833-270.59 17.045z"/><path fill="#308FA6" d="M254.565 232.664V309.9l17.577 2.666 10.92-26.636 108.929 15.98 7.137 29.92 27.485 4.17 2.663-54.331z"/><path fill="#DDDDDC" d="M452.003 208.517l142.398-.888 25.922 43.501-191.047 30.539-14.914-66.76z"/><path fill="#BCBCBB" d="M365.358 205.676l-115.055-3.906-21.306 51.313 200.279 28.586 9.588-51.668z"/><path fill="#ECECEB" d="M250.303 201.77l165.124-15.98 178.974 21.839-155.537 22.372z"/></g><g><path opacity=".1" fill-rule="evenodd" clip-rule="evenodd" fill="#2B2B2B" d="M460.637 191.383l39.661 9.677-2.339 10.209 35.008 1.864 32.803-9.055-57.66-3.373-5.327-4.616zM334.216 203.53l16.723 2.774-40.16 1.421-24.702-3.396-16.09-4.425 43.721-3.765z"/><path fill-rule="evenodd" clip-rule="evenodd" fill="#F5CBB4" d="M514.137 200.98l-6.017-7.067-12.922 5.924 2.761 11.432 12.133-.208z"/><path fill-rule="evenodd" clip-rule="evenodd" fill="#FEE5D6" d="M526.22 198.278l-4.96-1.998-13.14-2.367 1.972 17.148 13.712-1.351z"/><path fill="#F5CAB4" d="M338.333 194.142l3.462-10.476 15.269 7.99-6.125 14.648-12.074-1.331z"/><path fill="#FEE5D6" d="M312.055 194.408l12.251-6.392 17.489-4.35-2.841 21.484-21.75-3.817z"/><path fill="#349496" d="M324.306 188.016l-34.09-10.387-20.229 22.275 47.217 1.429z"/><path fill-rule="evenodd" clip-rule="evenodd" fill="#F5CBB4" d="M521.26 196.28l40.915-9.602 3.595 17.4-41.966 5.632z"/></g><g fill-rule="evenodd" clip-rule="evenodd"><path opacity=".1" fill="#2B2B2B" d="M506.712 215.786l-11.433-2.767-12.038-.03-8.415-.51-7.631.91 17.378 5.326zM394.787 204.567l31.449-3.862 29.94 5.992-30.095 5.726zM384.999 213.91l-6.467-2.409-12.176-.92-8.415-.51-7.631.91 17.378 5.326z"/><path fill="#29788C" d="M364.79 209.637l-6.838.434-.812 1.855 10.74 2.617 11.243-1.574-.58-1.468z"/><path fill="#3AA0BA" d="M367.687 208.68l-9.735 1.391 9.812 2.675 10.779-1.245z"/><path fill="#75CFE3" d="M369.619 199.331l1.255 2.376-.695 9.04-2.289.782-.744-10.923z"/><path fill="#5EC0D9" d="M367.021 199.563l-1.304 1.507-.29 9.358 2.463 1.101.203-9.677zM365.022 195.043l3.071 6.809 2.781-.145 4.501-3.496z"/><path fill="#3AA0BA" d="M363.863 190.87l-2.162 6.375 4.016 3.825 2.376.782.131-3.279zM361.603 185.924l-4.865-6.088 13.012-1.049 11.707 2.698-16.323 8.201z"/><path fill="#75CFE3" d="M364.785 188.333l4.314-4.329 12.358-2.519-6.082 16.726-7.151.362z"/><path fill="#5EC0D9" d="M356.738 179.836l12.361 4.168-.875 14.569-6.523-1.328z"/><g><path fill="#ECECEB" d="M426.868 166.914l-.765-1.431 1.698-.466 2.53.666z"/><path fill="#4EA9AA" d="M428.195 159.74l.449 1.149-.35 4.527h-.549l-.116-3.262zM428.078 154.097v-13.982l2.93 12.451 3.528.666-7.19 4.66z"/><path fill="#72CBCC" d="M426.347 157.959l-.533-2.996 2.264-14.848 2.197 14.582 4.261-1.465-6.907 8.922z"/><path fill="#3AA0BA" d="M423.14 182.594l-1.199-1.697 5.86-.799 6.846 1.742-10.808 1.287z"/><path fill="#DDDDDC" d="M426.769 168.013l1.231-2.164 2.331-.166-.899 17.144-3.363.167z"/><path fill="#D0CECD" d="M425.337 183.626l.766-18.143 1.897.366-.566 15.78z"/><path fill="#75CFE3" d="M425.548 184.548l1.886-2.919 7.213.211 4.794 5.105-15.669 4.083z"/><path fill="#29788C" d="M423.26 202.49l-15.544.444-.811 1.855 19.486 3.994 18.821-2.885-.58-1.468z"/><path fill="#3AA0BA" d="M426.236 200.705l-18.52 2.229 18.559 4.053 18.357-2.557z"/><path fill="#75CFE3" d="M428.089 192.185l1.256 2.376-.696 9.04-2.289.782-.743-10.923z"/><path fill="#5EC0D9" d="M425.491 192.416l-1.304 1.507-.29 9.359 2.463 1.101.203-9.678z"/><path fill="#3AA0BA" d="M423.492 187.896l3.043 7.665 2.73-.183 4.672-2.086z"/><path fill="#29788C" d="M422.333 190.318l-2.162 2.547 3.968 2.364 2.396.332.16-2.166z"/><path fill="#5EC0D9" d="M420.073 188.341l-4.864-2.432 6.732-5.012 5.493.732.135 5.945zM423.255 189.304l4.314-1.73 11.872-.629-5.596 6.306-7.15.144z"/><path fill="#3AA0BA" d="M415.209 185.909l12.36 1.665-.874 5.821-6.524-.53z"/><path fill="#4EA9AA" d="M428.078 140.115l-5.127 17.911 4.678 4.128-.883-7.391z"/></g><g><path fill="#1F7678" d="M481.542 212.078l-6.838.434-.812 1.855 10.74 2.617 11.227-2.497-.58-1.468z"/><path fill="#349496" d="M484.439 211.122l-9.735 1.39 9.813 2.676 10.762-2.169z"/><path fill="#72CBCC" d="M486.371 201.773l1.255 2.375-.695 9.041-2.289.782-.744-10.924z"/><path fill="#4EA9AA" d="M483.773 202.004l-1.304 1.507-.29 9.359 2.463 1.101.203-9.678zM481.773 197.484l3.072 6.809 2.781-.145 4.501-3.496z"/><path fill="#349496" d="M480.615 193.312l-2.162 6.374 4.016 3.825 2.376.782.131-3.278zM478.355 188.365l-4.864-6.088 10.56-1.192 14.158 2.841-16.323 8.202z"/><path fill="#72CBCC" d="M481.537 190.774l4.314-4.328 12.358-2.52-6.082 16.726-7.151.363z"/><path fill="#4EA9AA" d="M473.491 182.277l12.36 4.169-.875 14.569-6.523-1.329z"/></g></g><g fill="#ECECEB"><path d="M134.5 8L30.167 53.833l7.333 89 80 26 107.667-18.666L261.5 85l-31-53.5z"/><path d="M230.167 104.833L286 115l-59.5 11.5z"/></g><g><g fill-rule="evenodd" clip-rule="evenodd"><path fill="#F5CBB3" d="M153.833 138.167l5-2.667 15-9.5 4.334 10L159 144.5z"/><path fill="#FEE5D6" d="M192.833 119.167l-6.489-10.931L173.833 126l4.334 10 17.166-8.5z"/><path fill="#F5CBB3" d="M205.917 133.667l3.333-10.834 15.75 11-10.493 16.544-8.924-8.377z"/><path fill="#FEE5D6" d="M212.473 132.937l6.466-24.412L225 133.833l-10.547-1.509-1.965 2.176z"/><path fill="#4F5353" d="M186.187 94.863l.157 13.373 12.585 1.124 1.297-15.26zM216.478 89.979l.992 8.165 1.469 10.381-15.966-1.607 2.442-22.509z"/><path fill="#6F7273" d="M220.446 74.338l4.426 6.231-7.402 17.575-9.079-4.426 3.052-15.031z"/><path fill="#4F5353" d="M209.917 50.862l11.979 3.332 2.976 26.375-10.861 4.985-7.757 3.357-7.121-35.81z"/><path fill="#6F7273" d="M197.912 46.488l9.461-2.442 14.523 10.148-14.524 8.445-24.008-1.095z"/><path fill="#858686" d="M174.818 52.49l13.022-10.478 19.533 2.034-25.535 18.414z"/><path fill="#6F7273" d="M179.6 70.294l-7.223-7.732 2.441-14.446 13.022-6.104-8.647 14.649z"/><path fill="#4F5353" d="M182.855 61.341l-3.662-4.68-6.816 5.901 6.612 15.667z"/><path fill="#707274" d="M218.34 151.544l-35.402 6.019 2.668-11.781 3.458-.701 17.114 2.552z"/><path fill="#8F8F8F" d="M211.647 140.246l-7.433-6.913-17.126 9.644-1.482 2.805 32.734 5.762z"/><path fill="#3AA0BA" d="M182.531 128.478l3.075 17.304 27.561-2.85 3-10.182-5.036-9.587-25.855-2.98z"/><path fill="#5EC0D9" d="M216.167 132.75l-33.636-4.272 6.885-18.887 15.153-.916 5.422 7.813 1.798 3.344z"/><path fill="#5EC0D9" d="M211.218 104.314l-6.69 9.75 11.639 18.686 2.772-24.225zM186.344 108.236l-3.813 20.242 9.282-15.955.979-6.518z"/><path fill="#C3937D" d="M198.37 109.452l7.944-5.562 4.027-7.705-21.021-.654z"/><path fill="#F5CBB4" d="M204.362 97.64l3.694.37-9.686 11.442 11.482-5.824 4.159-18.074-.076-2.289 1.145-1.679 1.856-7.401-4.307-1.45-2.102 5.952-2.213-.305 1.45-10.988-2.392-4.755-9.358 27.108z"/><path fill="#FCE4D5" d="M207.372 62.639l-3.017 35.052-27.207-.753-1.85-32.677 3.895-7.6z"/><path fill="#F6CBB4" d="M178.061 67.454l4.882-.502 4.319 1.725.742 1.694.448 4.725-1.76 4.849-2.894-6.925zM190.402 75.629l.704-5.211 1.551-1.964 6.107-1.952 4.476 1.46-7.789 5.178-3.612 6.8z"/><path fill="#505354" d="M185.093 66.072l-7.032 1.382 9.201 1.223zM192.657 68.454l10.583-.492-7.973-2.094z"/><path fill="#C3937D" d="M189.388 82.366l-2.696-2.421 5.147-.005z"/><path fill="#FFF1E9" d="M186.692 79.945l1.312-9.574 3.04.004.795 9.565z"/><path fill="#FFF" d="M188.12 85.619l5.588.217 1.72.506-4.005 3.903-4.276-.434-3.123-3.975z"/><path fill="#72CBCC" d="M186.672 90.654l-3.595-4.792 1.468-.074 2.76 3.228 4.005.193 3.733-3.036 1.592.247-4.669 4.403z"/><path fill="#369596" d="M183.077 85.862l6.223.202 7.335.356-7.538-2.132z"/><path fill="#ECECEB" d="M190.179 106.892l-.453 8.648 8.598-5.613 7.603 6.649 6.969-11.467-3.123-1.638-11.449 5.83-2.851-4.336z"/><path fill="#2B2B2B" d="M197.14 72.929c0 .866-.702 1.567-1.567 1.567-.866 0-1.568-.702-1.568-1.567s.702-1.567 1.568-1.567c.866 0 1.567.702 1.567 1.567zM183.788 72.624c0 .866-.702 1.567-1.567 1.567-.866 0-1.568-.702-1.568-1.567s.702-1.567 1.568-1.567c.865 0 1.567.701 1.567 1.567z"/><path fill="#C3937D" d="M215.209 76.243l-1.739-.761-1.521 3.586zM212.104 80.899l2.976.687-1.069 3.968z"/></g><path fill="#357C7E" d="M67.75 121.125l-4.967 2.438L48 126.375 58.633 149.7z"/><path fill="#76CACD" d="M66.197 97.934l5.178 28.941-3.5 6.75L48 126.375l10.5-25.625z"/><path fill="#FEE5D6" d="M139.227 102.479l1.142-5.077 7.371-3.51 4.932 6.645-6.698 6.37z"/><path fill="#F5CBB3" d="M133.252 100.226l1.72-.114 5.397-2.71 5.605 9.505-8.263 3.614-6.517-3.155z"/><path fill="#FEE5D6" d="M130.868 107.835l-.813-4.402 1.349-5.795 6.407-3.585 1.226 1.841-3.458 3.944.886 4.257z"/><path fill="#E2E4E2" d="M124.712 115.831l2.413-9.768 2.93-2.63 7.656 7.088-2.944 3.605z"/><path fill="#44999A" d="M88.913 118.486l12.855-18.683 21.436 18.264-16.14 5.969z"/><path fill="#5A5E5E" d="M84.812 148.73l3.38-.767 10.58 2.283-1.209 12.129-17.313-5.458-7-6.167z"/><path fill="#6A6A6A" d="M80.25 156.917L58.633 149.7l1.52-7.825 10.288 7.144z"/><path fill="#535353" d="M95.952 145.197l2.82 5.049-18.522 6.671-20.097-15.042z"/><path fill="#FEE5D6" d="M122.415 48.446l-12.993-2.717-8.208.011-5.05-4.555-8.523-3.684.242 5.311 2.872 3.416-4.492 4.45-1.769 5.693-.854 7.539 1.472 6.962-1.75-.525-1.908.756.296-3.43-.526-5.796-4.889-.96-3.64.569 1.159 9.364 1.509 5.199-1.089 2.824.586 4.438.637 2.186-.939 1.637 4.006 5.751 7.075 7.11 3.403-1.395 2.371-2.435 2.328-5.386 17.494 3.509 5.371-19.82 2.281-3.298 1.416-6.933-.72-2.453z"/><path fill="#F5CAB4" d="M94.427 41.621l-1.735 14.307-2.577 12.823-3.534 20.45 7.16 1.578-1.727 2.318-.601 3.068-5.774 3.83-11.524-10.584.097-10.927.503-7.262 6.739-.119-.095-3.648.822-2.95 1.948 1.857.365-9.991 2.235-5.096 4.026-5.047-2.109-3.811-1.005-4.916 4.501 2.242z"/><path fill="#C3927D" d="M74.715 71.222l6.739-.119-7.242 7.381-.511-4.537z"/><path fill="#C1907C" d="M93.741 90.779l-10.164-2.251 2.062 11.467 3.661-1.382 2.113-2.448z"/><path fill="#F5CAB4" d="M93.641 66.387l2.767-5.031 5.609.974.131 6.482-12.033-.061 11.045 3.489 1.247 2.681 3.52-16.074-10.789.873-2.375 2.828zM111.691 69.905l2.079-4.505 5.257.493 1.004 1.258-2.789 5.845-9.606-.494-.426 1.826 9.396.14 3.599-4.441.862-6.645-9.443-1.249-2.21 7.019z"/><path fill="#C3927D" d="M102.407 74.921l1.647 2.82 2.801-1.754z"/><path fill="#FFF1E9" d="M105.345 62.023l4.41.851-2.9 13.113-4.448-1.066z"/><path fill="#367F90" d="M105.345 62.023l-.304-1.812.886-1.364 4.469.944.63 1.82-1.271 1.263z"/><path fill="#3B96AA" d="M105.927 58.847l-13.235-2.92-1.448 4.646-.093 3.189-1.036 4.989 13.085 2.657 2.146-9.385.581-3.176zm-10.789.873l7.104 1.555-1.446 6.624-7.155-1.511 1.497-6.668zM110.396 59.791l12.973 2.84-2.83 12.648-12.903-2.776 2.119-9.628.641-3.084zm2.656 3.915l-1.361 6.199 6.136 1.433 1.381-6.322-6.156-1.31z"/><path fill="#C3927D" d="M96.87 79.255l11.714 2.847-2.779 5.044-8.187-1.95zM79.039 68.831l-.428-5.711-2.99.059z"/><path fill="#D7D8D6" d="M122.415 48.446l-21.477-12.512-.609 5.601.885 4.205z"/><path fill="#C3C3C3" d="M87.641 37.501l-5.934.236-5.393 9.201 6.304.814 8.137-1.524z"/><path fill="#E2E4E2" d="M76.314 46.938l-9.385 15.614 9.406-1.635 8.102-2.89 6.318-11.799z"/><path fill="#A1A2A2" d="M84.514 58.917l.423 8.453-3.578.085-.154-5.915-7.714.62 1.181 8.78-.46 7.544-6.976-16.03 4.404-1.193z"/><path fill="#C3C3C3" d="M101.214 45.74l-.276-9.806-13.297 1.567z"/><path fill="#367F90" d="M92.692 55.928L71.64 61.261l-.1 5.031 1.951-4.132 18.103-.644z"/><path fill="#C1907B" d="M84.712 61.737l6.882-.221-.125.671-.318 1.576-6.42-.502z"/><path fill="#787878" d="M81.224 61.877l3.488-.14.019 1.524-3.494-.192z"/><path fill="#E2E4E2" d="M74.017 89.218l-2.245 5.636 11.88 8.978 5.054 2.467 4.553-3.838 2.96-5.288-3.569-3.66-4.568 5.211z"/><path fill="#C3C3C3" d="M96.219 97.173l5.549 2.63-5.887 8.443-6.472 6.557-12.732-8.153-10.48-8.716 5.575-3.08 16.934 11.445z"/><path fill="#357C7E" d="M66.197 97.934l18.287 13.289 2.322 1.067 2.603 2.513-.56 22.106-26.066-13.346z"/><path fill="#357C7E" d="M89.409 114.803l1.503-2.809 2.791-2.41 8.065-9.781-1.425 25.247-7.078 6.517-6.756 3.663-.045-10.553z"/><path fill="#5A5E5E" d="M88.082 98.724l-3.887 4.514 4.511 3.061 3.762-4.501z"/><path fill="#767779" d="M88.706 106.299l-4.222 4.924 4.925 3.58 4.294-5.219z"/><path fill="#44999A" d="M100.343 125.05l-13.747 9.573-23.813-11.06-2.63 18.312 24.697 7.78 14.012.604z"/><path fill="#2B2C2B" d="M100.864 65.493c-.3.694-1.111.969-1.749.693-.694-.3-1.021-1.068-.721-1.761.3-.694 1.084-.982 1.777-.682.638.277.993 1.056.693 1.75zM117.303 69.271c-.3.694-1.055.994-1.749.693-.639-.276-.993-1.055-.693-1.749.288-.666 1.099-.942 1.737-.666.694.3.993 1.055.705 1.722z"/><path fill="#FFF" d="M98.134 80.701l8.937 2.123-.905 1.715-7.927-1.964z"/><path fill="#78CCCD" d="M127.125 106.063l-20.061 17.973 15.434 4.694 12.269-14.604z"/><g><path fill="#F5CAB4" d="M126.896 146.521l-4.625 4.625 5.093 16.019 11.157-13.519zM163.801 149.506l6.14 3.187-4.514 7.828-6.156 1.187-12.631-8.322z"/><path fill="#308FA6" d="M149.316 144.795l9.604-9.285 11.021 17.183-13.225 2.633zM143.333 139.206l-11.099-3.557-9.963 15.497 9.517 3.118z"/><path fill="#858686" d="M133.068 102.512l14.829-22.315 21.281 10.044-8.839 14.96z"/><path fill="#707274" d="M132.569 96.306l-7.768-7.714 23.096-8.395-4.638 23.14z"/><path fill="#F5CAB4" d="M153.822 136.066l7.708-12.785-1.033-23.18-1.568 2.471-7.573 27.227-3.082 5.872-2.152 4.509z"/><path fill="#C3927D" d="M142.551 140.693l-7.888-13.931 1.185-.508 15.758 2.315.99.8 1.76.613-7.826 9.252z"/><path fill="#505354" d="M127.841 111.525l-3.04-22.933 6.022 2.61.385 1.165-.705 2.563z"/><path fill="#FEE5D6" d="M130.823 91.202l-5.588 34.263 27.389 3.905 7.873-29.269z"/><path fill="#C3927D" d="M161.53 123.281l2.285-3.76-3.852-1.192z"/><path fill="#494849" d="M173.664 102.126l-4.486-11.885s-8.622 9.736-8.681 9.86c-.117.147-.044 10.659-.044 10.659l4.285 2.559 2.834-1.382 6.092-9.811z"/><path fill="#F5CAB4" d="M158.514 117.699l5.301 1.822 3.757-7.585-7.119-1.177z"/><path fill="#C3927D" d="M160.763 116.112l1.067-3.702 3.544.651z"/><path fill="#F5CAB4" d="M136.975 113.924l-3.974-7.427-2.177-4.317 8.228 2.54 1.343 1.979 3.123-1.568 2.579.05 8.766 1.093-6.89 3.326-6.365 5.26z"/><path fill="#C3927D" d="M138.856 116.253l-1.881-2.329 4.633.936z"/><path fill="#FFF1E9" d="M139.052 104.72l-2.077 9.204 4.633.936 1.91-9.729z"/><path fill="#494849" d="M138.134 104.445l-2.441-3.101-4.869.836zM146.097 105.181l3.109-1.992 5.657 3.085z"/><path fill="#C3927D" d="M133.208 117.552l11.875 2.094-3.5 4.906-7.437-1.375z"/><path fill="#5EC0D9" d="M132.234 135.649l6.757-1.253 4.132 5.964 1.218 6.273.702 1.134-.688 15.673-1.709 1.206-15.282 2.519z"/><path fill="#3AA0BA" d="M154.771 134.563l4.149.947-.216 17.852.567 8.346-16.625 2.938.477-24.286z"/><path fill="#FFF" d="M134.583 118.771l8.594 1.531-1.125 1.5-7.187-1.219z"/><circle fill="#2B2C2B" cx="133.938" cy="105.729" r="1.5"/><circle fill="#2B2C2B" cx="147.063" cy="108.313" r="1.5"/></g></g></svg>