<svg xmlns="http://www.w3.org/2000/svg" viewBox="0 0 150 150"><g fill-rule="evenodd" clip-rule="evenodd"><path fill="#50A9AA" d="M84.2 66.1l1.6-4.9 6.4-6 2.5-2.8 7.7.4-4-6.9.2-7.1 1.6-2.9 3.4.1-2.7-3.3.4-5.2-1-2.6 2.1-10.1-20.6-6.3L64.9 0 53.5 15.6l-9.7 7 4 7.4-.2 4.1-2.1 4.7-5.1 4 7 4.9 5.8 7.5-3.5-6.8 2.2 1.5 2.5-2 3.1 2 2.8 3.7.6 9.1 4.8-3.4 5.7.9 9.4 1z"/><path fill="#96637C" d="M51.9 28.9L40.4 42.8l15.2-3z"/><path fill="#734D60" d="M49.5 40.1l2.4 6.6v3.2l1.3 5.3-12.8-12.4z"/><path fill="#FCDAC7" d="M51.9 28.9l9 33.8 41.5-9.9L94.6 24l-36-9.2z"/><path fill="#EBBEA7" d="M84.9 28.4l-4.1 5.2-.9 8.5-2.7-.8-2.1 2.1-5.1-6.7-5.5-3.6 7.3-1.9 5.4-1.2z"/><path fill="#C2927D" d="M95.9 28.8L58.6 20l-6.7 8.9 3-8.6 3.7-5.5 12.8 3.8zM92.2 55.2l-8 10.9-12.8-5.9z"/><path fill="#FDE9E0" d="M77.2 30l2.7 12.1-4.8 1.3-3.3-12.2z"/><path fill="#C2927D" d="M79.9 42.1l-1.8 2.2-3-.9z"/><path fill="#96637C" d="M58.6 14.8l37.3 14 6.5-14-41.1-6.3z"/><path fill="#B3889D" d="M102.4 14.8L64.9 0l-3.6 8.5zM64.9 0l-6.3 14.8-6.7 14.1-8.1-6.3z"/><path fill="#EBBEA7" d="M54.5 38.8l-5 1.3 2.4 9.8h5.6zM95.9 28.8l5.4-1.3 2.3 8.5-5 2.8z"/><path fill="#734D60" d="M43.8 22.6l5.7 17.5 6.1 2.7-3.7-13.9zM102.4 14.8l-1.1 12.7-4.2 5.6-1.2-4.3z"/><path fill="#96637C" d="M84.9 28.4L77.2 30l-.5-2.5zM71 28.8l.8 2.4-7.3 1.9z"/><path fill="#734D60" d="M70.2 50l9.3-.6 7.9-3.5-8.7.9z"/><path fill="#FFF" d="M87.4 45.9l-4.5 5.2-5.4 1.3-7.3-2.4 9.3-.6z"/><path fill="#96637C" d="M87.4 45.9l-2.8 6.7-7.9 2-6.5-4.6 7.3 2.4 5.4-1.3z"/><circle fill="#2B2B2B" cx="68.7" cy="36.6" r="2.1"/><circle fill="#2B2B2B" cx="82.4" cy="33.6" r="2.1"/><g><path fill="#FCDAC7" d="M93.8 65.1l35.8 10-9.5 36.7-36.2-9.9z"/><path fill="#EBBEA7" d="M117 82.8l-5.3 2-4.9 6-2.7-2-3.4.5-.5-7.4-3.9-4.9 7 1.9 6.2 1.8z"/><path fill="#FDE9E0" d="M109.5 80.7l-2.7 10.1-6.1-1.5 2.6-10.4z"/><path fill="#A688BA" d="M93.8 65.1l23-8.4-7.2 12.8z"/><path fill="#9075A0" d="M116.8 56.7l28 16.3-15.2 2.1-20-5.6z"/><path fill="#EBBEA7" d="M129.6 75.1l2.8 16.7 4.3-2.1 5.5 5.5-26.6 28.7 4.5-12.1z"/><path fill="#785D88" d="M129.6 75.1l15.2-2.1-2.6 22.2-5.5-5.5-4.3 2.1z"/><path fill="#C2927D" d="M101.3 106.7l14.3 17.2 4.5-12.1zM135.8 102.1l-4.4-2.6v7.2z"/><path fill="#9075A0" d="M117 82.8l-6.8-4.7-.7 2.6zM104.1 76.4l-.8 2.5-7-1.9z"/><path fill="#C2927D" d="M106.8 90.8l-3.4 1.7-2.7-3.2z"/><circle fill="#2B2B2B" cx="112.5" cy="85.6" r="2"/><circle fill="#2B2B2B" cx="98.9" cy="82.3" r="2"/><path fill="#C2927D" d="M94.3 92.4l19.6 4.9-7.1 4.6-9.3-2.4z"/><path fill="#FFF" d="M109.8 97.7l-12.3-3.3 1.1 4 7.7 2z"/><path fill="#C2927D" d="M139.5 95.4l-3.8-2.2-2.2 4.9z"/></g><g><path fill="#C2927D" d="M57.6 123.7l-12.5 17.2-3.7-5.1-2.4-5.9 9.3-4z"/><path fill="#FCDAC7" d="M61.7 82.5l12.4 35.7L39 129.9l-2.4-3.6-.5-4.5-6.3-13.3-3.6-15.2z"/><path fill="#35785D" d="M61.7 82.5L52 90.9v-8.4l1.9-7.2h7.8z"/><path fill="#3F8F6F" d="M53.9 75.3l-15.6 8-12.1 10L52 90.9z"/><path fill="#54B08B" d="M53.9 75.3l-27.7 18-6.9 5.9-12.9 7 17.7-28.4z"/><path fill="#3F8F6F" d="M26.2 93.3l8.6 24.5-6.5 1.6-6.4-6.7-8.8 4.7-6.7-11.2z"/><path fill="#35785D" d="M34.8 117.8l-12.9-5.1-15.5-6.5 8 13.2 4.1-3.1 3.4-3.6 3 5.3 3.1 2.5h3.2z"/><path fill="#EBBEA7" d="M21.9 112.7l6.1 7.8 6.8-2.7 4.2 12.1 6.1 11-30.7-21.5z"/><path fill="#C2927D" d="M22.8 125.3l5-3.1-.6 6.2zM25.3 121l-3.8-5.1-3.7 2.9z"/><path fill="#EBBEA7" d="M38.5 103.7l8.8 2.5 5.2 4.2 5.1-1.6V103l2.8-6.9z"/><path fill="#FDE9E0" d="M48.8 100.1l3.7 10.3 5.1-1.6-3.7-10.5z"/><path fill="#C2927D" d="M57.6 108.8l-1.5 3-3.6-1.4z"/><path fill="#3F8F6F" d="M37.5 104.4l23.6-8.3-.7-2.8-23.3 10z"/><path fill="#C2927D" d="M46 116.7l18.5-6.3-1.7 6.8-10.7 3.7z"/><path fill="#FFF" d="M50.3 116.9l11.4-3.9-.5 3.2-8.4 2.7z"/><circle fill="#2B2B2B" cx="46.4" cy="105.9" r="2"/><circle fill="#2B2B2B" cx="59" cy="101.6" r="2"/></g><g><path fill="#DDDDDC" d="M150.1 43.5l-2.9-20.8-28.3-13.8-.9 17.8-11.3 4.9 10.9 2.6-.8 17.5zM31.1 61.1l10.5-3.3-6.3-25.7-35.3 9 8.1 27.2 15.6-4.9 10.5 7.4zM100.3 124.1l-1.2-11.6-6 9.9-15.4-3.4 2.7 31 26.1-3.4 5.4-19.9z"/><circle fill="#474747" cx="15.3" cy="50.1" r="1.7"/><circle fill="#474747" cx="21.5" cy="50.1" r="1.7"/><circle fill="#474747" cx="27.7" cy="50.1" r="1.7"/><circle fill="#474747" cx="126.5" cy="32.2" r="1.7"/><circle fill="#474747" cx="132.7" cy="32.2" r="1.7"/><circle fill="#474747" cx="138.9" cy="32.2" r="1.7"/><path fill="#474747" d="M89.6 134.8c0 1-.8 1.7-1.7 1.7-1 0-1.7-.8-1.7-1.7 0-1 .8-1.7 1.7-1.7.9 0 1.7.8 1.7 1.7z"/><circle fill="#474747" cx="94" cy="134.8" r="1.7"/><circle fill="#474747" cx="100.2" cy="134.8" r="1.7"/></g></g></svg>